<?xml version="1.0" encoding="UTF-8"?><svg id="uuid-0ac1e550-27a3-4d63-80e1-3796f6518a12" xmlns="http://www.w3.org/2000/svg" width="345.32" height="63.3" viewBox="0 0 345.32 63.3"><text transform="translate(0 45.85)" font-family="LTCushion, &apos;LT Cushion&apos;" font-size="53.87" font-variation-settings="&apos;wght&apos; 300"><tspan x="0" y="0" xml:space="preserve">studio      aurore</tspan></text><g><path d="M166.66,28.47c3.94-.03,7.36,3.22,7.46,7.13,0,.11-.11,.23-.17,.35-.06-.11-.18-.22-.19-.34-.18-3.33-2.56-5.84-5.36-6.55-4.28-1.08-8.56,2.04-8.81,6.43,0,.08,.02,.17-.02,.23-.05,.09-.14,.15-.21,.23-.05-.08-.15-.16-.15-.23,.03-.42,.05-.86,.14-1.27,.72-3.48,3.74-5.94,7.29-5.97Z" stroke="#000" stroke-miterlimit="10" stroke-width=".41"/><path d="M166.55,19.48v7.84s-.08,.05-.13,.07c-.07-.11-.2-.21-.21-.32-.03-.33-.01-.67-.01-1,0-2.07,0-4.14,0-6.21,0-.21-.07-.5,.34-.38Z" stroke="#000" stroke-miterlimit="10" stroke-width=".41"/><path d="M154.34,35.89c-1.19,0-2.37,0-3.56,0-.13,0-.26-.11-.39-.17,.13-.06,.26-.18,.39-.18,2.39-.01,4.78-.01,7.17,0,.12,0,.25,.13,.37,.2-.12,.05-.24,.15-.37,.15-1.2,.01-2.4,0-3.61,0Z" stroke="#000" stroke-miterlimit="10" stroke-width=".41"/><path d="M175.07,35.87c-.11-.31,.06-.35,.29-.34,.59,0,1.19,0,1.78,0,1.76,0,3.53,0,5.29,0,.09,0,.19-.02,.27,0,.09,.04,.16,.13,.24,.19-.07,.06-.14,.12-.22,.16-.03,.02-.09,0-.13,0-2.42,0-4.84,0-7.26,0-.09,0-.18-.02-.26-.02Z" stroke="#000" stroke-miterlimit="10" stroke-width=".41"/><path d="M160.25,29.91c-1.78-1.79-3.57-3.58-5.35-5.37-.07-.07-.06-.22-.08-.33,.11,.02,.26,0,.33,.08,1.74,1.73,3.48,3.46,5.2,5.2,.08,.08,.06,.25,.09,.38-.06,.02-.13,.03-.19,.05Z" stroke="#000" stroke-miterlimit="10" stroke-width=".41"/><path d="M178.4,24.15c.38,.2,.17,.34,.02,.5-1.04,1.04-2.09,2.09-3.13,3.14-.67,.67-1.33,1.34-2.01,1.99-.07,.07-.22,.05-.33,.08,.03-.11,.02-.26,.09-.33,1.78-1.79,3.57-3.58,5.37-5.37Z" stroke="#000" stroke-miterlimit="10" stroke-width=".41"/><path d="M158.46,32.57c-1.72-.66-3.43-1.31-5.13-1.98-.1-.04-.15-.2-.23-.3,.04-.04,.08-.08,.12-.12,.51,.19,1.01,.38,1.52,.58,1.18,.45,2.36,.9,3.54,1.36,.2,.08,.45,.13,.17,.46Z" stroke="#000" stroke-miterlimit="10" stroke-width=".41"/><path d="M170.03,27.99c-.04-.11-.15-.25-.12-.33,.61-1.72,1.24-3.43,1.86-5.15,.05-.01,.1-.02,.15-.03,.04,.11,.15,.25,.12,.34-.61,1.72-1.24,3.43-1.86,5.14l-.15,.03Z" stroke="#000" stroke-miterlimit="10" stroke-width=".41"/><path d="M161.18,22.57c.62,1.7,1.24,3.4,1.85,5.11,.03,.08-.05,.2-.07,.3-.1-.08-.25-.15-.29-.25-.54-1.46-1.07-2.92-1.6-4.38-.06-.16-.14-.31-.16-.47-.01-.11,.06-.24,.1-.35,.06,.02,.12,.04,.17,.05Z" stroke="#000" stroke-miterlimit="10" stroke-width=".41"/><path d="M179.81,30.66c-1.66,.64-3.31,1.27-4.97,1.91-.04-.03-.08-.05-.13-.08,.06-.11,.09-.29,.18-.33,1.53-.6,3.06-1.19,4.6-1.77,.09-.03,.23,.06,.34,.1,0,.06-.02,.11-.03,.17Z" stroke="#000" stroke-miterlimit="10" stroke-width=".41"/></g></svg>