<?xml version="1.0" encoding="UTF-8"?>
<svg id="Layer_2" data-name="Layer 2" xmlns="http://www.w3.org/2000/svg" viewBox="0 0 447.37 82.01">
  <defs>
    <style>
      .cls-1 {
        font-family: LTCushion, 'LT Cushion';
        font-size: 69.91px;
        font-variation-settings: 'wght' 300;
      }

      .cls-2 {
        stroke: #000;
        stroke-miterlimit: 10;
        stroke-width: .53px;
      }
    </style>
  </defs>
  <g id="Layer_1-2" data-name="Layer 1">
    <text class="cls-1" transform="translate(0 59.43)"><tspan x="0" y="0" xml:space="preserve">studio      aurore</tspan></text>
    <g>
      <path class="cls-2" d="M216.28,36.88c5.12-.04,9.55,4.19,9.68,9.25,0,.15-.14,.3-.22,.45-.08-.15-.23-.29-.24-.44-.24-4.33-3.32-7.57-6.96-8.5-5.55-1.4-11.11,2.64-11.43,8.35,0,.1,.02,.22-.02,.29-.06,.11-.18,.2-.27,.29-.07-.1-.2-.21-.19-.3,.04-.55,.06-1.11,.18-1.65,.94-4.51,4.85-7.71,9.47-7.75Z"/>
      <path class="cls-2" d="M216.14,25.2v10.17c-.05,.03-.11,.06-.16,.09-.1-.14-.26-.27-.27-.42-.04-.43-.01-.87-.01-1.3,0-2.69,0-5.38,0-8.06,0-.28-.09-.65,.45-.49Z"/>
      <path class="cls-2" d="M200.29,46.51c-1.54,0-3.08,0-4.62-.01-.17,0-.34-.14-.51-.22,.17-.08,.34-.24,.51-.24,3.1-.01,6.2-.01,9.3,0,.16,0,.32,.17,.48,.26-.16,.07-.32,.19-.48,.2-1.56,.01-3.12,0-4.68,0Z"/>
      <path class="cls-2" d="M227.2,46.48c-.14-.41,.08-.45,.38-.45,.77,0,1.54,0,2.31,0,2.29,0,4.58,0,6.87,0,.12,0,.25-.03,.35,.01,.12,.05,.21,.16,.31,.25-.09,.07-.18,.15-.29,.21-.04,.03-.12,0-.18,0-3.14,0-6.28,0-9.42,0-.11,0-.23-.02-.34-.03Z"/>
      <path class="cls-2" d="M207.97,38.74c-2.32-2.32-4.63-4.64-6.94-6.97-.09-.09-.07-.28-.11-.43,.15,.03,.34,.01,.43,.1,2.26,2.24,4.51,4.49,6.75,6.75,.1,.1,.08,.32,.11,.49-.08,.02-.16,.05-.25,.07Z"/>
      <path class="cls-2" d="M231.52,31.27c.49,.26,.22,.44,.02,.64-1.36,1.36-2.71,2.71-4.07,4.07-.87,.87-1.73,1.74-2.61,2.59-.09,.09-.28,.07-.43,.1,.03-.14,.02-.33,.11-.42,2.31-2.33,4.64-4.64,6.97-6.97Z"/>
      <path class="cls-2" d="M205.64,42.2c-2.23-.86-4.45-1.7-6.65-2.57-.13-.05-.2-.26-.29-.39,.05-.05,.1-.1,.16-.15,.66,.25,1.32,.5,1.97,.75,1.53,.59,3.06,1.17,4.59,1.76,.25,.1,.59,.17,.22,.6Z"/>
      <path class="cls-2" d="M220.66,36.26c-.06-.15-.2-.32-.16-.43,.79-2.23,1.61-4.45,2.42-6.68,.06-.01,.13-.03,.19-.04,.06,.15,.2,.33,.16,.44-.79,2.23-1.61,4.45-2.41,6.67l-.19,.04Z"/>
      <path class="cls-2" d="M209.17,29.22c.8,2.21,1.61,4.42,2.4,6.63,.04,.1-.06,.25-.09,.38-.13-.11-.32-.19-.37-.33-.7-1.89-1.39-3.78-2.08-5.68-.07-.2-.19-.4-.21-.61-.02-.15,.08-.31,.13-.46,.08,.02,.15,.05,.23,.07Z"/>
      <path class="cls-2" d="M233.35,39.72c-2.15,.83-4.3,1.65-6.45,2.48-.05-.03-.11-.07-.16-.1,.08-.15,.12-.38,.23-.43,1.98-.78,3.97-1.55,5.97-2.29,.12-.04,.29,.08,.44,.13-.01,.07-.02,.15-.04,.22Z"/>
    </g>
  </g>
</svg>