<?xml version="1.0" standalone="no"?>
<!DOCTYPE svg PUBLIC "-//W3C//DTD SVG 1.1//EN" "http://www.w3.org/Graphics/SVG/1.1/DTD/svg11.dtd" >
<svg xmlns="http://www.w3.org/2000/svg" xmlns:xlink="http://www.w3.org/1999/xlink" version="1.1">
<metadata>
Created by FontForge 20201107 at Wed Oct 18 02:12:54 2023
 By Unknown
Copyright (c) 2022 by LyonsType. All rights reserved.
</metadata>
<defs>
<font id="LTCushion" horiz-adv-x="444" >
  <font-face 
    font-family="LT Cushion Light"
    font-weight="300"
    font-stretch="normal"
    units-per-em="1000"
    panose-1="0 0 0 0 0 0 0 0 0 0"
    ascent="750"
    descent="-250"
    x-height="479"
    cap-height="690"
    bbox="-27 -322.957 981 941"
    underline-thickness="50"
    underline-position="-100"
    unicode-range="U+0020-20AC"
  />
    <missing-glyph />
    <glyph glyph-name="space" unicode=" " horiz-adv-x="200" 
 />
    <glyph glyph-name="A" unicode="A" horiz-adv-x="647" 
d="M494 82q7 -21 2 -32t-14 -17t-18 -10t-9 -12q0 -4 2 -6.5t5 -3.5q2 -1 6 -1h151q3 0 6 1q2 1 4 3.5t2 6.5q0 6 -7.5 11t-17.5 10t-19.5 12.5t-13.5 18.5q-41 115 -72.5 204.5t-55.5 156.5t-41 114t-27.5 77t-16.5 45.5t-7 19.5t-3.5 6.5t-5.5 3.5t-7 1h-35q-3 0 -6 -1
q-2 -1 -4.5 -3.5t-3.5 -6.5t-11 -31.5t-25.5 -72t-36.5 -103.5t-45 -126t-50 -139.5t-51 -144.5q-4 -11 -13.5 -18.5t-19.5 -12.5t-17.5 -10t-7.5 -11q0 -4 2 -6.5t4 -3.5q3 -1 6 -1h132q4 0 7 1q2 1 4 3.5t2 6.5q0 7 -9.5 12.5t-20 12t-16.5 16.5t0 27l68 190h237zM309 602
l102 -288h-205z" />
    <glyph glyph-name="Aacute" unicode="&#xc1;" horiz-adv-x="647" 
d="M493 82q7 -21 2 -32t-14 -17t-18 -10t-9 -12q0 -4 2 -6.5t5 -3.5q2 -1 6 -1h151q3 0 6 1q2 1 4 3.5t2 6.5q0 6 -7.5 11t-17.5 10t-19.5 12.5t-13.5 18.5q-41 115 -72.5 204.5t-55.5 156.5t-41 114t-27.5 77t-16.5 45.5t-7 19.5t-3.5 6.5t-5.5 3.5t-7 1h-35q-3 0 -6 -1
q-2 -1 -4.5 -3.5t-3.5 -6.5t-11 -31.5t-25.5 -72t-36.5 -103.5t-45 -126t-50 -139.5t-51 -144.5q-4 -11 -13.5 -18.5t-19.5 -12.5t-17.5 -10t-7.5 -11q0 -4 2 -6.5t4 -3.5q3 -1 6 -1h132q4 0 7 1q2 1 4 3.5t2 6.5q0 7 -9.5 12.5t-20 12t-16.5 16.5t0 27l68 190h237zM308 602
l102 -288h-205zM379 807q16 11 17 25.5t-6.5 24.5t-21.5 12.5t-29 -11.5q-25 -22 -46 -41.5t-35 -35t-20.5 -26.5t-2.5 -17q4 -5 16.5 -2.5t32 11.5t44 24.5t51.5 35.5z" />
    <glyph glyph-name="Acircumflex" unicode="&#xc2;" horiz-adv-x="647" 
d="M493 82q7 -21 2 -32t-14 -17t-18 -10t-9 -12q0 -4 2 -6.5t5 -3.5q2 -1 6 -1h151q3 0 6 1q2 1 4 3.5t2 6.5q0 6 -7.5 11t-17.5 10t-19.5 12.5t-13.5 18.5q-41 115 -72.5 204.5t-55.5 156.5t-41 114t-27.5 77t-16.5 45.5t-7 19.5t-3.5 6.5t-5.5 3.5t-7 1h-35q-3 0 -6 -1
q-2 -1 -4.5 -3.5t-3.5 -6.5t-11 -31.5t-25.5 -72t-36.5 -103.5t-45 -126t-50 -139.5t-51 -144.5q-4 -11 -13.5 -18.5t-19.5 -12.5t-17.5 -10t-7.5 -11q0 -4 2 -6.5t4 -3.5q3 -1 6 -1h132q4 0 7 1q2 1 4 3.5t2 6.5q0 7 -9.5 12.5t-20 12t-16.5 16.5t0 27l68 190h237zM308 602
l102 -288h-205zM295 858q-50 -45 -81 -77t-23 -43q3 -5 15 0t29.5 16.5t39.5 28t47 34.5q25 -18 47.5 -34.5t40 -28t29 -16.5t15.5 0q8 11 -23 43t-81 77q-14 12 -28 11.5t-27 -11.5z" />
    <glyph glyph-name="Adieresis" unicode="&#xc4;" horiz-adv-x="647" 
d="M493 82q7 -21 2 -32t-14 -17t-18 -10t-9 -12q0 -4 2 -6.5t5 -3.5q2 -1 6 -1h151q3 0 6 1q2 1 4 3.5t2 6.5q0 6 -7.5 11t-17.5 10t-19.5 12.5t-13.5 18.5q-41 115 -72.5 204.5t-55.5 156.5t-41 114t-27.5 77t-16.5 45.5t-7 19.5t-3.5 6.5t-5.5 3.5t-7 1h-35q-3 0 -6 -1
q-2 -1 -4.5 -3.5t-3.5 -6.5t-11 -31.5t-25.5 -72t-36.5 -103.5t-45 -126t-50 -139.5t-51 -144.5q-4 -11 -13.5 -18.5t-19.5 -12.5t-17.5 -10t-7.5 -11q0 -4 2 -6.5t4 -3.5q3 -1 6 -1h132q4 0 7 1q2 1 4 3.5t2 6.5q0 7 -9.5 12.5t-20 12t-16.5 16.5t0 27l68 190h237zM308 602
l102 -288h-205zM185 800q0 -21 14 -35t35 -14t35.5 14t14.5 35t-14.5 35.5t-35.5 14.5t-35 -14.5t-14 -35.5zM361 800q0 -21 14 -35t35 -14t35.5 14t14.5 35t-14.5 35.5t-35.5 14.5t-35 -14.5t-14 -35.5z" />
    <glyph glyph-name="Agrave" unicode="&#xc0;" horiz-adv-x="647" 
d="M493 82q7 -21 2 -32t-14 -17t-18 -10t-9 -12q0 -4 2 -6.5t5 -3.5q2 -1 6 -1h151q3 0 6 1q2 1 4 3.5t2 6.5q0 6 -7.5 11t-17.5 10t-19.5 12.5t-13.5 18.5q-41 115 -72.5 204.5t-55.5 156.5t-41 114t-27.5 77t-16.5 45.5t-7 19.5t-3.5 6.5t-5.5 3.5t-7 1h-35q-3 0 -6 -1
q-2 -1 -4.5 -3.5t-3.5 -6.5t-11 -31.5t-25.5 -72t-36.5 -103.5t-45 -126t-50 -139.5t-51 -144.5q-4 -11 -13.5 -18.5t-19.5 -12.5t-17.5 -10t-7.5 -11q0 -4 2 -6.5t4 -3.5q3 -1 6 -1h132q4 0 7 1q2 1 4 3.5t2 6.5q0 7 -9.5 12.5t-20 12t-16.5 16.5t0 27l68 190h237zM308 602
l102 -288h-205zM208 807q27 -20 51.5 -35.5t44 -24.5t32 -11.5t16.5 2.5q4 6 -2 17t-20.5 26.5t-35.5 35t-46 41.5q-15 14 -29 11.5t-21.5 -12.5t-6.5 -24.5t17 -25.5z" />
    <glyph glyph-name="Aring" unicode="&#xc5;" horiz-adv-x="647" 
d="M227 846q0 -42 26.5 -68.5t68.5 -26.5q40 0 67.5 26.5t27.5 68.5q0 20 -7.5 37.5t-20 30t-30 20t-37.5 7.5q-42 0 -68.5 -27.5t-26.5 -67.5zM265 846q0 24 16 40.5t41 16.5q24 0 40.5 -16.5t16.5 -40.5q0 -25 -16.5 -41t-40.5 -16q-25 0 -41 16t-16 41zM493 82
q7 -21 2 -32t-14 -17t-18 -10t-9 -12q0 -4 2 -6.5t5 -3.5q2 -1 6 -1h151q3 0 6 1q2 1 4 3.5t2 6.5q0 6 -7.5 11t-17.5 10t-19.5 12.5t-13.5 18.5q-41 115 -72.5 204.5t-55.5 156.5t-41 114t-27.5 77t-16.5 45.5t-7 19.5t-3.5 6.5t-5.5 3.5t-7 1h-35q-3 0 -6 -1
q-2 -1 -4.5 -3.5t-3.5 -6.5t-11 -31.5t-25.5 -72t-36.5 -103.5t-45 -126t-50 -139.5t-51 -144.5q-4 -11 -13.5 -18.5t-19.5 -12.5t-17.5 -10t-7.5 -11q0 -4 2 -6.5t4 -3.5q3 -1 6 -1h132q4 0 7 1q2 1 4 3.5t2 6.5q0 7 -9.5 12.5t-20 12t-16.5 16.5t0 27l68 190h237zM308 602
l102 -288h-205z" />
    <glyph glyph-name="Atilde" unicode="&#xc3;" horiz-adv-x="647" 
d="M493 82q7 -21 2 -32t-14 -17t-18 -10t-9 -12q0 -4 2 -6.5t5 -3.5q2 -1 6 -1h151q3 0 6 1q2 1 4 3.5t2 6.5q0 6 -7.5 11t-17.5 10t-19.5 12.5t-13.5 18.5q-41 115 -72.5 204.5t-55.5 156.5t-41 114t-27.5 77t-16.5 45.5t-7 19.5t-3.5 6.5t-5.5 3.5t-7 1h-35q-3 0 -6 -1
q-2 -1 -4.5 -3.5t-3.5 -6.5t-11 -31.5t-25.5 -72t-36.5 -103.5t-45 -126t-50 -139.5t-51 -144.5q-4 -11 -13.5 -18.5t-19.5 -12.5t-17.5 -10t-7.5 -11q0 -4 2 -6.5t4 -3.5q3 -1 6 -1h132q4 0 7 1q2 1 4 3.5t2 6.5q0 7 -9.5 12.5t-20 12t-16.5 16.5t0 27l68 190h237zM308 602
l102 -288h-205zM484 818q4 11 3.5 17.5t-4 9t-9.5 -0.5t-14 -11q-14 -14 -25.5 -19.5t-25.5 -7.5q-15 -1 -33 5.5t-38 15.5t-41.5 16.5t-43.5 7.5q-13 0 -26.5 -3.5t-25.5 -11t-22.5 -19t-17.5 -29.5q-4 -10 -4 -17t4 -9t10 0.5t14 10.5q16 17 29.5 23t32.5 4q14 -1 30 -8
t33.5 -15t36.5 -15t38 -7q14 0 28 3t27.5 10t25 19t18.5 31z" />
    <glyph glyph-name="B" unicode="B" horiz-adv-x="576" 
d="M549 183q1 27 -7.5 55.5t-26 53t-44 42.5t-62.5 25q32 8 54.5 24t36.5 37.5t20.5 47t5.5 52.5q-1 39 -15 70.5t-41.5 53.5t-68.5 34t-95 12h-255q-3 0 -6 -1q-2 -1 -4 -3.5t-2 -6.5q0 -6 7 -11t16 -10t16 -12.5t7 -18.5v-564q0 -11 -7 -18.5t-16 -12.5t-16 -10t-7 -11
q0 -4 2 -6.5t4 -3.5q3 -1 6 -1h285q54 0 94 14t66 38.5t39 58t14 72.5zM155 315q2 8 9 13t18 5h131q48 0 80.5 -15t52 -37t27 -48t7.5 -49q0 -31 -9.5 -57.5t-29.5 -46t-51 -30t-74 -10.5h-134q-11 0 -19 8.5t-8 19.5v247zM182 650h104q43 0 75 -8.5t53 -25.5t32 -41t11 -56
q0 -34 -12 -61t-33.5 -46t-52 -29t-66.5 -10h-115q-10 1 -15.5 5.5t-7.5 12.5v231q0 11 8 19.5t19 8.5z" />
    <glyph glyph-name="C" unicode="C" horiz-adv-x="626" 
d="M374 24q-58 0 -106 24.5t-82 67.5t-53 102.5t-19 129.5t19 129.5t53 102.5t82 67.5t106 24.5q21 0 48 -5t52 -17t45 -30.5t29 -45.5q9 -29 15 -45t17 -16q4 0 6.5 2t3.5 4q1 3 1 6v87q0 19 -18.5 36.5t-48.5 31t-69 21.5t-81 8q-91 0 -155 -33t-105 -85.5t-60 -116.5
t-19 -126t19 -126t60 -116.5t105 -85.5t155 -33q42 0 81 8t69 21.5t48.5 31t18.5 36.5v87q0 3 -1 6q-1 2 -3.5 4t-6.5 2q-11 0 -17 -16t-15 -45q-9 -27 -29 -45.5t-45 -30.5t-52 -17t-48 -5z" />
    <glyph glyph-name="Ccedilla" unicode="&#xc7;" horiz-adv-x="626" 
d="M373 24q-58 0 -106 24.5t-82 67.5t-53 102.5t-19 129.5t19 129.5t53 102.5t82 67.5t106 24.5q21 0 48 -5t52 -17t45 -30.5t29 -45.5q9 -29 15 -45t17 -16q4 0 6.5 2t3.5 4q1 3 1 6v87q0 19 -18.5 36.5t-48.5 31t-69 21.5t-81 8q-91 0 -155 -33t-105 -85.5t-60 -116.5
t-19 -126t19 -126t60 -116.5t105 -85.5t155 -33q42 0 81 8t69 21.5t48.5 31t18.5 36.5v87q0 3 -1 6q-1 2 -3.5 4t-6.5 2q-11 0 -17 -16t-15 -45q-9 -27 -29 -45.5t-45 -30.5t-52 -17t-48 -5zM313 -81q-2 -5 -1.5 -8t4.5 -5q11 -5 21 -12.5t17 -16.5t9 -19.5t-3 -23.5
q-5 -15 -15 -25t-21 -16.5t-22 -10t-18 -5.5q-8 -2 -11 -4t-5 -5q-2 -5 0 -9t7 -6t24 -0.5t41.5 10t43.5 24t31 42.5q8 21 5.5 39t-11.5 32.5t-22.5 24.5t-28.5 15l23 60h-37z" />
    <glyph glyph-name="D" unicode="D" horiz-adv-x="647" 
d="M222 0q107 0 182.5 31t123.5 81t70.5 112t22.5 124q0 61 -22.5 122t-70.5 110t-123.5 79.5t-182.5 30.5h-171q-3 0 -6 -1q-2 -1 -4 -3.5t-2 -6.5q0 -6 7 -11t16 -10t16 -12.5t7 -18.5v-564q0 -11 -7 -18.5t-16 -12.5t-16 -10t-7 -11q0 -4 2 -6.5t4 -3.5q3 -1 6 -1h171z
M155 616q0 14 6.5 24t22.5 10h58q67 0 123.5 -21.5t97 -60.5t63.5 -95t23 -125q0 -70 -23 -127t-63.5 -97t-97 -62t-123.5 -22h-58q-16 0 -22.5 10t-6.5 24v542z" />
    <glyph glyph-name="E" unicode="E" horiz-adv-x="552" 
d="M404 345q11 0 19 -7t14 -16t11.5 -16t11.5 -7q4 0 6.5 2t3.5 4q1 3 1 6v112q0 3 -1 6q-1 2 -3.5 4t-6.5 2q-6 0 -11.5 -7t-11.5 -16t-14 -16t-19 -7h-249v227q0 14 6.5 24t22.5 10h212q32 0 47.5 -14t24.5 -31t15.5 -31t20.5 -14q4 0 6.5 2.5t3.5 5.5t1 7l-5 99
q-1 5 -3 9q-2 3 -6 6t-11 3q-13 0 -21 -1t-31 -1h-387q-3 0 -6 -1q-2 -1 -4 -3.5t-2 -6.5q0 -6 7 -11t16 -10t16 -12.5t7 -18.5v-564q0 -11 -7 -18.5t-16 -12.5t-16 -10t-7 -11q0 -4 2 -6.5t4 -3.5q3 -1 6 -1h385q23 0 31 -1t21 -1q7 0 11 3t7 6q3 4 4 9l16 99v8
q-1 2 -3 4.5t-6 2.5q-11 0 -18.5 -14t-19.5 -31t-33 -31t-59 -14h-180q-29 0 -40.5 14t-11.5 33v258h249z" />
    <glyph glyph-name="Eacute" unicode="&#xc9;" horiz-adv-x="552" 
d="M403 345q11 0 19 -7t14 -16t11.5 -16t11.5 -7q4 0 6.5 2t3.5 4q1 3 1 6v112q0 3 -1 6q-1 2 -3.5 4t-6.5 2q-6 0 -11.5 -7t-11.5 -16t-14 -16t-19 -7h-249v227q0 14 6.5 24t22.5 10h212q32 0 47.5 -14t24.5 -31t15.5 -31t20.5 -14q4 0 6.5 2.5t3.5 5.5t1 7l-5 99
q-1 5 -3 9q-2 3 -6 6t-11 3q-13 0 -21 -1t-31 -1h-387q-3 0 -6 -1q-2 -1 -4 -3.5t-2 -6.5q0 -6 7 -11t16 -10t16 -12.5t7 -18.5v-564q0 -11 -7 -18.5t-16 -12.5t-16 -10t-7 -11q0 -4 2 -6.5t4 -3.5q3 -1 6 -1h385q23 0 31 -1t21 -1q7 0 11 3t7 6q3 4 4 9l16 99v8
q-1 2 -3 4.5t-6 2.5q-11 0 -18.5 -14t-19.5 -31t-33 -31t-59 -14h-180q-29 0 -40.5 14t-11.5 33v258h249zM331 807q16 11 17 25.5t-6.5 24.5t-21.5 12.5t-29 -11.5q-25 -22 -46 -41.5t-35 -35t-20.5 -26.5t-2.5 -17q4 -5 16.5 -2.5t32 11.5t44 24.5t51.5 35.5z" />
    <glyph glyph-name="Ecircumflex" unicode="&#xca;" horiz-adv-x="552" 
d="M403 345q11 0 19 -7t14 -16t11.5 -16t11.5 -7q4 0 6.5 2t3.5 4q1 3 1 6v112q0 3 -1 6q-1 2 -3.5 4t-6.5 2q-6 0 -11.5 -7t-11.5 -16t-14 -16t-19 -7h-249v227q0 14 6.5 24t22.5 10h212q32 0 47.5 -14t24.5 -31t15.5 -31t20.5 -14q4 0 6.5 2.5t3.5 5.5t1 7l-5 99
q-1 5 -3 9q-2 3 -6 6t-11 3q-13 0 -21 -1t-31 -1h-387q-3 0 -6 -1q-2 -1 -4 -3.5t-2 -6.5q0 -6 7 -11t16 -10t16 -12.5t7 -18.5v-564q0 -11 -7 -18.5t-16 -12.5t-16 -10t-7 -11q0 -4 2 -6.5t4 -3.5q3 -1 6 -1h385q23 0 31 -1t21 -1q7 0 11 3t7 6q3 4 4 9l16 99v8
q-1 2 -3 4.5t-6 2.5q-11 0 -18.5 -14t-19.5 -31t-33 -31t-59 -14h-180q-29 0 -40.5 14t-11.5 33v258h249zM247 858q-50 -45 -81 -77t-23 -43q3 -5 15 0t29.5 16.5t39.5 28t47 34.5q25 -18 47.5 -34.5t40 -28t29 -16.5t15.5 0q8 11 -23 43t-81 77q-14 12 -28 11.5t-27 -11.5z
" />
    <glyph glyph-name="Edieresis" unicode="&#xcb;" horiz-adv-x="552" 
d="M403 345q11 0 19 -7t14 -16t11.5 -16t11.5 -7q4 0 6.5 2t3.5 4q1 3 1 6v112q0 3 -1 6q-1 2 -3.5 4t-6.5 2q-6 0 -11.5 -7t-11.5 -16t-14 -16t-19 -7h-249v227q0 14 6.5 24t22.5 10h212q32 0 47.5 -14t24.5 -31t15.5 -31t20.5 -14q4 0 6.5 2.5t3.5 5.5t1 7l-5 99
q-1 5 -3 9q-2 3 -6 6t-11 3q-13 0 -21 -1t-31 -1h-387q-3 0 -6 -1q-2 -1 -4 -3.5t-2 -6.5q0 -6 7 -11t16 -10t16 -12.5t7 -18.5v-564q0 -11 -7 -18.5t-16 -12.5t-16 -10t-7 -11q0 -4 2 -6.5t4 -3.5q3 -1 6 -1h385q23 0 31 -1t21 -1q7 0 11 3t7 6q3 4 4 9l16 99v8
q-1 2 -3 4.5t-6 2.5q-11 0 -18.5 -14t-19.5 -31t-33 -31t-59 -14h-180q-29 0 -40.5 14t-11.5 33v258h249zM137 800q0 -21 14 -35t35 -14t35.5 14t14.5 35t-14.5 35.5t-35.5 14.5t-35 -14.5t-14 -35.5zM313 800q0 -21 14 -35t35 -14t35.5 14t14.5 35t-14.5 35.5t-35.5 14.5
t-35 -14.5t-14 -35.5z" />
    <glyph glyph-name="Egrave" unicode="&#xc8;" horiz-adv-x="552" 
d="M403 345q11 0 19 -7t14 -16t11.5 -16t11.5 -7q4 0 6.5 2t3.5 4q1 3 1 6v112q0 3 -1 6q-1 2 -3.5 4t-6.5 2q-6 0 -11.5 -7t-11.5 -16t-14 -16t-19 -7h-249v227q0 14 6.5 24t22.5 10h212q32 0 47.5 -14t24.5 -31t15.5 -31t20.5 -14q4 0 6.5 2.5t3.5 5.5t1 7l-5 99
q-1 5 -3 9q-2 3 -6 6t-11 3q-13 0 -21 -1t-31 -1h-387q-3 0 -6 -1q-2 -1 -4 -3.5t-2 -6.5q0 -6 7 -11t16 -10t16 -12.5t7 -18.5v-564q0 -11 -7 -18.5t-16 -12.5t-16 -10t-7 -11q0 -4 2 -6.5t4 -3.5q3 -1 6 -1h385q23 0 31 -1t21 -1q7 0 11 3t7 6q3 4 4 9l16 99v8
q-1 2 -3 4.5t-6 2.5q-11 0 -18.5 -14t-19.5 -31t-33 -31t-59 -14h-180q-29 0 -40.5 14t-11.5 33v258h249zM218 807q27 -20 51.5 -35.5t44 -24.5t32 -11.5t16.5 2.5q4 6 -2 17t-20.5 26.5t-35.5 35t-46 41.5q-15 14 -29 11.5t-21.5 -12.5t-6.5 -24.5t17 -25.5z" />
    <glyph glyph-name="F" unicode="F" horiz-adv-x="552" 
d="M404 345q11 0 19 -7t14 -16t11.5 -16t11.5 -7q4 0 6.5 2t3.5 4q1 3 1 6v112q0 3 -1 6q-1 2 -3.5 4t-6.5 2q-6 0 -11.5 -7t-11.5 -16t-14 -16t-19 -7h-249v227q0 14 6.5 24t22.5 10h212q32 0 47.5 -14t24.5 -31t15.5 -31t20.5 -14q4 0 6.5 2.5t3.5 5.5t1 7l-5 99
q-1 5 -3 9q-2 3 -6 6t-11 3q-13 0 -21 -1t-31 -1h-387q-3 0 -6 -1q-2 -1 -4 -3.5t-2 -6.5q0 -6 7 -11t16 -10t16 -12.5t7 -18.5v-564q0 -11 -7 -18.5t-16 -12.5t-16 -10t-7 -11q0 -4 2 -6.5t4 -3.5q3 -1 6 -1h138q3 0 6 1q2 1 4 3.5t2 6.5q0 6 -7 11t-16 10t-16 12.5
t-7 18.5v282h249z" />
    <glyph glyph-name="G" unicode="G" horiz-adv-x="660" 
d="M591 257q0 11 7 18.5t16 12.5t16 10t7 11q0 4 -2 6.5t-4 3.5q-3 1 -6 1h-158q-3 0 -6 -1q-2 -1 -4 -3.5t-2 -6.5q0 -9 10.5 -12.5t22.5 -9t22.5 -16.5t10.5 -34v-128q0 -22 -13 -38t-34 -26.5t-47.5 -15.5t-52.5 -5q-58 0 -106.5 24.5t-83 67.5t-53.5 102.5t-19 129.5
t19 129.5t53.5 102.5t83 67.5t106.5 24.5q21 0 48 -5t52 -17t45 -30.5t29 -45.5q9 -29 15 -45t17 -16q4 0 6.5 2t3.5 4q1 3 1 6v87q0 19 -18.5 36.5t-48.5 31t-69 21.5t-81 8q-91 0 -155 -33t-105 -85.5t-60 -116.5t-19 -126t19 -126t60 -116.5t105 -85.5t155 -33q42 0 81 8
t69 21.5t48.5 31t18.5 36.5v173z" />
    <glyph glyph-name="H" unicode="H" horiz-adv-x="680" 
d="M595 627q0 11 7 18.5t16 12.5t16 10t7 11q0 4 -2 6.5t-4 3.5q-3 1 -6 1h-138q-3 0 -6 -1q-2 -1 -4 -3.5t-2 -6.5q0 -6 7 -11t16 -10t16 -12.5t7 -18.5v-256h-370v256q0 11 7 18.5t16 12.5t16 10t7 11q0 4 -2 6.5t-4 3.5q-3 1 -6 1h-138q-3 0 -6 -1q-2 -1 -4 -3.5t-2 -6.5
q0 -6 7 -11t16 -10t16 -12.5t7 -18.5v-564q0 -11 -7 -18.5t-16 -12.5t-16 -10t-7 -11q0 -4 2 -6.5t4 -3.5q3 -1 6 -1h138q3 0 6 1q2 1 4 3.5t2 6.5q0 6 -7 11t-16 10t-16 12.5t-7 18.5v263h370v-263q0 -11 -7 -18.5t-16 -12.5t-16 -10t-7 -11q0 -4 2 -6.5t4 -3.5q3 -1 6 -1
h138q3 0 6 1q2 1 4 3.5t2 6.5q0 6 -7 11t-16 10t-16 12.5t-7 18.5v564z" />
    <glyph glyph-name="I" unicode="I" horiz-adv-x="240" 
d="M155 627q0 11 7 18.5t16 12.5t16 10t7 11q0 4 -2 6.5t-4 3.5q-3 1 -6 1h-138q-3 0 -6 -1q-2 -1 -4 -3.5t-2 -6.5q0 -6 7 -11t16 -10t16 -12.5t7 -18.5v-564q0 -11 -7 -18.5t-16 -12.5t-16 -10t-7 -11q0 -4 2 -6.5t4 -3.5q3 -1 6 -1h138q3 0 6 1q2 1 4 3.5t2 6.5
q0 6 -7 11t-16 10t-16 12.5t-7 18.5v564z" />
    <glyph glyph-name="Iacute" unicode="&#xcd;" horiz-adv-x="240" 
d="M157 627q0 11 7 18.5t16 12.5t16 10t7 11q0 4 -2 6.5t-4 3.5q-3 1 -6 1h-138q-3 0 -6 -1q-2 -1 -4 -3.5t-2 -6.5q0 -6 7 -11t16 -10t16 -12.5t7 -18.5v-564q0 -11 -7 -18.5t-16 -12.5t-16 -10t-7 -11q0 -4 2 -6.5t4 -3.5q3 -1 6 -1h138q3 0 6 1q2 1 4 3.5t2 6.5
q0 6 -7 11t-16 10t-16 12.5t-7 18.5v564zM179 807q16 11 17 25.5t-6.5 24.5t-21.5 12.5t-29 -11.5q-25 -22 -46 -41.5t-35 -35t-20.5 -26.5t-2.5 -17q4 -5 16.5 -2.5t32 11.5t44 24.5t51.5 35.5z" />
    <glyph glyph-name="Icircumflex" unicode="&#xce;" horiz-adv-x="240" 
d="M161 627q0 11 7 18.5t16 12.5t16 10t7 11q0 4 -2 6.5t-4 3.5q-3 1 -6 1h-138q-3 0 -6 -1q-2 -1 -4 -3.5t-2 -6.5q0 -6 7 -11t16 -10t16 -12.5t7 -18.5v-564q0 -11 -7 -18.5t-16 -12.5t-16 -10t-7 -11q0 -4 2 -6.5t4 -3.5q3 -1 6 -1h138q3 0 6 1q2 1 4 3.5t2 6.5
q0 6 -7 11t-16 10t-16 12.5t-7 18.5v564zM99 858q-50 -45 -81 -77t-23 -43q3 -5 15 0t29.5 16.5t39.5 28t47 34.5q25 -18 47.5 -34.5t40 -28t29 -16.5t15.5 0q8 11 -23 43t-81 77q-14 12 -28 11.5t-27 -11.5z" />
    <glyph glyph-name="Idieresis" unicode="&#xcf;" horiz-adv-x="240" 
d="M154 627q0 11 7 18.5t16 12.5t16 10t7 11q0 4 -2 6.5t-4 3.5q-3 1 -6 1h-138q-3 0 -6 -1q-2 -1 -4 -3.5t-2 -6.5q0 -6 7 -11t16 -10t16 -12.5t7 -18.5v-564q0 -11 -7 -18.5t-16 -12.5t-16 -10t-7 -11q0 -4 2 -6.5t4 -3.5q3 -1 6 -1h138q3 0 6 1q2 1 4 3.5t2 6.5
q0 6 -7 11t-16 10t-16 12.5t-7 18.5v564zM-18 800q0 -21 14 -35t35 -14t35.5 14t14.5 35t-14.5 35.5t-35.5 14.5t-35 -14.5t-14 -35.5zM158 800q0 -21 14 -35t35 -14t35.5 14t14.5 35t-14.5 35.5t-35.5 14.5t-35 -14.5t-14 -35.5z" />
    <glyph glyph-name="Igrave" unicode="&#xcc;" horiz-adv-x="240" 
d="M154 627q0 11 7 18.5t16 12.5t16 10t7 11q0 4 -2 6.5t-4 3.5q-3 1 -6 1h-138q-3 0 -6 -1q-2 -1 -4 -3.5t-2 -6.5q0 -6 7 -11t16 -10t16 -12.5t7 -18.5v-564q0 -11 -7 -18.5t-16 -12.5t-16 -10t-7 -11q0 -4 2 -6.5t4 -3.5q3 -1 6 -1h138q3 0 6 1q2 1 4 3.5t2 6.5
q0 6 -7 11t-16 10t-16 12.5t-7 18.5v564zM62 807q27 -20 51.5 -35.5t44 -24.5t32 -11.5t16.5 2.5q4 6 -2 17t-20.5 26.5t-35.5 35t-46 41.5q-15 14 -29 11.5t-21.5 -12.5t-6.5 -24.5t17 -25.5z" />
    <glyph glyph-name="J" unicode="J" horiz-adv-x="379" 
d="M139 22q-45 0 -69 20t-23 45q1 15 11.5 26.5t30.5 11.5q22 0 32 11t9.5 23.5t-10.5 23.5t-30 11q-13 0 -27 -6.5t-25 -18.5t-18.5 -30t-7.5 -41q0 -27 11 -48t29.5 -35.5t43.5 -22t52 -7.5q46 0 78.5 16t53 44.5t30 68.5t9.5 88v425q0 11 7 18.5t16 12.5t16 10t7 11
q0 4 -2 6.5t-4 3.5q-3 1 -6 1h-138q-3 0 -6 -1q-2 -1 -4 -3.5t-2 -6.5q0 -6 7 -11t16 -10t16 -12.5t7 -18.5v-425q1 -50 -10 -90q-5 -17 -12.5 -33t-19.5 -29t-28.5 -20.5t-39.5 -7.5z" />
    <glyph glyph-name="K" unicode="K" horiz-adv-x="593" 
d="M464 11q4 -5 7 -7.5t6 -2.5q3 -1 5 -1h77q5 0 9 1q3 1 5.5 3.5t2.5 6.5q0 6 -4.5 8.5t-13.5 6.5t-21.5 12t-28.5 24l-298 313l269 253q12 11 25 18t23.5 12.5t17.5 10.5t7 11q0 4 -2 6.5t-4 3.5q-3 1 -6 1h-135q-4 0 -6 -1q-3 -1 -5 -3.5t-2 -6.5q0 -9 8.5 -14.5
t15 -12.5t7 -16.5t-16.5 -24.5l-251 -231v246q0 11 7 18.5t16 12.5t16 10t7 11q0 4 -2 6.5t-4 3.5q-3 1 -6 1h-138q-3 0 -6 -1q-2 -1 -4 -3.5t-2 -6.5q0 -6 7 -11t16 -10t16 -12.5t7 -18.5v-564q0 -11 -7 -18.5t-16 -12.5t-16 -10t-7 -11q0 -4 2 -6.5t4 -3.5q3 -1 6 -1h138
q3 0 6 1q2 1 4 3.5t2 6.5q0 6 -7 11t-16 10t-16 12.5t-7 18.5v259l10 10z" />
    <glyph glyph-name="L" unicode="L" horiz-adv-x="552" 
d="M436 0q23 0 31 -1t21 -1q7 0 11 3t7 6q3 4 4 9l16 99v8q-1 2 -3 4.5t-6 2.5q-7 0 -12.5 -6.5t-11.5 -16.5t-13.5 -22t-19.5 -22t-30 -16.5t-43 -6.5h-175q-32 0 -44.5 14t-12.5 33v540q0 11 7 18.5t16 12.5t16 10t7 11q0 4 -2 6.5t-4 3.5q-3 1 -6 1h-138q-3 0 -6 -1
q-2 -1 -4 -3.5t-2 -6.5q0 -6 7 -11t16 -10t16 -12.5t7 -18.5v-564q0 -11 -7 -18.5t-16 -12.5t-16 -10t-7 -11q0 -4 2 -6.5t4 -3.5q3 -1 6 -1h385z" />
    <glyph glyph-name="M" unicode="M" horiz-adv-x="803" 
d="M717 627q0 11 7 18.5t16 12.5t16 10t7 11q0 4 -2 6.5t-4 3.5q-3 1 -6 1h-93q-3 0 -5 -2q-2 -1 -4 -3t-4 -6l-241 -590l-238 590q-2 4 -4 6.5t-4 3.5q-3 1 -6 1h-101q-3 0 -6 -1q-2 -1 -4 -3.5t-2 -6.5q0 -6 7 -11t16 -10t16 -12.5t7 -18.5v-564q0 -11 -7 -18.5t-16 -12.5
t-16 -10t-7 -11q0 -4 2 -6.5t4 -3.5q3 -1 6 -1h114q3 0 6 1q2 1 4 3.5t2 6.5q0 6 -7 11t-16 10t-16 12.5t-7 18.5v524q43 -107 77 -190t60 -145.5t44.5 -106.5t30.5 -72.5t18.5 -43t8.5 -18.5t4.5 -6.5t5.5 -3.5t7 -1h19q3 0 6 1q2 1 4.5 3.5t3.5 6.5q2 5 12.5 30.5t27 66.5
t38 95t46.5 115.5t51 126.5t52 129v-511q0 -11 -7 -18.5t-16 -12.5t-16 -10t-7 -11q0 -4 2 -6.5t4 -3.5q3 -1 6 -1h138q3 0 6 1q2 1 4 3.5t2 6.5q0 6 -7 11t-16 10t-16 12.5t-7 18.5v564z" />
    <glyph glyph-name="N" unicode="N" horiz-adv-x="672" 
d="M545 11q3 -4 6.5 -6.5t7.5 -3.5t8 -1h8q3 0 6 1q2 1 4 3.5t2 6.5v616q0 11 7 18.5t16 12.5t16 10t7 11q0 4 -2 6.5t-4 3.5q-3 1 -6 1h-114q-3 0 -6 -1q-2 -1 -4 -3.5t-2 -6.5q0 -6 7 -11t16 -10t16 -12.5t7 -18.5v-480l-375 532q-2 4 -4 6.5t-4 3.5q-3 1 -6 1h-101
q-3 0 -6 -1q-2 -1 -4 -3.5t-2 -6.5q0 -6 7 -11t16 -10t16 -12.5t7 -18.5v-564q0 -11 -7 -18.5t-16 -12.5t-16 -10t-7 -11q0 -4 2 -6.5t4 -3.5q3 -1 6 -1h114q3 0 6 1q2 1 4 3.5t2 6.5q0 6 -7 11t-16 10t-16 12.5t-7 18.5v542z" />
    <glyph glyph-name="Ntilde" unicode="&#xd1;" horiz-adv-x="672" 
d="M544 11q3 -4 6.5 -6.5t7.5 -3.5t8 -1h8q3 0 6 1q2 1 4 3.5t2 6.5v616q0 11 7 18.5t16 12.5t16 10t7 11q0 4 -2 6.5t-4 3.5q-3 1 -6 1h-114q-3 0 -6 -1q-2 -1 -4 -3.5t-2 -6.5q0 -6 7 -11t16 -10t16 -12.5t7 -18.5v-480l-375 532q-2 4 -4 6.5t-4 3.5q-3 1 -6 1h-101
q-3 0 -6 -1q-2 -1 -4 -3.5t-2 -6.5q0 -6 7 -11t16 -10t16 -12.5t7 -18.5v-564q0 -11 -7 -18.5t-16 -12.5t-16 -10t-7 -11q0 -4 2 -6.5t4 -3.5q3 -1 6 -1h114q3 0 6 1q2 1 4 3.5t2 6.5q0 6 -7 11t-16 10t-16 12.5t-7 18.5v542zM496 818q4 11 3.5 17.5t-4 9t-9.5 -0.5t-14 -11
q-14 -14 -25.5 -19.5t-25.5 -7.5q-15 -1 -33 5.5t-38 15.5t-41.5 16.5t-43.5 7.5q-13 0 -26.5 -3.5t-25.5 -11t-22.5 -19t-17.5 -29.5q-4 -10 -4 -17t4 -9t10 0.5t14 10.5q16 17 29.5 23t32.5 4q14 -1 30 -8t33.5 -15t36.5 -15t38 -7q14 0 28 3t27.5 10t25 19t18.5 31z" />
    <glyph glyph-name="O" unicode="O" horiz-adv-x="748" 
d="M115 348q0 -70 18.5 -129.5t52.5 -102.5t82 -67.5t106 -24.5t105.5 24.5t81 67.5t52 102.5t18.5 129.5q0 69 -18.5 128t-52 101.5t-81 67t-105.5 24.5t-106 -24.5t-82 -67t-52.5 -101.5t-18.5 -128zM713 348q0 -62 -19 -126t-60 -116.5t-105 -85.5t-155 -33t-155 33
t-105 85.5t-60 116.5t-19 126q0 61 19 124.5t60 115.5t105 85t155 33t155 -33t105 -85t60 -115.5t19 -124.5z" />
    <glyph glyph-name="Oacute" unicode="&#xd3;" horiz-adv-x="748" 
d="M114 348q0 -70 18.5 -129.5t52.5 -102.5t82 -67.5t106 -24.5t105.5 24.5t81 67.5t52 102.5t18.5 129.5q0 69 -18.5 128t-52 101.5t-81 67t-105.5 24.5t-106 -24.5t-82 -67t-52.5 -101.5t-18.5 -128zM712 348q0 -62 -19 -126t-60 -116.5t-105 -85.5t-155 -33t-155 33
t-105 85.5t-60 116.5t-19 126q0 61 19 124.5t60 115.5t105 85t155 33t155 -33t105 -85t60 -115.5t19 -124.5zM429 807q16 11 17 25.5t-6.5 24.5t-21.5 12.5t-29 -11.5q-25 -22 -46 -41.5t-35 -35t-20.5 -26.5t-2.5 -17q4 -5 16.5 -2.5t32 11.5t44 24.5t51.5 35.5z" />
    <glyph glyph-name="Ocircumflex" unicode="&#xd4;" horiz-adv-x="748" 
d="M114 348q0 -70 18.5 -129.5t52.5 -102.5t82 -67.5t106 -24.5t105.5 24.5t81 67.5t52 102.5t18.5 129.5q0 69 -18.5 128t-52 101.5t-81 67t-105.5 24.5t-106 -24.5t-82 -67t-52.5 -101.5t-18.5 -128zM712 348q0 -62 -19 -126t-60 -116.5t-105 -85.5t-155 -33t-155 33
t-105 85.5t-60 116.5t-19 126q0 61 19 124.5t60 115.5t105 85t155 33t155 -33t105 -85t60 -115.5t19 -124.5zM345 858q-50 -45 -81 -77t-23 -43q3 -5 15 0t29.5 16.5t39.5 28t47 34.5q25 -18 47.5 -34.5t40 -28t29 -16.5t15.5 0q8 11 -23 43t-81 77q-14 12 -28 11.5
t-27 -11.5z" />
    <glyph glyph-name="Odieresis" unicode="&#xd6;" horiz-adv-x="748" 
d="M114 348q0 -70 18.5 -129.5t52.5 -102.5t82 -67.5t106 -24.5t105.5 24.5t81 67.5t52 102.5t18.5 129.5q0 69 -18.5 128t-52 101.5t-81 67t-105.5 24.5t-106 -24.5t-82 -67t-52.5 -101.5t-18.5 -128zM712 348q0 -62 -19 -126t-60 -116.5t-105 -85.5t-155 -33t-155 33
t-105 85.5t-60 116.5t-19 126q0 61 19 124.5t60 115.5t105 85t155 33t155 -33t105 -85t60 -115.5t19 -124.5zM235 800q0 -21 14 -35t35 -14t35.5 14t14.5 35t-14.5 35.5t-35.5 14.5t-35 -14.5t-14 -35.5zM411 800q0 -21 14 -35t35 -14t35.5 14t14.5 35t-14.5 35.5
t-35.5 14.5t-35 -14.5t-14 -35.5z" />
    <glyph glyph-name="Ograve" unicode="&#xd2;" horiz-adv-x="748" 
d="M114 348q0 -70 18.5 -129.5t52.5 -102.5t82 -67.5t106 -24.5t105.5 24.5t81 67.5t52 102.5t18.5 129.5q0 69 -18.5 128t-52 101.5t-81 67t-105.5 24.5t-106 -24.5t-82 -67t-52.5 -101.5t-18.5 -128zM712 348q0 -62 -19 -126t-60 -116.5t-105 -85.5t-155 -33t-155 33
t-105 85.5t-60 116.5t-19 126q0 61 19 124.5t60 115.5t105 85t155 33t155 -33t105 -85t60 -115.5t19 -124.5zM316 807q27 -20 51.5 -35.5t44 -24.5t32 -11.5t16.5 2.5q4 6 -2 17t-20.5 26.5t-35.5 35t-46 41.5q-15 14 -29 11.5t-21.5 -12.5t-6.5 -24.5t17 -25.5z" />
    <glyph glyph-name="Otilde" unicode="&#xd5;" horiz-adv-x="748" 
d="M114 348q0 -70 18.5 -129.5t52.5 -102.5t82 -67.5t106 -24.5t105.5 24.5t81 67.5t52 102.5t18.5 129.5q0 69 -18.5 128t-52 101.5t-81 67t-105.5 24.5t-106 -24.5t-82 -67t-52.5 -101.5t-18.5 -128zM712 348q0 -62 -19 -126t-60 -116.5t-105 -85.5t-155 -33t-155 33
t-105 85.5t-60 116.5t-19 126q0 61 19 124.5t60 115.5t105 85t155 33t155 -33t105 -85t60 -115.5t19 -124.5zM534 818q4 11 3.5 17.5t-4 9t-9.5 -0.5t-14 -11q-14 -14 -25.5 -19.5t-25.5 -7.5q-15 -1 -33 5.5t-38 15.5t-41.5 16.5t-43.5 7.5q-13 0 -26.5 -3.5t-25.5 -11
t-22.5 -19t-17.5 -29.5q-4 -10 -4 -17t4 -9t10 0.5t14 10.5q16 17 29.5 23t32.5 4q14 -1 30 -8t33.5 -15t36.5 -15t38 -7q14 0 28 3t27.5 10t25 19t18.5 31z" />
    <glyph glyph-name="P" unicode="P" horiz-adv-x="550" 
d="M258 295q74 0 125.5 17t83.5 44.5t46 63.5t13 75t-16 74.5t-43.5 62t-70.5 42.5t-96 16h-249q-3 0 -6 -1q-2 -1 -4 -3.5t-2 -6.5q0 -6 7 -11t16 -10t16 -12.5t7 -18.5v-564q0 -11 -7 -18.5t-16 -12.5t-16 -10t-7 -11q0 -4 2 -6.5t4 -3.5q3 -1 6 -1h138q3 0 6 1q2 1 4 3.5
t2 6.5q0 6 -7 11t-16 10t-16 12.5t-7 18.5v203q0 14 7 21.5t20 7.5h76zM155 622q0 11 8 19.5t19 8.5h98q43 0 76 -12.5t55.5 -34t34 -49.5t11.5 -60q0 -31 -10.5 -60t-35 -51t-63 -35t-94.5 -13h-72q-11 0 -18 5t-9 13v269z" />
    <glyph glyph-name="Q" unicode="Q" horiz-adv-x="748" 
d="M713 348q0 -55 -15 -112.5t-47.5 -107t-83.5 -86t-122 -49.5q3 -10 11 -26t22.5 -31.5t36.5 -27.5t53 -14q18 -1 30.5 -1.5t20 -2t10.5 -4.5t2 -10q-2 -14 -22 -23.5t-52 -9.5q-45 0 -76 18t-51 42t-30 48t-13 36h-13q-91 0 -155 33t-105 85.5t-60 116.5t-19 126
q0 61 19 124.5t60 115.5t105 85t155 33t155 -33t105 -85t60 -115.5t19 -124.5zM105 348q0 -70 20 -129.5t56 -102.5t85.5 -67.5t107.5 -24.5t107 24.5t84.5 67.5t55.5 102.5t20 129.5q0 69 -20 128t-55.5 101.5t-84.5 67t-107 24.5t-107.5 -24.5t-85.5 -67t-56 -101.5
t-20 -128z" />
    <glyph glyph-name="R" unicode="R" horiz-adv-x="587" 
d="M464 11q2 -4 5 -6.5t6 -3.5q4 -1 7 -1h69q5 0 9 1q3 1 5.5 3.5t2.5 6.5q0 10 -7.5 14.5t-18.5 10t-23.5 15.5t-22.5 30l-123 228q42 11 71.5 30.5t48 44t26.5 53t7 58.5q-1 39 -16 74.5t-43.5 62t-70.5 42.5t-96 16h-249q-3 0 -6 -1q-2 -1 -4 -3.5t-2 -6.5q0 -6 7 -11
t16 -10t16 -12.5t7 -18.5v-564q0 -11 -7 -18.5t-16 -12.5t-16 -10t-7 -11q0 -4 2 -6.5t4 -3.5q3 -1 6 -1h138q3 0 6 1q2 1 4 3.5t2 6.5q0 6 -7 11t-16 10t-16 12.5t-7 18.5v203q0 14 7 21.5t20 7.5l127 2q54 -99 83.5 -154t44 -82.5t19 -35.5t8.5 -14zM155 622q0 11 8 19.5
t19 8.5h98q43 0 76 -12.5t55.5 -34t34 -49.5t11.5 -60q0 -31 -10.5 -60t-35 -51t-63 -35t-94.5 -13h-72q-11 0 -18 5t-9 13v269z" />
    <glyph glyph-name="S" unicode="S" horiz-adv-x="504" 
d="M405 143q0 -35 -15 -58t-36.5 -36.5t-47 -19t-46.5 -5.5q-26 0 -54 8t-52.5 22.5t-43 36t-27.5 48.5q-4 15 -8 26t-7.5 19t-7.5 12t-9 4q-4 0 -6.5 -2t-3.5 -4q-1 -3 -1 -6v-87q0 -19 16 -39t45 -36.5t69.5 -27.5t89.5 -11q50 0 90.5 13t69 35.5t43.5 53.5t15 67
q0 57 -26.5 96.5t-67 69.5t-87 54.5t-87 50t-67 56.5t-26.5 75q0 33 14.5 55t36.5 35t47 18.5t46 5.5t44.5 -5t45 -17t38.5 -30.5t26 -45.5q9 -29 15 -45t17 -16q4 0 6.5 2t3.5 4q1 3 1 6v87q0 19 -15 36.5t-41.5 31t-62.5 21.5t-78 8q-50 0 -90.5 -13t-69 -35.5
t-43.5 -53.5t-15 -67q0 -56 27 -94.5t67 -67.5t87 -52t87 -48.5t67 -57t27 -77.5z" />
    <glyph glyph-name="Scaron" unicode="&#x160;" horiz-adv-x="504" 
d="M223 741q13 -11 27 -11.5t28 11.5q50 45 81 77t23 43q-4 5 -15.5 0t-29 -16.5t-40 -28t-47.5 -34.5q-25 18 -47 34.5t-39.5 28t-29.5 16.5t-15 0q-8 -11 23 -43t81 -77zM404 143q0 -35 -15 -58t-36.5 -36.5t-47 -19t-46.5 -5.5q-26 0 -54 8t-52.5 22.5t-43 36t-27.5 48.5
q-4 15 -8 26t-7.5 19t-7.5 12t-9 4q-4 0 -6.5 -2t-3.5 -4q-1 -3 -1 -6v-87q0 -19 16 -39t45 -36.5t69.5 -27.5t89.5 -11q50 0 90.5 13t69 35.5t43.5 53.5t15 67q0 57 -26.5 96.5t-67 69.5t-87 54.5t-87 50t-67 56.5t-26.5 75q0 33 14.5 55t36.5 35t47 18.5t46 5.5t44.5 -5
t45 -17t38.5 -30.5t26 -45.5q9 -29 15 -45t17 -16q4 0 6.5 2t3.5 4q1 3 1 6v87q0 19 -15 36.5t-41.5 31t-62.5 21.5t-78 8q-50 0 -90.5 -13t-69 -35.5t-43.5 -53.5t-15 -67q0 -56 27 -94.5t67 -67.5t87 -52t87 -48.5t67 -57t27 -77.5z" />
    <glyph glyph-name="T" unicode="T" horiz-adv-x="590" 
d="M330 63v553q0 14 6.5 24t22.5 10h89q32 0 47 -14t22.5 -31t13.5 -31t20 -14q4 0 6.5 2.5t3.5 5.5q2 3 2 7v99q-1 5 -3 9q-2 3 -5.5 6t-10.5 3q-13 0 -21 -1t-31 -1h-394q-23 0 -31 1t-21 1q-7 0 -10.5 -3t-5.5 -6q-2 -4 -3 -9v-99q0 -4 2 -7q1 -3 3.5 -5.5t6.5 -2.5
q14 0 20 14t13.5 31t22.5 31t47 14h89q16 0 22.5 -10t6.5 -24v-553q0 -11 -7 -18.5t-16 -12.5t-16 -10t-7 -11q0 -4 2 -6.5t4 -3.5q3 -1 6 -1h138q3 0 6 1q2 1 4 3.5t2 6.5q0 6 -7 11t-16 10t-16 12.5t-7 18.5z" />
    <glyph glyph-name="U" unicode="U" horiz-adv-x="652" 
d="M572 208v419q0 11 7 18.5t16 12.5t16 10t7 11q0 4 -2 6.5t-4 3.5q-3 1 -6 1h-115q-3 0 -6 -1q-2 -1 -4 -3.5t-2 -6.5q0 -6 7 -11t16 -10t16 -12.5t7 -18.5v-411q0 -42 -14.5 -76.5t-39.5 -58.5t-59 -37t-72 -13t-72 12.5t-59 36.5t-39.5 58.5t-14.5 77.5v411q0 11 7 18.5
t16 12.5t16 10t7 11q0 4 -2 6.5t-4 3.5q-3 1 -6 1h-138q-3 0 -6 -1q-2 -1 -4 -3.5t-2 -6.5q0 -6 7 -11t16 -10t16 -12.5t7 -18.5v-419q0 -46 19 -86t52 -69.5t77 -46.5t95 -17t95.5 17t77.5 46.5t52 69.5t19 86z" />
    <glyph glyph-name="Uacute" unicode="&#xda;" horiz-adv-x="652" 
d="M571 208v419q0 11 7 18.5t16 12.5t16 10t7 11q0 4 -2 6.5t-4 3.5q-3 1 -6 1h-115q-3 0 -6 -1q-2 -1 -4 -3.5t-2 -6.5q0 -6 7 -11t16 -10t16 -12.5t7 -18.5v-411q0 -42 -14.5 -76.5t-39.5 -58.5t-59 -37t-72 -13t-72 12.5t-59 36.5t-39.5 58.5t-14.5 77.5v411q0 11 7 18.5
t16 12.5t16 10t7 11q0 4 -2 6.5t-4 3.5q-3 1 -6 1h-138q-3 0 -6 -1q-2 -1 -4 -3.5t-2 -6.5q0 -6 7 -11t16 -10t16 -12.5t7 -18.5v-419q0 -46 19 -86t52 -69.5t77 -46.5t95 -17t95.5 17t77.5 46.5t52 69.5t19 86zM381 807q16 11 17 25.5t-6.5 24.5t-21.5 12.5t-29 -11.5
q-25 -22 -46 -41.5t-35 -35t-20.5 -26.5t-2.5 -17q4 -5 16.5 -2.5t32 11.5t44 24.5t51.5 35.5z" />
    <glyph glyph-name="Ucircumflex" unicode="&#xdb;" horiz-adv-x="652" 
d="M571 208v419q0 11 7 18.5t16 12.5t16 10t7 11q0 4 -2 6.5t-4 3.5q-3 1 -6 1h-115q-3 0 -6 -1q-2 -1 -4 -3.5t-2 -6.5q0 -6 7 -11t16 -10t16 -12.5t7 -18.5v-411q0 -42 -14.5 -76.5t-39.5 -58.5t-59 -37t-72 -13t-72 12.5t-59 36.5t-39.5 58.5t-14.5 77.5v411q0 11 7 18.5
t16 12.5t16 10t7 11q0 4 -2 6.5t-4 3.5q-3 1 -6 1h-138q-3 0 -6 -1q-2 -1 -4 -3.5t-2 -6.5q0 -6 7 -11t16 -10t16 -12.5t7 -18.5v-419q0 -46 19 -86t52 -69.5t77 -46.5t95 -17t95.5 17t77.5 46.5t52 69.5t19 86zM297 858q-50 -45 -81 -77t-23 -43q3 -5 15 0t29.5 16.5
t39.5 28t47 34.5q25 -18 47.5 -34.5t40 -28t29 -16.5t15.5 0q8 11 -23 43t-81 77q-14 12 -28 11.5t-27 -11.5z" />
    <glyph glyph-name="Udieresis" unicode="&#xdc;" horiz-adv-x="652" 
d="M571 208v419q0 11 7 18.5t16 12.5t16 10t7 11q0 4 -2 6.5t-4 3.5q-3 1 -6 1h-115q-3 0 -6 -1q-2 -1 -4 -3.5t-2 -6.5q0 -6 7 -11t16 -10t16 -12.5t7 -18.5v-411q0 -42 -14.5 -76.5t-39.5 -58.5t-59 -37t-72 -13t-72 12.5t-59 36.5t-39.5 58.5t-14.5 77.5v411q0 11 7 18.5
t16 12.5t16 10t7 11q0 4 -2 6.5t-4 3.5q-3 1 -6 1h-138q-3 0 -6 -1q-2 -1 -4 -3.5t-2 -6.5q0 -6 7 -11t16 -10t16 -12.5t7 -18.5v-419q0 -46 19 -86t52 -69.5t77 -46.5t95 -17t95.5 17t77.5 46.5t52 69.5t19 86zM187 800q0 -21 14 -35t35 -14t35.5 14t14.5 35t-14.5 35.5
t-35.5 14.5t-35 -14.5t-14 -35.5zM363 800q0 -21 14 -35t35 -14t35.5 14t14.5 35t-14.5 35.5t-35.5 14.5t-35 -14.5t-14 -35.5z" />
    <glyph glyph-name="Ugrave" unicode="&#xd9;" horiz-adv-x="652" 
d="M571 208v419q0 11 7 18.5t16 12.5t16 10t7 11q0 4 -2 6.5t-4 3.5q-3 1 -6 1h-115q-3 0 -6 -1q-2 -1 -4 -3.5t-2 -6.5q0 -6 7 -11t16 -10t16 -12.5t7 -18.5v-411q0 -42 -14.5 -76.5t-39.5 -58.5t-59 -37t-72 -13t-72 12.5t-59 36.5t-39.5 58.5t-14.5 77.5v411q0 11 7 18.5
t16 12.5t16 10t7 11q0 4 -2 6.5t-4 3.5q-3 1 -6 1h-138q-3 0 -6 -1q-2 -1 -4 -3.5t-2 -6.5q0 -6 7 -11t16 -10t16 -12.5t7 -18.5v-419q0 -46 19 -86t52 -69.5t77 -46.5t95 -17t95.5 17t77.5 46.5t52 69.5t19 86zM268 807q27 -20 51.5 -35.5t44 -24.5t32 -11.5t16.5 2.5
q4 6 -2 17t-20.5 26.5t-35.5 35t-46 41.5q-15 14 -29 11.5t-21.5 -12.5t-6.5 -24.5t17 -25.5z" />
    <glyph glyph-name="V" unicode="V" horiz-adv-x="645" 
d="M150 609q-7 21 -2 32t14 17t18 10t9 12q0 4 -2 6.5t-4 3.5q-3 1 -7 1h-151q-3 0 -6 -1q-2 -1 -4 -3.5t-2 -6.5q0 -6 7.5 -11t17.5 -10t19.5 -12.5t13.5 -18.5l220 -617q1 -4 3.5 -6.5t5.5 -3.5t7 -1h35q3 0 6 1q2 1 4.5 3.5t3.5 6.5l219 617q4 11 13.5 18.5t19.5 12.5
t17.5 10t7.5 11q0 4 -2 6.5t-4 3.5q-3 1 -6 1h-132q-4 0 -6 -1q-3 -1 -5 -3.5t-2 -6.5q0 -7 9.5 -12t20 -12t16.5 -17t0 -27l-187 -523z" />
    <glyph glyph-name="W" unicode="W" horiz-adv-x="973" 
d="M480 609q-7 21 -2 32t14 17t18 10t9 12q0 4 -2 6.5t-4 3.5q-3 1 -7 1h-151q-3 0 -6 -1q-2 -1 -4 -3.5t-2 -6.5q0 -6 7.5 -11t17.5 -10t19.5 -12.5t13.5 -18.5l62 -178l-128 -361l-185 520q-7 21 -2 32t14 17t18 10t9 12q0 4 -2 6.5t-4 3.5q-3 1 -7 1h-151q-3 0 -6 -1
q-2 -1 -4 -3.5t-2 -6.5q0 -6 7.5 -11t17.5 -10t19.5 -12.5t13.5 -18.5l220 -617q1 -4 3.5 -6.5t5.5 -3.5t7 -1h35q3 0 6 1q2 1 4.5 3.5t3.5 6.5l132 371l133 -371q1 -4 3.5 -6.5t5.5 -3.5t7 -1h35q3 0 6 1q2 1 4.5 3.5t3.5 6.5l219 617q4 11 13.5 18.5t19.5 12.5t17.5 10
t7.5 11q0 4 -2 6.5t-4 3.5q-3 1 -6 1h-132q-4 0 -6 -1q-3 -1 -5 -3.5t-2 -6.5q0 -7 9.5 -12t20 -12t16.5 -17t0 -27l-187 -523z" />
    <glyph glyph-name="X" unicode="X" horiz-adv-x="594" 
d="M171 627q-7 11 -4.5 18.5t8.5 12.5t12.5 10t6.5 11q0 4 -1.5 6.5t-3.5 3.5q-3 1 -6 1h-140q-3 0 -6 -1q-2 -1 -4 -3.5t-2 -6.5q0 -6 8 -11t19 -10t22.5 -12.5t18.5 -18.5l162 -274l-171 -290q-7 -11 -18.5 -18.5t-22.5 -12.5t-19 -10t-8 -11q0 -4 2 -6.5t4 -3.5
q3 -1 6 -1h113q3 0 6 1q2 1 3.5 3.5t1.5 6.5q0 6 -6.5 11t-12.5 10t-8.5 12.5t4.5 18.5l149 251l149 -251q7 -11 4.5 -18.5t-8.5 -12.5t-11.5 -10t-5.5 -11q0 -4 2 -6.5t4 -3.5q3 -1 6 -1h141q3 0 6 1q2 1 4 3.5t2 6.5q0 6 -9 11t-20.5 10t-23 12.5t-18.5 18.5l-172 290
l163 274q7 11 18.5 18.5t23 12.5t20.5 10t9 11q0 4 -2 6.5t-4 3.5q-3 1 -6 1h-114q-3 0 -6 -1q-2 -1 -4 -3.5t-2 -6.5q0 -6 5.5 -11t11.5 -10t8.5 -12.5t-4.5 -18.5l-140 -236z" />
    <glyph glyph-name="Y" unicode="Y" horiz-adv-x="604" 
d="M218 11q0 -4 2 -6.5t4 -3.5q3 -1 6 -1h138q3 0 6 1q2 1 4 3.5t2 6.5q0 6 -7 11t-16 10t-16 12.5t-7 18.5v210l193 354q7 11 17.5 18.5t20.5 12.5t17.5 10t7.5 11q0 4 -2 6.5t-4 3.5q-3 1 -6 1h-112q-3 0 -6 -1q-2 -1 -4 -3.5t-2 -6.5q0 -6 6.5 -11t13.5 -10t10.5 -12.5
t-3.5 -18.5l-170 -313l-170 313q-7 11 -3.5 18.5t10.5 12.5l14 10t7 11q0 4 -1.5 6.5t-3.5 3.5q-3 1 -6 1h-137q-3 0 -6 -1q-2 -1 -4 -3.5t-2 -6.5q0 -6 6.5 -11t15.5 -10t19 -12.5t17 -18.5l197 -360v-204q0 -11 -7 -18.5t-16 -12.5t-16 -10t-7 -11z" />
    <glyph glyph-name="Yacute" unicode="&#xdd;" horiz-adv-x="604" 
d="M217 11q0 -4 2 -6.5t4 -3.5q3 -1 6 -1h138q3 0 6 1q2 1 4 3.5t2 6.5q0 6 -7 11t-16 10t-16 12.5t-7 18.5v210l193 354q7 11 17.5 18.5t20.5 12.5t17.5 10t7.5 11q0 4 -2 6.5t-4 3.5q-3 1 -6 1h-112q-3 0 -6 -1q-2 -1 -4 -3.5t-2 -6.5q0 -6 6.5 -11t13.5 -10t10.5 -12.5
t-3.5 -18.5l-170 -313l-170 313q-7 11 -3.5 18.5t10.5 12.5l14 10t7 11q0 4 -1.5 6.5t-3.5 3.5q-3 1 -6 1h-137q-3 0 -6 -1q-2 -1 -4 -3.5t-2 -6.5q0 -6 6.5 -11t15.5 -10t19 -12.5t17 -18.5l197 -360v-204q0 -11 -7 -18.5t-16 -12.5t-16 -10t-7 -11zM446 807q16 11 17 25.5
t-6.5 24.5t-21.5 12.5t-29 -11.5q-25 -22 -46 -41.5t-35 -35t-20.5 -26.5t-2.5 -17q4 -5 16.5 -2.5t32 11.5t44 24.5t51.5 35.5z" />
    <glyph glyph-name="Ydieresis" unicode="&#x178;" horiz-adv-x="604" 
d="M217 11q0 -4 2 -6.5t4 -3.5q3 -1 6 -1h138q3 0 6 1q2 1 4 3.5t2 6.5q0 6 -7 11t-16 10t-16 12.5t-7 18.5v210l193 354q7 11 17.5 18.5t20.5 12.5t17.5 10t7.5 11q0 4 -2 6.5t-4 3.5q-3 1 -6 1h-112q-3 0 -6 -1q-2 -1 -4 -3.5t-2 -6.5q0 -6 6.5 -11t13.5 -10t10.5 -12.5
t-3.5 -18.5l-170 -313l-170 313q-7 11 -3.5 18.5t10.5 12.5l14 10t7 11q0 4 -1.5 6.5t-3.5 3.5q-3 1 -6 1h-137q-3 0 -6 -1q-2 -1 -4 -3.5t-2 -6.5q0 -6 6.5 -11t15.5 -10t19 -12.5t17 -18.5l197 -360v-204q0 -11 -7 -18.5t-16 -12.5t-16 -10t-7 -11zM163 800q0 -21 14 -35
t35 -14t35.5 14t14.5 35t-14.5 35.5t-35.5 14.5t-35 -14.5t-14 -35.5zM339 800q0 -21 14 -35t35 -14t35.5 14t14.5 35t-14.5 35.5t-35.5 14.5t-35 -14.5t-14 -35.5z" />
    <glyph glyph-name="Z" unicode="Z" horiz-adv-x="547" 
d="M121 690q-23 0 -31.5 1t-21.5 1q-7 0 -11 -3t-6 -6q-2 -4 -3 -9l-5 -99q0 -4 1 -7t3.5 -5.5t6.5 -2.5q11 0 16.5 14t16 31t30 31t57.5 14h247q11 0 12 -6t-3 -14l-386 -570q-6 -9 -8.5 -17t-2.5 -16q0 -10 6 -15.5t13 -8.5q8 -3 19 -3h363q23 0 31 -1t21 -1q7 0 11 3t7 6
q3 4 4 9l16 99v8q-1 2 -3 4.5t-6 2.5q-11 0 -18.5 -14t-19.5 -31t-33 -31t-59 -14h-253q-13 0 -14.5 6.5t3.5 14.5l383 569q6 9 8.5 17t2.5 16q0 10 -6 15.5t-13 8.5q-8 3 -19 3h-356z" />
    <glyph glyph-name="Zcaron" unicode="&#x17d;" horiz-adv-x="547" 
d="M245 741q13 -11 27 -11.5t28 11.5q50 45 81 77t23 43q-4 5 -15.5 0t-29 -16.5t-40 -28t-47.5 -34.5q-25 18 -47 34.5t-39.5 28t-29.5 16.5t-15 0q-8 -11 23 -43t81 -77zM120 690q-23 0 -31.5 1t-21.5 1q-7 0 -11 -3t-6 -6q-2 -4 -3 -9l-5 -99q0 -4 1 -7t3.5 -5.5
t6.5 -2.5q11 0 16.5 14t16 31t30 31t57.5 14h247q11 0 12 -6t-3 -14l-386 -570q-6 -9 -8.5 -17t-2.5 -16q0 -10 6 -15.5t13 -8.5q8 -3 19 -3h363q23 0 31 -1t21 -1q7 0 11 3t7 6q3 4 4 9l16 99v8q-1 2 -3 4.5t-6 2.5q-11 0 -18.5 -14t-19.5 -31t-33 -31t-59 -14h-253
q-13 0 -14.5 6.5t3.5 14.5l383 569q6 9 8.5 17t2.5 16q0 10 -6 15.5t-13 8.5q-8 3 -19 3h-356z" />
    <glyph glyph-name="AE" unicode="&#xc6;" horiz-adv-x="946" 
d="M480 679l-397 -616q-7 -11 -17.5 -18.5t-20.5 -12.5t-17.5 -10t-8.5 -11q0 -4 1.5 -6.5t3.5 -3.5q3 -1 6 -1h132q4 0 7 1q2 1 4.5 3.5t2.5 6.5q1 7 -8.5 12.5t-19.5 12t-14.5 16.5t6.5 27l124 190h222v-206q0 -11 -7 -18.5t-16 -12.5t-16 -10t-7 -11q0 -4 2 -6.5t4 -3.5
q3 -1 6 -1h385q23 0 31 -1t21 -1q7 0 11 3t7 6q3 4 4 9l16 99v8q-1 2 -3 4.5t-6 2.5q-11 0 -18.5 -14t-19.5 -31t-33 -31t-59 -14h-180q-29 0 -40.5 14t-11.5 33v258h249q11 0 19 -7t14 -16t11.5 -16t11.5 -7q4 0 6.5 2t3.5 4q1 3 1 6v112q0 3 -1 6q-1 2 -3.5 4t-6.5 2
q-6 0 -11.5 -7t-11.5 -16t-14 -16t-19 -7h-249v227q0 14 6.5 24t22.5 10h212q32 0 47.5 -14t24.5 -31t15.5 -31t20.5 -14q4 0 6.5 2.5t3.5 5.5t1 7l-5 99q-1 5 -3 9q-2 3 -6 6t-11 3q-13 0 -21 -1t-31 -1h-343q-2 0 -7 -2t-9 -9zM293 314l193 298v-298h-193z" />
    <glyph glyph-name="Eth" unicode="&#xd0;" horiz-adv-x="676" 
d="M251 0q107 0 182.5 31t123.5 81t70.5 112t22.5 124q0 61 -22.5 122t-70.5 110t-123.5 79.5t-182.5 30.5h-171q-3 0 -6 -1q-2 -1 -4 -3.5t-2 -6.5q0 -6 7 -11t16 -10t16 -12.5t7 -18.5v-250h-78q-4 0 -6 -3q-3 -2 -5 -7t-2 -14t2 -13.5t5 -6.5q2 -3 6 -3h78v-267
q0 -11 -7 -18.5t-16 -12.5t-16 -10t-7 -11q0 -4 2 -6.5t4 -3.5q3 -1 6 -1h171zM184 74v256h174q4 0 7 3q2 2 4 6.5t2 13.5t-2 14t-4 7q-3 3 -7 3h-174v239q0 14 6.5 24t22.5 10h58q67 0 123.5 -21.5t97 -60.5t63.5 -95t23 -125q0 -70 -23 -127t-63.5 -97t-97 -62t-123.5 -22
h-58q-16 0 -22.5 10t-6.5 24z" />
    <glyph glyph-name="Oslash" unicode="&#xd8;" horiz-adv-x="748" 
d="M98 -9q-2 -2 -6 -3q-3 0 -7 1.5t-10 6.5t-8.5 9t-2.5 7t2 6l580 687q2 2 6 3q3 0 7.5 -1.5t10.5 -6.5t8 -9t2 -7t-2 -6zM115 348q0 -70 18.5 -129.5t52.5 -102.5t82 -67.5t106 -24.5t105.5 24.5t81 67.5t52 102.5t18.5 129.5q0 69 -18.5 128t-52 101.5t-81 67
t-105.5 24.5t-106 -24.5t-82 -67t-52.5 -101.5t-18.5 -128zM713 348q0 -62 -19 -126t-60 -116.5t-105 -85.5t-155 -33t-155 33t-105 85.5t-60 116.5t-19 126q0 61 19 124.5t60 115.5t105 85t155 33t155 -33t105 -85t60 -115.5t19 -124.5z" />
    <glyph glyph-name="Thorn" unicode="&#xde;" horiz-adv-x="550" 
d="M155 637q0 11 7 18.5t16 12.5t16 10t7 11q0 4 -2 6.5t-4 3.5q-3 1 -6 1h-138q-3 0 -6 -1q-2 -1 -4 -3.5t-2 -6.5q0 -6 7 -11t16 -10t16 -12.5t7 -18.5v-574q0 -11 -7 -18.5t-16 -12.5t-16 -10t-7 -11q0 -4 2 -6.5t4 -3.5q3 -1 6 -1h138q3 0 6 1q2 1 4 3.5t2 6.5
q0 6 -7 11t-16 10t-16 12.5t-7 18.5v77q1 12 8 18.5t19 6.5h76q74 0 125.5 17t83.5 44.5t46 63.5t13 75t-16 74.5t-43.5 62t-70.5 42.5t-96 16h-117q-15 0 -21.5 6t-6.5 20v51zM182 520h98q43 0 76 -12.5t55.5 -34t34 -49.5t11.5 -60q0 -31 -10.5 -60t-35 -51t-63 -35
t-94.5 -13h-72q-11 0 -18 5t-9 13v272q1 11 8.5 18t18.5 7z" />
    <glyph glyph-name="OE" unicode="&#x152;" horiz-adv-x="982" 
d="M584 345h249q11 0 19 -7t14 -16t11.5 -16t11.5 -7q4 0 6.5 2t3.5 4q1 3 1 6v112q0 3 -1 6q-1 2 -3.5 4t-6.5 2q-6 0 -11.5 -7t-11.5 -16t-14 -16t-19 -7h-249v227q0 14 6.5 24t22.5 10h212q32 0 47.5 -14t24.5 -31t15.5 -31t20.5 -14q4 0 6.5 2.5t3.5 5.5t1 7l-5 99
q-1 5 -3 9q-2 3 -6 6t-11 3q-13 0 -21 -1t-31 -1h-382q-25 8 -52.5 12t-58.5 4q-91 0 -155 -33t-105 -85t-60 -115.5t-19 -124.5q0 -62 19 -126t60 -116.5t105 -85.5t155 -33q29 0 54.5 3.5t48.5 9.5h3h385q23 0 31 -1t21 -1q7 0 11 3t7 6q3 4 4 9l16 99v8q-1 2 -3 4.5
t-6 2.5q-11 0 -18.5 -14t-19.5 -31t-33 -31t-59 -14h-180q-29 0 -40.5 14t-11.5 33v258zM115 348q0 69 18.5 128t52.5 101.5t82 67t106 24.5q20 0 39 -3t36.5 -9t33.5 -14.5t31 -19.5v-554q-15 -11 -31 -19.5t-33.5 -14t-36.5 -8.5t-39 -3q-58 0 -106 24.5t-82 67.5
t-52.5 102.5t-18.5 129.5z" />
    <glyph glyph-name="a" unicode="a" horiz-adv-x="449" 
d="M64 409q0 -15 10.5 -24t24.5 -9q15 0 24 11.5t20.5 25t30 24.5t51.5 11q36 0 61 -29t25 -85v-28q-40 4 -90.5 -1t-94 -24t-73.5 -55t-30 -94q0 -67 40.5 -103.5t105.5 -36.5q54 0 87 16.5t55 42.5v-20q0 -12 4.5 -18t10.5 -9q7 -4 15 -4h66q3 0 6 1q2 1 4 3.5t2 6.5
q0 6 -5.5 11t-12.5 10t-12.5 12.5t-5.5 18.5v268q0 72 -44.5 115t-125.5 43q-27 0 -54 -5.5t-48 -16t-34 -25.5t-13 -33zM312 108q-13 -26 -39.5 -47t-69.5 -21q-45 0 -74.5 28t-29.5 80q0 35 16 57t39.5 35t51 19t51 7.5t39.5 0.5l16 -1v-158z" />
    <glyph glyph-name="aacute" unicode="&#xe1;" horiz-adv-x="449" 
d="M63 409q0 -15 10.5 -24t24.5 -9q15 0 24 11.5t20.5 25t30 24.5t51.5 11q36 0 61 -29t25 -85v-28q-40 4 -90.5 -1t-94 -24t-73.5 -55t-30 -94q0 -67 40.5 -103.5t105.5 -36.5q54 0 87 16.5t55 42.5v-20q0 -12 4.5 -18t10.5 -9q7 -4 15 -4h66q3 0 6 1q2 1 4 3.5t2 6.5
q0 6 -5.5 11t-12.5 10t-12.5 12.5t-5.5 18.5v268q0 72 -44.5 115t-125.5 43q-27 0 -54 -5.5t-48 -16t-34 -25.5t-13 -33zM311 108q-13 -26 -39.5 -47t-69.5 -21q-45 0 -74.5 28t-29.5 80q0 35 16 57t39.5 35t51 19t51 7.5t39.5 0.5l16 -1v-158zM280 607q16 11 17 25.5
t-6.5 24.5t-21.5 12.5t-29 -11.5q-25 -22 -46 -41.5t-35 -35t-20.5 -26.5t-2.5 -17q4 -5 16.5 -2.5t32 11.5t44 24.5t51.5 35.5z" />
    <glyph glyph-name="acircumflex" unicode="&#xe2;" horiz-adv-x="449" 
d="M63 409q0 -15 10.5 -24t24.5 -9q15 0 24 11.5t20.5 25t30 24.5t51.5 11q36 0 61 -29t25 -85v-28q-40 4 -90.5 -1t-94 -24t-73.5 -55t-30 -94q0 -67 40.5 -103.5t105.5 -36.5q54 0 87 16.5t55 42.5v-20q0 -12 4.5 -18t10.5 -9q7 -4 15 -4h66q3 0 6 1q2 1 4 3.5t2 6.5
q0 6 -5.5 11t-12.5 10t-12.5 12.5t-5.5 18.5v268q0 72 -44.5 115t-125.5 43q-27 0 -54 -5.5t-48 -16t-34 -25.5t-13 -33zM311 108q-13 -26 -39.5 -47t-69.5 -21q-45 0 -74.5 28t-29.5 80q0 35 16 57t39.5 35t51 19t51 7.5t39.5 0.5l16 -1v-158zM196 658q-50 -45 -81 -77
t-23 -43q3 -5 15 0t29.5 16.5t39.5 28t47 34.5q25 -18 47.5 -34.5t40 -28t29 -16.5t15.5 0q8 11 -23 43t-81 77q-14 12 -28 11.5t-27 -11.5z" />
    <glyph glyph-name="adieresis" unicode="&#xe4;" horiz-adv-x="449" 
d="M63 409q0 -15 10.5 -24t24.5 -9q15 0 24 11.5t20.5 25t30 24.5t51.5 11q36 0 61 -29t25 -85v-28q-40 4 -90.5 -1t-94 -24t-73.5 -55t-30 -94q0 -67 40.5 -103.5t105.5 -36.5q54 0 87 16.5t55 42.5v-20q0 -12 4.5 -18t10.5 -9q7 -4 15 -4h66q3 0 6 1q2 1 4 3.5t2 6.5
q0 6 -5.5 11t-12.5 10t-12.5 12.5t-5.5 18.5v268q0 72 -44.5 115t-125.5 43q-27 0 -54 -5.5t-48 -16t-34 -25.5t-13 -33zM311 108q-13 -26 -39.5 -47t-69.5 -21q-45 0 -74.5 28t-29.5 80q0 35 16 57t39.5 35t51 19t51 7.5t39.5 0.5l16 -1v-158zM86 600q0 -21 14 -35t35 -14
t35.5 14t14.5 35t-14.5 35.5t-35.5 14.5t-35 -14.5t-14 -35.5zM262 600q0 -21 14 -35t35 -14t35.5 14t14.5 35t-14.5 35.5t-35.5 14.5t-35 -14.5t-14 -35.5z" />
    <glyph glyph-name="agrave" unicode="&#xe0;" horiz-adv-x="449" 
d="M63 409q0 -15 10.5 -24t24.5 -9q15 0 24 11.5t20.5 25t30 24.5t51.5 11q36 0 61 -29t25 -85v-28q-40 4 -90.5 -1t-94 -24t-73.5 -55t-30 -94q0 -67 40.5 -103.5t105.5 -36.5q54 0 87 16.5t55 42.5v-20q0 -12 4.5 -18t10.5 -9q7 -4 15 -4h66q3 0 6 1q2 1 4 3.5t2 6.5
q0 6 -5.5 11t-12.5 10t-12.5 12.5t-5.5 18.5v268q0 72 -44.5 115t-125.5 43q-27 0 -54 -5.5t-48 -16t-34 -25.5t-13 -33zM311 108q-13 -26 -39.5 -47t-69.5 -21q-45 0 -74.5 28t-29.5 80q0 35 16 57t39.5 35t51 19t51 7.5t39.5 0.5l16 -1v-158zM167 607q27 -20 51.5 -35.5
t44 -24.5t32 -11.5t16.5 2.5q4 6 -2 17t-20.5 26.5t-35.5 35t-46 41.5q-15 14 -29 11.5t-21.5 -12.5t-6.5 -24.5t17 -25.5z" />
    <glyph glyph-name="aring" unicode="&#xe5;" horiz-adv-x="449" 
d="M128 646q0 -42 26.5 -68.5t68.5 -26.5q40 0 67.5 26.5t27.5 68.5q0 20 -7.5 37.5t-20 30t-30 20t-37.5 7.5q-42 0 -68.5 -27.5t-26.5 -67.5zM166 646q0 24 16 40.5t41 16.5q24 0 40.5 -16.5t16.5 -40.5q0 -25 -16.5 -41t-40.5 -16q-25 0 -41 16t-16 41zM63 409
q0 -15 10.5 -24t24.5 -9q15 0 24 11.5t20.5 25t30 24.5t51.5 11q36 0 61 -29t25 -85v-28q-40 4 -90.5 -1t-94 -24t-73.5 -55t-30 -94q0 -67 40.5 -103.5t105.5 -36.5q54 0 87 16.5t55 42.5v-20q0 -12 4.5 -18t10.5 -9q7 -4 15 -4h66q3 0 6 1q2 1 4 3.5t2 6.5q0 6 -5.5 11
t-12.5 10t-12.5 12.5t-5.5 18.5v268q0 72 -44.5 115t-125.5 43q-27 0 -54 -5.5t-48 -16t-34 -25.5t-13 -33zM311 108q-13 -26 -39.5 -47t-69.5 -21q-45 0 -74.5 28t-29.5 80q0 35 16 57t39.5 35t51 19t51 7.5t39.5 0.5l16 -1v-158z" />
    <glyph glyph-name="atilde" unicode="&#xe3;" horiz-adv-x="449" 
d="M63 409q0 -15 10.5 -24t24.5 -9q15 0 24 11.5t20.5 25t30 24.5t51.5 11q36 0 61 -29t25 -85v-28q-40 4 -90.5 -1t-94 -24t-73.5 -55t-30 -94q0 -67 40.5 -103.5t105.5 -36.5q54 0 87 16.5t55 42.5v-20q0 -12 4.5 -18t10.5 -9q7 -4 15 -4h66q3 0 6 1q2 1 4 3.5t2 6.5
q0 6 -5.5 11t-12.5 10t-12.5 12.5t-5.5 18.5v268q0 72 -44.5 115t-125.5 43q-27 0 -54 -5.5t-48 -16t-34 -25.5t-13 -33zM311 108q-13 -26 -39.5 -47t-69.5 -21q-45 0 -74.5 28t-29.5 80q0 35 16 57t39.5 35t51 19t51 7.5t39.5 0.5l16 -1v-158zM385 618q4 11 3.5 17.5t-4 9
t-9.5 -0.5t-14 -11q-14 -14 -25.5 -19.5t-25.5 -7.5q-15 -1 -33 5.5t-38 15.5t-41.5 16.5t-43.5 7.5q-13 0 -26.5 -3.5t-25.5 -11t-22.5 -19t-17.5 -29.5q-4 -10 -4 -17t4 -9t10 0.5t14 10.5q16 17 29.5 23t32.5 4q14 -1 30 -8t33.5 -15t36.5 -15t38 -7q14 0 28 3t27.5 10
t25 19t18.5 31z" />
    <glyph glyph-name="b" unicode="b" horiz-adv-x="535" 
d="M508 236q0 -43 -11.5 -87t-36.5 -80t-65 -59t-98 -23q-52 0 -86.5 18.5t-55.5 49.5v-44q0 -4 -2 -6.5t-4 -3.5q-3 -1 -6 -1h-82q-3 0 -6 1q-2 1 -4 3.5t-2 6.5q0 6 5.5 11t12.5 10t12.5 12.5t5.5 18.5v554q0 15 -6 22t-13.5 10.5t-13.5 6.5t-6 10q0 3 2 5l4 4l6 2l76 23
q6 2 11 2q3 -1 6.5 -4.5t3.5 -12.5v-273q22 32 56.5 51.5t85.5 19.5q58 0 98 -23t65 -58.5t36.5 -79.5t11.5 -86zM155 236q0 -45 9.5 -83.5t27.5 -66t43 -43.5t56 -16q36 0 63.5 16t45.5 43.5t27 66t9 83.5q0 44 -10.5 82t-29.5 66t-45.5 43.5t-59.5 15.5q-34 0 -59.5 -15
t-42 -41.5t-25 -63t-9.5 -78.5v-9z" />
    <glyph glyph-name="c" unicode="c" horiz-adv-x="443" 
d="M385 366q2 -7 4.5 -14t5 -13t6.5 -9.5t9 -3.5q4 0 6.5 2t3.5 4q1 3 1 6v67q0 16 -15.5 30.5t-38.5 25t-49.5 16.5t-48.5 6q-62 0 -107 -23t-74.5 -58.5t-43.5 -79.5t-14 -86q0 -43 11.5 -87t36.5 -80t65 -59t98 -23q54 0 95 18.5t65 41.5q12 11 16 21.5t3 18t-6.5 9.5
t-12.5 -4q-10 -8 -24 -18.5t-31.5 -19.5t-38.5 -15.5t-47 -6.5q-36 0 -65.5 15t-50.5 42t-32.5 64.5t-11.5 82.5q0 55 14.5 94t38 64t53 37t59.5 12q40 0 73.5 -20t46.5 -57z" />
    <glyph glyph-name="ccedilla" unicode="&#xe7;" horiz-adv-x="443" 
d="M384 366q2 -7 4.5 -14t5 -13t6.5 -9.5t9 -3.5q4 0 6.5 2t3.5 4q1 3 1 6v67q0 16 -15.5 30.5t-38.5 25t-49.5 16.5t-48.5 6q-62 0 -107 -23t-74.5 -58.5t-43.5 -79.5t-14 -86q0 -43 11.5 -87t36.5 -80t65 -59t98 -23q54 0 95 18.5t65 41.5q12 11 16 21.5t3 18t-6.5 9.5
t-12.5 -4q-10 -8 -24 -18.5t-31.5 -19.5t-38.5 -15.5t-47 -6.5q-36 0 -65.5 15t-50.5 42t-32.5 64.5t-11.5 82.5q0 55 14.5 94t38 64t53 37t59.5 12q40 0 73.5 -20t46.5 -57zM201 -83q-2 -5 -1.5 -8t4.5 -5q11 -5 21 -12.5t17 -16.5t9 -19.5t-3 -23.5q-5 -15 -15 -25
t-21 -16.5t-22 -10t-18 -5.5q-8 -2 -11 -4t-5 -5q-2 -5 0 -9t7 -6t24 -0.5t41.5 10t43.5 24t31 42.5q8 21 5.5 39t-11.5 32.5t-22.5 24.5t-28.5 15l23 60h-37z" />
    <glyph glyph-name="d" unicode="d" horiz-adv-x="546" 
d="M469 63q0 -11 5.5 -18.5t12.5 -12.5t12.5 -10t5.5 -11q0 -4 -2 -6.5t-4 -3.5q-3 -1 -6 -1h-82q-3 0 -6 1q-2 1 -4 3.5t-2 6.5v44q-21 -31 -55.5 -49.5t-86.5 -18.5q-58 0 -98 23t-65 59t-36.5 80t-11.5 87q0 42 11.5 86t36.5 79.5t65 58.5t98 23q51 0 85.5 -19.5
t56.5 -51.5v205q0 15 -6 22t-13.5 10.5t-13.5 6.5t-6 10q0 3 2 5l4 4l6 2l76 23q6 2 11 2q3 -1 6.5 -4.5t3.5 -12.5v-622zM399 236v9q-1 42 -9.5 78.5t-25 63t-42 41.5t-59.5 15q-33 0 -59.5 -15.5t-45.5 -43.5t-29.5 -66t-10.5 -82q0 -45 9 -83.5t27 -66t45.5 -43.5
t63.5 -16q31 0 56 16t43 43.5t27.5 66t9.5 83.5z" />
    <glyph glyph-name="e" unicode="e" horiz-adv-x="481" 
d="M387 306q1 -8 -2 -14.5t-14 -6.5h-288v-40h344q19 0 24 8t6 22q0 55 -17 94.5t-44 64.5t-60.5 37t-66.5 12q-62 0 -107 -23t-74.5 -58.5t-43.5 -79.5t-14 -86q0 -43 12 -87t38 -80t67 -59t99 -23q53 0 99.5 19t70.5 41q12 11 16 21.5t3 18t-6.5 9.5t-12.5 -4
q-10 -8 -25.5 -18.5t-35 -19.5t-42 -15.5t-48.5 -6.5q-36 0 -66.5 15t-52 42t-34 64.5t-12.5 82.5q0 54 14.5 93.5t38 64.5t52.5 37t58 12q26 0 47 -9t37.5 -26.5t26.5 -43t13 -58.5z" />
    <glyph glyph-name="eacute" unicode="&#xe9;" horiz-adv-x="481" 
d="M386 306q1 -8 -2 -14.5t-14 -6.5h-288v-40h344q19 0 24 8t6 22q0 55 -17 94.5t-44 64.5t-60.5 37t-66.5 12q-62 0 -107 -23t-74.5 -58.5t-43.5 -79.5t-14 -86q0 -43 12 -87t38 -80t67 -59t99 -23q53 0 99.5 19t70.5 41q12 11 16 21.5t3 18t-6.5 9.5t-12.5 -4
q-10 -8 -25.5 -18.5t-35 -19.5t-42 -15.5t-48.5 -6.5q-36 0 -66.5 15t-52 42t-34 64.5t-12.5 82.5q0 54 14.5 93.5t38 64.5t52.5 37t58 12q26 0 47 -9t37.5 -26.5t26.5 -43t13 -58.5zM296 607q16 11 17 25.5t-6.5 24.5t-21.5 12.5t-29 -11.5q-25 -22 -46 -41.5t-35 -35
t-20.5 -26.5t-2.5 -17q4 -5 16.5 -2.5t32 11.5t44 24.5t51.5 35.5z" />
    <glyph glyph-name="ecircumflex" unicode="&#xea;" horiz-adv-x="481" 
d="M386 306q1 -8 -2 -14.5t-14 -6.5h-288v-40h344q19 0 24 8t6 22q0 55 -17 94.5t-44 64.5t-60.5 37t-66.5 12q-62 0 -107 -23t-74.5 -58.5t-43.5 -79.5t-14 -86q0 -43 12 -87t38 -80t67 -59t99 -23q53 0 99.5 19t70.5 41q12 11 16 21.5t3 18t-6.5 9.5t-12.5 -4
q-10 -8 -25.5 -18.5t-35 -19.5t-42 -15.5t-48.5 -6.5q-36 0 -66.5 15t-52 42t-34 64.5t-12.5 82.5q0 54 14.5 93.5t38 64.5t52.5 37t58 12q26 0 47 -9t37.5 -26.5t26.5 -43t13 -58.5zM212 658q-50 -45 -81 -77t-23 -43q3 -5 15 0t29.5 16.5t39.5 28t47 34.5
q25 -18 47.5 -34.5t40 -28t29 -16.5t15.5 0q8 11 -23 43t-81 77q-14 12 -28 11.5t-27 -11.5z" />
    <glyph glyph-name="edieresis" unicode="&#xeb;" horiz-adv-x="481" 
d="M386 306q1 -8 -2 -14.5t-14 -6.5h-288v-40h344q19 0 24 8t6 22q0 55 -17 94.5t-44 64.5t-60.5 37t-66.5 12q-62 0 -107 -23t-74.5 -58.5t-43.5 -79.5t-14 -86q0 -43 12 -87t38 -80t67 -59t99 -23q53 0 99.5 19t70.5 41q12 11 16 21.5t3 18t-6.5 9.5t-12.5 -4
q-10 -8 -25.5 -18.5t-35 -19.5t-42 -15.5t-48.5 -6.5q-36 0 -66.5 15t-52 42t-34 64.5t-12.5 82.5q0 54 14.5 93.5t38 64.5t52.5 37t58 12q26 0 47 -9t37.5 -26.5t26.5 -43t13 -58.5zM102 600q0 -21 14 -35t35 -14t35.5 14t14.5 35t-14.5 35.5t-35.5 14.5t-35 -14.5
t-14 -35.5zM278 600q0 -21 14 -35t35 -14t35.5 14t14.5 35t-14.5 35.5t-35.5 14.5t-35 -14.5t-14 -35.5z" />
    <glyph glyph-name="egrave" unicode="&#xe8;" horiz-adv-x="481" 
d="M386 306q1 -8 -2 -14.5t-14 -6.5h-288v-40h344q19 0 24 8t6 22q0 55 -17 94.5t-44 64.5t-60.5 37t-66.5 12q-62 0 -107 -23t-74.5 -58.5t-43.5 -79.5t-14 -86q0 -43 12 -87t38 -80t67 -59t99 -23q53 0 99.5 19t70.5 41q12 11 16 21.5t3 18t-6.5 9.5t-12.5 -4
q-10 -8 -25.5 -18.5t-35 -19.5t-42 -15.5t-48.5 -6.5q-36 0 -66.5 15t-52 42t-34 64.5t-12.5 82.5q0 54 14.5 93.5t38 64.5t52.5 37t58 12q26 0 47 -9t37.5 -26.5t26.5 -43t13 -58.5zM183 607q27 -20 51.5 -35.5t44 -24.5t32 -11.5t16.5 2.5q4 6 -2 17t-20.5 26.5t-35.5 35
t-46 41.5q-15 14 -29 11.5t-21.5 -12.5t-6.5 -24.5t17 -25.5z" />
    <glyph glyph-name="f" unicode="f" horiz-adv-x="293" 
d="M172 63v379h105q4 0 7 2q2 2 4 5.5t2 10.5t-2 11t-4 6q-3 2 -7 2h-58q-14 0 -24 3t-16 9.5t-9 16.5t-3 24v35q0 47 18.5 72t49.5 25q17 0 34.5 -14t19.5 -45q1 -10 6.5 -18.5t18.5 -8.5q6 0 11 2t8.5 6t5.5 10t2 13q0 18 -7.5 35t-22 29.5t-34.5 20t-44 7.5t-47 -9
t-42 -28t-30.5 -48.5t-11.5 -69.5v-67h-56q-4 0 -6 -2q-3 -2 -5 -6t-2 -11t2 -10.5t5 -5.5q2 -2 6 -2h56v-379q0 -11 -5.5 -18.5t-12.5 -12.5t-12.5 -10t-5.5 -11q0 -4 2 -6.5t4 -3.5q3 -1 6 -1h118q3 0 6 1q2 1 4 3.5t2 6.5q0 6 -5.5 11t-12.5 10t-12.5 12.5t-5.5 18.5z
" />
    <glyph glyph-name="g" unicode="g" horiz-adv-x="518" 
d="M79 -122q0 -17 15 -33.5t40.5 -30t58.5 -22t70 -8.5q38 0 75 13.5t66 39.5t47 62.5t18 83.5v487q0 4 -2 6.5t-4 3.5q-3 1 -6 1q-10 0 -19.5 -15t-38.5 -54q-22 32 -56.5 51.5t-85.5 19.5q-58 0 -98 -23t-65 -58.5t-36.5 -79.5t-11.5 -86q0 -43 11.5 -87t36.5 -80t65 -59
t98 -23q52 0 86.5 18.5t55.5 49.5v-83q0 -41 -13.5 -69t-33.5 -45t-42.5 -25t-40.5 -8q-45 0 -68 13.5t-37 29.5t-25 29.5t-31 13.5q-11 0 -20 -9t-9 -24zM399 236q0 -45 -9.5 -83.5t-27.5 -66t-43 -43.5t-56 -16q-36 0 -63.5 16t-45.5 43.5t-27 66t-9 83.5q0 44 10.5 82
t29.5 66t45.5 43.5t59.5 15.5q34 0 59.5 -15t42 -41.5t25 -63t9.5 -78.5v-9z" />
    <glyph glyph-name="h" unicode="h" horiz-adv-x="536" 
d="M383 329l2 -266q0 -11 -5.5 -18.5t-12.5 -12.5t-12.5 -10t-5.5 -11q0 -4 2 -6.5t4 -3.5q3 -1 6 -1h118q3 0 6 1q2 1 4 3.5t2 6.5q0 6 -5.5 11t-12.5 10t-12.5 12.5t-5.5 18.5v268q0 36 -11 65t-31 50t-47 32t-60 11q-35 0 -75.5 -17t-75.5 -49v262q0 9 -3.5 12.5
t-6.5 4.5q-5 0 -11 -2l-76 -23l-6 -2l-4 -4t-2 -5q0 -7 6 -10t13.5 -6.5t13.5 -10.5t6 -22v-554q0 -11 -5.5 -18.5t-12.5 -12.5t-12.5 -10t-5.5 -11q0 -4 2 -6.5t4 -3.5q3 -1 6 -1h118q3 0 6 1q2 1 4 3.5t2 6.5q0 6 -5.5 11t-12.5 10t-12.5 12.5t-5.5 18.5v287q1 9 10 23.5
t26 28t41 23t55 8.5q18 0 35.5 -6t31 -18.5t21.5 -32t8 -47.5z" />
    <glyph glyph-name="i" unicode="i" horiz-adv-x="222" 
d="M64 630q0 -21 14 -35t35 -14t35.5 14t14.5 35t-14.5 35.5t-35.5 14.5t-35 -14.5t-14 -35.5zM155 465q0 9 -3.5 12.5t-6.5 4.5q-5 0 -11 -2l-76 -23l-6 -2l-4 -4t-2 -5q0 -7 6 -10t13.5 -6.5t13.5 -10.5t6 -22v-334q0 -11 -5.5 -18.5t-12.5 -12.5t-12.5 -10t-5.5 -11
q0 -4 2 -6.5t4 -3.5q3 -1 6 -1h118q3 0 6 1q2 1 4 3.5t2 6.5q0 6 -5.5 11t-12.5 10t-12.5 12.5t-5.5 18.5v402z" />
    <glyph glyph-name="iacute" unicode="&#xed;" horiz-adv-x="222" 
d="M157 63v402q0 9 -3.5 12.5t-6.5 4.5q-5 0 -11 -2l-76 -23l-6 -2l-4 -4t-2 -5q0 -7 6 -10t13.5 -6.5t13.5 -10.5t6 -22v-334q0 -11 -5.5 -18.5t-12.5 -12.5t-12.5 -10t-5.5 -11q0 -4 2 -6.5t4 -3.5q3 -1 6 -1h118q3 0 6 1q2 1 4 3.5t2 6.5q0 6 -5.5 11t-12.5 10
t-12.5 12.5t-5.5 18.5zM170 607q16 11 17 25.5t-6.5 24.5t-21.5 12.5t-29 -11.5q-25 -22 -46 -41.5t-35 -35t-20.5 -26.5t-2.5 -17q4 -5 16.5 -2.5t32 11.5t44 24.5t51.5 35.5z" />
    <glyph glyph-name="icircumflex" unicode="&#xee;" horiz-adv-x="222" 
d="M161 63v402q0 9 -3.5 12.5t-6.5 4.5q-5 0 -11 -2l-76 -23l-6 -2l-4 -4t-2 -5q0 -7 6 -10t13.5 -6.5t13.5 -10.5t6 -22v-334q0 -11 -5.5 -18.5t-12.5 -12.5t-12.5 -10t-5.5 -11q0 -4 2 -6.5t4 -3.5q3 -1 6 -1h118q3 0 6 1q2 1 4 3.5t2 6.5q0 6 -5.5 11t-12.5 10
t-12.5 12.5t-5.5 18.5zM90 658q-50 -45 -81 -77t-23 -43q3 -5 15 0t29.5 16.5t39.5 28t47 34.5q25 -18 47.5 -34.5t40 -28t29 -16.5t15.5 0q8 11 -23 43t-81 77q-14 12 -28 11.5t-27 -11.5z" />
    <glyph glyph-name="idieresis" unicode="&#xef;" horiz-adv-x="222" 
d="M154 63v402q0 9 -3.5 12.5t-6.5 4.5q-5 0 -11 -2l-76 -23l-6 -2l-4 -4t-2 -5q0 -7 6 -10t13.5 -6.5t13.5 -10.5t6 -22v-334q0 -11 -5.5 -18.5t-12.5 -12.5t-12.5 -10t-5.5 -11q0 -4 2 -6.5t4 -3.5q3 -1 6 -1h118q3 0 6 1q2 1 4 3.5t2 6.5q0 6 -5.5 11t-12.5 10
t-12.5 12.5t-5.5 18.5zM-27 600q0 -21 14 -35t35 -14t35.5 14t14.5 35t-14.5 35.5t-35.5 14.5t-35 -14.5t-14 -35.5zM149 600q0 -21 14 -35t35 -14t35.5 14t14.5 35t-14.5 35.5t-35.5 14.5t-35 -14.5t-14 -35.5z" />
    <glyph glyph-name="igrave" unicode="&#xec;" horiz-adv-x="222" 
d="M155 63v402q0 9 -3.5 12.5t-6.5 4.5q-5 0 -11 -2l-76 -23l-6 -2l-4 -4t-2 -5q0 -7 6 -10t13.5 -6.5t13.5 -10.5t6 -22v-334q0 -11 -5.5 -18.5t-12.5 -12.5t-12.5 -10t-5.5 -11q0 -4 2 -6.5t4 -3.5q3 -1 6 -1h118q3 0 6 1q2 1 4 3.5t2 6.5q0 6 -5.5 11t-12.5 10
t-12.5 12.5t-5.5 18.5zM54 607q27 -20 51.5 -35.5t44 -24.5t32 -11.5t16.5 2.5q4 6 -2 17t-20.5 26.5t-35.5 35t-46 41.5q-15 14 -29 11.5t-21.5 -12.5t-6.5 -24.5t17 -25.5z" />
    <glyph glyph-name="j" unicode="j" horiz-adv-x="208" 
d="M155 465q0 9 -3.5 12.5t-6.5 4.5q-5 0 -11 -2l-76 -23l-6 -2l-4 -4t-2 -5q0 -7 6 -10t13.5 -6.5t13.5 -10.5t6 -22v-497q0 -26 -6.5 -43t-16 -28t-20.5 -16.5t-20 -7.5q-8 -2 -11 -7t-2 -10t5.5 -9t10.5 -3q33 6 57.5 17.5t40.5 28.5t24 38t8 45v560zM64 630
q0 -21 14 -35t35 -14t35.5 14t14.5 35t-14.5 35.5t-35.5 14.5t-35 -14.5t-14 -35.5z" />
    <glyph glyph-name="k" unicode="k" horiz-adv-x="506" 
d="M375 11q3 -5 6 -7.5t6 -2.5q2 -1 5 -1h77q5 0 9 1q3 1 6 3.5t3 6.5q1 6 -3.5 8.5t-12.5 6.5t-20 12t-26 24l-186 225l135 129q12 11 25 18t23.5 12.5t17.5 10.5t7 11q0 4 -2 6.5t-4 3.5q-3 1 -6 1h-135q-4 0 -6 -1q-3 -1 -5 -3.5t-2 -6.5q0 -9 8.5 -14.5t15 -12.5
t7 -16.5t-16.5 -24.5l-146 -134v419q0 9 -3.5 12.5t-6.5 4.5q-5 0 -11 -2l-76 -23l-6 -2l-4 -4t-2 -5q0 -7 6 -10t13.5 -6.5t13.5 -10.5t6 -22v-554q0 -11 -5.5 -18.5t-12.5 -12.5t-12.5 -10t-5.5 -11q0 -4 2 -6.5t4 -3.5q3 -1 6 -1h118q3 0 6 1q2 1 4 3.5t2 6.5
q0 6 -5.5 11t-12.5 10t-12.5 12.5t-5.5 18.5v144l35 33z" />
    <glyph glyph-name="l" unicode="l" horiz-adv-x="222" 
d="M155 63v622q0 9 -3.5 12.5t-6.5 4.5q-5 0 -11 -2l-76 -23l-6 -2l-4 -4t-2 -5q0 -7 6 -10t13.5 -6.5t13.5 -10.5t6 -22v-554q0 -11 -5.5 -18.5t-12.5 -12.5t-12.5 -10t-5.5 -11q0 -4 2 -6.5t4 -3.5q3 -1 6 -1h118q3 0 6 1q2 1 4 3.5t2 6.5q0 6 -5.5 11t-12.5 10
t-12.5 12.5t-5.5 18.5z" />
    <glyph glyph-name="m" unicode="m" horiz-adv-x="786" 
d="M608 11q0 -4 2 -6.5t4 -3.5q3 -1 6 -1h118q3 0 6 1q2 1 4 3.5t2 6.5q0 6 -5.5 11t-12.5 10t-12.5 12.5t-5.5 18.5v268q0 72 -41.5 115t-107.5 43q-43 0 -81.5 -21.5t-68.5 -53.5q-19 35 -52 55t-77 20q-35 0 -68 -13.5t-63 -47.5v37q0 9 -3.5 12.5t-6.5 4.5q-5 0 -11 -2
l-76 -23l-6 -2l-4 -4t-2 -5q0 -7 6 -10t13.5 -6.5t13.5 -10.5t6 -22v-334q0 -11 -5.5 -18.5t-12.5 -12.5t-12.5 -10t-5.5 -11q0 -4 2 -6.5t4 -3.5q3 -1 6 -1h118q3 0 6 1q2 1 4 3.5t2 6.5q0 6 -5.5 11t-12.5 10t-12.5 12.5t-5.5 18.5v286q0 8 6 22.5t19.5 28.5t35.5 24t53 9
q18 0 35 -6t30 -18.5t21 -32t8 -47.5l2 -266q0 -11 -5.5 -18.5t-12.5 -12.5t-12.5 -10t-5.5 -11q0 -4 2 -6.5t4 -3.5q3 -1 6 -1h118q3 0 6 1q2 1 4 3.5t2 6.5q0 6 -5.5 11t-12.5 10t-12.5 12.5t-5.5 18.5v268q0 17 7.5 35.5t22 33.5t35.5 24t48 9q18 0 35 -6t30 -18.5
t21 -32t8 -47.5l2 -266q0 -11 -5.5 -18.5t-12.5 -12.5t-12.5 -10t-5.5 -11z" />
    <glyph glyph-name="n" unicode="n" horiz-adv-x="536" 
d="M349 11q0 -4 2 -6.5t4 -3.5q3 -1 6 -1h118q3 0 6 1q2 1 4 3.5t2 6.5q0 6 -5.5 11t-12.5 10t-12.5 12.5t-5.5 18.5v268q0 36 -11 65t-31 50t-47 32t-60 11q-35 0 -75.5 -17t-75.5 -49v42q0 9 -3.5 12.5t-6.5 4.5q-5 0 -11 -2l-76 -23l-6 -2l-4 -4t-2 -5q0 -7 6 -10
t13.5 -6.5t13.5 -10.5t6 -22v-334q0 -11 -5.5 -18.5t-12.5 -12.5t-12.5 -10t-5.5 -11q0 -4 2 -6.5t4 -3.5q3 -1 6 -1h118q3 0 6 1q2 1 4 3.5t2 6.5q0 6 -5.5 11t-12.5 10t-12.5 12.5t-5.5 18.5v286q0 8 9 22.5t25.5 28.5t41.5 24t56 9q18 0 35.5 -6t31 -18.5t21.5 -32
t8 -47.5l2 -266q0 -11 -5.5 -18.5t-12.5 -12.5t-12.5 -10t-5.5 -11z" />
    <glyph glyph-name="ntilde" unicode="&#xf1;" horiz-adv-x="536" 
d="M348 11q0 -4 2 -6.5t4 -3.5q3 -1 6 -1h118q3 0 6 1q2 1 4 3.5t2 6.5q0 6 -5.5 11t-12.5 10t-12.5 12.5t-5.5 18.5v268q0 36 -11 65t-31 50t-47 32t-60 11q-35 0 -75.5 -17t-75.5 -49v42q0 9 -3.5 12.5t-6.5 4.5q-5 0 -11 -2l-76 -23l-6 -2l-4 -4t-2 -5q0 -7 6 -10
t13.5 -6.5t13.5 -10.5t6 -22v-334q0 -11 -5.5 -18.5t-12.5 -12.5t-12.5 -10t-5.5 -11q0 -4 2 -6.5t4 -3.5q3 -1 6 -1h118q3 0 6 1q2 1 4 3.5t2 6.5q0 6 -5.5 11t-12.5 10t-12.5 12.5t-5.5 18.5v286q0 8 9 22.5t25.5 28.5t41.5 24t56 9q18 0 35.5 -6t31 -18.5t21.5 -32
t8 -47.5l2 -266q0 -11 -5.5 -18.5t-12.5 -12.5t-12.5 -10t-5.5 -11zM428 618q4 11 3.5 17.5t-4 9t-9.5 -0.5t-14 -11q-14 -14 -25.5 -19.5t-25.5 -7.5q-15 -1 -33 5.5t-38 15.5t-41.5 16.5t-43.5 7.5q-13 0 -26.5 -3.5t-25.5 -11t-22.5 -19t-17.5 -29.5q-4 -10 -4 -17t4 -9
t10 0.5t14 10.5q16 17 29.5 23t32.5 4q14 -1 30 -8t33.5 -15t36.5 -15t38 -7q14 0 28 3t27.5 10t25 19t18.5 31z" />
    <glyph glyph-name="o" unicode="o" horiz-adv-x="508" 
d="M100 236q0 -45 10.5 -83.5t30.5 -66t48 -43.5t64 -16t64 16t48 43.5t30.5 66t10.5 83.5q0 44 -10.5 82t-30.5 66t-48 43.5t-64 15.5t-64 -15.5t-48 -43.5t-30.5 -66t-10.5 -82zM478 236q0 -43 -11.5 -87t-38 -80t-69.5 -59t-106 -23q-62 0 -104.5 23t-69 59t-38 80
t-11.5 87q0 42 11.5 86t38 79.5t69 58.5t104.5 23q63 0 106 -23t69.5 -58.5t38 -79.5t11.5 -86z" />
    <glyph glyph-name="oacute" unicode="&#xf3;" horiz-adv-x="508" 
d="M99 236q0 -45 10.5 -83.5t30.5 -66t48 -43.5t64 -16t64 16t48 43.5t30.5 66t10.5 83.5q0 44 -10.5 82t-30.5 66t-48 43.5t-64 15.5t-64 -15.5t-48 -43.5t-30.5 -66t-10.5 -82zM477 236q0 -43 -11.5 -87t-38 -80t-69.5 -59t-106 -23q-62 0 -104.5 23t-69 59t-38 80
t-11.5 87q0 42 11.5 86t38 79.5t69 58.5t104.5 23q63 0 106 -23t69.5 -58.5t38 -79.5t11.5 -86zM309 607q16 11 17 25.5t-6.5 24.5t-21.5 12.5t-29 -11.5q-25 -22 -46 -41.5t-35 -35t-20.5 -26.5t-2.5 -17q4 -5 16.5 -2.5t32 11.5t44 24.5t51.5 35.5z" />
    <glyph glyph-name="ocircumflex" unicode="&#xf4;" horiz-adv-x="508" 
d="M99 236q0 -45 10.5 -83.5t30.5 -66t48 -43.5t64 -16t64 16t48 43.5t30.5 66t10.5 83.5q0 44 -10.5 82t-30.5 66t-48 43.5t-64 15.5t-64 -15.5t-48 -43.5t-30.5 -66t-10.5 -82zM477 236q0 -43 -11.5 -87t-38 -80t-69.5 -59t-106 -23q-62 0 -104.5 23t-69 59t-38 80
t-11.5 87q0 42 11.5 86t38 79.5t69 58.5t104.5 23q63 0 106 -23t69.5 -58.5t38 -79.5t11.5 -86zM225 658q-50 -45 -81 -77t-23 -43q3 -5 15 0t29.5 16.5t39.5 28t47 34.5q25 -18 47.5 -34.5t40 -28t29 -16.5t15.5 0q8 11 -23 43t-81 77q-14 12 -28 11.5t-27 -11.5z" />
    <glyph glyph-name="odieresis" unicode="&#xf6;" horiz-adv-x="508" 
d="M99 236q0 -45 10.5 -83.5t30.5 -66t48 -43.5t64 -16t64 16t48 43.5t30.5 66t10.5 83.5q0 44 -10.5 82t-30.5 66t-48 43.5t-64 15.5t-64 -15.5t-48 -43.5t-30.5 -66t-10.5 -82zM477 236q0 -43 -11.5 -87t-38 -80t-69.5 -59t-106 -23q-62 0 -104.5 23t-69 59t-38 80
t-11.5 87q0 42 11.5 86t38 79.5t69 58.5t104.5 23q63 0 106 -23t69.5 -58.5t38 -79.5t11.5 -86zM115 600q0 -21 14 -35t35 -14t35.5 14t14.5 35t-14.5 35.5t-35.5 14.5t-35 -14.5t-14 -35.5zM291 600q0 -21 14 -35t35 -14t35.5 14t14.5 35t-14.5 35.5t-35.5 14.5t-35 -14.5
t-14 -35.5z" />
    <glyph glyph-name="ograve" unicode="&#xf2;" horiz-adv-x="508" 
d="M99 236q0 -45 10.5 -83.5t30.5 -66t48 -43.5t64 -16t64 16t48 43.5t30.5 66t10.5 83.5q0 44 -10.5 82t-30.5 66t-48 43.5t-64 15.5t-64 -15.5t-48 -43.5t-30.5 -66t-10.5 -82zM477 236q0 -43 -11.5 -87t-38 -80t-69.5 -59t-106 -23q-62 0 -104.5 23t-69 59t-38 80
t-11.5 87q0 42 11.5 86t38 79.5t69 58.5t104.5 23q63 0 106 -23t69.5 -58.5t38 -79.5t11.5 -86zM196 607q27 -20 51.5 -35.5t44 -24.5t32 -11.5t16.5 2.5q4 6 -2 17t-20.5 26.5t-35.5 35t-46 41.5q-15 14 -29 11.5t-21.5 -12.5t-6.5 -24.5t17 -25.5z" />
    <glyph glyph-name="otilde" unicode="&#xf5;" horiz-adv-x="508" 
d="M99 236q0 -45 10.5 -83.5t30.5 -66t48 -43.5t64 -16t64 16t48 43.5t30.5 66t10.5 83.5q0 44 -10.5 82t-30.5 66t-48 43.5t-64 15.5t-64 -15.5t-48 -43.5t-30.5 -66t-10.5 -82zM477 236q0 -43 -11.5 -87t-38 -80t-69.5 -59t-106 -23q-62 0 -104.5 23t-69 59t-38 80
t-11.5 87q0 42 11.5 86t38 79.5t69 58.5t104.5 23q63 0 106 -23t69.5 -58.5t38 -79.5t11.5 -86zM414 618q4 11 3.5 17.5t-4 9t-9.5 -0.5t-14 -11q-14 -14 -25.5 -19.5t-25.5 -7.5q-15 -1 -33 5.5t-38 15.5t-41.5 16.5t-43.5 7.5q-13 0 -26.5 -3.5t-25.5 -11t-22.5 -19
t-17.5 -29.5q-4 -10 -4 -17t4 -9t10 0.5t14 10.5q16 17 29.5 23t32.5 4q14 -1 30 -8t33.5 -15t36.5 -15t38 -7q14 0 28 3t27.5 10t25 19t18.5 31z" />
    <glyph glyph-name="p" unicode="p" horiz-adv-x="535" 
d="M61 -208h118q3 0 6 1q2 1 4 3.5t2 6.5q0 6 -5.5 11t-12.5 10t-12.5 12.5t-5.5 18.5v200q21 -31 55.5 -49.5t86.5 -18.5q58 0 98 23t65 59t36.5 80t11.5 87q0 42 -11.5 86t-36.5 79.5t-65 58.5t-98 23q-51 0 -85.5 -19.5t-56.5 -51.5v53q0 9 -3.5 12.5t-6.5 4.5
q-5 0 -11 -2l-76 -23l-6 -2l-4 -4t-2 -5q0 -7 6 -10t13.5 -6.5t13.5 -10.5t6 -22v-542q0 -11 -5.5 -18.5t-12.5 -12.5t-12.5 -10t-5.5 -11q0 -4 2 -6.5t4 -3.5q3 -1 6 -1zM155 245q1 42 9.5 78.5t25 63t42 41.5t59.5 15q33 0 59.5 -15.5t45.5 -43.5t29.5 -66t10.5 -82
q0 -45 -9 -83.5t-27 -66t-45.5 -43.5t-63.5 -16q-31 0 -56 16t-43 43.5t-27.5 66t-9.5 83.5v9z" />
    <glyph glyph-name="q" unicode="q" horiz-adv-x="518" 
d="M399 -145q0 -11 -5.5 -18.5t-12.5 -12.5t-12.5 -10t-5.5 -11q0 -4 2 -6.5t4 -3.5q3 -1 6 -1h118q3 0 6 1q2 1 4 3.5t2 6.5q0 6 -5.5 11t-12.5 10t-12.5 12.5t-5.5 18.5v615q0 4 -2 6.5t-4 3.5q-3 1 -6 1q-10 0 -19.5 -15t-38.5 -54q-22 32 -56.5 51.5t-85.5 19.5
q-58 0 -98 -23t-65 -58.5t-36.5 -79.5t-11.5 -86q0 -43 11.5 -87t36.5 -80t65 -59t98 -23q52 0 86.5 18.5t55.5 49.5v-200zM399 236q0 -45 -9.5 -83.5t-27.5 -66t-43 -43.5t-56 -16q-36 0 -63.5 16t-45.5 43.5t-27 66t-9 83.5q0 44 10.5 82t29.5 66t45.5 43.5t59.5 15.5
q34 0 59.5 -15t42 -41.5t25 -63t9.5 -78.5v-9z" />
    <glyph glyph-name="r" unicode="r" horiz-adv-x="358" 
d="M294 396q0 -9 4 -15t14 -6t17 8t7 31q0 20 -7.5 33.5t-18.5 22.5t-24 13t-25 4q-27 0 -53.5 -16.5t-52.5 -48.5v43q0 9 -3.5 12.5t-6.5 4.5q-5 0 -11 -2l-76 -23l-6 -2l-4 -4t-2 -5q0 -7 6 -10t13.5 -6.5t13.5 -10.5t6 -22v-334q0 -11 -5.5 -18.5t-12.5 -12.5t-12.5 -10
t-5.5 -11q0 -4 2 -6.5t4 -3.5q3 -1 6 -1h118q3 0 6 1q2 1 4 3.5t2 6.5q0 6 -5.5 11t-12.5 10t-12.5 12.5t-5.5 18.5v275q0 17 7 33.5t18.5 30t27.5 22t34 8.5q23 0 37.5 -9.5t14.5 -26.5z" />
    <glyph glyph-name="s" unicode="s" horiz-adv-x="419" 
d="M319 95q0 -29 -27.5 -48.5t-79.5 -19.5q-16 0 -35 4t-37.5 12t-35 19.5t-28.5 27.5q-8 10 -16 21t-19 11q-4 0 -6.5 -2t-3.5 -4q-1 -3 -1 -6v-48q0 -16 17.5 -30t44.5 -24t58.5 -15.5t58.5 -5.5q45 0 79 11t56.5 30t33.5 43t11 49q0 40 -21.5 66t-53 45t-69 32.5t-69 28
t-53 33t-21.5 45.5q0 29 28 51t79 22q26 0 57.5 -9.5t54.5 -41.5q8 -10 16 -21t19 -11q4 0 6.5 2t3.5 4q1 3 1 6v48q0 16 -16 28t-39.5 19.5t-50.5 11.5t-49 4q-45 0 -78.5 -10.5t-56 -28t-34 -40.5t-11.5 -48q0 -43 21.5 -71t53 -46.5t69 -31.5t69 -27.5t53 -34t21.5 -50.5
z" />
    <glyph glyph-name="scaron" unicode="&#x161;" horiz-adv-x="419" 
d="M181 541q13 -11 27 -11.5t28 11.5q50 45 81 77t23 43q-4 5 -15.5 0t-29 -16.5t-40 -28t-47.5 -34.5q-25 18 -47 34.5t-39.5 28t-29.5 16.5t-15 0q-8 -11 23 -43t81 -77zM318 95q0 -29 -27.5 -48.5t-79.5 -19.5q-16 0 -35 4t-37.5 12t-35 19.5t-28.5 27.5q-8 10 -16 21
t-19 11q-4 0 -6.5 -2t-3.5 -4q-1 -3 -1 -6v-48q0 -16 17.5 -30t44.5 -24t58.5 -15.5t58.5 -5.5q45 0 79 11t56.5 30t33.5 43t11 49q0 40 -21.5 66t-53 45t-69 32.5t-69 28t-53 33t-21.5 45.5q0 29 28 51t79 22q26 0 57.5 -9.5t54.5 -41.5q8 -10 16 -21t19 -11q4 0 6.5 2
t3.5 4q1 3 1 6v48q0 16 -16 28t-39.5 19.5t-50.5 11.5t-49 4q-45 0 -78.5 -10.5t-56 -28t-34 -40.5t-11.5 -48q0 -43 21.5 -71t53 -46.5t69 -31.5t69 -27.5t53 -34t21.5 -50.5z" />
    <glyph glyph-name="t" unicode="t" horiz-adv-x="282" 
d="M92 104q0 -32 9.5 -54.5t25.5 -36.5t37.5 -20t46.5 -6q13 0 25 2.5t26 7.5q6 2 8.5 8t1 11.5t-5.5 9.5t-12 2q-10 -2 -25.5 -3t-30.5 5.5t-25.5 22.5t-10.5 49v340h86q4 0 7 2q2 2 4 5.5t2 10.5t-2 11t-4 6q-3 2 -7 2h-86v96q0 9 -3.5 13t-8.5 5t-9.5 -1.5t-6.5 -6.5
q-7 -15 -15 -30.5t-18.5 -30t-24 -27.5t-31.5 -22q-8 -4 -14.5 -9t-6.5 -11q0 -5 2 -7.5t5 -3.5q3 -2 7 -2h54v-338z" />
    <glyph glyph-name="u" unicode="u" horiz-adv-x="534" 
d="M455 63v402q0 9 -3.5 12.5t-6.5 4.5q-5 0 -11 -2l-76 -23l-6 -2l-4 -4t-2 -5q0 -7 6 -10t13.5 -6.5t13.5 -10.5t6 -22v-273q0 -8 -9 -22.5t-25.5 -28.5t-41 -24t-56.5 -9q-18 0 -35 6t-30.5 18.5t-22 32t-8.5 47.5v321q0 9 -3.5 12.5t-6.5 4.5q-5 0 -11 -2l-78 -23l-6 -2
l-4 -4t-2 -5q0 -7 6 -10t13.5 -6.5t13.5 -10.5t6 -22v-255q0 -36 11 -65t31 -50t47 -32t60 -11q35 0 75.5 17t75.5 49v-39q0 -4 2 -6.5t4 -3.5q3 -1 6 -1h82q3 0 6 1q2 1 4 3.5t2 6.5q0 6 -5.5 11t-12.5 10t-12.5 12.5t-5.5 18.5z" />
    <glyph glyph-name="uacute" unicode="&#xfa;" horiz-adv-x="534" 
d="M454 63v402q0 9 -3.5 12.5t-6.5 4.5q-5 0 -11 -2l-76 -23l-6 -2l-4 -4t-2 -5q0 -7 6 -10t13.5 -6.5t13.5 -10.5t6 -22v-273q0 -8 -9 -22.5t-25.5 -28.5t-41 -24t-56.5 -9q-18 0 -35 6t-30.5 18.5t-22 32t-8.5 47.5v321q0 9 -3.5 12.5t-6.5 4.5q-5 0 -11 -2l-78 -23l-6 -2
l-4 -4t-2 -5q0 -7 6 -10t13.5 -6.5t13.5 -10.5t6 -22v-255q0 -36 11 -65t31 -50t47 -32t60 -11q35 0 75.5 17t75.5 49v-39q0 -4 2 -6.5t4 -3.5q3 -1 6 -1h82q3 0 6 1q2 1 4 3.5t2 6.5q0 6 -5.5 11t-12.5 10t-12.5 12.5t-5.5 18.5zM322 607q16 11 17 25.5t-6.5 24.5
t-21.5 12.5t-29 -11.5q-25 -22 -46 -41.5t-35 -35t-20.5 -26.5t-2.5 -17q4 -5 16.5 -2.5t32 11.5t44 24.5t51.5 35.5z" />
    <glyph glyph-name="ucircumflex" unicode="&#xfb;" horiz-adv-x="534" 
d="M454 63v402q0 9 -3.5 12.5t-6.5 4.5q-5 0 -11 -2l-76 -23l-6 -2l-4 -4t-2 -5q0 -7 6 -10t13.5 -6.5t13.5 -10.5t6 -22v-273q0 -8 -9 -22.5t-25.5 -28.5t-41 -24t-56.5 -9q-18 0 -35 6t-30.5 18.5t-22 32t-8.5 47.5v321q0 9 -3.5 12.5t-6.5 4.5q-5 0 -11 -2l-78 -23l-6 -2
l-4 -4t-2 -5q0 -7 6 -10t13.5 -6.5t13.5 -10.5t6 -22v-255q0 -36 11 -65t31 -50t47 -32t60 -11q35 0 75.5 17t75.5 49v-39q0 -4 2 -6.5t4 -3.5q3 -1 6 -1h82q3 0 6 1q2 1 4 3.5t2 6.5q0 6 -5.5 11t-12.5 10t-12.5 12.5t-5.5 18.5zM238 658q-50 -45 -81 -77t-23 -43
q3 -5 15 0t29.5 16.5t39.5 28t47 34.5q25 -18 47.5 -34.5t40 -28t29 -16.5t15.5 0q8 11 -23 43t-81 77q-14 12 -28 11.5t-27 -11.5z" />
    <glyph glyph-name="udieresis" unicode="&#xfc;" horiz-adv-x="534" 
d="M454 63v402q0 9 -3.5 12.5t-6.5 4.5q-5 0 -11 -2l-76 -23l-6 -2l-4 -4t-2 -5q0 -7 6 -10t13.5 -6.5t13.5 -10.5t6 -22v-273q0 -8 -9 -22.5t-25.5 -28.5t-41 -24t-56.5 -9q-18 0 -35 6t-30.5 18.5t-22 32t-8.5 47.5v321q0 9 -3.5 12.5t-6.5 4.5q-5 0 -11 -2l-78 -23l-6 -2
l-4 -4t-2 -5q0 -7 6 -10t13.5 -6.5t13.5 -10.5t6 -22v-255q0 -36 11 -65t31 -50t47 -32t60 -11q35 0 75.5 17t75.5 49v-39q0 -4 2 -6.5t4 -3.5q3 -1 6 -1h82q3 0 6 1q2 1 4 3.5t2 6.5q0 6 -5.5 11t-12.5 10t-12.5 12.5t-5.5 18.5zM128 600q0 -21 14 -35t35 -14t35.5 14
t14.5 35t-14.5 35.5t-35.5 14.5t-35 -14.5t-14 -35.5zM304 600q0 -21 14 -35t35 -14t35.5 14t14.5 35t-14.5 35.5t-35.5 14.5t-35 -14.5t-14 -35.5z" />
    <glyph glyph-name="ugrave" unicode="&#xf9;" horiz-adv-x="534" 
d="M454 63v402q0 9 -3.5 12.5t-6.5 4.5q-5 0 -11 -2l-76 -23l-6 -2l-4 -4t-2 -5q0 -7 6 -10t13.5 -6.5t13.5 -10.5t6 -22v-273q0 -8 -9 -22.5t-25.5 -28.5t-41 -24t-56.5 -9q-18 0 -35 6t-30.5 18.5t-22 32t-8.5 47.5v321q0 9 -3.5 12.5t-6.5 4.5q-5 0 -11 -2l-78 -23l-6 -2
l-4 -4t-2 -5q0 -7 6 -10t13.5 -6.5t13.5 -10.5t6 -22v-255q0 -36 11 -65t31 -50t47 -32t60 -11q35 0 75.5 17t75.5 49v-39q0 -4 2 -6.5t4 -3.5q3 -1 6 -1h82q3 0 6 1q2 1 4 3.5t2 6.5q0 6 -5.5 11t-12.5 10t-12.5 12.5t-5.5 18.5zM209 607q27 -20 51.5 -35.5t44 -24.5
t32 -11.5t16.5 2.5q4 6 -2 17t-20.5 26.5t-35.5 35t-46 41.5q-15 14 -29 11.5t-21.5 -12.5t-6.5 -24.5t17 -25.5z" />
    <glyph glyph-name="v" unicode="v" horiz-adv-x="476" 
d="M224 0h29q8 0 12 5t6 10l147 401q4 11 12 18.5t15.5 12.5t12.5 10t5 11q0 4 -1.5 6.5t-3.5 3.5q-3 1 -6 1h-99q-3 0 -6 -1q-2 -1 -4 -3.5t-2 -6.5q0 -6 7.5 -12t15 -13.5t11 -18t-4.5 -27.5l-117 -319l-118 322q-7 17 -3 27.5t11 17t14.5 12t7.5 11.5q0 4 -2 6.5t-4 3.5
q-3 1 -6 1h-127q-3 0 -5 -1q-3 -1 -4.5 -3.5t-1.5 -6.5q0 -6 5.5 -11t13 -10t15 -12.5t11.5 -18.5l146 -401q2 -6 6 -10.5t12 -4.5z" />
    <glyph glyph-name="w" unicode="w" horiz-adv-x="729" 
d="M456 15q2 -6 6 -10.5t12 -4.5h29q8 0 12 5t6 10l147 401q4 11 12 18.5t15.5 12.5t12.5 10t5 11q0 4 -1.5 6.5t-3.5 3.5q-3 1 -6 1h-99q-3 0 -6 -1q-2 -1 -4 -3.5t-2 -6.5q0 -6 7.5 -12t15 -13.5t11 -18t-4.5 -27.5l-117 -319l-118 322q-7 17 -3 27.5t11 17t14.5 12
t7.5 11.5q0 4 -2 6.5t-4 3.5q-3 1 -6 1h-127q-3 0 -5 -1q-3 -1 -4.5 -3.5t-1.5 -6.5q0 -6 5.5 -11t13 -10t15 -12.5t11.5 -18.5l33 -92l-90 -246l-118 322q-7 17 -3 27.5t11 17t14.5 12t7.5 11.5q0 4 -2 6.5t-4 3.5q-3 1 -6 1h-127q-3 0 -5 -1q-3 -1 -4.5 -3.5t-1.5 -6.5
q0 -6 5.5 -11t13 -10t15 -12.5t11.5 -18.5l146 -401q2 -6 6 -10.5t12 -4.5h29q8 0 12 5t6 10l93 253z" />
    <glyph glyph-name="x" unicode="x" horiz-adv-x="490" 
d="M399 416q14 17 24.5 24.5t18 11.5t11.5 6.5t4 9.5q0 4 -2.5 6.5t-4.5 3.5q-4 1 -8 1h-103q-3 0 -5 -1t-3.5 -3t-1.5 -7q0 -7 6.5 -12.5t12.5 -13t6.5 -17.5t-11.5 -25l-94 -118l-95 134q-8 11 -7.5 18.5t4.5 12.5t9 10t6 11q0 4 -1.5 6.5t-3.5 3.5q-3 1 -6 1h-118
q-3 0 -6 -1q-2 -1 -4 -3.5t-2 -6.5q-1 -6 5 -11t15 -10t19 -12.5t17 -18.5l128 -178l-133 -175q-14 -17 -24.5 -24.5t-18 -11.5t-11.5 -6.5t-4 -9.5q0 -4 2.5 -6.5t5.5 -3.5t7 -1h103q3 0 5 1t3.5 3t1.5 7q0 7 -6.5 12.5t-12.5 13t-6.5 17.5t11.5 25l101 126l103 -143
q6 -9 4.5 -15.5t-5.5 -12.5t-8.5 -11.5t-4.5 -11.5q0 -4 1.5 -6.5t3.5 -3.5q3 -1 6 -1h125q3 0 6 1q2 1 4 3.5t2 6.5q0 6 -7 11t-17 10t-21 12.5t-19 18.5l-133 186z" />
    <glyph glyph-name="y" unicode="y" horiz-adv-x="476" 
d="M17 -162q0 -14 9 -24.5t22.5 -17.5t29.5 -10.5t31 -3.5q40 1 68.5 29t44.5 72l196 533q4 11 12 18.5t15.5 12.5t12.5 10t5 11q0 4 -1.5 6.5t-3.5 3.5q-3 1 -6 1h-99q-3 0 -6 -1q-2 -1 -4 -3.5t-2 -6.5q0 -6 7.5 -12t15 -13.5t11 -18t-4.5 -27.5l-117 -319l-118 322
q-7 17 -3 27.5t11 17t14.5 12t7.5 11.5q0 4 -2 6.5t-4 3.5q-3 1 -6 1h-127q-3 0 -5 -1q-3 -1 -4.5 -3.5t-1.5 -6.5q0 -6 5.5 -11t13 -10t15 -12.5t11.5 -18.5l146 -401q2 -6 6 -10.5t12 -4.5l-37 -102q-16 -46 -35.5 -58t-36.5 -12q-12 0 -21 6t-17.5 13.5t-16 13.5t-16.5 6
q-11 0 -19 -9t-8 -20z" />
    <glyph glyph-name="yacute" unicode="&#xfd;" horiz-adv-x="476" 
d="M16 -162q0 -14 9 -24.5t22.5 -17.5t29.5 -10.5t31 -3.5q40 1 68.5 29t44.5 72l196 533q4 11 12 18.5t15.5 12.5t12.5 10t5 11q0 4 -1.5 6.5t-3.5 3.5q-3 1 -6 1h-99q-3 0 -6 -1q-2 -1 -4 -3.5t-2 -6.5q0 -6 7.5 -12t15 -13.5t11 -18t-4.5 -27.5l-117 -319l-118 322
q-7 17 -3 27.5t11 17t14.5 12t7.5 11.5q0 4 -2 6.5t-4 3.5q-3 1 -6 1h-127q-3 0 -5 -1q-3 -1 -4.5 -3.5t-1.5 -6.5q0 -6 5.5 -11t13 -10t15 -12.5t11.5 -18.5l146 -401q2 -6 6 -10.5t12 -4.5l-37 -102q-16 -46 -35.5 -58t-36.5 -12q-12 0 -21 6t-17.5 13.5t-16 13.5t-16.5 6
q-11 0 -19 -9t-8 -20zM381 607q16 11 17 25.5t-6.5 24.5t-21.5 12.5t-29 -11.5q-25 -22 -46 -41.5t-35 -35t-20.5 -26.5t-2.5 -17q4 -5 16.5 -2.5t32 11.5t44 24.5t51.5 35.5z" />
    <glyph glyph-name="ydieresis" unicode="&#xff;" horiz-adv-x="476" 
d="M16 -162q0 -14 9 -24.5t22.5 -17.5t29.5 -10.5t31 -3.5q40 1 68.5 29t44.5 72l196 533q4 11 12 18.5t15.5 12.5t12.5 10t5 11q0 4 -1.5 6.5t-3.5 3.5q-3 1 -6 1h-99q-3 0 -6 -1q-2 -1 -4 -3.5t-2 -6.5q0 -6 7.5 -12t15 -13.5t11 -18t-4.5 -27.5l-117 -319l-118 322
q-7 17 -3 27.5t11 17t14.5 12t7.5 11.5q0 4 -2 6.5t-4 3.5q-3 1 -6 1h-127q-3 0 -5 -1q-3 -1 -4.5 -3.5t-1.5 -6.5q0 -6 5.5 -11t13 -10t15 -12.5t11.5 -18.5l146 -401q2 -6 6 -10.5t12 -4.5l-37 -102q-16 -46 -35.5 -58t-36.5 -12q-12 0 -21 6t-17.5 13.5t-16 13.5t-16.5 6
q-11 0 -19 -9t-8 -20zM99 600q0 -21 14 -35t35 -14t35.5 14t14.5 35t-14.5 35.5t-35.5 14.5t-35 -14.5t-14 -35.5zM275 600q0 -21 14 -35t35 -14t35.5 14t14.5 35t-14.5 35.5t-35.5 14.5t-35 -14.5t-14 -35.5z" />
    <glyph glyph-name="z" unicode="z" horiz-adv-x="392" 
d="M375 463q0 6 -3 9t-6 5q-5 2 -10 2h-300q-7 0 -11 -3t-6 -6q-2 -4 -3 -9l-5 -89q0 -4 1 -7t3.5 -5.5t6.5 -2.5q11 0 16 13t15 28t29 28t57 13h125q5 0 5.5 -2t-1.5 -5l-261 -396q-3 -5 -4.5 -10t-1.5 -10q0 -6 3 -9t7 -5t9 -2h303q7 0 11 3t6 6q2 4 3 9l7 87q0 4 -1 8
q-1 2 -3.5 4.5t-6.5 2.5q-11 0 -17 -12.5t-16.5 -27.5t-30.5 -27.5t-58 -12.5h-126q-5 0 -5.5 2t1.5 5l262 396q3 5 4.5 10t1.5 10z" />
    <glyph glyph-name="zcaron" unicode="&#x17e;" horiz-adv-x="392" 
d="M167 541q13 -11 27 -11.5t28 11.5q50 45 81 77t23 43q-4 5 -15.5 0t-29 -16.5t-40 -28t-47.5 -34.5q-25 18 -47 34.5t-39.5 28t-29.5 16.5t-15 0q-8 -11 23 -43t81 -77zM374 463q0 6 -3 9t-6 5q-5 2 -10 2h-300q-7 0 -11 -3t-6 -6q-2 -4 -3 -9l-5 -89q0 -4 1 -7t3.5 -5.5
t6.5 -2.5q11 0 16 13t15 28t29 28t57 13h125q5 0 5.5 -2t-1.5 -5l-261 -396q-3 -5 -4.5 -10t-1.5 -10q0 -6 3 -9t7 -5t9 -2h303q7 0 11 3t6 6q2 4 3 9l7 87q0 4 -1 8q-1 2 -3.5 4.5t-6.5 2.5q-11 0 -17 -12.5t-16.5 -27.5t-30.5 -27.5t-58 -12.5h-126q-5 0 -5.5 2t1.5 5
l262 396q3 5 4.5 10t1.5 10z" />
    <glyph glyph-name="germandbls" unicode="&#xdf;" horiz-adv-x="532" 
d="M154 502q0 33 6 63.5t20 54t37.5 38t59.5 14.5q19 0 41.5 -6t42 -21t32.5 -41.5t13 -67.5q0 -34 -11 -63t-30.5 -50t-46 -32.5t-57.5 -11.5q-7 0 -11.5 -4.5t-4.5 -11.5t4.5 -11.5t11.5 -4.5q34 0 64.5 -10.5t54 -31.5t37.5 -51.5t14 -69.5q0 -45 -16 -75.5t-40 -49.5
t-50.5 -27t-47.5 -8q-9 0 -13.5 -6t-4 -12.5t5 -12.5t12.5 -6q50 0 92 15t72 42t47 64.5t17 83.5q0 32 -12.5 61t-35 51.5t-54 37.5t-70.5 20q40 14 68 33.5t45.5 43.5t25.5 50.5t8 52.5q0 34 -13.5 64t-39.5 53t-64 36.5t-86 13.5q-50 0 -86.5 -16.5t-60 -44.5t-35 -65
t-11.5 -77v-443q0 -11 -5.5 -18.5t-12.5 -12.5t-12.5 -10t-5.5 -11q0 -4 2 -6.5t4 -3.5q3 -1 6 -1h82q3 0 6 1q2 1 4 3.5t2 6.5v491z" />
    <glyph glyph-name="ae" unicode="&#xe6;" horiz-adv-x="756" 
d="M711 245q19 0 24 8t6 22q0 55 -17 94.5t-44 64.5t-60.5 37t-66.5 12q-62 0 -106.5 -22.5t-73.5 -57.5q-18 40 -60 63t-100 23q-27 0 -54 -5.5t-48 -16t-34 -25.5t-13 -33q0 -15 10.5 -24t24.5 -9q15 0 24 11.5t20.5 25t30 24.5t51.5 11q36 0 61 -29t25 -85v-28
q-40 4 -90.5 -1t-94 -24t-73.5 -55t-30 -94q0 -67 40.5 -103.5t105.5 -36.5q52 0 98.5 20.5t87.5 69.5q26 -42 69 -68.5t106 -26.5q53 0 99.5 19t70.5 41q12 11 16 21.5t3 18t-6.5 9.5t-12.5 -4q-10 -8 -25.5 -18.5t-35 -19.5t-42 -15.5t-48.5 -6.5q-39 0 -69.5 15.5t-52 43
t-32.5 67t-11 87.5h327zM547 443q26 0 47 -9t37.5 -26.5t26.5 -43t13 -58.5q1 -8 -2 -14.5t-14 -6.5h-267q6 41 22 71t38 49.5t47.5 28.5t51.5 9zM312 108q-13 -26 -39.5 -47t-69.5 -21q-45 0 -74.5 28t-29.5 80q0 35 16 57t39.5 35t51 19t51 7.5t39.5 0.5l16 -1v-158z" />
    <glyph glyph-name="eth" unicode="&#xf0;" horiz-adv-x="508" 
d="M233 738q-3 2 -8 -0.5t-8.5 -7t-4.5 -10t4 -8.5q30 -21 56.5 -50t49 -63.5t40 -74t27.5 -83.5q-26 19 -59 30.5t-77 11.5q-62 0 -104.5 -23t-69 -58.5t-38 -79.5t-11.5 -86q0 -43 11.5 -87t38 -80t69 -59t104.5 -23q59 0 102 24t70.5 64.5t40.5 95t12 114.5
q-1 63 -17.5 128.5t-47.5 126t-76 112.5t-104 86zM100 236q0 44 10.5 82t30.5 66t48 43.5t64 15.5t64 -15.5t48 -43.5t30.5 -66t10.5 -82q0 -45 -10.5 -83.5t-30.5 -66t-48 -43.5t-64 -16t-64 16t-48 43.5t-30.5 66t-10.5 83.5zM455 689q-5 8 -9 11t-7 4q-4 1 -7 -1
l-238 -137q-3 -2 -4 -6q-1 -3 -0.5 -8t5.5 -13t9 -10.5t7 -3.5q4 -1 7 1l237 137q3 2 4 6q1 3 0.5 7.5t-4.5 12.5z" />
    <glyph glyph-name="oslash" unicode="&#xf8;" horiz-adv-x="508" 
d="M478 236q0 -43 -11.5 -87t-38 -80t-69.5 -59t-106 -23q-47 0 -82.5 13t-61.5 36l-38 -45q-2 -2 -6 -3q-3 0 -7 1.5t-10 6.5t-8.5 9t-2.5 7t2 6l42 49q-27 36 -39 80.5t-12 88.5q0 42 11.5 86t38 79.5t69 58.5t104.5 23q46 0 80.5 -12t60.5 -33l34 40q2 2 6 3
q3 0 7.5 -1.5t10.5 -6.5t8 -9t2 -7t-2 -6l-36 -43q29 -37 41.5 -82t12.5 -90zM100 236q0 -34 6 -63.5t17 -54.5l234 276q-20 23 -46 36t-58 13q-36 0 -64 -15.5t-48 -43.5t-30.5 -66t-10.5 -82zM146 80q20 -25 46.5 -39t60.5 -14q36 0 64 16t48 43.5t30.5 66t10.5 83.5
q0 35 -6.5 65t-18.5 56z" />
    <glyph glyph-name="thorn" unicode="&#xfe;" horiz-adv-x="535" 
d="M155 -145v200q21 -31 55.5 -49.5t86.5 -18.5q58 0 98 23t65 59t36.5 80t11.5 87q0 42 -11.5 86t-36.5 79.5t-65 58.5t-98 23q-51 0 -85.5 -19.5t-56.5 -51.5v236q0 9 -3.5 12.5t-6.5 4.5q-5 0 -11 -2l-76 -23l-6 -2l-4 -4t-2 -5q0 -7 6 -10t13.5 -6.5t13.5 -10.5t6 -22
v-725q0 -11 -5.5 -18.5t-12.5 -12.5t-12.5 -10t-5.5 -11q0 -4 2 -6.5t4 -3.5q3 -1 6 -1h118q3 0 6 1q2 1 4 3.5t2 6.5q0 6 -5.5 11t-12.5 10t-12.5 12.5t-5.5 18.5zM155 245q1 42 9.5 78.5t25 63t42 41.5t59.5 15q33 0 59.5 -15.5t45.5 -43.5t29.5 -66t10.5 -82
q0 -45 -9 -83.5t-27 -66t-45.5 -43.5t-63.5 -16q-31 0 -56 16t-43 43.5t-27.5 66t-9.5 83.5v9z" />
    <glyph glyph-name="oe" unicode="&#x153;" horiz-adv-x="850" 
d="M643 32q26 0 48.5 6.5t42 15.5t35 19.5t25.5 18.5q7 6 12.5 4t6.5 -9.5t-3 -18t-16 -21.5q-24 -22 -70.5 -41t-99.5 -19q-67 0 -111 30t-70 75q-25 -45 -71 -75t-119 -30q-62 0 -104.5 23t-69 59t-38 80t-11.5 87q0 42 11.5 86t38 79.5t69 58.5t104.5 23
q75 0 121.5 -31.5t71.5 -78.5q28 47 77 78.5t124 31.5q33 0 66.5 -12t60.5 -37t44 -64.5t17 -94.5q-1 -14 -6 -22t-24 -8h-327q0 -38 9 -76t29 -68.5t51 -49.5t76 -19zM100 236q0 -45 10.5 -83.5t30.5 -66t48 -43.5t64 -16t64 16t48 43.5t30.5 66t10.5 83.5q0 44 -10.5 82
t-30.5 66t-48 43.5t-64 15.5t-64 -15.5t-48 -43.5t-30.5 -66t-10.5 -82zM765 306q-3 33 -13 58.5t-26.5 43t-37.5 26.5t-47 9t-51.5 -9t-47.5 -28.5t-38 -49.5t-22 -71h267q11 0 14 6.5t2 14.5z" />
    <glyph glyph-name="florin" unicode="&#x192;" horiz-adv-x="602" 
d="M197 -84q-10 -47 -29 -72t-50 -25q-8 0 -17.5 3t-17.5 10t-12.5 17.5t-2.5 25.5q1 4 0.5 9t-3 9.5t-6.5 7.5t-10 4t-11.5 -0.5t-10 -5t-7.5 -8.5t-5 -12q-4 -18 1.5 -35.5t19 -31t33 -22t43.5 -8.5t47.5 9t44.5 28t37.5 48.5t25.5 69.5l104 476h112q4 0 7 3q2 2 4 6.5
t2 13.5t-2 14t-4 7q-3 3 -7 3h-101l23 107q10 47 29.5 72t50.5 25q8 0 18 -3t17.5 -9.5t12 -16.5t2.5 -25q-1 -5 -0.5 -10t3 -9.5t6.5 -7.5t10 -4t11.5 0t10 4t8 8t4.5 12q4 18 -1.5 35.5t-18.5 31.5t-33 22.5t-44 8.5t-48 -9t-45 -28t-37.5 -48.5t-25.5 -69.5l-19 -86h-104
q-4 0 -6 -3q-3 -2 -5 -7t-2 -14t2 -13.5t5 -6.5q2 -3 6 -3h94z" />
    <glyph glyph-name="circumflex" unicode="&#x2c6;" horiz-adv-x="326" 
d="M138 658q-50 -45 -81 -77t-23 -43q3 -5 15 0t29.5 16.5t39.5 28t47 34.5q25 -18 47.5 -34.5t40 -28t29 -16.5t15.5 0q8 11 -23 43t-81 77q-14 12 -28 11.5t-27 -11.5z" />
    <glyph glyph-name="asciicircum" unicode="^" 
d="M247 683q-3 5 -10 7.5t-15 2.5t-14.5 -2.5t-9.5 -7.5l-171 -297q-1 -3 -1 -7q1 -3 4 -7t10 -8q8 -5 13.5 -5.5t8.5 0.5q4 1 6 4l154 269l155 -269q2 -3 6 -4q3 -1 7.5 -0.5t12.5 5.5t11 9t4 7q0 4 -1 7z" />
    <glyph glyph-name="grave" unicode="`" horiz-adv-x="241" 
d="M51 607q27 -20 51.5 -35.5t44 -24.5t32 -11.5t16.5 2.5q4 6 -2 17t-20.5 26.5t-35.5 35t-46 41.5q-15 14 -29 11.5t-21.5 -12.5t-6.5 -24.5t17 -25.5z" />
    <glyph glyph-name="dieresis" unicode="&#xa8;" horiz-adv-x="334" 
d="M30 600q0 -21 14 -35t35 -14t35.5 14t14.5 35t-14.5 35.5t-35.5 14.5t-35 -14.5t-14 -35.5zM206 600q0 -21 14 -35t35 -14t35.5 14t14.5 35t-14.5 35.5t-35.5 14.5t-35 -14.5t-14 -35.5z" />
    <glyph glyph-name="macron" unicode="&#xaf;" horiz-adv-x="270" 
d="M51 590q-4 0 -6 -3q-3 -2 -5 -7t-2 -14t2 -13.5t5 -6.5q2 -3 6 -3h168q4 0 7 3q2 2 4 6.5t2 13.5t-2 14t-4 7q-3 3 -7 3h-168z" />
    <glyph glyph-name="acute" unicode="&#xb4;" horiz-adv-x="241" 
d="M214 607q16 11 17 25.5t-6.5 24.5t-21.5 12.5t-29 -11.5q-25 -22 -46 -41.5t-35 -35t-20.5 -26.5t-2.5 -17q4 -5 16.5 -2.5t32 11.5t44 24.5t51.5 35.5z" />
    <glyph glyph-name="cedilla" unicode="&#xb8;" horiz-adv-x="238" 
d="M84 -65q-2 -5 -1.5 -8t4.5 -5q11 -5 21 -12.5t17 -16.5t9 -19.5t-3 -23.5q-5 -15 -15 -25t-21 -16.5t-22 -10t-18 -5.5q-8 -2 -11 -4t-5 -5q-2 -5 0 -9t7 -6t24 -0.5t41.5 10t43.5 24t31 42.5q8 21 5.5 39t-11.5 32.5t-22.5 24.5t-28.5 15l23 60h-37z" />
    <glyph glyph-name="tilde" unicode="&#x2dc;" horiz-adv-x="422" 
d="M370 618q4 11 3.5 17.5t-4 9t-9.5 -0.5t-14 -11q-14 -14 -25.5 -19.5t-25.5 -7.5q-15 -1 -33 5.5t-38 15.5t-41.5 16.5t-43.5 7.5q-13 0 -26.5 -3.5t-25.5 -11t-22.5 -19t-17.5 -29.5q-4 -10 -4 -17t4 -9t10 0.5t14 10.5q16 17 29.5 23t32.5 4q14 -1 30 -8t33.5 -15
t36.5 -15t38 -7q14 0 28 3t27.5 10t25 19t18.5 31z" />
    <glyph glyph-name="zero" unicode="0" horiz-adv-x="623" 
d="M113 348q0 -70 14 -129.5t40 -102.5t62.5 -67.5t82.5 -24.5t82.5 24.5t62 67.5t39 102.5t13.5 129.5q0 69 -13.5 128t-39 101.5t-62 67t-82.5 24.5t-82.5 -24.5t-62.5 -67t-40 -101.5t-14 -128zM591 348q0 -62 -15 -126t-48.5 -116.5t-86.5 -85.5t-129 -33t-129 33
t-86.5 85.5t-48.5 116.5t-15 126q0 61 15 124.5t48.5 115.5t86.5 85t129 33t129 -33t86.5 -85t48.5 -115.5t15 -124.5z" />
    <glyph glyph-name="one" unicode="1" horiz-adv-x="258" 
d="M175 692q0 4 -2 5.5t-4 2.5q-3 0 -6 -1l-113 -49q-3 -1 -6 -3q-2 -2 -4 -5t-2 -7q0 -10 10.5 -11.5t23 -3t23 -6.5t10.5 -22v-519q0 -15 -8.5 -24t-19 -15.5t-19.5 -11.5t-9 -11q0 -4 2 -6.5t4 -3.5q3 -1 6 -1h158q3 0 6 1q2 1 4 3.5t2 6.5q0 6 -8.5 11t-19 11.5
t-19.5 15.5t-9 24v619z" />
    <glyph glyph-name="two" unicode="2" horiz-adv-x="512" 
d="M475 540q0 36 -15 67t-43.5 53.5t-69 35.5t-90.5 13q-42 0 -78 -8t-62.5 -21.5t-41.5 -31t-15 -36.5v-87q0 -3 1 -6q1 -2 3.5 -4t6.5 -2q11 0 17 16t15 45q9 27 26 45.5t38.5 30.5t45 17t44.5 5t46 -5.5t47 -20t36.5 -38.5t14.5 -62q0 -51 -26.5 -95t-67 -84.5t-87 -79
t-87 -79.5t-67 -86t-26.5 -99q0 -14 6.5 -18.5t17.5 -4.5h324q23 0 31 -1t21 -1q7 0 11 3t7 6q3 4 4 9l16 99v8q-1 2 -3 4.5t-6 2.5q-11 0 -17 -11t-16.5 -24t-30.5 -24t-58 -11h-223q-7 0 -13 3t-6 11q0 32 27.5 64t68.5 66.5t89 71.5t89 78t68.5 87t27.5 99z" />
    <glyph glyph-name="three" unicode="3" horiz-adv-x="524" 
d="M485 184q0 32 -12.5 60.5t-35 51t-54 37t-70.5 19.5q40 14 69 35.5t47.5 47t27 53.5t8.5 54q0 34 -14.5 64t-41.5 53t-65.5 36.5t-86.5 13.5q-42 0 -75.5 -8t-57.5 -21t-37 -27.5t-13 -28.5v-93q0 -3 1 -6q1 -2 3.5 -4t6.5 -2q11 0 17 13t15 42q17 54 57 76t83 22
q19 0 42 -6t43.5 -21t34.5 -41.5t14 -67.5q0 -30 -12 -59.5t-35.5 -53t-58 -38.5t-79.5 -16h-5q-7 0 -11.5 -4.5t-4.5 -11.5t4.5 -11.5t11.5 -4.5h5q47 0 85 -10.5t64.5 -30.5t41 -50.5t14.5 -69.5q0 -45 -16 -74.5t-40 -46.5t-50.5 -24t-47.5 -7t-46 6t-48.5 18t-42 31.5
t-27.5 46.5q-9 29 -15 45t-17 16q-4 0 -6.5 -2t-3.5 -4q-1 -3 -1 -6v-87q0 -19 16.5 -37t45 -32t66 -23t79.5 -9q50 0 92 13.5t72 39t47 62t17 82.5z" />
    <glyph glyph-name="four" unicode="4" horiz-adv-x="535" 
d="M422 73v129h80q4 0 6.5 2t3.5 4q1 3 1 6v16q0 3 -1 6q-1 2 -3.5 4t-6.5 2h-80v450q0 3 -1 4.5t-3 2.5t-4 1h-43q-6 0 -10 -3t-8 -8l-332 -448q-1 -15 2 -22.5t6 -11.5q4 -4 10 -5h313v-129q0 -15 -8.5 -24t-19 -15.5t-19.5 -11.5t-9 -11q0 -4 2 -6.5t4 -3.5q3 -1 6 -1
h158q3 0 6 1q2 1 4 3.5t2 6.5q0 6 -8.5 11t-19 11.5t-19.5 15.5t-9 24zM70 242l282 380v-380h-282z" />
    <glyph glyph-name="five" unicode="5" horiz-adv-x="536" 
d="M257 -13q83 0 138 34t83 85.5t29 111.5t-24.5 111.5t-77 85.5t-128.5 34q-41 0 -80.5 -12t-74.5 -31v214h323q4 0 6.5 2t3.5 4q1 3 1 6v46q0 3 -1 6q-1 2 -3.5 4t-6.5 2h-350q-3 0 -6 -1q-2 -1 -4 -3.5t-2 -6.5v-299q0 -4 2 -6.5t4 -3.5q3 -1 6 -1h15q9 0 15.5 3t26.5 13
q19 9 48 18t77 9q53 0 89 -28.5t54.5 -72t18.5 -93.5t-20 -93.5t-60 -72t-102 -28.5q-21 0 -46 6t-48.5 18t-42 31.5t-27.5 46.5q-4 15 -8 26t-7.5 19t-7.5 12t-9 4q-4 0 -6.5 -2t-3.5 -4q-1 -3 -1 -6v-87q0 -19 16.5 -37t45 -32t66 -23t79.5 -9z" />
    <glyph glyph-name="six" unicode="6" horiz-adv-x="571" 
d="M514 612q0 19 -15 36.5t-41.5 31t-62.5 21.5t-78 8q-78 -1 -132 -34.5t-88 -86t-49 -116.5t-15 -124q0 -62 13.5 -126t44.5 -116.5t83 -85.5t128 -33q55 0 100 18t76.5 48.5t48.5 71t17 85.5q0 43 -14.5 83t-44 71t-74.5 49.5t-107 18.5q-49 0 -100 -15t-91 -39
q3 63 18 116.5t40.5 92.5t60.5 61.5t78 23.5q24 0 49 -5t47 -17t39 -30.5t26 -45.5q9 -29 15 -45t17 -16q4 0 6.5 2t3.5 4q1 3 1 6v87zM285 390q50 -1 83 -17.5t53 -42t28.5 -56.5t8.5 -60q0 -40 -11 -74.5t-31 -60t-48 -40.5t-62 -15q-47 0 -82.5 23t-59.5 64.5t-37 98
t-14 123.5q40 29 88.5 43.5t83.5 13.5z" />
    <glyph glyph-name="seven" unicode="7" horiz-adv-x="480" 
d="M55 692q-7 0 -11 -3t-6 -6q-3 -4 -4 -9l-9 -95q0 -4 1 -7t3 -5.5t6 -2.5q14 0 21 9t16 19.5t24.5 19t47.5 8.5h253q-63 -81 -113.5 -161t-85 -157.5t-52.5 -150.5t-15 -140q0 -4 2 -6.5t4 -3.5q3 -1 6 -1h58q3 0 6 1q2 1 4 3.5t2 6.5q2 78 17.5 153t43 146.5t65.5 140.5
t85 135q9 13 16 21t11 13.5t6 10t2 10.5v38q0 4 -2 6.5t-4 3.5q-3 1 -6 1h-340q-11 0 -18.5 0.5t-12.5 0.5t-10 0.5t-11 0.5z" />
    <glyph glyph-name="eight" unicode="8" horiz-adv-x="530" 
d="M481 542q0 33 -14.5 63t-42 53.5t-68 37t-91.5 13.5q-50 0 -90.5 -13t-69 -35.5t-43.5 -53.5t-15 -67q0 -35 12.5 -62t33.5 -49t49 -39.5t59 -34.5q-37 -14 -69 -34t-56 -45.5t-37.5 -55t-13.5 -63.5q0 -40 21.5 -72t56.5 -54.5t79.5 -34t90.5 -10.5q44 1 86.5 13.5
t75.5 35.5t53 56t20 75q0 38 -15 67.5t-39.5 53t-55.5 41.5t-64 33q73 29 110 79.5t37 101.5zM247 332q36 -15 69.5 -31.5t60 -37.5t42.5 -48t16 -62q0 -30 -14.5 -54.5t-37.5 -42t-53 -26.5t-61 -8q-32 1 -62.5 11t-54.5 28.5t-38.5 44.5t-14.5 57q0 30 12.5 55.5t33 46.5
t47.5 38t55 29zM121 558q0 33 14.5 55t36.5 35t47 18.5t46 5.5q22 0 47 -6t46 -21t35 -41.5t14 -67.5q0 -45 -31.5 -86t-87.5 -65q-33 17 -63.5 34t-53.5 37.5t-36.5 45t-13.5 56.5z" />
    <glyph glyph-name="nine" unicode="9" horiz-adv-x="571" 
d="M34 486q0 -43 14.5 -83t44 -71t75 -49.5t106.5 -18.5q49 0 100 15t91 39q-3 -63 -18 -116.5t-40.5 -92.5t-60.5 -61.5t-78 -23.5q-24 0 -49 5t-47 17t-39 30.5t-26 45.5q-9 29 -15 45t-17 16q-4 0 -6.5 -2t-3.5 -4q-1 -3 -1 -6v-87q0 -19 15 -36.5t41.5 -31t62.5 -21.5
t78 -8q78 1 132 34.5t88 86t49 116.5t15 124q0 62 -13.5 126t-44.5 116.5t-82.5 85.5t-128.5 33q-55 0 -100 -18t-76.5 -48.5t-48.5 -71t-17 -85.5zM293 306q-49 1 -82.5 17.5t-53.5 42t-28.5 56.5t-8.5 60q0 40 11 74.5t31 60t48 40.5t62 15q47 0 82.5 -23t59.5 -64.5
t37 -98t14 -123.5q-40 -29 -88.5 -43.5t-83.5 -13.5z" />
    <glyph glyph-name="mu" unicode="&#xb5;" horiz-adv-x="534" 
d="M49 -197q0 -4 2 -6.5t4 -3.5q3 -1 6 -1h118q3 0 6 1q2 1 4 3.5t2 6.5q0 6 -5.5 11t-12.5 10t-12.5 12.5t-5.5 18.5v166q17 -17 42.5 -27t56.5 -10q35 0 65.5 17t65.5 49v-39q0 -4 2 -6.5t4 -3.5q3 -1 6 -1h82q3 0 6 1q2 1 4 3.5t2 6.5q0 6 -5.5 11t-12.5 10t-12.5 12.5
t-5.5 18.5v402q0 9 -3.5 12.5t-6.5 4.5q-5 0 -11 -2l-76 -23l-6 -2l-4 -4t-2 -5q0 -7 6 -10t13.5 -6.5t13.5 -10.5t6 -22v-273q0 -8 -9 -22.5t-25.5 -28.5t-41 -24t-56.5 -9q-18 0 -35 6t-30.5 18.5t-22 32t-8.5 47.5v321q0 9 -3.5 12.5t-6.5 4.5q-5 0 -11 -2l-78 -23l-6 -2
l-4 -4t-2 -5q0 -7 6 -10t13.5 -6.5t13.5 -10.5t6 -22v-542q0 -11 -5.5 -18.5t-12.5 -12.5t-12.5 -10t-5.5 -11z" />
    <glyph glyph-name="underscore" unicode="_" horiz-adv-x="409" 
d="M0 -149q-4 0 -7 -3q-2 -2 -4 -7t-2 -14t2 -13.5t4 -6.5q3 -3 7 -3h409q4 0 7 3q2 2 4 6.5t2 13.5t-2 14t-4 7q-3 3 -7 3h-409z" />
    <glyph glyph-name="hyphen" unicode="-" horiz-adv-x="344" 
d="M293 253q4 0 7 3q2 2 4 6.5t2 13.5t-2 14t-4 7q-3 3 -7 3h-242q-4 0 -6 -3q-3 -2 -5 -7t-2 -14t2 -13.5t5 -6.5q2 -3 6 -3h242z" />
    <glyph glyph-name="endash" unicode="&#x2013;" horiz-adv-x="545" 
d="M506 299q0 9 -2 14t-4 7q-3 3 -7 3h-442q-4 0 -6 -3q-3 -2 -5 -7t-2 -14t2 -13.5t5 -6.5q2 -3 6 -3h442q4 0 7 3q2 2 4 6.5t2 13.5z" />
    <glyph glyph-name="emdash" unicode="&#x2014;" horiz-adv-x="846" 
d="M816 299q0 9 -2 14t-4 7q-3 3 -7 3h-752q-4 0 -6 -3q-3 -2 -5 -7t-2 -14t2 -13.5t5 -6.5q2 -3 6 -3h752q4 0 7 3q2 2 4 6.5t2 13.5z" />
    <glyph glyph-name="parenleft" unicode="(" horiz-adv-x="321" 
d="M296 -128q-56 40 -94 107t-57 147.5t-18.5 167.5t19 167.5t56.5 147.5t94 107q5 3 5 8t-2 8.5t-6 5.5t-8 0q-81 -38 -135 -108t-81 -156t-27 -180t27 -180t81 -156t135 -108q4 -2 8 0t6 5.5t2 8.5t-5 8z" />
    <glyph glyph-name="bracketleft" unicode="[" horiz-adv-x="250" 
d="M130 676q0 11 15 18.5t33 12.5t33 10t15 11q0 4 -2 6.5t-4 3.5q-3 1 -6 1h-142q-3 0 -6 -1q-2 -1 -4 -3.5t-2 -6.5v-868q0 -4 2 -6.5t4 -3.5q3 -1 6 -1h142q3 0 6 1q2 1 4 3.5t2 6.5q0 6 -15 11t-33 10t-33 12.5t-15 18.5v764z" />
    <glyph glyph-name="braceleft" unicode="{" horiz-adv-x="281" 
d="M161 649q0 21 7 32t18 16.5t23 7.5t23 4t18 6t7 13q0 4 -2 6.5t-4 3.5q-3 1 -6 1h-61q-26 -1 -46 -12q-18 -8 -32.5 -27t-14.5 -54v-299q0 -5 -1 -12t-6 -13t-17 -10.5t-35 -4.5q-4 0 -6 -2q-3 -1 -5 -4t-2 -8t2 -7.5t5 -3.5q2 -2 6 -2q29 -1 44.5 -14t14.5 -32v-302
q0 -31 11.5 -48t25.5 -25q16 -9 37 -10h80q3 0 6 1q2 1 4 3.5t2 6.5q0 11 -7 15t-18 5.5t-23 2.5t-23 5t-18 13.5t-7 28.5v312q0 22 -14 34.5t-40 16.5q18 3 28 7.5t15.5 11.5t7.5 14.5t3 16.5v306z" />
    <glyph glyph-name="quotesinglbase" unicode="&#x201a;" horiz-adv-x="156" 
d="M12 -108q0 -5 3 -8.5t8 -3.5q6 0 23 10t35.5 28t33 44.5t14.5 59.5q0 31 -14.5 47t-35.5 16t-35 -14.5t-14 -35.5q0 -16 5.5 -25t12.5 -16t12.5 -14t5.5 -17q0 -19 -15 -34t-28 -23q-6 -4 -8.5 -7t-2.5 -7z" />
    <glyph glyph-name="quotedblbase" unicode="&#x201e;" horiz-adv-x="281" 
d="M12 -108q0 -5 3 -8.5t8 -3.5q6 0 23 10t35.5 28t33 44.5t14.5 59.5q0 31 -14.5 47t-35.5 16t-35 -14.5t-14 -35.5q0 -16 5.5 -25t12.5 -16t12.5 -14t5.5 -17q0 -19 -15 -34t-28 -23q-6 -4 -8.5 -7t-2.5 -7zM142 -108q0 -5 3 -8.5t8 -3.5q6 0 23 10t35.5 28t33 44.5
t14.5 59.5q0 31 -14.5 47t-35.5 16t-35 -14.5t-14 -35.5q0 -16 5.5 -25t12.5 -16t12.5 -14t5.5 -17q0 -19 -15 -34t-28 -23q-6 -4 -8.5 -7t-2.5 -7z" />
    <glyph glyph-name="parenright" unicode=")" horiz-adv-x="321" 
d="M34 -128q-5 -3 -5 -8t2 -8.5t6 -5.5t8 0q81 38 135 108t81 156t27 180t-27 180t-81 156t-135 108q-4 2 -8 0t-6 -5.5t-2 -8.5t5 -8q57 -40 94.5 -107t56 -147.5t19 -167.5t-18.5 -167.5t-56.5 -147.5t-94.5 -107z" />
    <glyph glyph-name="bracketright" unicode="]" horiz-adv-x="250" 
d="M126 -88q0 -11 -15 -18.5t-33 -12.5t-33 -10t-15 -11q0 -4 2 -6.5t4 -3.5q3 -1 6 -1h142q3 0 6 1q2 1 4 3.5t2 6.5v868q0 4 -2 6.5t-4 3.5q-3 1 -6 1h-142q-3 0 -6 -1q-2 -1 -4 -3.5t-2 -6.5q0 -6 15 -11t33 -10t33 -12.5t15 -18.5v-764z" />
    <glyph glyph-name="braceright" unicode="}" horiz-adv-x="281" 
d="M115 343q1 -9 3 -16.5t7.5 -14.5t15.5 -11.5t28 -7.5q-26 -4 -40 -16.5t-14 -34.5v-312q0 -19 -7 -28.5t-18 -13.5t-23 -5t-23 -2.5t-18 -5.5t-7 -15q0 -4 2 -6.5t4 -3.5q3 -1 6 -1h80q21 1 37 10q14 8 25.5 25t11.5 48v302q-1 19 14.5 32t44.5 14q4 0 7 2q2 1 4 3.5
t2 7.5t-2 8t-4 4q-3 2 -7 2q-23 0 -35 4.5t-17 10.5t-6 13t-1 12v299q0 35 -14.5 54t-31.5 27q-21 11 -47 12h-61q-3 0 -6 -1q-2 -1 -4 -3.5t-2 -6.5q0 -9 7 -13t18 -6t23 -4t23 -7.5t18 -16.5t7 -32v-306z" />
    <glyph glyph-name="guillemotleft" unicode="&#xab;" horiz-adv-x="357" 
d="M188 271q23 -25 45.5 -49t41.5 -42t33 -27.5t20 -5.5q5 3 -3 18t-23.5 36t-35 46.5t-37.5 50.5q18 25 37.5 50.5t35 47t23.5 36t3 18.5q-6 4 -20 -5.5t-33 -27.5t-41.5 -42t-45.5 -49q-12 -14 -11.5 -28t11.5 -27zM48 271q23 -25 45.5 -49t41.5 -42t33 -27.5t20 -5.5
q5 3 -3 18t-23.5 36t-35 46.5t-37.5 50.5q18 25 37.5 50.5t35 47t23.5 36t3 18.5q-6 4 -20 -5.5t-33 -27.5t-41.5 -42t-45.5 -49q-12 -14 -11.5 -28t11.5 -27z" />
    <glyph glyph-name="quoteleft" unicode="&#x2018;" horiz-adv-x="156" 
d="M137 670q0 5 -3 8.5t-8 3.5q-6 0 -23 -10t-35.5 -28t-33 -44.5t-14.5 -59.5q0 -31 14.5 -47t35.5 -16t35 14.5t14 35.5q0 16 -5.5 25t-12.5 16t-12.5 14t-5.5 17q0 19 15 34t28 23q6 4 8.5 7t2.5 7z" />
    <glyph glyph-name="quotedblleft" unicode="&#x201c;" horiz-adv-x="281" 
d="M137 670q0 5 -3 8.5t-8 3.5q-6 0 -23 -10t-35.5 -28t-33 -44.5t-14.5 -59.5q0 -31 14.5 -47t35.5 -16t35 14.5t14 35.5q0 16 -5.5 25t-12.5 16t-12.5 14t-5.5 17q0 19 15 34t28 23q6 4 8.5 7t2.5 7zM267 670q0 5 -3 8.5t-8 3.5q-6 0 -23 -10t-35.5 -28t-33 -44.5
t-14.5 -59.5q0 -31 14.5 -47t35.5 -16t35 14.5t14 35.5q0 16 -5.5 25t-12.5 16t-12.5 14t-5.5 17q0 19 15 34t28 23q6 4 8.5 7t2.5 7z" />
    <glyph glyph-name="guilsinglleft" unicode="&#x2039;" horiz-adv-x="221" 
d="M58 271q23 -25 45.5 -49t41.5 -42t33 -27.5t20 -5.5q5 3 -3 18t-23.5 36t-35 46.5t-37.5 50.5q18 25 37.5 50.5t35 47t23.5 36t3 18.5q-6 4 -20 -5.5t-33 -27.5t-41.5 -42t-45.5 -49q-12 -14 -11.5 -28t11.5 -27z" />
    <glyph glyph-name="guillemotright" unicode="&#xbb;" horiz-adv-x="357" 
d="M175 271q11 13 11.5 27t-11.5 28q-22 25 -45 49t-42 42t-33 27.5t-20 5.5q-5 -4 3 -18.5t23.5 -36t35 -47t37.5 -50.5q-18 -25 -37.5 -50.5t-35 -46.5t-23.5 -36t-3 -18q6 -4 20 5.5t33 27.5t42 42t45 49zM315 271q11 13 11.5 27t-11.5 28q-22 25 -45 49t-42 42t-33 27.5
t-20 5.5q-5 -4 3 -18.5t23.5 -36t35 -47t37.5 -50.5q-18 -25 -37.5 -50.5t-35 -46.5t-23.5 -36t-3 -18q6 -4 20 5.5t33 27.5t42 42t45 49z" />
    <glyph glyph-name="quoteright" unicode="&#x2019;" horiz-adv-x="156" 
d="M20 489q0 -5 3 -8.5t8 -3.5q6 0 23 10t35.5 28t33 44.5t14.5 59.5q0 31 -14.5 47t-35.5 16t-35 -14.5t-14 -35.5q0 -16 5.5 -25t12.5 -16t12.5 -13.5t5.5 -17.5q0 -19 -15 -34t-28 -23q-6 -4 -8.5 -7t-2.5 -7z" />
    <glyph glyph-name="quotedblright" unicode="&#x201d;" horiz-adv-x="281" 
d="M150 489q0 -5 3 -8.5t8 -3.5q6 0 23 10t35.5 28t33 44.5t14.5 59.5q0 31 -14.5 47t-35.5 16t-35 -14.5t-14 -35.5q0 -16 5.5 -25t12.5 -16t12.5 -13.5t5.5 -17.5q0 -19 -15 -34t-28 -23q-6 -4 -8.5 -7t-2.5 -7zM20 489q0 -5 3 -8.5t8 -3.5q6 0 23 10t35.5 28t33 44.5
t14.5 59.5q0 31 -14.5 47t-35.5 16t-35 -14.5t-14 -35.5q0 -16 5.5 -25t12.5 -16t12.5 -13.5t5.5 -17.5q0 -19 -15 -34t-28 -23q-6 -4 -8.5 -7t-2.5 -7z" />
    <glyph glyph-name="guilsinglright" unicode="&#x203a;" horiz-adv-x="221" 
d="M175 271q11 13 11.5 27t-11.5 28q-22 25 -45 49t-42 42t-33 27.5t-20 5.5q-5 -4 3 -18.5t23.5 -36t35 -47t37.5 -50.5q-18 -25 -37.5 -50.5t-35 -46.5t-23.5 -36t-3 -18q6 -4 20 5.5t33 27.5t42 42t45 49z" />
    <glyph glyph-name="exclam" unicode="!" horiz-adv-x="163" 
d="M123 656q0 11 -3 19.5t-8 14.5t-13 9t-17 3t-17 -3t-13 -9t-8 -14.5t-3 -19.5q0 -13 2 -51.5t5 -88.5t6.5 -105.5t6.5 -103t5.5 -80t2.5 -37.5q1 -9 5.5 -11.5t7.5 -2.5t7 2.5t5 11.5q1 5 3 37.5t5.5 80t7 103.5t6.5 106t5 88t2 51zM32 35q0 -21 14 -35t35 -14t35.5 14
t14.5 35t-14.5 35.5t-35.5 14.5t-35 -14.5t-14 -35.5z" />
    <glyph glyph-name="quotedbl" unicode="&#x22;" horiz-adv-x="268" 
d="M45 642q0 -41 2.5 -75t6.5 -58.5t9.5 -38t12.5 -13.5t12 13.5t9 38t6.5 58.5t3.5 75q1 23 -8 34.5t-23 11.5t-22.5 -11.5t-8.5 -34.5zM165 642q0 -41 2.5 -75t6.5 -58.5t9.5 -38t12.5 -13.5t12 13.5t9 38t6.5 58.5t3.5 75q1 23 -8 34.5t-23 11.5t-22.5 -11.5t-8.5 -34.5z
" />
    <glyph glyph-name="numbersign" unicode="#" horiz-adv-x="559" 
d="M446 679q1 4 -1 7q-2 2 -6 4t-13 2t-14 -2t-8 -4q-4 -3 -5 -7l-37 -132h-103l37 132q1 4 -1 7q-2 2 -6 4t-13 2t-14 -2t-8 -4q-4 -3 -5 -7l-37 -132h-113q-4 0 -7 -3q-3 -2 -6.5 -7t-5.5 -14q-3 -9 -2 -13.5t2 -6.5q2 -3 6 -3h113l-37 -133h-113q-4 0 -7 -3
q-3 -2 -6.5 -7t-6.5 -14q-2 -9 -1.5 -13.5t2.5 -6.5q2 -3 6 -3h113l-37 -133q-1 -4 1 -6q1 -3 5 -5t13 -2t14.5 2t8.5 5q4 2 5 6l37 133h103l-37 -133q-1 -4 1 -6q1 -3 5 -5t13 -2t14.5 2t8.5 5q4 2 5 6l37 133h112q4 0 7 3q3 2 6.5 6.5t5.5 13.5q3 9 2 14t-2 7q-2 3 -6 3
h-112l37 133h112q4 0 7 3q3 2 6.5 6.5t6.5 13.5q2 9 1.5 14t-2.5 7q-2 3 -6 3h-112zM246 500h103l-37 -133h-103z" />
    <glyph glyph-name="percent" unicode="%" horiz-adv-x="723" 
d="M519 682l-281 -681q-2 -3 -5 -5q-3 -1 -8 -1t-13 3t-12 7t-5 7q-1 4 0 7l281 681q2 3 5 5q3 1 8.5 1t13.5 -4q8 -3 11.5 -6.5t4.5 -6.5q1 -4 0 -7zM296 520q0 -32 -6.5 -65t-22 -59.5t-40 -43.5t-60.5 -17t-60.5 17t-40 43.5t-22 59.5t-6.5 65t6.5 65t22 59.5t40 43.5
t60.5 17t60.5 -17t40 -43.5t22 -59.5t6.5 -65zM91 520q0 -33 4 -61.5t13 -49t23.5 -32.5t35.5 -12q20 0 34.5 12t23.5 32.5t13 49t4 61.5t-4 61.5t-13 49t-23.5 32.5t-34.5 12q-21 0 -35.5 -12t-23.5 -32.5t-13 -49t-4 -61.5zM678 176q0 -32 -6.5 -65t-22 -59.5t-40 -43.5
t-60.5 -17t-60.5 17t-40 43.5t-22 59.5t-6.5 65t6.5 65t22 59.5t40 43.5t60.5 17t60.5 -17t40 -43.5t22 -59.5t6.5 -65zM473 176q0 -33 4 -61.5t13 -49t23.5 -32.5t35.5 -12q20 0 34.5 12t23.5 32.5t13 49t4 61.5t-4 61.5t-13 49t-23.5 32.5t-34.5 12q-21 0 -35.5 -12
t-23.5 -32.5t-13 -49t-4 -61.5z" />
    <glyph glyph-name="ampersand" unicode="&#x26;" horiz-adv-x="650" 
d="M526 11q3 -5 6.5 -7.5t5.5 -2.5q3 -1 6 -1h68q5 0 9 1q3 1 5.5 3.5t2.5 6.5q0 6 -4.5 8.5t-13 6.5t-20 12t-26.5 24q-87 87 -149.5 153t-104.5 116t-66.5 85.5t-37.5 62t-16.5 46.5t-3.5 37q0 26 7 45.5t19 33t27.5 20.5t33.5 7q20 0 36.5 -6.5t28.5 -19.5t18.5 -31.5
t6.5 -41.5q0 -39 -11.5 -66.5t-29 -46.5t-39 -31.5t-41.5 -21.5l26 -34q21 9 49.5 24.5t54 39.5t43 57t17.5 78q0 33 -12.5 58t-34 42.5t-50.5 26.5t-62 9q-31 0 -59.5 -9.5t-50 -28t-34 -45t-12.5 -59.5q0 -24 5.5 -49.5t20.5 -57.5t43 -72t73.5 -93t110.5 -121.5
t155 -157.5zM204 391q-40 -15 -73.5 -36t-58 -47t-38.5 -58t-14 -69q0 -39 14.5 -74t44.5 -62t76.5 -42.5t109.5 -15.5q67 0 117.5 23.5t84.5 64t51 95t17 117.5q0 11 7 18.5t16 12.5t16 10t7 11q0 4 -2 6.5t-4 3.5q-3 1 -6 1h-113q-3 0 -6 -1q-2 -1 -4 -3.5t-2 -6.5
q0 -9 7 -12.5t16 -9t16 -16.5t7 -34q0 -63 -20.5 -107.5t-52.5 -73t-72 -42t-78 -13.5q-43 0 -75 13t-54 35t-33 49.5t-11 56.5q0 65 38 107.5t99 66.5z" />
    <glyph glyph-name="quotesingle" unicode="'" horiz-adv-x="148" 
d="M45 642q0 -41 2.5 -75t6.5 -58.5t9.5 -38t12.5 -13.5t12 13.5t9 38t6.5 58.5t3.5 75q1 23 -8 34.5t-23 11.5t-22.5 -11.5t-8.5 -34.5z" />
    <glyph glyph-name="asterisk" unicode="*" horiz-adv-x="315" 
d="M187 665q0 17 -8.5 26.5t-22.5 9.5t-22.5 -9.5t-8.5 -26.5q0 -6 2.5 -16l5.5 -22t6 -25.5t4 -25.5q1 -6 -1 -8.5t-10 -0.5q-10 5 -21 11t-21 11.5t-18.5 9.5t-13.5 5q-17 4 -27.5 -2.5t-14.5 -20.5q-2 -14 5.5 -24t24.5 -14q5 -1 14 -1t20.5 0.5t23.5 1t24 0.5
q6 0 7 -2.5t-4 -7.5q-10 -8 -21 -16.5t-21.5 -16t-18.5 -14t-11 -10.5q-11 -14 -9.5 -26.5t12.5 -21.5q11 -8 23.5 -5.5t23.5 16.5q3 4 7.5 13t9.5 20.5t10.5 24t10.5 23.5q5 9 8.5 8t8.5 -8q5 -11 10.5 -23.5t11 -24t10 -20.5t7.5 -13q11 -14 23.5 -16.5t23.5 5.5
q11 9 12.5 21.5t-9.5 26.5q-3 4 -11 10.5t-18.5 14t-21.5 16t-21 16.5q-5 5 -4 7.5t7 2.5q12 0 24.5 -0.5t23.5 -1t20 -0.5t14 1q17 4 24.5 14t5.5 24q-4 14 -14.5 20.5t-27.5 2.5q-5 -1 -13.5 -5t-18.5 -9.5t-20.5 -11.5t-21.5 -11q-8 -2 -10 0.5t-1 8.5q2 12 5 25.5
t6 25.5t5 22t2 16z" />
    <glyph glyph-name="comma" unicode="," horiz-adv-x="156" 
d="M12 -108q0 -5 3 -8.5t8 -3.5q6 0 23 10t35.5 28t33 44.5t14.5 59.5q0 31 -14.5 47t-35.5 16t-35 -14.5t-14 -35.5q0 -16 5.5 -25t12.5 -16t12.5 -14t5.5 -17q0 -19 -15 -34t-28 -23q-6 -4 -8.5 -7t-2.5 -7z" />
    <glyph glyph-name="period" unicode="." horiz-adv-x="156" 
d="M30 35q0 -21 14 -35t35 -14t35.5 14t14.5 35t-14.5 35.5t-35.5 14.5t-35 -14.5t-14 -35.5z" />
    <glyph glyph-name="slash" unicode="/" horiz-adv-x="409" 
d="M381 722q-8 4 -13.5 4t-8.5 -1q-3 -2 -5 -5l-336 -816q-1 -3 0 -7q1 -3 5 -7t12 -7t13 -3t8 1q3 2 5 5l336 816q1 3 0 7q-1 3 -4.5 6.5t-11.5 6.5z" />
    <glyph glyph-name="colon" unicode=":" horiz-adv-x="156" 
d="M30 35q0 -21 14 -35t35 -14t35.5 14t14.5 35t-14.5 35.5t-35.5 14.5t-35 -14.5t-14 -35.5zM30 415q0 -21 14 -35t35 -14t35.5 14t14.5 35t-14.5 35.5t-35.5 14.5t-35 -14.5t-14 -35.5z" />
    <glyph glyph-name="semicolon" unicode=";" horiz-adv-x="156" 
d="M30 415q0 -21 14 -35t35 -14t35.5 14t14.5 35t-14.5 35.5t-35.5 14.5t-35 -14.5t-14 -35.5zM12 -108q0 -5 3 -8.5t8 -3.5q6 0 23 10t35.5 28t33 44.5t14.5 59.5q0 31 -14.5 47t-35.5 16t-35 -14.5t-14 -35.5q0 -16 5.5 -25t12.5 -16t12.5 -14t5.5 -17q0 -19 -15 -34
t-28 -23q-6 -4 -8.5 -7t-2.5 -7z" />
    <glyph glyph-name="question" unicode="?" horiz-adv-x="450" 
d="M228 675q18 0 39.5 -6t40 -19.5t30.5 -35.5t12 -55q0 -31 -11 -55.5t-28 -46t-38.5 -41t-41.5 -42.5q-15 -16 -26.5 -29.5t-19.5 -32t-12.5 -46t-4.5 -72.5q0 -7 5.5 -10.5t12.5 -3.5t12.5 3.5t5.5 11.5q0 36 4.5 57.5t12.5 36t18.5 24.5t23.5 22q24 24 52.5 44.5
t52.5 44.5t40 56.5t16 80.5q0 31 -14 58t-40 47t-61.5 31.5t-79.5 11.5q-51 0 -88 -13.5t-61 -34.5t-35.5 -47t-11.5 -50q0 -13 6.5 -29t28.5 -16q20 0 29 14.5t7 39.5q-1 14 4.5 32t19.5 33.5t38.5 26t61.5 10.5zM137 35q0 -21 14 -35t35 -14t35.5 14t14.5 35t-14.5 35.5
t-35.5 14.5t-35 -14.5t-14 -35.5z" />
    <glyph glyph-name="at" unicode="@" horiz-adv-x="915" 
d="M710 0q41 0 73 20t55 53t35 76t12 89q0 76 -23.5 155.5t-75 144.5t-132 106.5t-194.5 41.5t-194.5 -41.5t-131.5 -106.5t-75 -144.5t-24 -155.5q0 -78 24 -158t75 -145.5t131.5 -107t194.5 -41.5q57 0 105.5 11t90.5 31q13 6 17 16t2 18t-9 12.5t-16 -0.5
q-39 -21 -87 -31t-103 -10q-79 0 -143.5 31t-110.5 85t-71.5 128t-25.5 161q0 85 25.5 158.5t71.5 127.5t110.5 84.5t143.5 30.5t143.5 -30.5t110 -84.5t70.5 -127.5t25 -158.5q0 -31 -5 -65.5t-16.5 -63.5t-30.5 -48.5t-47 -19.5q-35 0 -51 33.5t-16 91.5v304q0 4 -2 6.5
t-4 3.5q-3 1 -6 1q-10 0 -19.5 -15t-38.5 -54q-22 32 -56.5 51.5t-85.5 19.5q-58 0 -98 -23t-65 -58.5t-36.5 -79.5t-11.5 -86q0 -43 11.5 -87t36.5 -80t65 -59t98 -23q52 0 91.5 25t65.5 70q12 -40 43 -61t79 -21zM573 245v-9q0 -45 -9.5 -83.5t-27.5 -66t-43 -43.5
t-56 -16q-36 0 -63.5 16t-45.5 43.5t-27 66t-9 83.5q0 44 10.5 82t29.5 66t45.5 43.5t59.5 15.5q34 0 59.5 -15t42 -41.5t25 -63t9.5 -78.5z" />
    <glyph glyph-name="backslash" unicode="\" horiz-adv-x="409" 
d="M34 722q-8 -3 -11.5 -6.5t-4.5 -6.5q-1 -4 0 -7l336 -816q2 -3 5 -5q3 -1 8 -1t13 3t12 7t5 7q1 4 0 7l-336 816q-2 3 -5 5q-3 1 -8.5 1t-13.5 -4z" />
    <glyph glyph-name="exclamdown" unicode="&#xa1;" horiz-adv-x="163" 
d="M39.0078 -266.96q0 -10.999 3 -19.499q2.99902 -8.49902 7.99902 -14.499q5 -5.99902 12.999 -8.99902q8 -3 16.999 -3q9 0 16.999 3q8 3 12.999 8.99902q5 6 8 14.499q3 8.5 3 19.499q0 12.999 -2 51.4971q-2 38.4971 -5 88.4941t-6.5 105.494
q-3.49902 55.4961 -6.49902 102.993t-5.5 79.9951t-2.5 37.498q-1 8.99902 -5.49902 11.499q-4.5 2.5 -7.5 2.5t-6.99902 -2.5q-4 -2.5 -5 -11.499q-1 -5 -3 -37.498t-5.5 -79.9951q-3.49902 -47.4971 -6.99902 -103.493q-3.5 -55.9971 -6.5 -105.994t-4.99902 -87.9941
q-2 -37.998 -2 -50.9971zM130.002 354.002q0 20.999 -13.999 34.998t-34.998 13.999t-35.498 -13.999t-14.499 -34.998q0 -20.998 14.499 -35.498q14.499 -14.499 35.498 -14.499t34.998 14.499q13.999 14.5 13.999 35.498z" />
    <glyph glyph-name="section" unicode="&#xa7;" horiz-adv-x="551" 
d="M519 253q0 49 -26.5 81.5t-66 56.5t-86 43t-86 39t-66 45.5t-26.5 63.5q0 29 28 51t79 22q26 0 57.5 -9.5t54.5 -41.5q8 -10 16 -21t19 -11q4 0 6.5 2t3.5 4q1 3 1 6v48q0 16 -16 28t-39.5 19.5t-50.5 11.5t-49 4q-45 0 -78.5 -10.5t-56 -29.5t-34 -44.5t-11.5 -54.5
q0 -52 26.5 -85.5t66 -56.5t86 -39.5t86 -34.5t66 -42.5t26.5 -63.5q0 -38 -26.5 -59.5t-76.5 -22.5v-40q44 1 76 12.5t54 30.5t32.5 44.5t10.5 53.5zM27 317q0 -49 26.5 -81.5t66 -56.5t86 -43t86 -39t66 -45.5t26.5 -63.5q0 -29 -28 -51t-79 -22q-26 0 -57.5 9.5
t-54.5 41.5q-8 10 -16 21t-19 11q-4 0 -6.5 -2t-3.5 -4q-1 -3 -1 -6v-48q0 -16 16 -28t39.5 -19.5t50.5 -11.5t49 -4q45 0 79 10.5t56.5 29.5t33.5 44.5t11 54.5q0 52 -26.5 85.5t-66 56.5t-86 39.5t-86 34.5t-66 42.5t-26.5 63.5q0 38 27 59.5t76 22.5v40
q-43 -1 -75.5 -12.5t-54.5 -30.5t-32.5 -44.5t-10.5 -53.5z" />
    <glyph glyph-name="paragraph" unicode="&#xb6;" horiz-adv-x="588" 
d="M286 295q13 0 20 -7.5t7 -21.5v-203q0 -11 -7 -18.5t-16 -12.5t-16 -10t-7 -11q0 -4 2 -6.5t4 -3.5q3 -1 6 -1h92q3 0 6 1q2 1 4 3.5t2 6.5v668q0 4 -2 6.5t-4 3.5q-3 1 -6 1h-137q-54 0 -93 -16t-64 -42.5t-37 -62t-12 -74.5t11 -75t39 -63.5t76 -44.5t122 -17h10z
M443 679v-668q0 -4 2 -6.5t4 -3.5q3 -1 6 -1h92q3 0 6 1q2 1 4 3.5t2 6.5q0 6 -7 11t-16 10t-16 12.5t-7 18.5v564q0 11 7 18.5t16 12.5t16 10t7 11q0 4 -2 6.5t-4 3.5q-3 1 -6 1h-92q-3 0 -6 -1q-2 -1 -4 -3.5t-2 -6.5z" />
    <glyph glyph-name="periodcentered" unicode="&#xb7;" horiz-adv-x="156" 
d="M30 302q0 -21 14 -35t35 -14t35.5 14t14.5 35t-14.5 35.5t-35.5 14.5t-35 -14.5t-14 -35.5z" />
    <glyph glyph-name="questiondown" unicode="&#xbf;" horiz-adv-x="450" 
d="M228.014 -288.959q-17.999 0 -39.4971 6q-21.499 5.99902 -39.998 19.499q-18.499 13.499 -30.498 35.4971q-11.999 21.999 -11.999 54.9971q0 30.998 10.999 55.4961q10.999 24.499 27.998 45.998q16.999 21.498 38.498 40.9971t41.4971 42.4971
q15 15.999 26.499 29.499q11.499 13.499 19.499 31.998q7.99902 18.498 12.499 45.9971q4.49902 27.498 4.49902 72.4951q0 7 -5.49902 10.499q-5.5 3.5 -12.499 3.5q-7 0 -12.5 -3.5q-5.49902 -3.49902 -5.49902 -11.499q0 -35.998 -4.5 -57.4961
q-4.5 -21.499 -12.499 -35.998q-8 -14.499 -18.499 -24.498q-10.499 -10 -23.499 -21.999q-23.998 -23.999 -52.4961 -44.4971q-28.498 -20.499 -52.4971 -44.498q-23.999 -23.998 -39.9971 -56.4961q-16 -32.498 -16 -80.4951q0 -30.998 14 -57.9961
q13.999 -26.999 39.9971 -46.9971q25.999 -19.999 61.4961 -31.498q35.498 -11.5 79.4951 -11.5q50.9971 0 87.9951 13.499q36.9971 13.5 60.9961 34.498q23.999 20.999 35.498 46.9971q11.499 25.999 11.499 49.9971q0 12.999 -6.5 28.998q-6.49902 15.999 -28.498 15.999
q-19.998 0 -28.998 -14.499q-8.99902 -14.499 -7 -39.4971q1 -13.999 -4.49902 -31.998q-5.5 -17.999 -19.499 -33.498t-38.498 -25.998q-24.498 -10.5 -61.4961 -10.5zM319.009 351.002q0 20.999 -14 34.998q-13.999 13.999 -34.9971 13.999q-20.999 0 -35.498 -13.999
t-14.499 -34.998q0 -20.998 14.499 -35.498q14.499 -14.499 35.498 -14.499q20.998 0 34.9971 14.499q14 14.5 14 35.498z" />
    <glyph glyph-name="dagger" unicode="&#x2020;" 
d="M222 666q-9 0 -14 -2t-7 -4q-3 -3 -3 -7v-147h-147q-4 0 -6 -3q-3 -2 -5 -7t-2 -14t2 -13.5t5 -6.5q2 -3 6 -3h147v-403q0 -4 3 -6q2 -3 7 -5t14 -2t13.5 2t6.5 5q3 2 3 6v403h148q4 0 7 3q2 2 4 6.5t2 13.5t-2 14t-4 7q-3 3 -7 3h-148v147q0 4 -3 7q-2 2 -6.5 4t-13.5 2
z" />
    <glyph glyph-name="daggerdbl" unicode="&#x2021;" 
d="M406 482q0 9 -2 14t-4 7q-3 3 -7 3h-148v147q0 4 -3 7q-2 2 -6.5 4t-13.5 2t-14 -2t-7 -4q-3 -3 -3 -7v-147h-147q-4 0 -6 -3q-3 -2 -5 -7t-2 -14t2 -13.5t5 -6.5q2 -3 6 -3h147v-112h-147q-4 0 -6 -3q-3 -2 -5 -6.5t-2 -13.5t2 -14t5 -7q2 -3 6 -3h147v-244q0 -4 3 -6
q2 -3 7 -5t14 -2t13.5 2t6.5 5q3 2 3 6v244h148q4 0 7 3q2 2 4 7t2 14t-2 13.5t-4 6.5q-3 3 -7 3h-148v112h148q4 0 7 3q2 2 4 6.5t2 13.5z" />
    <glyph glyph-name="bullet" unicode="&#x2022;" horiz-adv-x="236" 
d="M30 299q0 -19 7 -35.5t19 -28.5t28.5 -19t35.5 -7q20 0 36.5 7t29 19t19.5 28.5t7 35.5q0 20 -7 36.5t-19.5 29t-29 19.5t-36.5 7q-19 0 -35.5 -7t-28.5 -19.5t-19 -29t-7 -36.5z" />
    <glyph glyph-name="ellipsis" unicode="&#x2026;" horiz-adv-x="468" 
d="M30 35q0 -21 14 -35t35 -14t35.5 14t14.5 35t-14.5 35.5t-35.5 14.5t-35 -14.5t-14 -35.5zM186 35q0 -21 14 -35t35 -14t35.5 14t14.5 35t-14.5 35.5t-35.5 14.5t-35 -14.5t-14 -35.5zM342 35q0 -21 14 -35t35 -14t35.5 14t14.5 35t-14.5 35.5t-35.5 14.5t-35 -14.5
t-14 -35.5z" />
    <glyph glyph-name="perthousand" unicode="&#x2030;" horiz-adv-x="1024" 
d="M519 682l-281 -681q-2 -3 -5 -5q-3 -1 -8 -1t-13 3t-12 7t-5 7q-1 4 0 7l281 681q2 3 5 5q3 1 8.5 1t13.5 -4q8 -3 11.5 -6.5t4.5 -6.5q1 -4 0 -7zM296 520q0 -32 -6.5 -65t-22 -59.5t-40 -43.5t-60.5 -17t-60.5 17t-40 43.5t-22 59.5t-6.5 65t6.5 65t22 59.5t40 43.5
t60.5 17t60.5 -17t40 -43.5t22 -59.5t6.5 -65zM91 520q0 -33 4 -61.5t13 -49t23.5 -32.5t35.5 -12q20 0 34.5 12t23.5 32.5t13 49t4 61.5t-4 61.5t-13 49t-23.5 32.5t-34.5 12q-21 0 -35.5 -12t-23.5 -32.5t-13 -49t-4 -61.5zM678 176q0 -32 -6.5 -65t-22 -59.5t-40 -43.5
t-60.5 -17t-60.5 17t-40 43.5t-22 59.5t-6.5 65t6.5 65t22 59.5t40 43.5t60.5 17t60.5 -17t40 -43.5t22 -59.5t6.5 -65zM981 176q0 -32 -6.5 -65t-22 -59.5t-40 -43.5t-60.5 -17t-60.5 17t-40 43.5t-22 59.5t-6.5 65t6.5 65t22 59.5t40 43.5t60.5 17t60.5 -17t40 -43.5
t22 -59.5t6.5 -65zM473 176q0 -33 4 -61.5t13 -49t23.5 -32.5t35.5 -12q20 0 34.5 12t23.5 32.5t13 49t4 61.5t-4 61.5t-13 49t-23.5 32.5t-34.5 12q-21 0 -35.5 -12t-23.5 -32.5t-13 -49t-4 -61.5zM776 176q0 -33 4 -61.5t13 -49t23.5 -32.5t35.5 -12q20 0 34.5 12
t23.5 32.5t13 49t4 61.5t-4 61.5t-13 49t-23.5 32.5t-34.5 12q-21 0 -35.5 -12t-23.5 -32.5t-13 -49t-4 -61.5z" />
    <glyph glyph-name="plus" unicode="+" 
d="M222 483q-9 0 -14 -2t-7 -4q-3 -3 -3 -7v-147h-147q-4 0 -6 -3q-3 -2 -5 -7t-2 -14t2 -13.5t5 -6.5q2 -3 6 -3h147v-148q0 -4 3 -6q2 -3 7 -5t14 -2t13.5 2t6.5 5q3 2 3 6v148h148q4 0 7 3q2 2 4 6.5t2 13.5t-2 14t-4 7q-3 3 -7 3h-148v147q0 4 -3 7q-2 2 -6.5 4t-13.5 2
z" />
    <glyph glyph-name="less" unicode="&#x3c;" 
d="M62 298q-5 -3 -7.5 -10t-2.5 -15t2.5 -14.5t7.5 -9.5l297 -171q3 -1 7 -1q3 1 7 4t8 10q5 8 5.5 13.5t-0.5 8.5q-1 4 -4 6l-269 154l269 155q3 2 4 6q1 3 0.5 7.5t-5.5 12.5t-9 11t-7 4q-4 0 -7 -1z" />
    <glyph glyph-name="equal" unicode="=" 
d="M51 256q-4 0 -6 -3q-3 -2 -5 -7t-2 -14t2 -13.5t5 -6.5q2 -3 6 -3h342q4 0 7 3q2 2 4 6.5t2 13.5t-2 14t-4 7q-3 3 -7 3h-342zM51 386q-4 0 -6 -3q-3 -2 -5 -7t-2 -14t2 -13.5t5 -6.5q2 -3 6 -3h342q4 0 7 3q2 2 4 6.5t2 13.5t-2 14t-4 7q-3 3 -7 3h-342z" />
    <glyph glyph-name="greater" unicode="&#x3e;" 
d="M87 468q-3 1 -7 1q-3 -1 -7 -4t-9 -11t-5.5 -12.5t0.5 -7.5q1 -4 4 -6l269 -155l-269 -154q-3 -2 -4 -6q-1 -3 -0.5 -8.5t5.5 -13.5q4 -7 8 -10t7 -4q4 0 7 1l297 171q5 3 7.5 9.5t2.5 14.5t-2.5 15t-7.5 10z" />
    <glyph glyph-name="bar" unicode="|" horiz-adv-x="208" 
d="M80 -98q0 -4 3 -7q2 -2 7 -4t14 -2t13.5 2t6.5 4q3 3 3 7v811q0 4 -3 7q-2 2 -6.5 4t-13.5 2t-14 -2t-7 -4q-3 -3 -3 -7v-811z" />
    <glyph glyph-name="asciitilde" unicode="~" horiz-adv-x="419" 
d="M370 361q4 11 3.5 17.5t-4 9t-9.5 -0.5t-14 -11q-14 -14 -25.5 -19.5t-25.5 -7.5q-15 -1 -33 5.5t-38 15.5t-41.5 16.5t-43.5 7.5q-13 0 -26.5 -3.5t-25.5 -11t-22.5 -19t-17.5 -29.5q-4 -10 -4 -17t4 -9t10 0.5t14 10.5q16 17 29.5 23t32.5 4q14 -1 30 -8t33.5 -15
t36.5 -15t38 -7q14 0 28 3t27.5 10t25 19t18.5 31z" />
    <glyph glyph-name="logicalnot" unicode="&#xac;" horiz-adv-x="456" 
d="M412 299q0 9 -2 14t-4 7q-3 3 -7 3h-348q-4 0 -6 -3q-3 -2 -5 -7t-2 -14t2 -13.5t5 -6.5q2 -3 6 -3h314v-148q0 -4 3 -6q2 -3 7 -5t14 -2t13.5 2t6.5 5q3 2 3 6v171z" />
    <glyph glyph-name="plusminus" unicode="&#xb1;" 
d="M222 507q-9 0 -14 -2t-7 -4q-3 -3 -3 -7v-147h-147q-4 0 -6 -3q-3 -2 -5 -7t-2 -14t2 -13.5t5 -6.5q2 -3 6 -3h147v-148q0 -4 3 -6q2 -3 7 -5t14 -2t13.5 2t6.5 5q3 2 3 6v148h148q4 0 7 3q2 2 4 6.5t2 13.5t-2 14t-4 7q-3 3 -7 3h-148v147q0 4 -3 7q-2 2 -6.5 4t-13.5 2
zM406 23q0 9 -2 14t-4 7q-3 3 -7 3h-342q-4 0 -6 -3q-3 -2 -5 -7t-2 -14t2 -13.5t5 -6.5q2 -3 6 -3h342q4 0 7 3q2 2 4 6.5t2 13.5z" />
    <glyph glyph-name="multiply" unicode="&#xd7;" 
d="M352 429q-6 6 -11 8t-8 2q-4 0 -7 -2l-104 -104l-104 104q-3 2 -7 2q-3 0 -8 -2t-11 -8t-8 -10.5t-1 -7.5q0 -4 2 -7l104 -104l-105 -105q-2 -3 -2 -7q0 -3 2 -8t8 -11t10.5 -8t8.5 -1q3 0 6 2l105 104l105 -104q3 -2 7 -2q3 -1 7.5 1t10.5 8t8 11t2 8q0 4 -2 7l-105 105
l104 104q2 3 3 7q0 3 -2 7.5t-8 10.5z" />
    <glyph glyph-name="divide" unicode="&#xf7;" horiz-adv-x="433" 
d="M51 300q-4 0 -6 -3q-3 -2 -5 -7t-2 -14t2 -13.5t5 -6.5q2 -3 6 -3h342q4 0 7 3q2 2 4 6.5t2 13.5t-2 14t-4 7q-3 3 -7 3h-342zM272 146q0 21 -14 35.5t-35 14.5t-35.5 -14.5t-14.5 -35.5t14.5 -35t35.5 -14t35 14t14 35zM272 406q0 21 -14 35.5t-35 14.5t-35.5 -14.5
t-14.5 -35.5t14.5 -35t35.5 -14t35 14t14 35z" />
    <glyph glyph-name="dollar" unicode="$" horiz-adv-x="504" 
d="M275 759q0 6 -4.5 8.5t-10.5 2.5t-10.5 -2.5t-4.5 -8.5v-848q0 -6 4.5 -9t10.5 -3t10.5 3t4.5 9v848zM405 143q0 -35 -15 -58t-36.5 -36.5t-47 -19t-46.5 -5.5q-26 0 -54 8t-52.5 22.5t-43 36t-27.5 48.5q-4 15 -8 26t-7.5 19t-7.5 12t-9 4q-4 0 -6.5 -2t-3.5 -4
q-1 -3 -1 -6v-87q0 -19 16 -39t45 -36.5t69.5 -27.5t89.5 -11q50 0 90.5 13t69 35.5t43.5 53.5t15 67q0 57 -26.5 96.5t-67 69.5t-87 54.5t-87 50t-67 56.5t-26.5 75q0 33 14.5 55t36.5 35t47 18.5t46 5.5t44.5 -5t45 -17t38.5 -30.5t26 -45.5q9 -29 15 -45t17 -16
q4 0 6.5 2t3.5 4q1 3 1 6v87q0 19 -15 36.5t-41.5 31t-62.5 21.5t-78 8q-50 0 -90.5 -13t-69 -35.5t-43.5 -53.5t-15 -67q0 -56 27 -94.5t67 -67.5t87 -52t87 -48.5t67 -57t27 -77.5z" />
    <glyph glyph-name="cent" unicode="&#xa2;" horiz-adv-x="443" 
d="M385 486q2 -7 4.5 -14t5 -13t6.5 -9.5t9 -3.5q4 0 6.5 2t3.5 4q1 3 1 6v67q0 16 -14.5 30t-36.5 24.5t-47.5 16.5t-47.5 7v92q0 6 -4.5 8.5t-10.5 2.5t-10.5 -2.5t-4.5 -8.5v-93q-56 -4 -96.5 -28.5t-67 -59.5t-39 -76.5t-12.5 -81.5q0 -49 13 -94.5t40 -80t67.5 -55
t94.5 -19.5v-96q0 -6 4.5 -9t10.5 -3t10.5 3t4.5 9v98q42 6 74 22.5t52 35.5q12 11 16 21.5t3 18t-6.5 9.5t-12.5 -4q-19 -15 -50 -35t-76 -24v410q37 -2 67.5 -22t42.5 -55zM245 153q-33 3 -60 19t-45.5 42.5t-29 62.5t-10.5 79q0 51 12.5 88t32.5 62t46.5 39t53.5 17v-409
z" />
    <glyph glyph-name="sterling" unicode="&#xa3;" horiz-adv-x="512" 
d="M50 522q0 -42 19 -89t37 -95h-65q-4 0 -6 -2q-3 -2 -5 -6t-2 -11t2 -10.5t5 -5.5q2 -2 6 -2h78q7 -20 11 -40.5t4 -40.5q0 -25 -6.5 -46.5t-18.5 -43.5t-28 -45.5t-35 -52.5q-8 -11 -0.5 -21.5t18.5 -10.5h324q23 0 31 -1t21 -1q7 0 11 3t7 6q3 4 4 9l16 99v8
q-1 2 -3 4.5t-6 2.5q-11 0 -17 -11t-16.5 -24t-30.5 -24t-58 -11h-223q-7 0 -8.5 4.5t3.5 9.5q24 26 43 51.5t29.5 53t12.5 57.5t-8 65h147q4 0 6 2t3.5 5.5t-0.5 10.5t-5 11t-6 6t-7 2h-151q-9 23 -19.5 46.5t-19 47t-14.5 48t-6 49.5q0 44 14.5 72t36.5 43.5t47 21.5t46 6
t44.5 -5t45 -17t38.5 -30.5t26 -45.5q9 -29 15 -45t17 -16q4 0 6.5 2t3.5 4q1 3 1 6v87q0 19 -15 36.5t-41.5 31t-62.5 21.5t-78 8q-50 0 -90.5 -13t-69 -37.5t-43.5 -59t-15 -77.5z" />
    <glyph glyph-name="yen" unicode="&#xa5;" horiz-adv-x="604" 
d="M218 11q0 -4 2 -6.5t4 -3.5q3 -1 6 -1h138q3 0 6 1q2 1 4 3.5t2 6.5q0 6 -7 11t-16 10t-16 12.5t-7 18.5v210l193 354q7 11 17.5 18.5t20.5 12.5t17.5 10t7.5 11q0 4 -2 6.5t-4 3.5q-3 1 -6 1h-112q-3 0 -6 -1q-2 -1 -4 -3.5t-2 -6.5q0 -6 6.5 -11t13.5 -10t10.5 -12.5
t-3.5 -18.5l-170 -313l-170 313q-7 11 -3.5 18.5t10.5 12.5l14 10t7 11q0 4 -1.5 6.5t-3.5 3.5q-3 1 -6 1h-137q-3 0 -6 -1q-2 -1 -4 -3.5t-2 -6.5q0 -6 6.5 -11t15.5 -10t19 -12.5t17 -18.5l197 -360v-204q0 -11 -7 -18.5t-16 -12.5t-16 -10t-7 -11zM131 156q-4 0 -6 -3
q-3 -2 -5 -7t-2 -14t2 -13.5t5 -6.5q2 -3 6 -3h342q4 0 7 3q2 2 4 6.5t2 13.5t-2 14t-4 7q-3 3 -7 3h-342zM131 286q-4 0 -6 -3q-3 -2 -5 -7t-2 -14t2 -13.5t5 -6.5q2 -3 6 -3h342q4 0 7 3q2 2 4 6.5t2 13.5t-2 14t-4 7q-3 3 -7 3h-342z" />
    <glyph glyph-name="Euro" unicode="&#x20ac;" horiz-adv-x="689" 
d="M654 525v87q0 19 -18.5 36.5t-48.5 31t-69 21.5t-81 8q-74 0 -130.5 -22.5t-97 -60t-65.5 -86t-36 -100.5h-74q-4 0 -6 -3q-3 -2 -5 -7t-2 -14t2 -13.5t5 -6.5q2 -3 6 -3h66q-2 -11 -2 -22.5v-22.5q0 -12 0.5 -24t2.5 -24h-67q-4 0 -6 -3q-3 -2 -5 -7t-2 -14t2 -13.5
t5 -6.5q2 -3 6 -3h75q12 -51 37 -99t65 -85t96.5 -59.5t129.5 -22.5q42 0 81 8t69 21.5t48.5 31t18.5 36.5v87q0 3 -1 6q-1 2 -3.5 4t-6.5 2q-11 0 -17 -16t-15 -45q-9 -27 -29 -45.5t-45 -30.5t-52 -17t-48 -5q-48 0 -88.5 16.5t-73 46.5t-55 72.5t-33.5 93.5h289q4 0 7 3
q2 2 4 6.5t2 13.5t-2 14t-4 7q-3 3 -7 3h-297q-2 12 -2 24v24q0 11 0.5 22.5t1.5 22.5h297q4 0 7 3q2 2 4 6.5t2 13.5t-2 14t-4 7q-3 3 -7 3h-290q11 52 33.5 94.5t55 73t73.5 47.5t89 17q21 0 48 -5t52 -17t45 -30.5t29 -45.5q9 -29 15 -45t17 -16q4 0 6.5 2t3.5 4q1 3 1 6
z" />
    <glyph glyph-name="brokenbar" unicode="&#xa6;" horiz-adv-x="208" 
d="M80 380h47v333q0 4 -3 7q-2 2 -6.5 4t-13.5 2t-14 -2t-7 -4q-3 -3 -3 -7v-333zM127 234h-47v-332q0 -4 3 -7q2 -2 7 -4t14 -2t13.5 2t6.5 4q3 3 3 7v332z" />
    <glyph glyph-name="degree" unicode="&#xb0;" horiz-adv-x="312" 
d="M30 577q0 -56 35.5 -91.5t91.5 -35.5q27 0 50 9.5t40 26.5t27 40t10 51q0 27 -10 50t-27 40t-40 27t-50 10q-28 0 -51 -10t-40 -27t-26.5 -40t-9.5 -50zM69 577q0 38 25 63t63 25t63 -25t25 -63t-25 -63t-63 -25t-63 25t-25 63z" />
  </font>
</defs>
</svg>
