<?xml version="1.0" encoding="UTF-8"?>
<svg id="Layer_2" data-name="Layer 2" xmlns="http://www.w3.org/2000/svg" viewBox="0 0 58.18 64.45">
  <defs>
    <style>
      .cls-1 {
        fill: #eac8ac;
      }
    </style>
  </defs>
  <g id="Layer_1-2" data-name="Layer 1">
    <path class="cls-1" d="M29.3,39.45c-.08,1.15-.18,2.31-.25,3.46-.02,.39,.02,.83-.53,.83-.42,0-.72-.3-.83-.69-.34-1.23-.02-2.45,.12-3.68,.4-3.75,.83-7.5,1.14-11.26,.06-.75,.65-2.06-.89-2.16-1.35-.09-1.34,1.04-1.41,1.95-.39,5.24-.72,10.48-1.15,15.72-.31,3.76-.78,7.5-2.26,11.03-1.25,2.99-.84,3.95,2.3,5.43,1.06-3.74,1.02-7.58,1.42-11.37,.13-1.26-.5-3.43,1.27-3.44,1.11,0,.47,2.14,.38,3.24-.34,4.56-.87,9.1-1.36,13.65-.05,.45-.16,.93-.39,1.31-.38,.61-1,1.07-1.74,.98-1.2-.14,.17-.92-.2-1.14-.68-.41-1.08-.97-1.33-1.69-.19,.08-.36,.11-.44,.2-.74,.9-1.23,2.84-2.54,2.09-1.35-.77-.73-2.75-.34-4.08,.85-2.94,1.46-5.94,2.41-8.86,.82-2.52,.99-5.3,1.1-7.98,.21-5.52,.62-11.03,1.11-16.85-5.52,4.45-10.42,8.9-12.9,15.57-1.64,4.4-2.74,8.9-3.78,13.45-.18,.8-.4,1.59-1.4,1.53-.97-.05-.85-.91-.99-1.58-.1-.51,0-1.24-.58-1.43-.7-.23-1.09,.43-1.46,.92-.55,.74-1.21,1.32-2.15,.78-.87-.5-.56-1.38-.33-2.09,2.41-7.4,4.23-15.02,8.53-21.69,1.77-2.75,4.42-4.45,6.93-6.35,.53-.4,1.03-.85,1.69-1.4-2.25-1.22-4.6-.88-6.76-1.33-2.38-.5-4.82-.84-7.1-1.6C.68,19.59-.9,15.82,.5,11.44c.68-2.12,1.38-4.26,2.55-6.2,.08,.26,.17,.51,.25,.77-.13,.15-.26,.3-.39,.45,.1,.05,.19,.1,.29,.15,.03-.21,.05-.42,.08-.63,.05-.36,.09-.72,.14-1.08C5.03,2.64,6.82,.55,9.78,.1c3.59-.54,6.14,1.24,8.25,3.9-.23,.1-.73,.09-.51,.45,.17,.28,.5,0,.67-.26,1.27,.74,2.13,1.82,2.7,3.16,0,0-.05,.16-.05,.16l.17-.04c1.88,1.54,3.06,3.65,4.58,5.49,0,0-.03-.03-.03-.03,.27,.27,.54,.55,.81,.82,0,0,.04,.17,.04,.17l.17,.04c-.14,1.83-1.01,1.12-1.78,.48-1.72-1.45-2.71-3.48-4.16-5.16-2.06-2.39-3.99-4.9-6.64-6.69-1.98-1.34-4.71-1.08-6.54,.54-.92,.82-1.87,1.6-2.81,2.39,0,0,.02-.02,.02-.02,.14,.56-.17,.97-.47,1.38,0,0-.02,.02-.02,.02-1.36,2.45-2.27,4.99-2.15,7.89,.08,1.82,.97,3.02,2.16,4.13,1.42,1.32,11.61,2.93,14.31,2.17-3.22-.83-6-1.52-8.76-2.26-4.41-1.17-6.05-5.08-3.85-9.15,.21-.4,.5-.76,.71-1.16,1.72-3.14,4.01-3.74,6.76-1.37,3.02,2.61,5.81,5.5,8.62,8.35,1.27,1.28,2.18,2.29,4.16,.76,1.43-1.1,3.4-.79,4.84,.69-.06,.3,.07,.4,.36,.34,.81,1.32,1.82,2.32,3.54,1.84,1.62-.45,1.8,1,2.49,1.78-.64,.08-1.27,.17-1.91,.25-.23-.45-.48-.4-.75-.03-.07,.13-.23,.3-.19,.37,.17,.29,.36,.11,.52-.04l.2-.03c4.18,1.64,8.72,1.76,12.97,3.18,4.57,1.52,5.22,3.06,2.53,7.12-1.82,2.74-3.26,3.02-6.12,1.18,0,0,.02,.03,.02,.03-.65,0-1.24-.23-1.7-.64-2.5-2.23-5.46-3.91-7.69-6.47-.6-.69-1.19-1.42-2.1-1.75-.36-.13-.78-.34-1.03,.08-.22,.37,.04,.67,.31,1,3.41,4.08,7.03,7.84,11.5,10.87,3.6,2.44,7.76,1.13,9.54-2.66,0,0-.03,.03-.03,.03,4.15-5.93,4.06-7.9-.51-11.19,0,0,.15-.04,.15-.04l-.13,.05c-.67,.36-1.29,.18-1.98-.02-4.3-1.26-8.81-.84-13.18-1.54,.34-.97,1.12-1.15,2.03-1.17,4.94-.09,9.83,.27,14.55,1.88,3.62,1.24,4.82,4.63,2.91,9-.81,1.86-1.58,3.87-3.26,5.24,0,0-.18,.02-.18,.02v.18c-3.78,4.21-6.84,4.44-11.67,1.18-1.81-1.22-3.52-2.48-4.99-4.08,0,0,.03,.03,.03,.03-2.05-1.94-4.11-3.87-6.22-5.87-.67,1.56-.32,3.43-.67,5.18-.48,2.37-.7,4.79-1.03,7.19h0Zm4.19-18.13l-.07,.09s.05-.11,.05-.11l.02,.02Zm16.14,9.4c.1,.06,.25,.2,.3,.17,.26-.15,.09-.3-.05-.43,.29-1.33,1.97-3-.55-3.75-4.37-1.31-8.81-2.32-13.44-2.79,3.09,3.14,6.23,6.17,10.23,8.05,1.39,.65,2.72,.23,3.51-1.26Zm-31.15-1.38c.25,.04,.34-.08,.3-.32,1.32-1.18,2.64-2.36,3.94-3.56,.45-.41,.55-.93,.19-1.46-.52-.76-.92-.11-1.32,.16-.95,.63-1.82,1.41-2.84,1.91-4.61,2.26-7.84,6.04-10.04,10.39-1.93,3.82-2.82,8.18-4.14,12.31-.42,1.33,.7,1.42,1.53,1.8,1.15,.53,1.31-.24,1.54-1.02,.6-2.07,1.13-4.17,1.85-6.19,1.91-5.35,4.61-10.22,8.97-14.02Zm-2.7-18.31c-.98-.07-1.38-.91-1.96-1.5-2.93-3-5.53-2.41-6.85,1.56-.68,2.03-.15,5.1,1.09,5.53,4.45,1.53,9.1,2.24,13.67,3.29,.52,.12,.91-.06,1.13-.55,.18-.4,.04-.74-.27-1.03-.74-.68-1.5-1.33-2.19-2.05-1.58-1.65-3.58-2.94-4.52-5.15,.03-.04,.08-.08,.1-.12,0-.01-.07-.08-.08-.08-.04,.02-.08,.07-.12,.1Zm10.51,13.18c2.2,.02,5.03-2.09,4.99-3.56-.04-1.44-1.95-3.24-3.42-3.22-1.79,.03-3.5,2.07-3.46,4.24,.03,1.34,.09,2.77,1.88,2.54Zm-4.02-2.03c-.03-.06-.04-.15-.09-.18-.03-.02-.12,.02-.18,.04,.05,.1,.1,.2,.15,.29,.04-.05,.07-.1,.11-.15Zm-2.27-.69c-.05-.03-.1-.06-.15-.09-.03,.08-.06,.16-.09,.24,.06,0,.13,.02,.18,0,.04-.02,.04-.09,.06-.14Zm5.37,39.96c-.06-.03-.12-.05-.18-.08,.04,.08,.08,.17,.11,.25,.02-.06,.05-.12,.07-.17ZM6.42,2.97s-.08-.13-.12-.13c-.04,0-.09,.07-.14,.11,.04,.05,.08,.13,.12,.13,.04,0,.09-.07,.14-.11Zm1.75,14.76l-.09,.13,.14,.02-.05-.15Zm6.03,4.21l-.08,.11,.11,.02-.04-.13Zm14.32,3.32l.1,.07,.02-.11-.12,.04Zm-17.94,6.52l-.13-.09-.02,.14,.15-.05Z"/>
  </g>
</svg>