<?xml version="1.0" encoding="UTF-8"?>
<svg id="Layer_2" data-name="Layer 2" xmlns="http://www.w3.org/2000/svg" viewBox="0 0 75.62 41.44">
  <defs>
    <style>
      .cls-1 {
        fill: #eac8ac;
      }
    </style>
  </defs>
  <g id="Layer_1-2" data-name="Layer 1">
    <path class="cls-1" d="M51.94,7.46c.14,1.84,.99,2.17,2.77,1.73,2.24-.55,4.64-1.3,6.74,.55,0,0-.04-.05-.04-.05,4.46-1.01,10.92,2.72,12.96,7.5,2.41,5.63,1.35,9.76-3.33,12.98,0,0,.03-.03,.03-.03-2.4,2.99-6.23,2.83-9.4,4.01-1.46,.54-2.37,1.23-3.52,2.15-4.66,3.72-10.01,5.9-16.11,4.91-4.42-.72-8.81-1.75-12.41-4.76-1.3-1.09-2.55-.89-4.1-.13-5.17,2.54-10.58,3.98-16.46,3.28C3.57,38.92-.79,34.66,.12,30.08c.85-4.25,4.42-6.49,8.08-7.69,2.24-.73,3.24-1.81,3.96-3.69,0,0-.04,.04-.04,.04,1.75-6.44,7.77-11.92,14.8-8.5,1.3,.63,1.89-.16,2.52-1.28,1.48-2.6,3.15-5.06,5.38-7.18,2.71-2.57,8.82-2.23,11.61,.15,1.91,1.63,3.32,3.71,5.27,5.27-.19,.36-.08,.42,.25,.25Zm-8.25,31.45c3.56,.13,6.2,.09,8.28-1.28,5.35-3.54,11.15-6.08,17.06-8.45,.19-.07,.38-.14,.54-.25,3.74-2.61,5.39-7.94,2.13-11.92-4.08-4.97-9.38-6.47-15.51-5.63-5.15,.71-5.14,.77-7.75-3.77-.15-.26-.27-.54-.42-.79-3.75-6.25-11.34-6.17-14.9,.17-.83,1.48-1.54,3.02-2.3,4.54-1.05,2.1-2.39,2.65-4.56,1.31-2.81-1.74-5.69-1.59-8.4,.4-2.34,1.72-3.05,4.41-3.9,6.93-.74,2.2-1.37,3.92-4.26,4.11-1.64,.11-3.29,1.38-4.77,2.37-1.67,1.12-3.33,2.69-2.94,4.82,.49,2.68,2.31,4.64,5.06,5.39,5.78,1.57,11.39,.72,16.49-2.14,2.88-1.61,5.18-1.51,7.76,.15,4.09,2.62,8.42,4.56,12.4,4.06Z"/>
  </g>
</svg>