<?xml version="1.0" encoding="UTF-8"?>
<svg id="Layer_2" data-name="Layer 2" xmlns="http://www.w3.org/2000/svg" viewBox="0 0 201.66 84.91">
  <g id="Layer_1-2" data-name="Layer 1">
    <path d="M181.77,29.08c-5.83-.54-9.04,3.88-12.18,7.35-3.51,3.87-7.89,6.95-10.65,11.53-.68,1.13-2.22,1.94-3.48,1.24-2.11-1.17-.04-3.41-1.3-5.78-5.22,5-12.18,7.33-17.5,11.65-3.47,2.82-4.25,8.79-6.65,13.12-3.83,6.89-7.96,13.67-16.11,16.31-5.5,1.78-10.43-2.55-9.65-8.31,.86-6.41,4.94-10.71,9.93-14,4.23-2.79,8.85-5.15,13.58-6.97,4.24-1.63,7.21-3.73,7.67-8.53,.24-2.53,2.55-4.62,1.74-8.25-2.46,3.44-4.53,6.34-6.61,9.23-1.85,2.56-3.97,4.83-6.8,6.34-1.88,1-3.56,2.13-5.92,.67-2.53-1.57-3.1-3.79-2.89-6.34,.2-2.45,.77-4.86,1.3-8.05-4.47,3.84-8.78,6.72-13.28,9.28-2.42,1.38-4.87,2.8-7.76,1.14-2.87-1.65-3.11-4.21-2.85-7.22,.24-2.74,.18-5.5,1.91-8.8-4.7,1.44-7.64,4.39-11.19,6.12-1.4,.68-.65,1.76-.6,2.89,.33,6.35-2.95,11.47-8.15,13.32-2.61,.93-5.25,.85-6.7-1.51-1.39-2.25-1.63-5.08,.64-7.26,1.9-1.82,3.77-3.77,5.97-5.15,1.69-1.06,2.57-2.04,.57-3.02-1.58-.77-1.86-5.06-5.22-1.9-4.99,4.7-10.1,9.54-16.91,11.41-7.03,1.93-10.36-.24-12.43-7.58-1.91,2.57-4.07,4.53-6.62,6.05-5.81,3.45-10.62,.86-10.82-5.88-.05-1.82,.03-3.64,.06-5.47,.51-.04,.85-.25,.73-.82-.02-.1-.23-.17-.35-.25-.09,.39-.19,.77-.28,1.16-1.79-.02-2.66,.85-3.64,2.47-2.41,4-5.31,7.75-9.2,10.45-2.49,1.73-5.47,2.96-8.3,1.07C-.52,49.22,0,46.38,.14,43.9c.07-1.29,.65-2.28,2.11-2.26,1.94,.03,1.22,1.5,1.3,2.55,.38,4.78,1.11,5.18,4.93,2.56,6.21-4.26,9.96-10.72,14.17-16.65,1.91-2.69-.96-4.46-3.74-4.73-5.84-.56-10.75,3.34-13.24,9.86-.77,2.02-.17,6.42-3.54,5.26-3.1-1.06-.3-4.63,.56-6.27,3.21-6.16,6.68-12.48,15.13-12.58,1.87-.02,3.9-.17,5.04,1.36,2.58,3.46,3.65,.85,4.96-1,4.64-6.56,8.03-13.94,13.28-20.1,.86-1.01,1.38-2.63,2.97-1.58,1.16,.77,.61,2.07-.03,3.12-4.17,6.87-8.41,13.71-12.49,20.63-3.56,6.03-5.51,12.53-4.85,19.63,.3,3.2,2.37,2.7,4.27,1.79,5.07-2.42,8.57-6.49,11.24-11.31,1.85-3.34,3.94-6.36,6.75-9.07,2.74-2.64,5.91-1.58,8.67-1.64,2.43-.05,2.74,3.06,1.91,5.2-1.92,4.93-5.58,8.02-10.81,9.09-2.72,.56-5.54,1.11-4.85,4.83,.68,3.72,3.66,4.26,6.77,4.05,3.71-.25,6.51-2.71,9.36-4.63,5.55-3.74,10.33-8.24,13.1-14.68,1.45-3.38,4.53-5.19,8.46-3.96,.98,.31,2.16,1.16,1.89,2.6-.31,1.67-1.41,1.36-2.66,1.04-3.07-.79-5.12,.73-6.37,3.37-1.15,2.44-.36,5.41,1.22,6.62,2.06,1.57,4.94,2.75,7.85-.03,4.81-4.61,12.45-5.54,15.95-12.02,.34-.63,1.15-1.37,2.09-.84,1.19,.67,.78,1.68,.28,2.58-2.08,3.75-4.18,7.47-5.49,11.61-1.2,3.78-1.6,7.38,.8,10.95,1.42-.36,2.49-1.95,4.25-1.83,0,0,.05-.27,.05-.27l-.18,.21c4.03-2.84,8-5.77,12.11-8.49,3.16-2.09,6.06-4.36,8.47-7.36,4.76-5.92,8.53-6.65,15.59-3.26,1.51,.72,2.07,.41,2.37-1.13,.38-1.94,2.1-1.6,3.2-1.33,1.75,.43,.61,2.06,.44,2.87-1.19,5.57-2.51,11.12-4.07,16.6-.46,1.6-.81,3.05-.53,4.71,7.04-3.45,12.68-8.69,18.66-13.42,3.1-2.46,3.66-6.6,5.98-9.61,1.02-1.32,1.34-4.25,3.67-2.69,2.05,1.37-.25,3.09-.95,4.58-1.88,3.97-4.87,7.42-5.56,11.95-.36,.08-1.16-.14-.47,.68,.12-.27,.23-.53,.35-.8,4.28-4,8.51-8.06,12.89-11.97,1.46-1.3,3.18-2.43,4.96-3.23,1.8-.8,3.78-2.63,5.82-.46,1.86,1.97,1.35,4.23,.58,6.51-1.04,3.11-3.6,5.63-3.48,9.18,.05,1.52-1.66,3.33,.18,4.5,1.41,.9,2.68-.7,3.98-1.26,.74-.32,1.41-.82,2.1-1.24,0,0,.09,.21,.09,.21l-.18-.13c4.45-3.34,8.43-7.37,14.19-9.58-.14,2.94-2.75,3.88-4.12,5.25-3.77,3.77-7.83,7.45-12.81,9.59-4.7,2.02-7.26,0-7.31-5.13-.03-2.95,1.06-5.68,2.53-7.87,1.33-1.96,1.46-3.88,1.84-5.92,.4,.03,.8,.06,1.19,.1-.4-.05-.8-.09-1.2-.14Zm-41.48,5.16c.14-.08,.28-.15,.42-.23-.12,.11-.24,.23-.32,.38-.03,.14-.08,.27-.09,.41,0,.05,.06,.11,.09,.17-.03-.24-.06-.49-.1-.73Zm-90.99,.93c.08,0,.15,.01,.23,.02-.11-.03-.21-.06-.32-.09,2.07-2.31,5.27-3.44,6.68-6.48,.48-1.03,.57-1.92-.24-2.68-.73-.68-1.52-.21-2.26,.19-3.47,1.88-5.9,4.6-7.3,8.4,1.3,.26,2.25,.45,3.21,.64Zm68.74,14.97l.05-.05c.7,1,1.41,1.99,2.08,2.96-.21-.03-.42-.06-.63-.09,.19,.02,.38,.05,.57,.07,7.07-4.76,11.05-12.11,15.69-18.89,1.97-2.88,.74-4.4-2.47-5.11-2.36-.52-3.86,.1-5.81,1.62-6.43,5.02-8.62,11.87-9.48,19.48Zm12.94,7.53c-2.18,.84-3.64,1.37-5.08,1.95-6.82,2.76-13.31,6-16.95,12.88-1.5,2.84-2.93,6.12,.53,8.46,3.08,2.08,5.98,.53,8.28-1.87,5.74-5.97,9.91-12.93,13.22-21.42Zm-52.06-10.81c-.18-.89,.28-1.96-.8-2.18-.51-.1-1.23,.32-1.7,.69-1.66,1.31-3.24,2.71-4.88,4.04-1.16,.94-1.68,2.29-.98,3.46,.94,1.58,2.57,1.12,3.88,.34,2.45-1.47,4.4-3.36,4.47-6.36Z"/>
    <path d="M107.08,17.61c-2.33,.47-2.73-.85-2.36-1.59,1.23-2.44,2.59-5,5.65-5.53,1.06-.19,2.21,.89,1.81,1.8-1.16,2.58-2.16,5.58-5.1,5.32Z"/>
    <path d="M118.05,50.14s.03-.03,.05-.05c0,0-.05,.05-.05,.05Z"/>
  </g>
</svg>