<?xml version="1.0" encoding="UTF-8"?>
<svg id="Layer_2" data-name="Layer 2" xmlns="http://www.w3.org/2000/svg" viewBox="0 0 280.59 79.32">
  <g id="Layer_1-2" data-name="Layer 1">
    <path d="M153.11,41.07c-.11,2.45-.28,4.91-.29,7.36,0,1.22-.36,2.83,1.74,2.86,1.49,.02,2.93,.48,2.01,2.25-.84,1.61-2.69,1.98-4.32,1.18-2.85-1.4-2.96-4.28-2.69-6.82,.31-2.93,.57-5.83,.35-8.76,.15-.03,.3-.05,.46-.08-.1-.1-.21-.2-.31-.3-.02,.15-.04,.31-.07,.46-5.57,4.47-14.17,3.64-18.38,10.58-.94,1.54-2.66,2.38-4.27,3.27-5.26,2.9-9.44,.68-10.18-5.42-.25-2.07,1.08-5.13-.67-6-2.52-1.26-2.59,2.68-4.44,3.67-1.85,1-3.4,2.55-5.08,3.87,0,0-.04-.16-.04-.16l.15,.05c-3.19,2.32-6.28,4.77-10.38,5.46-4.22,.71-6.9-1.17-7.46-5.49-.53-4.1-.92-8.18,1.13-12.6-4.44,.96-7.66,3.44-11.25,5.03-1.82,.81-1.04,2.56-1.09,3.97-.22,6.6-3.73,11.15-9.26,13.05-3.21,1.1-5.27-.38-6.96-2.29-1.79-2.03-.6-4.16,.82-6.24,1.94-2.83,4.71-4.59,7.27-6.65,1.06-.85,3.53-1.68,1.97-3.07-1.12-.99-2.98-3.8-5.67-1.23-3.23,3.08-6.74,5.87-10.25,8.63-2.16,1.7-4.47,3.18-7.12,4.19-2.77,1.05-5.34,2.1-7.73-.5-2.1-2.29-2.41-5.17-1.09-7.72,.84-1.63,.09-2.7,.05-4.34-3.79,4.34-7.3,8.51-12.09,11.36-4.15,2.46-6.14,.64-7.13-3.25-.56-2.21-.7-4.52-1.02-6.77,.41,.13,.8,.25,1.2,.37,0-.16,.02-.31,.03-.47-.39,.07-.78,.13-1.17,.2-2.83,4.26-5.92,8.3-9.92,11.54-2.24,1.82-4.87,2.58-7.35,.87C.35,51.55-.25,49.3,.09,46.22c1.05-9.62,5.33-16.85,14.04-21.11,2.97-1.45,6.33-2.04,9,1,1.69,1.93,1.91,.05,2.54-.91,4.27-6.49,8.53-12.98,12.84-19.44,1.01-1.52,2.18-2.93,3.3-4.37,.58-.74,1.17-1.98,2.3-1.06,1.14,.93-.15,1.72-.59,2.48-4.63,8.11-9.41,16.14-13.86,24.35-2.89,5.33-5.24,10.94-5.91,17.09-.14,1.28-.95,2.71,.55,3.62,1.58,.96,2.88-.08,4.02-1.04,4.21-3.58,7.78-7.77,11.36-11.95,2.9-3.38,5.73-6.82,8.59-10.24l-.16,.1c.68,3.12-.43,5.98-1.99,8.42-2.52,3.93-2.47,8.32-2.96,12.6-.3,2.63,3.66,5.5,5.29,3.83,5.47-5.58,13.68-8.1,17.36-15.59,.86-1.75,.28-4.01,1.82-5.57,2.31-2.34,4.47-5.02,8.51-3.74-.23,2.06-2,2.5-3.24,3.4-2.24,1.62-4.48,3.5-2.67,6.41,1.81,2.89,4.36,5.73,8.34,3.68,6.91-3.57,14.81-5.38,20.19-11.75,1.85-2.19,5-3.41,7.47-1.12,1.99,1.84,3.04,4.64,.15,7.61-.93-1.8-.04-4.68-2.61-5-2.2-.28-3.55,1.57-4.99,2.86-4.48,4.01-7.35,8.79-6.9,15.11,.37,5.28,2.64,6.64,7.31,4.29,1.38-.7,2.41-2.44,4.36-1.57,0,0,.29-.04,.29-.04h-.32c1.17-2.11,3.46-3,5.09-4.58,5.02-4.88,10.79-8.92,14.76-14.99,3.04-4.65,8.48-6.13,11.99-4.38,4.86,2.43,3.31,7.02,3.4,11.02,.04,1.51-2.17,3.07-.28,4.45,1.88,1.37,3.48-.5,4.81-1.37,4.3-2.83,9.3-5.01,10.88-10.75,.26-.96,.83-2.67,3.45-2.35-1.35,5.32-2.39,10.6-4.64,15.58-.11-.05-.22-.1-.32-.15,.15,.01,.29,.02,.44,.03ZM2.95,46.45c.28,1.83-.07,3.73,1.94,4.45,1.88,.67,3.14-.56,4.35-1.68,4.61-4.25,8.23-9.26,11.25-14.74,.96-1.74,3.04-2.94,.75-5.44-2.24-2.45-4.4-1.87-6.64-.75-7.54,3.78-10.05,10.83-11.65,18.16Zm121.87-13.41c-2.75,2.27-3.07,5.17-3.81,7.78-1.01,3.56-1.93,8.18,1.67,9.88,2.8,1.32,5.76-2.17,7.82-4.81,1.06-1.37,1.75-2.34-.49-3.63-3.21-1.85-5.05-4.95-5.18-9.21Zm11.39,1.05c-1.03-2.11,.5-5.81-2.94-6.04-3.05-.2-4.13,2.77-4.4,5.51-.28,2.95,1.08,6.06,3.69,6.25,2.91,.21,2.79-3.45,3.64-5.73Zm-62.23,11.22c-3.3,1.04-5.93,2.85-7.84,5.52-.76,1.05-2.24,2.49-.64,3.9,1.2,1.05,2.93,.93,4.18,.12,3.33-2.17,5.37-5.08,4.31-9.54Zm16.32-10.63l.31,.19,.02-.33-.33,.14Z"/>
    <path d="M176.32,41.71c1.55-1.73,3.93-1.41,5.81-2.38,3.16-1.64,6.04-3,7.72-6.85,2.14-4.92,6.74-7.98,11.81-9.89,1.33-.5,3.05-.8,4.08,.74,1.28,1.9,1.58,3.93,.24,6.01-2.65,4.11-6.7,6.27-11.06,7.93-3.35,1.28-6.27,2.79-4.58,7.13,1.57,4.05,4.93,3.75,7.85,2.25,7.92-4.04,16.87-7,19.75-17.06,.64-2.22,1.58-4.63,5.14-5.85-1.93,5.42-3.61,10.13-5.57,15.6,4.55-4.29,8.36-8.01,12.32-11.56,2.81-2.52,4.42-1.62,4.68,2.04,.05,.66-.08,1.41,.19,1.97,.91,1.91-.32,5.4,2.88,5.52,3.11,.12,6.67,.16,8.33-3.77,1.09-2.57,2.57-4.97,3.94-7.41,.55-.97,1.13-2.35,2.58-1.69,1.69,.76,.46,2.06,.1,2.97-1.93,4.86-4.63,9.37-6.17,14.44-.81,2.67-1.93,6.21-.54,7.6,2.42,2.43,5.12-.73,7.28-2.14,5.95-3.87,9.27-10.18,13.55-15.59,1.56-1.97,2.81-6.22,5.19-4.84,2.47,1.43,.18,5.41-1.07,7.58-3.01,5.2-4.42,10.94-7.54,16.95,7.98-2.95,11.57-9.54,17.39-13.48-4.45,6.64-8.1,13.77-17,16.28-4.45,1.26-6.22,6.42-8.73,10.15-3.76,5.58-7.79,10.8-14.08,13.68-3.14,1.44-6.33,2.21-9.03-.92-2.83-3.28-1.53-6.68,.39-9.58,4.02-6.09,10.36-9.48,17.09-10.81,6.45-1.28,10.29-4.22,12.25-10.24,.35-1.07,1.15-1.99,1.75-2.99,0-.01,.25-.18,.25-.18l-.35,.07c-.96-1.74-1.21-.33-1.79,.34-3.04,3.5-6.32,6.76-10.56,8.79-2.22,1.06-4.67,2.02-6.97,.22-2.24-1.76-2.45-4.31-1.65-6.79,.63-1.96,.71-3.86,.51-5.84,.25-.08,.49-.16,.74-.24-.11-.16-.23-.31-.34-.47-.12,.25-.24,.5-.36,.75-1.32-.23-2.46,.24-3.72,.61-3.13,.93-5.11-.76-6.33-3.54l.05,.13c-1.53-1.91-.1-4.55-1.63-6.81-5.67,5.02-10.46,10.53-14.34,16.84-.78,1.27-1.45,2.63-2.39,3.77-.7,.86-1.71,1.98-2.91,1.46-1.34-.59-.8-2.06-.52-3.09,.81-2.99,1.79-5.92,3.14-10.3-4.05,4.36-7.53,7.28-11.56,9.39-1.51,.79-2.83,1.78-4.81,1.99-7.81,.85-8.08,.23-10.65-6.87-.93-2.58-.9-2.33-3.31-1.51-4.36,1.49-9.48,4.5-13-1.86-1.05-1.89-2.06-.69-2.95,.4-2.48,3.06-4.43,6.54-7.51,9.13-.9,.76-1.56,1.11-2.51,.22-1.08-1.01-.35-1.71,.31-2.5,5.02-5.98,10-12,15.05-17.94,.92-1.08,2.04-2.98,3.55-2.06,2.02,1.23-.49,2.43-.75,3.7-.26,1.26-.9,2.47-1.54,3.61-1.65,2.95-.85,5.13,1.95,6.77,.34-.43,1.13,.94,1.25-.32-.42,.11-.84,.22-1.27,.33Zm14.44-4.96c0-.42,.08-.44,.26-.07-.12-.01-.24-.02-.37-.03,.05-.13,.09-.26,.14-.39,0,.17,0,.34-.03,.49Zm62.86,23.12c-.28-.34-.56-.69-.83-1.03-2.4,.9-4.75,2.05-7.22,2.64-5.04,1.18-8.15,4.74-11.1,8.51-1.18,1.52-1.47,3.5-.25,5.03,.93,1.16,2.83,1.61,4.09,.8,6.34-4.13,11.9-9.05,15.32-15.94Zm-59.77-25.98c3.98-1.54,8.04-2.92,10.27-7.73-5.87,.06-7.94,4.12-10.27,7.73Zm57.34,33.07c.12-.11,.33-.22,.33-.33,0-.12-.19-.24-.3-.36-.12,.11-.32,.22-.33,.33,0,.11,.19,.24,.3,.36Z"/>
    <path d="M58.64,13.72c-.86,2.21-2.14,4.83-5.03,5.96-.98,.39-2.27-.88-1.63-1.71,1.71-2.22,1.64-5.95,5.24-6.58,1.27-.22,1.82,.49,1.42,2.33Z"/>
    <path d="M48.28,24.64c-.04,.09-.08,.18-.12,.28,.08-.03,.16-.07,.24-.1-.1-.01-.2-.03-.29-.05,0-.02,.17-.12,.17-.12Z"/>
    <path d="M232.66,37.24l.08-.09s-.02,.21-.03,.22-.05-.13-.05-.13Z"/>
  </g>
</svg>