<?xml version="1.0" encoding="UTF-8"?>
<svg id="Layer_2" data-name="Layer 2" xmlns="http://www.w3.org/2000/svg" viewBox="0 0 59.94 30.74">
  <defs>
    <style>
      .cls-1 {
        stroke: #000;
        stroke-linecap: round;
        stroke-linejoin: round;
        stroke-width: .74px;
      }
    </style>
  </defs>
  <g id="Layer_1-2" data-name="Layer 1">
    <g>
      <path class="cls-1" d="M29.96,16.78c7.17-.05,13.37,5.86,13.56,12.96,0,.21-.2,.42-.31,.63-.12-.21-.32-.41-.34-.62-.33-6.06-4.65-10.61-9.75-11.9-7.78-1.97-15.56,3.7-16.01,11.69,0,.14,.03,.3-.03,.41-.09,.16-.25,.28-.38,.41-.09-.14-.27-.29-.26-.42,.05-.77,.09-1.56,.25-2.31,1.31-6.32,6.8-10.8,13.26-10.85Z"/>
      <path class="cls-1" d="M29.76,.43V14.68c-.08,.04-.15,.09-.23,.13-.13-.19-.36-.38-.38-.58-.05-.6-.02-1.22-.02-1.83,0-3.77,0-7.53,0-11.3,0-.39-.12-.91,.63-.68Z"/>
      <path class="cls-1" d="M7.56,30.27c-2.16,0-4.32,0-6.47-.02-.24,0-.47-.2-.71-.31,.24-.12,.47-.33,.71-.33,4.34-.02,8.69-.02,13.03,0,.22,0,.45,.24,.67,.37-.22,.1-.44,.27-.67,.27-2.19,.02-4.37,.01-6.56,.01Z"/>
      <path class="cls-1" d="M45.25,30.23c-.2-.57,.11-.63,.53-.63,1.08,.01,2.16,0,3.24,0,3.21,0,6.42,0,9.63,0,.17,0,.35-.04,.49,.02,.16,.07,.29,.23,.44,.35-.13,.1-.26,.22-.4,.3-.06,.04-.16,0-.25,0-4.4,0-8.8,0-13.19,0-.16,0-.32-.03-.48-.04Z"/>
      <path class="cls-1" d="M18.31,19.39c-3.24-3.25-6.49-6.5-9.72-9.77-.12-.13-.1-.4-.15-.6,.2,.04,.48,.02,.6,.14,3.17,3.14,6.32,6.29,9.46,9.45,.14,.14,.11,.45,.16,.68-.11,.03-.23,.06-.34,.1Z"/>
      <path class="cls-1" d="M51.31,8.92c.68,.36,.31,.62,.03,.9-1.9,1.9-3.8,3.8-5.7,5.7-1.21,1.21-2.42,2.43-3.66,3.63-.13,.12-.4,.1-.6,.14,.05-.2,.03-.47,.15-.59,3.24-3.26,6.49-6.5,9.77-9.77Z"/>
      <path class="cls-1" d="M15.05,24.24c-3.13-1.2-6.23-2.38-9.32-3.59-.18-.07-.28-.36-.41-.55,.07-.07,.15-.14,.22-.21,.92,.35,1.85,.69,2.77,1.05,2.14,.82,4.29,1.64,6.43,2.47,.36,.14,.82,.23,.31,.84Z"/>
      <path class="cls-1" d="M36.09,15.91c-.08-.2-.28-.45-.22-.61,1.11-3.12,2.25-6.24,3.38-9.35,.09-.02,.18-.04,.27-.06,.08,.21,.28,.46,.22,.61-1.11,3.12-2.25,6.23-3.38,9.35l-.27,.06Z"/>
      <path class="cls-1" d="M19.99,6.06c1.13,3.09,2.25,6.19,3.36,9.29,.05,.14-.08,.36-.13,.54-.18-.15-.45-.27-.52-.46-.99-2.65-1.95-5.3-2.91-7.95-.1-.29-.26-.56-.3-.86-.02-.2,.12-.43,.19-.64,.11,.03,.21,.06,.32,.1Z"/>
      <path class="cls-1" d="M53.87,20.77c-3.01,1.16-6.02,2.31-9.04,3.47-.08-.05-.15-.09-.23-.14,.11-.21,.16-.54,.33-.6,2.78-1.1,5.57-2.17,8.37-3.21,.16-.06,.41,.11,.62,.18-.02,.1-.03,.21-.05,.31Z"/>
    </g>
  </g>
</svg>