<?xml version="1.0" encoding="UTF-8"?>
<svg id="Layer_2" data-name="Layer 2" xmlns="http://www.w3.org/2000/svg" viewBox="0 0 237.57 76.24">
  <g id="Layer_1-2" data-name="Layer 1">
    <path d="M116.47,40.54c-.57,2.94-2.78,6.79-.16,8.6,2.82,1.94,5.81-1.27,8.12-3.3,5.66-4.96,11.13-9.81,13.35-17.75,2.49-8.91,7.84-16.66,13.16-24.22,1.09-1.55,2.26-3.35,4.57-3.43v.02c.95,1.2,.22,2.41-.42,3.19-3.91,4.74-6.48,10.33-10,15.31,0,0,.07-.27,.07-.27l-.13,.21c-1.76,6.99-6.39,12.97-7.15,20.31-.14,1.31-.37,2.62-.66,3.91-.58,2.65-.72,5.83,1.34,7.25,2.5,1.73,5.1-.76,6.97-2.41,5.42-4.78,10.04-10.33,14.53-16,1.54-1.94,2.48-4.83,6.4-5.35-2.29,6.18-5.27,11.71-6.32,17.87-.3,1.78-1.63,3.75,.44,4.81,1.75,.9,3.72,.95,5.72-.81,3.32-2.92,7.04-5.46,10.8-7.81,5.22-3.28,7.66-8.74,11.14-13.39,1.99-2.66,4.4-3.11,7.19-1.23,.71,.48,1.38,1.09,1.05,1.99-.32,.88-1.18,1.18-2.05,.85-4.35-1.65-5.15,1.95-6.1,4.51-1.08,2.91,1.29,4.84,3.14,6.65,1.06,1.03,1.95,.22,3.03-.42,3.94-2.3,7.86-4.78,12.62-5,1.64-.08,2.11-1.35,2.96-2.31,2.75-3.1,5.57-5.98,9.82-7.22,2.37-.7,4.32-.8,5.75,1.2,1.56,2.18,.87,4.47-.66,6.42-3.13,3.98-7.45,6.35-12.35,6.36-5.34,.02-4.34,3.54-4.33,6.45,0,3.36,2.22,3.82,5.15,3.46,5.89-.72,9.96-4.44,14.13-8.09,1.11-.97,2.22-1.95,3.33-2.92,0,0,0,0,0,0,.28,1,1.97,1.81,.78,2.98-5.65,5.59-11.01,11.74-20.07,11.34-1.65-.07-3.37,.22-3.98-1.92-.04,.05-.07,.09-.1,.13-5.53-3.59-2.18-8.11-1.23-12.61-4.32,.18-6.86,3.58-10.23,5.29-1.96,1-.63,3-.61,4.5,.08,5.25-1.85,9.21-6.66,11.63-3.65,1.83-7.46,2.07-9.61-1.57-2.22-3.75,.05-7.29,2.99-9.94,1.95-1.75,4.28-3.08,6.44-4.6-3.91-5.13-3.68-4.86-8.59-.81-4.52,3.72-9.05,7.6-14.64,9.78-6.67,2.6-9.23,.7-8.67-6.48,.07-.96,.12-1.93,.21-3.56-4.46,2.6-6.23,8.02-11.42,8.63-.05,.07-.11,.12-.17,.18,.11-.03,.22-.06,.33-.09-1.78,3.36-4.91,4.18-8.02,3.06-4.99-1.79-3.69-6.74-4.3-11.25-3.57,2.85-6.7,5.51-10,7.93-2.5,1.84-5.29,3.97-8.52,2.2-3.15-1.73-3.89-4.73-2.59-8.16,.22-.58,.2-1.25,.32-2.13-2.61,1.5-3.96,3.87-5.93,5.58-2.11,1.83-4.41,3.78-7.49,2.65-3.34-1.23-2.22-4.34-2.4-7.38-4.87,2.11-8.36,5.98-13.04,7.77-2.29,.88-4.5,2.43-6.89,.67-2.81-2.06-2.12-4.97-1.42-7.73,1.13-4.4,3.76-8.32,4.31-13.34-4.88,1.27-8.2,4.72-11.49,7.8-3.31,3.1-5.81,7.06-8.61,10.68-1.1,1.42-2,3.59-4.09,2.94-2.76-.86-.56-3.07-.69-4.67-.05-.66,.03-1.33,.05-1.99,.46-.13,.95-.48,.51-.85-.49-.4-.61,.25-.72,.63-3.51,2.35-7.03,4.69-10.54,7.05-2.49,1.67-4.97,2.08-7.8,.6-2.88-1.5-2.04-4.09-2.49-6.43-.57-2.98,2.17-5.67,.5-8.63,.29-.02,.58,.9,.87,0-.29,0-.58,0-.87,.01-5.51,4.45-11.22,8.12-18.82,5.41-.58-.21-1.47,.43-2.22,.67,.05-.13,.11-.27,.16-.4-.06,.12-.12,.25-.18,.37,2.4,7.18-.63,13.83-2.06,20.63-.9,4.28-2.74,8.07-6.29,10.89-1.49,1.18-2.83,1-3.74-.37-1.01-1.51-1.46-3.29-1.07-5.23,2.84-14.41,7.15-28.25,14.21-41.25,3.92-7.22,7.54-14.53,13.88-21.09,.42,4.35-1.55,7.24-3.42,9.46-4.44,5.28-6.31,11.83-9.72,17.58-2.23,3.77-.14,5.04,3.01,5.8,5.42,1.3,9.83-.99,13.49-4.55,3.5-3.41,8.22-5.49,11-10.96,.55,3.26,.3,5.24-.84,7.5-2.29,4.52-3.98,9.22-4.18,14.51-.16,4.19,1.59,4.2,4.33,3,3.95-1.74,7.15-4.61,10.29-7.53,2.05-1.9,3.98-3.97,6.68-5.02-.11,.52-.14,.95,.59,.52-.23-.14-.46-.28-.69-.42,2.07-3.91,2.62-8.86,7.65-11.19,.89,4.86-4.8,7.56-3.6,12.19-.93,.11-1.18,.75-1.2,1.55,0,.08,.27,.25,.37,.22,1.02-.27,.76-1.1,.78-1.82,5.04-2.96,8.42-8.16,14.03-10.37,2.2-.87,4.1-.73,5.81,1.06,1.81,1.9-.46,2.85-.89,4.22h.05c0,.41,0,.84,0,1.26,0,0,.02-.02,.02-.02-.93,3.13-1.85,6.27-2.81,9.4-.54,1.77-1.02,3.89,.35,5.08,1.22,1.06,2.69-.56,3.94-1.3,3.4-2.01,6.83-3.97,10.17-6.06,2.37-1.48,4.09-3.48,5.31-6.13,1.82-3.95,4.43-7.09,9.16-8.22,2.66-.64,4.62-.29,6.02,1.71,2.03,2.89,3.46,2.18,4.95-.33,.25-.42,.52-.84,.79-1.25,.73-1.1,1.5-2.54,3.06-1.66,1.85,1.04,.98,2.58,.05,3.76-2.55,3.23-4.01,7.04-5.89,10.63-.28-.48-.6-.84-1.06-.2-.01,.02,.44,.38,.68,.58Zm-16.94,3.02c.13,1.55-.29,2.88,.95,3.59,1.52,.87,2.37-.42,3.43-1.19,3.53-2.56,5.7-6.45,8.97-9.2,2.81-2.36,1.41-3.69-.58-5.35-2.21-1.85-4.35-1.43-6.3,.13-3.96,3.16-5.72,7.56-6.46,12.02Zm84.47,13.9c5.13-.7,6.7-4.43,8.22-8.16,.37-.91,.61-2.5-.31-2.71-3.48-.79-4.99,2.62-7.44,4.06-1.09,.64-2.11,1.78-2.65,2.93-1.13,2.44-.05,3.76,2.18,3.89ZM4.11,71.87c4.28-8.08,6.57-16.65,6.27-25.84-3.06,8.38-5.87,16.82-6.27,25.84ZM213.63,34.2c4.32,.19,7.56-1.43,9.98-5.61-5.3-.89-7.6,2.44-9.98,5.61Z"/>
    <path d="M170.55,22.21c-1.44-.03-1.83-.82-1.76-1.64,.24-2.98,2.28-4.57,4.81-5.55,.88-.34,1.89,.65,1.45,1.34-1.37,2.13-3.07,4.04-4.5,5.85Z"/>
    <path d="M52.38,16.57c-.96,2.87-3.19,4.21-5.54,5.27-.64,.29-1.07-.91-.82-1.4,1.12-2.25,1.55-5.19,4.65-5.73,1.32-.23,1.31,1.15,1.71,1.86Z"/>
    <path d="M230.94,37.99c1.95-1.25,3.68-2.95,6.63-3.16-1.76,2.58-2.89,5.5-6.63,3.15,0,0,0,0,0,0Z"/>
    <path d="M155.52,.44c.03-.15,.05-.29,.08-.44,.13,.13,.25,.27,.38,.4-.15,.02-.3,.04-.44,.06,0,0-.01-.02-.01-.02Z"/>
    <path d="M81.69,33.29c.02,.41,.04,.83,.06,1.24,0,0-.01,.02-.01,.02,0-.43,0-.85,0-1.28,0,0-.05,.01-.05,.01Z"/>
  </g>
</svg>