<?xml version="1.0" encoding="UTF-8"?>
<svg id="Layer_2" data-name="Layer 2" xmlns="http://www.w3.org/2000/svg" viewBox="0 0 70.48 79.29">
  <g id="Layer_1-2" data-name="Layer 1">
    <path d="M60.64,72.73c-3.9,6.82-10.72,8.7-17.46,3.85-14.69-10.57-28.32-22.31-37.51-38.32l.11,.12C1.89,33.52,.96,27.59,.16,21.76c-.76-5.54,1.25-10.66,6.18-13.3,4.44-2.37,9.06-.35,13.13,2.26,5.81,3.74,9.66,9.38,13.66,14.74,3.71,4.97,5.67,4.4,7.09-1.27l-.08,.07c2.28-4.06,2.34-8.8,4.32-13.09C47.47,4.67,51.58,.26,58.8,0c4.62-.16,11.35,8.67,11.59,15.75,.65,19.65-1.96,38.84-9.83,57.07-1.05-.51-2.1-1.03-3.16-1.54-.55-.54-1.09-1.08-1.64-1.62,5.81-12.57,8.22-26.13,9.37-39.63,.62-7.31,.61-15.56-3.93-22.46,.16-.41,.59-.97,.45-1.22-.49-.89-1.12-.35-1.67,.04-4.85-.77-7.7,1.37-9.75,5.77-2.88,6.18-4.7,12.66-6.66,19.14-.86,2.85-1.59,6.56-5.24,7.18-3.7,.64-5.4-2.59-7.13-5.15-3.2-4.72-6.16-9.61-9.43-14.29-2.83-4.06-8.21-7.16-11.71-6.21-5,1.36-6.47,8.09-4.39,12.6,9.05,19.64,22.84,35.43,41.3,46.91,3.68,2.29,6.98,1.57,8.88-2.77,.54,.54,1.09,1.09,1.63,1.63,1.05,.51,2.1,1.02,3.16,1.53Z"/>
  </g>
</svg>