<?xml version="1.0" encoding="UTF-8"?>
<svg id="Layer_2" data-name="Layer 2" xmlns="http://www.w3.org/2000/svg" viewBox="0 0 498.63 73.1">
  <g id="Layer_1-2" data-name="Layer 1">
    <path d="M343.8,50.46c-1.73-.29-2.72,1.03-3.89,1.86-5.42,3.84-13.43,2.52-13.12-6.36-4.84,5-7.55,11.41-12.74,15.87-1.61,1.38-3.22,2.76-4.93,4.01-3.42,2.5-7.19,1.43-8.44-2.6-.98-3.17-1.14-6.45,.52-9.56,.16-.25,.33-.5,.5-.75-.21,0-.43,.02-.64,.03,.1,.28,.2,.56,.29,.83-4.85,1.85-6.5,7.21-10.87,9.75-2.96,1.72-6.2,3.65-9,2.09-3.26-1.81-3.34-5.63-2.14-9.3,2.55-7.82,5.52-15.37,11.44-21.75,.77,3.09,.09,7.77-2.15,11.28-2.17,3.41-2.79,7.36-4.51,10.9-.68,1.4-.83,3.34,.23,4.25,1.41,1.21,2.76-.58,3.82-1.36,4.2-3.08,6.92-8.17,12.7-9.1,1-.16,1.3-1.2,.89-1.97-1.11-2.03,.62-3.07,1.43-4.35,.84-1.33,1.76-3.39,3.75-2.34,1.71,.9,1.22,3.14,.73,4.51-1.36,3.77-2.27,7.61-2.76,11.56-.16,1.29-.03,2.61-.03,4.34,4.54-1.41,6.89-4.99,9.52-7.92,5.05-5.62,9.27-11.89,12.82-18.6,.79-1.49,1.6-3.77,3.92-3.09,2.68,.79,1.73,3.26,1.57,5.11-.22,2.47-.84,4.89-1.13,7.35-.17,1.46-.28,3.06,1.36,3.94,1.54,.83,2.73,.17,4.1-.7,4.08-2.59,7.82-5.53,11.21-8.99,3.74-3.82,8.06-6.7,13.4-8.08,5.99-1.54,10.84,2.62,9.88,8.82-.53,3.39-1.33,6.7-3.24,10.74,6.64-1.49,11.04-4.91,14.77-9.18,2.89-3.31,6.91-5.54,9.03-9.58,.4-.77,1.33-1.15,2.12-.72,.75,.41,1.02,1.26,.67,2.16-.18,.47-.27,1.01-.57,1.38-2.9,3.62-4.96,7.54-4.6,12.37-.16,.24-.88,.49,.03,.69-.06-.27-.12-.54-.18-.81,4.91-2.81,7.43-7.77,10.78-11.98,1.08-1.36,1.23-4.16,4.14-3.11,2.35,.85,2.22,2.85,2.32,4.85,.2,3.98-1.24,9.06,3.92,10.69,4.77,1.5,7.75-2.95,10.77-5.58,4.3-3.75,5.31-9.74,8.1-14.58,5.24-9.11,10.78-17.99,17.24-26.29,.49-.63,.93-1.41,2.8-1.23-5.89,13.93-13.92,26.53-20.78,41.3,5.24-2.93,9.16-5.12,13.07-7.32,1.46-.82,2.92-1.37,4.7-1.29,2.01,.09,3.63,.74,4.6,2.41,1,1.71-.12,3.14-1.07,4.53-3.57,5.19-8.41,8.76-14.23,11.1,5.73,7.32,8.79,7.68,16.32,2.58,6.19-4.19,10.39-10.1,14.73-15.94,2.21-2.97,4.73-5.54,8.71-6.03,1.17-.14,2.38-.67,3.09,.67,.9,1.72-1,1.88-1.72,2.31-3.36,2.04-5.56,5.14-7.88,8.13-1.65,2.13-1.56,3.86,.72,5.89,3.92,3.51,7.46,4.33,12.2,1.27,4.34-2.79,9.28-4.63,13.98-6.87,.78-.37,1.6-.43,2.53,.59-5.26,4.5-11.65,7.09-17.5,10.52-2.14,1.26-3.2,1.51-1.99,4.84,1.56,4.3-1.13,8.34-4.74,11.56-3.21,2.86-6.82,3.19-10.52,2.45-2.79-.56-4.58-5.86-2.77-8.12,2.81-3.53,5.53-7.36,10.3-8.62-.69,1.02-1.18,1.99,.61,2.37-3.2,2.67-6.29,5.43-8.52,9.18,1.45,1.17,2.92,2.35,4.39,3.53,2.14-3.76,7.72-4.83,7.91-10.08,.1-2.89-1.12-3.99-3.91-2.53-.17-.82-.34-1.65-.5-2.47,.78-1.37,.19-2.14-1.13-2.6-2.42-.84-4.14-2.56-5.88-4.61-3.94,3.7-8.05,7.2-12.78,10.01-5.86,3.49-10.26,3.41-15.27-1.07-5.54-4.95-11.56-4.28-16.02,1.72-.56,.75-1.49,1.23-2.24,1.84-.3,.31-.36,.27-.19-.1,.1,.07,.2,.14,.3,.22,.15,1.17,.3,2.36-.57,3.32-.74,.82-1.32,2.18-2.74,1.62-1.42-.56-1.15-2.05-.87-3.05,.93-3.26,2.12-6.45,3.17-9.67,.19-.57,.2-1.2,.29-1.79-.63-.06-1.34-.34-1.89-.16-8.37,2.73-11.95,.51-13.06-8.19-.08-.59,0-1.2,0-2.37-3.21,1.9-4.88,4.41-6.67,6.89-4.39,6.1-8.99,12.07-13.43,18.13-1.28,1.74-2.89,3.37-4.89,2.11-2.13-1.34-.93-3.98-.07-5.4,2.96-4.92,4.55-10.42,8.11-16.76-6.89,5.02-12.42,9.42-19.69,10.8-1.72,.33-2.94,3.38-4.34,5.21-3.23,4.22-7.21,6.99-12.79,6.63-1.34-.09-2.61-.49-3.34-1.82-1.19-2.16,3.07-.74,1.88-2.87,4.74,.66,12.17-3.67,13.39-7.7,.25-.84-.04-1.41-.59-1.63-5.06-2.04-5.14-6.86-6.06-12.13-3.99,6.39-7.15,11.95-5.51,18.89,.31,1.3,.44,2.29-1.18,2.6-1.13,.08-2.1,2.2-2.98-1.2-1.12-4.34-.47-8.38-.64-12.54,0,0,.36,.07,.36,.07l-.27,.06Zm83.73-2.38c.81-.07,1.8,.42,2.3-.69,2.56,.29,4.6-1.14,6.78-2.08,2.53-1.09,4.51-3.49,7.61-3.22,.1,0,.21,0,.31,0-.12-.01-.23-.03-.35-.04,.82-1.67,1.63-3.33,2.65-5.42-5.75,.43-9.26,4.35-13.61,6.48-.07,0-.15,.02-.22,.02,.1,.03,.21,.06,.31,.09-.86,1.64-3.55,1.82-3.42,4.27-.76,.24-1.52,.48-2.24,.75-.07,.14-.15,.28-.19,.43-.01,.06,.08,.14,.12,.21-.02-.27-.05-.53-.07-.8Zm-64.17,2.95c2.67-5.22,3.65-8.86,3.6-11.96-.02-1.48-.33-2.43-1.74-3.13-1.53-.76-2.4-.02-3.45,.9-4.14,3.6-3.32,11.17,1.59,14.19Zm-50.54,8.8l-.34,.17,.36,.13-.02-.3Zm115.93-17.81c-.09-.12-.19-.24-.28-.35-.12,.1-.31,.18-.32,.29-.01,.11,.16,.23,.26,.35,.12-.1,.23-.19,.35-.29Zm-62.37,13.18l.15-.22-.23-.04,.08,.26Z"/>
    <path d="M115.3,56.84c-4.28,1.67-6.26,5.96-9.73,8.6-2.63,2-5.47,2.98-8.26,1.73-2.76-1.24-3.05-4.22-3.15-7.21-.14-4.12,1.16-7.81,2.45-11.56,.32-.93,1.09-2.02-.14-2.54-1.42-.59-1.34,.55-1.89,1.68-1.73,3.53-5.51,4.99-8.95,6.22-3.9,1.39-6.55,3.62-8.92,7.05-2.6,3.76-6.17,6.86-11.35,6.96-4.55,.09-6.67-2.34-7.06-6.53-.51-5.42,1.41-10.29,4.21-15.92-5.63,3.79-9.05,8.66-13.63,12.23-3.78,2.94-7.4,5.96-11.57,8.4-3.07,1.79-6,2.21-8.9,.73-3.45-1.75-2.55-5.39-1.81-8.03,1.58-5.64,3.87-11.08,5.93-16.57,.4-1.07,1.49-2.28,.47-3.16-1.42-1.22-2.33,.58-3.27,1.26-8.47,6.08-14.25,14.62-20.57,22.66-1.98,2.52-3.79,6.99-7.3,5.16-3.81-1.99-.69-6.01,.51-8.72,4.79-10.85,9.78-21.62,15.02-32.25,3.57-7.23,7.65-14.21,11.61-21.24,.52-.92,1.63-1.5,2.96-2-.47,5.47-1.64,10.64-5.07,15.07,.05-.03,.09-.06,.12-.08-2.12,5.57-5.13,10.7-7.79,16.02-2.46,4.92-4.54,10.03-6.33,15.39,2.83-5.49,8.81-7.52,12.5-12.02,1.39-1.7,3.55-2.87,5.79-3.68,4.9-1.76,7.9,.49,6.78,5.64-1.17,5.39-3.16,10.55-5.32,15.66-.84,2-2.9,4.96-.66,6.79,2.09,1.71,4.11-1.06,6.12-2.02,4.71-2.26,8.34-5.96,12.01-9.45,6.46-6.14,13.72-11.23,20.65-16.75,2.7-2.15,5.38-3.32,8.65-1.79,3.22,1.51,4.4,4.68,4.47,7.7,.07,2.8,.83,5.83-1.09,8.75,2.77,.75,4.6-.42,6.16-1.75,4.26-3.61,9.04-6.61,12.86-10.76,1.01-1.09,2.44-2.66,3.75-1.61,1.29,1.03,.63,3-.04,4.61-2.31,5.59-5.04,11.05-6.18,17.04-.35,1.83-1.54,4.43,.28,5.57,1.82,1.14,3.6-.92,5.15-2.13,5.23-4.07,8.77-9.54,12.5-14.88,1.18-1.7,1.85-4.4,4.91-3.78l-.13,.14c.27,.25,.55,.5,.82,.76,.11-.26,.22-.51,.33-.77l-.15-.17c1.91,4.52-1.37,8.14-2.36,12.09-.85,3.41-2.47,7.57,.28,9.46,2.92,2.01,5.88-1.49,8.19-3.81,6.79-6.81,11.85-14.82,15.86-23.48,.7-1.5,1.32-2.89,2.84-2.41,1.3,.41,1.39,2.08,.96,3.49-.28,.94-.49,1.9-.67,2.86-.69,3.78,.63,5.66,4.73,5.3,4.3-.38,8.62-.52,13.79-.82-11.65,5.96-18.74,5.98-22.03,.24-5.3,7.19-9.49,15.17-16.69,20.65-2.4,1.83-5.27,3.7-8.07,2.55-2.47-1.01-5.06-3.08-4.28-6.84,.25-1.21-.27-2.59-.44-3.9,.21-.22,.45-.42,.64-.66,.03-.04-.11-.22-.17-.34-.11,.38-.22,.77-.33,1.15Zm37.61-10.61c.05,.08,.11,.16,.16,.24-.1-.04-.2-.07-.27-.12,.04-.04,.07-.08,.11-.12Zm-76.62,5.79l-.23-.32c.41-.08,.42,.02,.03,.3,2.9-3.46,3.51-7.54,3.15-11.85-.14-1.63-1.15-2.95-2.54-3.43-1.78-.62-2.61,1.23-3.4,2.3-3.4,4.61-2.22,9.39,3,13Zm-9.27-2.8c-3.36,1.48-2.76,4.68-3.61,7.2-.81,2.42-1.43,5.29,1.03,6.62,2,1.08,4.23-.51,5.93-2.24,2.34-2.38,6.14-4.42-.04-6.93-1.4-.57-2.1-2.85-3.32-4.65Zm-37-11.21c-.1-.12-.2-.23-.3-.35-.12,.1-.31,.19-.32,.3,0,.11,.17,.23,.27,.34,.11-.1,.23-.2,.34-.3Z"/>
    <path d="M208.54,59.04c4.34-6.09,10.18-10.98,14.02-17.47,2.55-4.31,6.4-7.86,7.51-13,.24-.14,.48-.27,.72-.41-.15-.16-.3-.31-.46-.47-.16,.23-.31,.45-.47,.68-2.74-.06-5.49-.21-8.23-.15-1.63,.03-4.06,.63-4.34-1.04-.39-2.34,2.3-2.26,3.96-2.63,3.26-.72,6.55-1.6,9.86-1.81,2.66-.16,3.68-1.65,4.81-3.58,1.9-3.27,3.98-6.45,5.96-9.68,.57-.93,1.4-1.73,2.4-1.32,1.58,.65,.66,1.69,.22,2.8-.96,2.44-1.46,5.04-2.91,7.32-.66,1.04-2.14,2.4-1.17,3.44,1.01,1.09,2.77,1.08,4.49,.57,3.56-1.06,7.17-1.37,11.73,1.53-4.32,.2-6.97,1.91-10.16,1.77-6.93-.32-11.18,2.79-13.53,9.57-2.88,8.32-7.79,16.01-7.26,25.27,.08,1.35-.71,3.19,1.18,3.93,1.48,.58,2.39-.77,3.51-1.42,5.59-3.22,9.15-8.42,13.06-13.29,2.01-2.51,3.56-5.5,7.63-7.25-3.44,8.03-5.98,15.63-12.64,20.71-2.69,2.05-4.93,4.64-8.58,5.51-5.59,1.34-9.29-1.23-9.17-7.09,.07-3.39-.37-6.83,1.02-10.12,.55-1.31,.33-2.63-1.2-3.64,.9,4.75-3.91,6.19-5.53,9.68-2.1,4.49-7.6,6.11-11.2,9.56-1.88,1.8-5.19,2.46-7.85,.44-2.26-1.71-2.12-4.19-2.56-6.85-1.35-8.04,3.86-13.6,6.34-20.16,.94-2.5,2.98-4.21,5.63-6.08,.26,3.88-1.16,6.83-2.45,9.67-2.13,4.67-3.91,9.43-5.23,14.38-.55,2.08-.31,4.3,1.01,5.51,1.89,1.73,2.47-1.27,3.79-1.89,2.08-.98,4.11-2.04,6.15-3.06-.14,.28-.27,.55-.4,.82,.16,.04,.32,.08,.48,.12-.05-.3-.09-.6-.14-.89Z"/>
    <path d="M209.36,29.27c-1.65-.38-2.54-2.04-2.38-3.17,.39-2.74,3.03-3.56,5.25-4.45,1.31-.52,1.82,.63,1.64,1.64-.48,2.66-1.81,4.8-4.51,5.98Z"/>
    <path d="M122.17,41.34c.17,.24,.34,.49,.51,.73,.12-.25,.25-.51,.37-.77,0,0,.15,.17,.15,.17-.39,0-.77,0-1.16,.01l.13-.14Z"/>
  </g>
</svg>