<?xml version="1.0" encoding="UTF-8"?>
<svg id="Layer_2" data-name="Layer 2" xmlns="http://www.w3.org/2000/svg" viewBox="0 0 331.73 37.54">
  <defs>
    <style>
      .cls-1 {
        stroke: #000;
        stroke-linejoin: round;
        stroke-width: .4px;
      }
    </style>
  </defs>
  <g id="Layer_1-2" data-name="Layer 1">
    <g>
      <path d="M13.99,29.1c-.75-.68-1.67-1.27-2.77-1.78-1.1-.5-2.3-.98-3.61-1.44-1.31-.45-2.51-1-3.61-1.65-1.1-.64-2.02-1.46-2.77-2.43-.75-.98-1.12-2.21-1.12-3.71,0-.87,.2-1.71,.6-2.51,.4-.8,.99-1.51,1.78-2.12,.78-.61,1.76-1.1,2.93-1.46,1.17-.37,2.54-.55,4.1-.55,.77,0,1.62,.07,2.56,.21,.94,.14,1.82,.34,2.64,.6,.82,.26,1.51,.6,2.07,1.02,.56,.42,.84,.91,.84,1.46v2.51c0,.1-.02,.21-.05,.31-.04,.07-.1,.14-.18,.21-.09,.07-.2,.1-.34,.1-.38,0-.71-.19-.99-.58-.28-.38-.56-.75-.84-1.1-.8-1.12-1.75-1.84-2.85-2.17-1.1-.33-2.1-.5-3.01-.5-1.78,0-3.15,.38-4.13,1.15-.98,.77-1.46,1.66-1.46,2.67,0,.94,.37,1.73,1.12,2.38,.75,.65,1.67,1.22,2.77,1.73,1.1,.51,2.3,.99,3.61,1.46,1.31,.47,2.51,1.04,3.61,1.7,1.1,.66,2.02,1.45,2.77,2.35,.75,.91,1.12,2.06,1.12,3.45,0,.87-.19,1.73-.58,2.56-.38,.84-.97,1.59-1.75,2.25-.78,.66-1.77,1.19-2.95,1.57-1.19,.38-2.56,.58-4.13,.58-.94,0-1.96-.1-3.06-.29-1.1-.19-2.12-.46-3.06-.81-.94-.35-1.72-.77-2.33-1.25-.61-.49-.91-1.01-.91-1.57v-2.51c0-.1,.02-.21,.05-.31,.03-.07,.1-.14,.18-.21,.09-.07,.2-.1,.34-.1,.38,0,.71,.19,.99,.58,.28,.38,.56,.75,.84,1.1,.42,.56,.91,1.04,1.49,1.44,.58,.4,1.18,.74,1.83,1.02,.64,.28,1.3,.49,1.96,.63,.66,.14,1.27,.21,1.83,.21,1.81,0,3.2-.34,4.16-1.02,.96-.68,1.44-1.52,1.44-2.54,0-1.08-.38-1.96-1.12-2.64Z"/>
      <path d="M25.15,13.59h-2.82c-.14,0-.26-.03-.37-.1-.1-.03-.19-.1-.26-.18-.07-.09-.1-.22-.1-.39,0-.21,.11-.4,.34-.58,.23-.17,.48-.33,.76-.47,.63-.31,1.18-.7,1.65-1.15,.47-.45,.89-.93,1.25-1.44,.37-.5,.69-1.03,.97-1.57,.28-.54,.54-1.07,.78-1.59,.07-.14,.18-.25,.34-.34,.16-.09,.32-.11,.5-.08,.17,.04,.32,.12,.44,.26,.12,.14,.18,.37,.18,.68v5.02h4.5c.14,0,.26,.04,.37,.1,.07,.07,.14,.17,.21,.31,.07,.14,.1,.33,.1,.58s-.04,.43-.1,.55c-.07,.12-.14,.22-.21,.29-.1,.07-.23,.1-.37,.1h-4.5V31.37c0,1.15,.18,2,.55,2.56,.37,.56,.81,.95,1.33,1.18,.52,.23,1.05,.32,1.59,.29,.54-.03,.98-.09,1.33-.16,.28-.07,.49-.03,.63,.1,.14,.14,.24,.31,.29,.5,.05,.19,.03,.39-.05,.6-.09,.21-.24,.35-.44,.42-.49,.17-.94,.3-1.36,.39-.42,.09-.85,.13-1.31,.13-.87,0-1.68-.1-2.43-.31-.75-.21-1.4-.56-1.96-1.05-.56-.49-1-1.12-1.33-1.91-.33-.78-.5-1.73-.5-2.85V13.59Z"/>
      <path d="M59.16,34.38c.19,.26,.41,.48,.65,.65,.24,.17,.46,.35,.65,.52,.19,.17,.29,.37,.29,.58,0,.14-.04,.25-.1,.34-.07,.09-.14,.15-.21,.18-.1,.04-.21,.05-.31,.05h-4.29c-.1,0-.21-.02-.31-.05-.07-.03-.14-.1-.21-.18-.07-.09-.1-.2-.1-.34v-2.04c-1.22,1.12-2.54,1.97-3.95,2.56s-2.73,.89-3.95,.89c-1.15,0-2.2-.19-3.14-.58-.94-.38-1.76-.94-2.46-1.67-.7-.73-1.24-1.6-1.62-2.61-.38-1.01-.58-2.14-.58-3.4V15.95c0-.52-.1-.91-.31-1.15-.21-.24-.44-.43-.71-.55-.26-.12-.5-.23-.71-.34-.21-.1-.31-.28-.31-.52,0-.1,.03-.19,.1-.26,.07-.07,.14-.14,.21-.21,.1-.03,.21-.07,.31-.1l4.08-1.2c.21-.07,.4-.1,.58-.1,.1,.04,.22,.11,.34,.24,.12,.12,.18,.34,.18,.65V29.17c0,.98,.15,1.8,.44,2.48,.3,.68,.68,1.24,1.15,1.67,.47,.44,1,.76,1.59,.97,.59,.21,1.2,.31,1.83,.31,1.12,.04,2.1-.12,2.95-.47,.85-.35,1.57-.77,2.14-1.25,.58-.49,1.02-.98,1.33-1.49,.31-.5,.47-.9,.47-1.18V15.95c0-.52-.1-.91-.31-1.15-.21-.24-.44-.43-.71-.55-.26-.12-.5-.23-.71-.34-.21-.1-.31-.28-.31-.52,0-.1,.03-.19,.1-.26,.07-.07,.14-.14,.21-.21,.1-.03,.21-.07,.31-.1l3.97-1.2c.21-.07,.4-.1,.58-.1,.1,.04,.22,.11,.34,.24,.12,.12,.18,.34,.18,.65v21.02c0,.38,.1,.71,.29,.97Z"/>
      <path d="M87.52,33.41c0,.38,.1,.71,.29,.97,.19,.26,.41,.48,.65,.65,.24,.17,.46,.35,.65,.52,.19,.17,.29,.37,.29,.58,0,.14-.04,.25-.1,.34-.07,.09-.14,.15-.21,.18-.1,.04-.21,.05-.31,.05h-4.29c-.1,0-.21-.02-.31-.05-.07-.03-.14-.1-.21-.18-.07-.09-.1-.2-.1-.34v-2.3c-.73,1.08-1.7,1.94-2.9,2.59s-2.71,.97-4.52,.97c-2.02,0-3.73-.4-5.12-1.2-1.39-.8-2.53-1.83-3.4-3.08-.87-1.25-1.51-2.65-1.91-4.18-.4-1.53-.6-3.05-.6-4.55s.2-2.96,.6-4.5c.4-1.53,1.04-2.92,1.91-4.16,.87-1.24,2-2.26,3.4-3.06,1.39-.8,3.1-1.2,5.12-1.2,1.78,0,3.27,.34,4.47,1.02,1.2,.68,2.19,1.58,2.95,2.69V4.44c0-.52-.1-.91-.31-1.15-.21-.24-.44-.43-.71-.55-.26-.12-.5-.24-.71-.34-.21-.1-.31-.28-.31-.52,0-.1,.03-.19,.1-.26,.07-.07,.14-.14,.21-.21,.1-.03,.21-.07,.31-.1l3.97-1.2c.21-.07,.4-.1,.58-.1,.1,.04,.22,.11,.34,.23,.12,.12,.18,.34,.18,.65V33.41Zm-3.66-9.04v-.47c-.04-1.46-.2-2.83-.5-4.1-.3-1.27-.73-2.37-1.31-3.29-.58-.92-1.31-1.65-2.2-2.17s-1.93-.78-3.11-.78-2.19,.27-3.11,.81c-.92,.54-1.72,1.3-2.38,2.27-.66,.98-1.18,2.13-1.54,3.45-.37,1.33-.55,2.75-.55,4.29s.16,3.02,.47,4.37c.31,1.34,.78,2.49,1.41,3.45,.63,.96,1.42,1.72,2.38,2.27,.96,.56,2.07,.84,3.32,.84,1.08,0,2.06-.28,2.93-.84,.87-.56,1.62-1.32,2.25-2.27,.63-.96,1.11-2.11,1.44-3.45,.33-1.34,.5-2.8,.5-4.37Z"/>
      <path d="M99.65,33.41c0,.38,.1,.71,.29,.97,.19,.26,.41,.48,.65,.65,.24,.17,.46,.35,.65,.52,.19,.17,.29,.37,.29,.58,0,.14-.04,.25-.1,.34-.07,.09-.14,.15-.21,.18-.1,.04-.21,.05-.31,.05h-6.17c-.1,0-.21-.02-.31-.05-.07-.03-.14-.1-.21-.18-.07-.09-.1-.2-.1-.34,0-.21,.1-.4,.29-.58,.19-.17,.41-.35,.65-.52,.24-.17,.46-.39,.65-.65,.19-.26,.29-.58,.29-.97V15.95c0-.52-.1-.91-.31-1.15-.21-.24-.44-.43-.71-.55-.26-.12-.5-.23-.71-.34-.21-.1-.31-.28-.31-.52,0-.1,.03-.19,.1-.26,.07-.07,.14-.14,.21-.21,.1-.03,.21-.07,.31-.1l3.97-1.2c.21-.07,.4-.1,.58-.1,.1,.04,.22,.11,.34,.24,.12,.12,.18,.34,.18,.65v21.02ZM95.62,1.91c.49-.5,1.1-.76,1.83-.76s1.35,.25,1.86,.76c.5,.51,.76,1.12,.76,1.86s-.25,1.34-.76,1.83c-.51,.49-1.12,.73-1.86,.73s-1.34-.24-1.83-.73c-.49-.49-.73-1.1-.73-1.83s.24-1.35,.73-1.86Z"/>
      <path d="M128.14,24.36c0,1.5-.2,3.02-.6,4.55-.4,1.53-1.06,2.93-1.99,4.18-.92,1.25-2.14,2.28-3.63,3.08-1.5,.8-3.35,1.2-5.54,1.2s-3.98-.4-5.46-1.2c-1.48-.8-2.68-1.83-3.61-3.08-.92-1.25-1.59-2.65-1.99-4.18-.4-1.53-.6-3.05-.6-4.55s.2-2.96,.6-4.5c.4-1.53,1.06-2.92,1.99-4.16,.92-1.24,2.13-2.26,3.61-3.06,1.48-.8,3.3-1.2,5.46-1.2s4.04,.4,5.54,1.2c1.5,.8,2.71,1.82,3.63,3.06,.92,1.24,1.59,2.62,1.99,4.16,.4,1.53,.6,3.03,.6,4.5Zm-19.76,0c0,1.57,.18,3.02,.55,4.37,.37,1.34,.9,2.49,1.59,3.45,.7,.96,1.53,1.72,2.51,2.27,.98,.56,2.09,.84,3.35,.84s2.37-.28,3.35-.84c.98-.56,1.81-1.32,2.51-2.27,.7-.96,1.23-2.11,1.59-3.45,.37-1.34,.55-2.8,.55-4.37s-.18-2.96-.55-4.29c-.37-1.32-.9-2.47-1.59-3.45-.7-.98-1.53-1.73-2.51-2.27-.98-.54-2.09-.81-3.35-.81s-2.37,.27-3.35,.81c-.98,.54-1.81,1.3-2.51,2.27-.7,.98-1.23,2.13-1.59,3.45-.37,1.33-.55,2.75-.55,4.29Z"/>
      <path d="M196.47,13.59c.45-.52,1.05-.97,1.78-1.33,.73-.37,1.57-.64,2.51-.84,.94-.19,1.88-.29,2.82-.29,2.82,0,5.01,.75,6.56,2.25,1.55,1.5,2.33,3.5,2.33,6.01v14.01c0,.38,.1,.71,.29,.97,.19,.26,.41,.48,.65,.65,.24,.17,.46,.35,.65,.52,.19,.17,.29,.37,.29,.58,0,.14-.04,.25-.1,.34-.07,.09-.14,.15-.21,.18-.1,.04-.21,.05-.31,.05h-3.45c-.28,0-.54-.07-.78-.21-.21-.1-.39-.26-.55-.47-.16-.21-.24-.52-.24-.94v-1.05c-.77,.91-1.73,1.65-2.88,2.22s-2.67,.86-4.55,.86c-2.27,0-4.1-.64-5.52-1.91-1.41-1.27-2.12-3.08-2.12-5.41,0-2.02,.52-3.66,1.57-4.91s2.33-2.21,3.84-2.88c1.52-.66,3.15-1.08,4.91-1.25,1.76-.17,3.34-.19,4.73-.05v-1.46c0-1.95-.44-3.43-1.31-4.44-.87-1.01-1.93-1.52-3.19-1.52-1.15,0-2.05,.19-2.69,.57-.65,.38-1.17,.81-1.57,1.28-.4,.47-.76,.91-1.07,1.31-.31,.4-.73,.6-1.25,.6-.49,0-.91-.16-1.28-.47-.37-.31-.55-.73-.55-1.25,0-.63,.23-1.2,.68-1.73Zm12.29,9.2c-1.12-.07-2.08-.08-2.9-.03-.82,.05-1.71,.18-2.67,.39-.96,.21-1.85,.54-2.67,.99-.82,.45-1.51,1.06-2.07,1.83-.56,.77-.84,1.76-.84,2.98,0,1.81,.51,3.21,1.54,4.18,1.03,.98,2.33,1.46,3.9,1.46s2.71-.37,3.63-1.1c.92-.73,1.61-1.55,2.07-2.46v-8.26Z"/>
      <path d="M240,34.38c.19,.26,.41,.48,.65,.65,.24,.17,.46,.35,.65,.52,.19,.17,.29,.37,.29,.58,0,.14-.04,.25-.1,.34-.07,.09-.14,.15-.21,.18-.1,.04-.21,.05-.31,.05h-4.29c-.1,0-.21-.02-.31-.05-.07-.03-.14-.1-.21-.18-.07-.09-.1-.2-.1-.34v-2.04c-1.22,1.12-2.54,1.97-3.95,2.56s-2.73,.89-3.95,.89c-1.15,0-2.2-.19-3.14-.58-.94-.38-1.76-.94-2.46-1.67-.7-.73-1.24-1.6-1.62-2.61-.38-1.01-.58-2.14-.58-3.4V15.95c0-.52-.1-.91-.31-1.15-.21-.24-.44-.43-.71-.55-.26-.12-.5-.23-.71-.34-.21-.1-.31-.28-.31-.52,0-.1,.03-.19,.1-.26,.07-.07,.14-.14,.21-.21,.1-.03,.21-.07,.31-.1l4.08-1.2c.21-.07,.4-.1,.58-.1,.1,.04,.22,.11,.34,.24,.12,.12,.18,.34,.18,.65V29.17c0,.98,.15,1.8,.44,2.48,.3,.68,.68,1.24,1.15,1.67,.47,.44,1,.76,1.59,.97,.59,.21,1.2,.31,1.83,.31,1.12,.04,2.1-.12,2.95-.47,.85-.35,1.57-.77,2.14-1.25,.58-.49,1.02-.98,1.33-1.49,.31-.5,.47-.9,.47-1.18V15.95c0-.52-.1-.91-.31-1.15-.21-.24-.44-.43-.71-.55-.26-.12-.5-.23-.71-.34-.21-.1-.31-.28-.31-.52,0-.1,.03-.19,.1-.26,.07-.07,.14-.14,.21-.21,.1-.03,.21-.07,.31-.1l3.97-1.2c.21-.07,.4-.1,.58-.1,.1,.04,.22,.11,.34,.24,.12,.12,.18,.34,.18,.65v21.02c0,.38,.1,.71,.29,.97Z"/>
      <path d="M258.45,14.61c-.51-.33-1.16-.5-1.96-.5-.63,0-1.22,.15-1.78,.44-.56,.3-1.04,.68-1.44,1.15-.4,.47-.72,.99-.97,1.57-.24,.58-.37,1.16-.37,1.75v14.38c0,.38,.1,.71,.29,.97,.19,.26,.41,.48,.65,.65,.24,.17,.46,.35,.65,.52,.19,.17,.29,.37,.29,.58,0,.14-.04,.25-.1,.34-.07,.09-.14,.15-.21,.18-.1,.04-.21,.05-.31,.05h-6.17c-.1,0-.21-.02-.31-.05-.07-.03-.14-.1-.21-.18-.07-.09-.1-.2-.1-.34,0-.21,.1-.4,.29-.58,.19-.17,.41-.35,.65-.52,.24-.17,.46-.39,.65-.65,.19-.26,.29-.58,.29-.97V15.95c0-.52-.1-.91-.31-1.15-.21-.24-.44-.43-.71-.55-.26-.12-.5-.23-.71-.34-.21-.1-.31-.28-.31-.52,0-.1,.03-.19,.1-.26,.07-.07,.14-.14,.21-.21,.1-.03,.21-.07,.31-.1l3.97-1.2c.21-.07,.4-.1,.58-.1,.1,.04,.22,.11,.34,.24,.12,.12,.18,.34,.18,.65v2.25c.91-1.11,1.82-1.96,2.74-2.54,.92-.57,1.86-.86,2.8-.86,.42,0,.85,.07,1.31,.21,.45,.14,.87,.37,1.25,.68,.38,.31,.71,.71,.97,1.18s.39,1.05,.39,1.75c0,.8-.12,1.34-.37,1.62-.24,.28-.54,.42-.89,.42s-.59-.1-.73-.31c-.14-.21-.21-.47-.21-.78,0-.59-.25-1.05-.76-1.39Z"/>
      <path d="M287.55,24.36c0,1.5-.2,3.02-.6,4.55-.4,1.53-1.06,2.93-1.99,4.18-.92,1.25-2.14,2.28-3.63,3.08-1.5,.8-3.35,1.2-5.54,1.2s-3.98-.4-5.46-1.2c-1.48-.8-2.68-1.83-3.61-3.08-.92-1.25-1.59-2.65-1.99-4.18-.4-1.53-.6-3.05-.6-4.55s.2-2.96,.6-4.5c.4-1.53,1.06-2.92,1.99-4.16,.92-1.24,2.13-2.26,3.61-3.06,1.48-.8,3.3-1.2,5.46-1.2s4.04,.4,5.54,1.2c1.5,.8,2.71,1.82,3.63,3.06,.92,1.24,1.59,2.62,1.99,4.16,.4,1.53,.6,3.03,.6,4.5Zm-19.76,0c0,1.57,.18,3.02,.55,4.37,.37,1.34,.9,2.49,1.59,3.45,.7,.96,1.53,1.72,2.51,2.27,.98,.56,2.09,.84,3.35,.84s2.37-.28,3.35-.84c.98-.56,1.81-1.32,2.51-2.27,.7-.96,1.23-2.11,1.59-3.45,.37-1.34,.55-2.8,.55-4.37s-.18-2.96-.55-4.29c-.37-1.32-.9-2.47-1.59-3.45-.7-.98-1.53-1.73-2.51-2.27-.98-.54-2.09-.81-3.35-.81s-2.37,.27-3.35,.81c-.98,.54-1.81,1.3-2.51,2.27-.7,.98-1.23,2.13-1.59,3.45-.37,1.33-.55,2.75-.55,4.29Z"/>
      <path d="M303.73,14.61c-.51-.33-1.16-.5-1.96-.5-.63,0-1.22,.15-1.78,.44-.56,.3-1.04,.68-1.44,1.15-.4,.47-.72,.99-.97,1.57-.24,.58-.37,1.16-.37,1.75v14.38c0,.38,.1,.71,.29,.97,.19,.26,.41,.48,.65,.65,.24,.17,.46,.35,.65,.52,.19,.17,.29,.37,.29,.58,0,.14-.04,.25-.1,.34-.07,.09-.14,.15-.21,.18-.1,.04-.21,.05-.31,.05h-6.17c-.1,0-.21-.02-.31-.05-.07-.03-.14-.1-.21-.18-.07-.09-.1-.2-.1-.34,0-.21,.1-.4,.29-.58,.19-.17,.41-.35,.65-.52,.24-.17,.46-.39,.65-.65,.19-.26,.29-.58,.29-.97V15.95c0-.52-.1-.91-.31-1.15-.21-.24-.44-.43-.71-.55-.26-.12-.5-.23-.71-.34-.21-.1-.31-.28-.31-.52,0-.1,.03-.19,.1-.26,.07-.07,.14-.14,.21-.21,.1-.03,.21-.07,.31-.1l3.97-1.2c.21-.07,.4-.1,.58-.1,.1,.04,.22,.11,.34,.24,.12,.12,.18,.34,.18,.65v2.25c.91-1.11,1.82-1.96,2.74-2.54,.92-.57,1.86-.86,2.8-.86,.42,0,.85,.07,1.31,.21,.45,.14,.87,.37,1.25,.68,.38,.31,.71,.71,.97,1.18,.26,.47,.39,1.05,.39,1.75,0,.8-.12,1.34-.37,1.62-.24,.28-.54,.42-.89,.42s-.59-.1-.73-.31c-.14-.21-.21-.47-.21-.78,0-.59-.25-1.05-.76-1.39Z"/>
      <path d="M327.39,17.65c-.35-.89-.81-1.64-1.39-2.25-.58-.61-1.23-1.07-1.96-1.39-.73-.31-1.55-.47-2.46-.47-1.01,0-2.02,.21-3.03,.63-1.01,.42-1.93,1.06-2.74,1.93-.82,.87-1.48,2-1.99,3.37-.51,1.38-.76,3.01-.76,4.89,0,1.57,.22,3.01,.65,4.31,.44,1.31,1.03,2.43,1.78,3.37,.75,.94,1.66,1.67,2.72,2.2,1.06,.52,2.22,.78,3.48,.78,.91,0,1.75-.11,2.54-.34,.78-.23,1.52-.5,2.2-.81s1.29-.65,1.83-1.02c.54-.37,.98-.69,1.33-.97,.24-.21,.46-.28,.65-.21,.19,.07,.3,.24,.34,.5,.03,.26-.02,.58-.16,.94-.14,.37-.42,.74-.84,1.12-.84,.77-2.07,1.48-3.69,2.14-1.62,.66-3.36,.99-5.2,.99-2.02,0-3.75-.4-5.18-1.2-1.43-.8-2.6-1.83-3.5-3.08-.91-1.25-1.57-2.65-1.99-4.18-.42-1.53-.63-3.05-.63-4.55s.24-2.96,.73-4.5c.49-1.53,1.25-2.92,2.27-4.16,1.03-1.24,2.33-2.26,3.9-3.06,1.57-.8,3.43-1.2,5.59-1.2,1.15,0,2.31,.21,3.48,.63,1.17,.42,2.22,1.06,3.16,1.93,.94,.87,1.71,2,2.3,3.37,.59,1.38,.89,3.02,.89,4.94-.04,.49-.14,.87-.31,1.15-.17,.28-.59,.42-1.25,.42h-17.99v-2.09h15.06c.38,0,.63-.11,.73-.34,.1-.23,.14-.48,.1-.76-.1-1.15-.33-2.17-.68-3.06Z"/>
    </g>
    <g>
      <path class="cls-1" d="M160.17,19.84c3.83-.03,7.14,3.13,7.24,6.92,0,.11-.11,.23-.16,.34-.06-.11-.17-.22-.18-.33-.18-3.24-2.48-5.66-5.2-6.35-4.15-1.05-8.31,1.98-8.55,6.24,0,.07,.02,.16-.02,.22-.05,.08-.13,.15-.2,.22-.05-.08-.15-.15-.14-.23,.03-.41,.05-.83,.13-1.23,.7-3.38,3.63-5.77,7.08-5.79Z"/>
      <path class="cls-1" d="M160.06,11.11v7.61s-.08,.05-.12,.07c-.07-.1-.19-.2-.2-.31-.03-.32-.01-.65-.01-.97,0-2.01,0-4.02,0-6.03,0-.21-.07-.49,.33-.36Z"/>
      <path class="cls-1" d="M148.21,27.04c-1.15,0-2.3,0-3.46,0-.13,0-.25-.11-.38-.16,.13-.06,.25-.18,.38-.18,2.32-.01,4.64-.01,6.95,0,.12,0,.24,.13,.36,.2-.12,.05-.24,.15-.36,.15-1.17,.01-2.33,0-3.5,0Z"/>
      <path class="cls-1" d="M168.33,27.02c-.11-.3,.06-.34,.28-.33,.58,0,1.15,0,1.73,0,1.71,0,3.43,0,5.14,0,.09,0,.19-.02,.26,0,.09,.04,.16,.12,.23,.19-.07,.05-.14,.12-.21,.16-.03,.02-.09,0-.13,0-2.35,0-4.69,0-7.04,0-.09,0-.17-.02-.26-.02Z"/>
      <path class="cls-1" d="M153.95,21.24c-1.73-1.74-3.46-3.47-5.19-5.21-.07-.07-.05-.21-.08-.32,.11,.02,.25,0,.32,.07,1.69,1.67,3.37,3.36,5.05,5.05,.07,.08,.06,.24,.08,.36-.06,.02-.12,.03-.18,.05Z"/>
      <path class="cls-1" d="M171.57,15.64c.37,.19,.16,.33,.02,.48-1.01,1.01-2.03,2.03-3.04,3.04-.65,.65-1.29,1.3-1.95,1.94-.07,.07-.21,.05-.32,.07,.03-.11,.02-.25,.08-.32,1.73-1.74,3.47-3.47,5.21-5.22Z"/>
      <path class="cls-1" d="M152.21,23.82c-1.67-.64-3.32-1.27-4.97-1.92-.1-.04-.15-.19-.22-.29,.04-.04,.08-.08,.12-.11,.49,.19,.98,.37,1.48,.56,1.14,.44,2.29,.88,3.43,1.32,.19,.07,.44,.13,.17,.45Z"/>
      <path class="cls-1" d="M163.44,19.37c-.04-.11-.15-.24-.12-.32,.59-1.67,1.2-3.33,1.81-4.99,.05-.01,.09-.02,.14-.03,.04,.11,.15,.24,.12,.33-.59,1.67-1.2,3.33-1.81,4.99l-.14,.03Z"/>
      <path class="cls-1" d="M154.85,14.11c.6,1.65,1.2,3.3,1.8,4.96,.03,.08-.04,.19-.07,.29-.1-.08-.24-.14-.28-.25-.53-1.41-1.04-2.83-1.56-4.25-.06-.15-.14-.3-.16-.46-.01-.11,.06-.23,.1-.34,.06,.02,.11,.03,.17,.05Z"/>
      <path class="cls-1" d="M172.93,21.97c-1.61,.62-3.22,1.23-4.82,1.85-.04-.02-.08-.05-.12-.07,.06-.11,.09-.29,.17-.32,1.48-.59,2.97-1.16,4.47-1.72,.09-.03,.22,.06,.33,.09,0,.06-.02,.11-.03,.17Z"/>
    </g>
  </g>
</svg>