<?xml version="1.0" encoding="UTF-8"?>
<svg id="Layer_2" data-name="Layer 2" xmlns="http://www.w3.org/2000/svg" viewBox="0 0 349.51 88.72">
  <g id="Layer_1-2" data-name="Layer 1">
    <g>
      <path d="M176.58,43.98c-4.22,3.17-6.64,8.3-11.78,10.52-4.24,1.84-7.42,1.13-9.17-2.06-1.05-1.91,1.1-3.52-.04-5.22q-12.12,7.3-13.99-4.68c-4.6,1.95-8.7,5.09-14.08,4.78-2.01-.12-2.9,2.34-4.09,3.92-1.06,1.41-2.63,2.42-3.98,3.62-.05,.12-.1,.23-.15,.35,.07-.11,.15-.22,.22-.34-2.6,2.17-5.31,3.94-8.73,1.67-3.53-2.34-3.92-5.92-3.22-9.6,.54-2.86,1.67-5.61,2.54-8.41,0,0,.09,.09,.09,.09-6.8,1.71-12.1,5.11-15.23,11.82-2.52,5.4-6.61,9.42-12.65,11.28-2.41,.74-4.43,1.25-6.27-.64-2.06-2.13-2.26-4.53-.79-7.23,2.83-5.2,7.23-8.16,12.65-10.31,3.38-1.34,7.29-1.56,9.67-5.79,1.52-2.71-.09-4.12-.49-5.7-.33-1.33-2.63,.06-3.89,.68-5.56,2.73-10.1,6.69-13.86,11.62-1.84,2.41-3.96,4.6-5.85,6.98-.68,.85-1.22,.96-1.95,.27-.74-.7-1.33-1.45-.77-2.6,1.24-2.59,2.42-5.22,4.21-9.09-5.65,3.95-7.65,9.5-12.43,12.2l.05,.15c-1.26-2.5-.41-4.42,1.68-5.94,3.18-2.32,5.65-5.64,9.52-6.93,1.57-.52,1.79-1.84,2.37-2.93,4.16-7.76,8.25-15.57,12.36-23.36-.06,.09-.11,.18-.16,.26,.08-.05,.17-.11,.25-.16,2.28-4.81,4.76-9.47,9.03-13.19,1.34,2.42-.16,4.04-.89,5.39-4.05,7.47-8.78,14.6-12.44,22.24-1.52,3.18-4.54,6.22-3.51,10.39-.08-.06-.16-.12-.23-.18,.04,.09,.09,.18,.13,.27,3.17-3.9,7.04-6.78,11.78-8.55,5.18-1.93,8.09-.32,8.43,5.06,.17,2.63,.08,3.87,3.63,2.58,4.27-1.55,7.98-3.55,11.25-6.6,2.56-2.38,5.57-3.96,8.93-2.11,3.55,1.95,4.78,5.35,4.15,9.35-.33,2.07-1.46,4.05-.62,6.79,6.9-2.36,13.64-4.6,18.3-10.64,4.23-5.5,8.01-5.75,12.11-.38,1.24,1.62,2.23,1.46,3.65,1.11-.04,.01-.06,.03-.09,.04,.08,0,.17,0,.25,0-1.56-2.97,.97-4.49,2.33-6.39,.13-.18,.88-.07,1.22,.12,.83,.46,1.07,1.36,.72,2.13-.95,2.07-1.6,4.61-3.21,5.98-3.04,2.58-1.47,7.75-5.72,9.36,0-.01,0-.44,0-.44l.1,.31c1.75,7.44,3.04,7.96,8.93,3.03,7.16-5.98,13.68-12.58,18.47-21.39,2.05,4.8-2.14,8.18-1.63,12.89,3.45-3.62,6.46-6.77,9.45-9.94,.81-.86,1.57-1.81,2.95-1.24,1.43,.6,1.68,1.75,1.78,3.21,.17,2.38-1.41,5.9,.82,6.89,2.86,1.27,6.01-.89,8.7-2.54,3.24-1.99,6.21-4.29,9.05-6.89,3.14-2.87,6.73-5.5,11.02-.83,1.16,1.26,3.98,2.48,5.86-.71,3.23-5.49,6.94-10.69,10.31-16.09,2.46-3.94,5.11-7.64,9.8-10.59-.65,5.92-4.54,9.22-7.11,13.12-6.12,9.31-11.47,18.9-14.32,29.78-.5,1.91,.39,2.98,1.46,3.76,1.3,.95,2.78,.44,4.06-.64,4.71-3.97,8.93-8.42,12.23-13.61,1.45-2.28,4.06-5.27,5.42-4.48,2.49,1.46,.62,4.51-.38,6.91-1.32,3.2-2.38,6.5-3.48,9.79-.69,2.07-1.61,4.74,1.14,5.55,2.38,.7,5.65,.09,6.98-2.11,1.12-1.86,2.17-2.78,4.07-2.69,3.21,.15,1.14-2.67,2.3-3.9,4.18-4.42,7.95-9.23,11.91-13.87,.48-.56,.93-1.58,1.92-.92,1.14,.77,1.12,2.02,.77,3.16-.85,2.75-3.14,5.06-2.66,8.26,2.08,.5,2.79-1,3.68-2.1,2.78-3.43,6.27-5.89,10.22-7.75,1.61-.76,3.27-1.97,5.02-.38,1.52,1.4,1.66,3.27,1.05,5.08-1.29,3.84-2.79,7.61-4.11,11.44-.47,1.36-1.48,3.06-.5,4.19,1.15,1.33,2.84,.26,4.06-.51,6.11-3.85,13.26-6.08,17.26-13.06,3.35-5.85,9.07-7.05,14.55-3.82,1.68,.99,2.16,.15,2.48-.94,.56-1.92,1.27-3.87,3.61-2.83,2.07,.93,1.18,2.98,.85,4.79-1.17,6.49-3.51,12.64-5.23,18.97-.2,.74-.03,1.58-.03,2.44,7.17-2.22,11.97-7.9,18.82-11.99-1.62,6.72-6.37,9.81-10.95,11.97-8.09,3.82-13.36,9.23-15.94,17.94-1.78,6.02-5.48,11.19-11.32,14.4-3.1,1.7-9.44,1.57-11.16-.86-2.32-3.28-1.78-6.7,.19-10.19,3.11-5.51,8.28-8.44,13.46-11.4,3.12-1.78,6.37-3.31,9.49-5.08,3.66-2.08,2.6-6.51,4.47-9.56,.75-1.23,2.74-2.92,.84-4.89,1.06-.15,1.71-.74,1.8-1.81,.01-.14-.48-.47-.69-.44-1.29,.2-1.33,1.16-1.19,2.18-2.87,.79-4.23,2.92-4.81,5.63-.65,3-3.02,4.81-5.09,6.48-4.17,3.37-9.21,.28-9.8-5.81-.16-1.64,.06-3.31,.11-4.97,.68-.29,.95-1.06,.41-1.33-.83-.42-.61,.55-.75,.99-3.64,2.82-7.57,5.2-11.75,7.11-4.95,2.26-7.52,.23-7.03-5.23,.41-4.56,3.21-8.33,3.92-12.74,.15-.93,1.61-2.15,0-2.98-.94-.48-1.81,.13-2.65,.82-6.62,5.48-13.16,11.04-18.35,17.98-.89,1.2-2.2,3.21-3.27,2.36-1.28-1.03-2.26-3.2-.67-5.32,.93-1.24,1.94-2.64,1.76-4.82-4.52,3.83-8.37,8.03-13.29,10.85-1.94,1.11-4.02,3.05-6.26,1.06-2.26-2.02-4.36-4.34-3.33-7.94,.35-1.24,.22-2.62,.3-3.94,.21-.53,.44-1.06,.63-1.61,.02-.05-.23-.19-.35-.28-.19,.55-.37,1.1-.56,1.64-2.95,1.23-4.37,4.21-6.99,5.97-3,2.02-5.45,4.03-9.08,1.92-3.87-2.26-2.59-5.86-2.36-9.21,.12-.66,.26-1.29,.4-1.92-.22,.03-.45,.06-.67,.1,.11,.64,.22,1.28,.33,1.91-1.7-.97-1.85,.63-2.42,1.49-1.91,2.87-3.56,5.96-5.77,8.58-1.76,2.09-4.12,4.25-7.26,2.64-3.2-1.64-4.71-4.52-4.28-8.13,.31-2.58,.9-5.11-.25-7.61,0,0,.26,.09,.26,.09l-.17-.17c-2.28,1.24-4.45,2.74-6.85,3.65-5.3,2.01-8.13-.74-8.59-8.52-5.4,4.6-9.54,9.88-13.12,15.64-.77,1.25-1.74,2.38-2.45,3.65-.77,1.39-1.53,2.76-3.34,1.66-1.59-.97-.49-2.12-.11-3.38,.75-2.52,2.94-4.83,1.52-7.78,0,0,.18,.19,.18,.19l-.09-.29Zm46.46-13.92c-.94-.07-2.09-.53-2.78-.15-3.98,2.18-8.46,14.19-7.22,18.93,.79,3.02,2.59,4.2,4.76,1.55,3.49-4.26,6.69-8.78,9.67-13.41,2.69-4.18,.9-6.72-4.43-6.92Zm100.32,33.89c-7.14,4.35-13.84,6.67-18.47,12.05-1.99,2.31-4.52,5.26-2.28,8.2,2.12,2.78,5.09,1.4,7.88-.35,7.01-4.39,8.69-11.97,12.86-19.91Zm6.01-27.7c-3.39-3.91-7.04-2.52-10.03,0-4.46,3.77-6.77,8.94-6.93,14.82-.04,1.45-.32,3.7,1.7,4.24,1.52,.41,2.61-1.03,3.67-2.1,4.95-4.99,7.83-11.38,11.59-16.96Zm-184.12,10.22c-.32,1.31-.05,2.46,1.35,3.25,1.68,.95,1.92-.72,2.71-1.32,3.23-2.44,4.96-6.14,7.55-9.13,1.68-1.94,.36-3.72-1.15-5.13-1.58-1.48-3.61-1.43-4.84,.09-2.87,3.55-6.2,7-5.63,12.25Zm-50.74-1.51c-6.41,2.2-12,3.4-15.32,8.81-.83,1.35-1.64,2.85-.83,4.1,1.06,1.65,3.06,.97,4.53,.46,1.33-.46,2.49-1.52,3.64-2.42,3.34-2.59,5.18-6.33,7.99-10.96Zm20.15-6.37c-1.47,1.87-1.82,4.09-2.67,6.12-1.45,3.44-2.72,7.2,1.06,8.85,3.41,1.49,5.38-2.89,7.9-4.82,.24-.18,.36-.56,.46-.87,.15-.44,.4-1.09-.28-1.17-4.81-.52-3.95-5.55-6.47-8.11Zm10.82-3.04c.92-2.36-.62-3.39-1.96-3.28-3.08,.25-4.32,2.57-4.5,5.46-.17,2.71,1.08,6.01,3.41,5.56,3.94-.76,2.28-5.22,3.05-7.75Zm124.61,4.4l-.33,.14,.32,.15v-.28Zm26.02,1.49c-.07,.29-.14,.54-.2,.79,.23,0,.46,.02,.69-.02,.04,0,.11-.31,.05-.38-.13-.16-.34-.25-.53-.39Zm-181.16,6.67l-.33-.21-.03,.34,.36-.13Zm-.31-3.75l.2-.31-.32-.04,.12,.34Z"/>
      <path d="M62.55,52.1c-1.56,.92-3.04,2.04-4.71,2.7-1.41,.56-2.66,2.33-4.67,.19-1.76-1.88-3.41-3.32-2.51-6.11,1.16-3.59,2.42-7.16,3.37-10.81,.24-.91,1.01-2.44-.2-3.16-1.25-.74-2.37,.04-3.49,.98-5.25,4.41-9.94,9.31-13.85,14.96-.99,1.43-1.87,3.88-3.85,2.96-2.71-1.26-1.1-3.55-.35-5.57,.44-1.17,1.64-2.19,.92-4.05-3.76,1.82-7.62,3.37-11.96,3.07-2.26-.16-4.07,1-5.45,2.85-2.08,2.79-3.73,6.13-8.34,5.26-1.02-.19-1.98,3.2-3.77,1.2-1.51-1.69-3.19-3.54-3.57-5.91-1.05-6.54,5.58-19.12,11.64-21.65,2.63-1.1,5.64-2.52,8.41,0,2.56,2.32,2.41,5.36,1.83,8.33-.46,2.33-2.97,5.61-.95,6.67,1.79,.94,5.33-.4,7.94-1.71,5.18-2.6,9.31-6.15,11.93-11.4,.54-1.09,.96-2.53,2.83-2.57,1.32,5.1-4.14,8.04-4.01,12.8,4.18-2.54,6.76-6.83,11.1-9.04,2.03-1.04,4.5-1.87,5.86-.48,.99,1,.88,3.49,.6,5.72-.5,3.97-2.04,7.37-3.22,10.98-.46,1.39-.32,2.89,.47,3.76,1.25,1.4,2.36-.24,3.36-.9,1.98-1.31,3.39-.48,4.71,1.04,0,.02-.04-.12-.04-.12ZM9.6,35.9c-4.31,3.33-5.84,8-6.25,13.16-.15,1.86,.22,4.08,2.17,4.47,2.68,.54,4.72-1.37,6.08-3.49,.97-1.51,4.11-3.36,2.25-4.74-3.49-2.59-2.65-6.51-4.36-9.53,.05-.24,.1-.48,.15-.72-.01,.28-.02,.56-.04,.83Zm9.54-1.02c-.31-1.07,0-3.18-1.84-3.13-3.63,.1-3.29,3.58-3.83,5.88-.38,1.65,.5,4.3,2.42,4,3.39-.53,2.04-4.25,3.25-6.75Z"/>
      <path d="M265.59,19.73c-1.53,1.16-1.31,4.14-4.05,4.25-1.09,.05-1.86-1.26-1.56-2.13,.67-1.95,1.67-3.98,3.92-4.45,1.09-.23,1.51,1.01,1.69,2.32Z"/>
    </g>
  </g>
</svg>