<?xml version="1.0" encoding="UTF-8"?>
<svg id="Layer_2" data-name="Layer 2" xmlns="http://www.w3.org/2000/svg" viewBox="0 0 97.14 50.2">
  <defs>
    <style>
      .cls-1 {
        fill: #eac8ac;
        stroke: #eac8ac;
        stroke-linejoin: round;
        stroke-width: 2px;
      }
    </style>
  </defs>
  <g id="Layer_1-2" data-name="Layer 1">
    <g>
      <path class="cls-1" d="M48.54,27.36c11.52-.09,21.49,9.42,21.8,20.82,0,.33-.32,.68-.49,1.02-.19-.33-.52-.65-.54-.99-.54-9.74-7.47-17.05-15.66-19.13-12.5-3.16-25.01,5.95-25.73,18.79-.01,.22,.05,.48-.05,.66-.14,.25-.4,.44-.61,.66-.15-.23-.44-.46-.42-.68,.09-1.24,.15-2.5,.4-3.71,2.11-10.16,10.93-17.36,21.31-17.44Z"/>
      <path class="cls-1" d="M48.23,1.09V24c-.12,.07-.24,.14-.37,.21-.21-.31-.58-.61-.61-.94-.08-.97-.03-1.96-.03-2.93,0-6.05,0-12.1,0-18.15,0-.62-.2-1.47,1.01-1.1Z"/>
      <path class="cls-1" d="M12.55,49.06c-3.47,0-6.94,.01-10.4-.02-.38,0-.76-.32-1.14-.5,.38-.19,.76-.53,1.14-.53,6.98-.03,13.96-.03,20.94,0,.36,0,.72,.38,1.08,.59-.36,.15-.71,.44-1.07,.44-3.51,.03-7.02,.02-10.54,.02Z"/>
      <path class="cls-1" d="M73.13,48.98c-.32-.92,.17-1.01,.85-1.01,1.73,.02,3.47,0,5.2,0,5.16,0,10.31,0,15.47,0,.27,0,.56-.07,.79,.03,.27,.11,.47,.37,.7,.56-.21,.16-.41,.35-.64,.48-.1,.06-.26,0-.39,0-7.07,0-14.13,0-21.2,0-.26,0-.52-.05-.77-.07Z"/>
      <path class="cls-1" d="M29.83,31.57c-5.21-5.23-10.43-10.45-15.62-15.7-.2-.2-.17-.64-.24-.97,.33,.07,.76,.03,.96,.22,5.09,5.04,10.16,10.1,15.2,15.19,.22,.23,.17,.73,.25,1.1-.18,.05-.37,.1-.55,.15Z"/>
      <path class="cls-1" d="M82.86,14.74c1.1,.58,.5,1,.05,1.45-3.05,3.05-6.1,6.11-9.15,9.16-1.95,1.95-3.9,3.91-5.88,5.83-.2,.2-.64,.15-.96,.22,.08-.32,.05-.75,.25-.96,5.21-5.24,10.44-10.45,15.7-15.7Z"/>
      <path class="cls-1" d="M24.6,39.36c-5.03-1.93-10.01-3.83-14.98-5.78-.29-.11-.44-.58-.66-.89,.12-.11,.24-.23,.35-.34,1.48,.56,2.97,1.12,4.44,1.68,3.45,1.32,6.89,2.64,10.34,3.97,.57,.22,1.32,.38,.5,1.36Z"/>
      <path class="cls-1" d="M58.4,25.97c-.13-.33-.45-.72-.36-.97,1.78-5.02,3.62-10.03,5.44-15.03,.14-.03,.28-.06,.43-.09,.13,.33,.45,.73,.36,.99-1.78,5.02-3.61,10.02-5.43,15.02-.14,.03-.29,.06-.43,.09Z"/>
      <path class="cls-1" d="M32.53,10.14c1.81,4.97,3.62,9.94,5.4,14.92,.08,.23-.13,.57-.21,.86-.29-.24-.72-.43-.84-.74-1.59-4.25-3.13-8.52-4.68-12.78-.17-.46-.42-.91-.48-1.38-.04-.33,.19-.69,.3-1.04,.17,.05,.34,.1,.51,.15Z"/>
      <path class="cls-1" d="M86.97,33.78c-4.84,1.86-9.68,3.72-14.52,5.57-.12-.07-.24-.15-.37-.22,.17-.33,.26-.86,.53-.97,4.47-1.76,8.95-3.48,13.44-5.17,.26-.1,.66,.18,1,.28-.03,.17-.05,.33-.08,.5Z"/>
    </g>
  </g>
</svg>