<?xml version="1.0" encoding="UTF-8"?>
<svg id="Layer_2" data-name="Layer 2" xmlns="http://www.w3.org/2000/svg" viewBox="0 0 144.07 85.62">
  <defs>
    <style>
      .cls-1 {
        fill: #eac8ac;
      }
    </style>
  </defs>
  <g id="Layer_1-2" data-name="Layer 1">
    <g>
      <path class="cls-1" d="M141.76,83.4c-5.02-12.05-7.13-24.03-10.23-35.71-3.61-13.64-11.18-24.19-23.06-31.88-14.04-9.09-29.3-10.58-45.61-9.6-14.18,.85-25.68,6.98-35.1,16.2-5.97,5.85-11.66,13.03-13.22,22.3-1.05,6.27-4.62,11.86-6.1,18.18-1.12,4.78-1.33,9.51-1.79,14.29-.17,1.7,.32,3.55-1,5.03-1.03,1.15-1.88,2.74-3.75,2.42-2.46-.42-.61-2.24-.94-3.37-3.12-10.57,2.19-20.03,4.32-29.82,1.75-8.06,4.93-15.86,9.84-22.75C26.61,12.61,41.16,1.95,61.7,.32c11.87-.94,23.38,.12,34.43,3.85,10.23,3.46,19.38,8.64,26.79,17.44,9.48,11.26,14.75,24.06,18.43,37.83,1.49,5.57,3.34,11.18,2.52,17.16-.28,2.02,.04,4.16-2.1,6.79Z"/>
      <path class="cls-1" d="M102.32,76.08c-1.2-2.98-2.65-5.68-3.39-8.57-1.61-6.28-4.91-11.75-7.83-17.39-4.56-8.83-14.67-9.54-23.38-7.26-10.8,2.82-15.43,11.24-17.9,21.45-1.32,5.46-2.34,10.88-2.58,16.49-.07,1.62-.43,3.87-2.64,3.86-2.46-.02-3.66-1.81-3.62-4.27,.1-5.91,1.33-11.54,2.67-17.33,1.63-7.01,3.73-13.32,8.76-18.37,11.1-11.16,28.5-12.78,39.74-2.47,7.08,6.5,9.23,15.35,10.78,24.27,.51,2.91,2.65,6.22-.62,9.57Z"/>
      <path class="cls-1" d="M126.82,72.06c-.59,2.13,2.36,6.95-1.7,7.36-2.76,.28-2.43-4.92-3.01-8.02-1.65-8.84-4.04-17.71-9.01-25.16-3.66-5.49-7.62-11-13-15.37-9.02-7.34-18.07-11.99-30.42-8.79-4.86,1.26-9.37,2.88-13.89,4.82-.86,.37-1.89,1.52-2.79,.38-.91-1.16-.1-2.62,.73-3.23,2.47-1.82,5.03-4.26,7.83-4.69,3.67-.56,7.05-2.73,10.47-2.65,8.84,.19,18.13-.43,25.1,6.99,2.36,2.51,5.61,4.01,8.36,6.05,11.93,8.85,18.3,20.8,21.25,34.92,.45,2.14,.06,4.46,.06,7.4Z"/>
      <path class="cls-1" d="M17.11,81.18c2.33-12.63,2.8-25.86,10.83-36.73,2.39-3.23,5.38-6.1,8.43-8.76,3.26-2.84,6.94-5.2,10.38-7.84,1.26-.97,2.53-1.5,3.67-.12,1.13,1.37,.07,2.16-1.12,2.79-9.83,5.21-14.98,14.37-19.91,23.7-3.58,6.77-4.33,13.92-3.46,21.5,.38,3.32-1.87,6.25-3.98,8.86-.9,1.11-2.42,1.27-3.34,.69-1.33-.84-1.87-2.45-1.51-4.11Z"/>
    </g>
  </g>
</svg>