<?xml version="1.0" encoding="UTF-8"?>
<svg id="Layer_2" data-name="Layer 2" xmlns="http://www.w3.org/2000/svg" viewBox="0 0 180.2 68.31">
  <g id="Layer_1-2" data-name="Layer 1">
    <path d="M114.53,32.19c2.94-5.63,8.52-8.4,13.27-12,1.23-.93,3.39-2.35,5.35-.29,2.2,2.32,2.25,4.85,1.26,7.66-1.32,3.71-3.42,7.12-3.54,11.3-.07,2.34,.39,3.44,2.56,2.37,6.99-3.46,14.04-6.93,18.28-14.02,2.66-4.45,5.5-8.45,11.07-9.96,2.56-.7,3.91,.2,5.09,1.67,1.26,1.57,1.38,3.77,.32,5.49-2.87,4.63-7.09,8.1-12.42,8.59-3.32,.3-3.61,2-3.53,3.93,.1,2.38,1.93,3.89,4.41,3.77,3.04-.14,5.77-1.47,8.13-3.31,5.03-3.92,9.96-7.98,15.43-11.47-2.78,5.31-6.71,9.57-11.53,12.99-2.01,1.42-4.3,2.45-6.49,3.61-6.91,3.69-11.53,1.76-13.87-5.76,.16-.31,.32-.61,.48-.91-.62-.2-.64,.27-.73,.66-5.1,2.16-8.54,7.07-14.36,8.28-2.25,.47-3.92,.5-5.31-.98-1.38-1.47-1.73-3.28-.97-5.47,1.75-5.02,3.15-10.17,4.84-15.78-4.81,.6-7.83,3.46-10.67,6.18-4.35,4.18-8.23,8.84-11.79,13.74-.72,.99-1.12,2.9-2.74,2.36-1.78-.6-1.37-2.27-.96-3.81,.23-.87-.04-1.87-.12-3.4-2.42,2.06-4.36,3.8-6.39,5.43-3.3,2.65-7.07,5.11-11.11,2.46-4.38-2.88-2.89-7.52-1.65-11.56,.43-1.39,1.83-2.84,.39-3.91-1.34-.99-2.01,1.16-3.12,1.66-4.23,1.94-8.55,3.83-13.31,2.45-2.99-.87-4.42,.36-4.23,3.03,.52,7.13-1.24,13.95-2.47,20.83-.54,3.05-2.24,5.84-4.27,8.23-1.17,1.37-2.97,2.43-4.79,1.94-1.73-.47-2.25-2.42-2.47-4.03-.39-2.78-.45-5.58,.28-8.38,1.52-5.82,2.88-11.67,4.45-18.07-3.95,2.39-7.28,4.97-11.38,6.1-5.82,1.6-9.96-1.25-9.58-7.35,.2-3.21-1.08-3.23-3.33-3.08-1.98,.14-3.98,.23-5.97,.2-3.65-.05-5.9-2.02-6.67-5.5-.27-1.23,.34-3-1.36-3.26-1.64-.25-1.73,1.71-2.47,2.71-3.8,5.1-7.54,10.24-11.33,15.34-1.07,1.44-2.13,3.5-4.31,2.2-2.11-1.25,0-2.66,.21-4.08,1-6.65,5.05-11.95,7.46-17.95,.7-1.75,1.82-3.5,4.12-4.04,.25,4.3-2.43,7.52-3.57,11.22-.39,.27-.78,.54-1.17,.81,.52,.49,.14,.67-.29,.78-.09,.02-.29-.09-.32-.18-.18-.54,.05-.76,.6-.65,.65,.42,1.24,.56,1.55-.38,2.88-3.07,5.82-6.09,8.59-9.26,.79-.91,1.26-2.11,2.67-1.39,1.16,.59,2.09,1.44,2.43,2.9,2.17,9.33,2.32,9.19,11.53,7.04,2.75-.64,3.27-2.38,4.14-4.19,1.94-4.04,4.84-6.95,9.06-8.64,1.82-.73,3.61-1.5,4.88,.35,1.2,1.75,2.13,3.87,.62,6.04-1.84,2.62-4.09,4.77-7.08,6.06-1.22,.52-2.45,1.02-3.64,1.6-3.31,1.6-4.24,4.42-3.09,7.61,1.54,4.27,5.89,2.19,7.37,1.26,5.62-3.51,12.25-6.26,14.64-13.45,.43-1.3,1.58-2.26,3.09-2.03,2.69,.41,.05,2.13,.5,2.62,2.51,2.76,5.5,4.14,9.52,3.97,7.53-.32,11.4-5.74,15.97-10.35,1.14-1.15,1.54-4.23,3.82-2.72,1.78,1.18,.69,3.34-.2,5.26-1.93,4.16-3.64,8.46-4.96,12.85-.68,2.26-1.16,5.15,1.34,6.86,2.47,1.69,3.87-.85,5.58-1.93,7.23-4.56,12.33-11.26,17.67-17.72l-.14-.13c3.29,2.68-.52,6.02,.82,8.87,0,0-.13-.22-.13-.22l.03,.32Zm-51.37,.18c-4.43,9.55-5.41,19.39-7.75,28.86-.25,1.02-.49,2.63,.94,2.97,1.62,.38,2.22-1.27,2.67-2.39,3.69-9.27,5.18-18.87,4.14-29.44Zm90.61-2.66c5.04-.32,7.98-2.75,10.6-5.79,.73-.85,1.1-1.83,.6-2.68-.75-1.27-1.98-.78-3.02-.24-3.57,1.84-6.06,4.71-8.19,8.71Zm-109.28-2.05c1.96-1.45,4.73-2.38,6-5.11,.38-.82,1.48-1.73,.58-2.64-.97-.99-2.04-.3-3.13,.25-2.35,1.19-3.66,3.26-4.99,5.35-.86,1.35-.58,2.18,1.54,2.16Z"/>
    <path d="M63.65,23.43c4.23-8.69,8.77-16.73,15.4-23.43,.63,4.75-10.78,22.74-15.4,23.43Z"/>
    <path d="M103.94,8.18c-1.19,2.06-1.01,5.25-4.05,6.06-1.68,.45-2.45-1.46-2.38-2.46,.19-2.83,2.09-4.74,4.7-5.62,1.04-.35,1.57,.84,1.73,2.03Z"/>
    <path d="M113.96,23.36c.47-.66,.82-1.5,1.45-1.94,1.1-.77,.4-3.38,2.72-2.71,.37,.11,.81,1.16,.67,1.61-.44,1.52-.88,3.23-3.03,3.15-.65-.02-1.29-.16-1.94-.25,0,0,.13,.13,.13,.13Z"/>
  </g>
</svg>