<?xml version="1.0" encoding="UTF-8"?>
<svg id="Layer_2" data-name="Layer 2" xmlns="http://www.w3.org/2000/svg" viewBox="0 0 308.96 120.68">
  <defs>
    <style>
      .cls-1 {
        fill: #f9f7f4;
      }
    </style>
  </defs>
  <g id="Layer_1-2" data-name="Layer 1">
    <g>
      <path class="cls-1" d="M39.14,35.79c-.18-.29-.38-.5-.61-.61-.35-.12-.7-.18-1.05-.18H20.24c-.35,0-.69,.06-1.04,.18-.24,.11-.47,.32-.7,.61s-.35,.67-.35,1.13c0,.7,.44,1.39,1.31,2.09,.87,.7,1.74,1.48,2.61,2.35,.87,.87,1.51,1.92,1.92,3.13,.4,1.22,.14,2.82-.79,4.79L2.83,104.83l-2.83-7.72v21.31H2.83c.93,0,1.62-.29,2.09-.87,.46-.58,.81-1.16,1.04-1.74L31.56,45.97c.46-1.27,1.16-2.35,2.09-3.22,.93-.87,1.83-1.59,2.7-2.17,.87-.58,1.59-1.16,2.18-1.75,.58-.58,.87-1.21,.87-1.91,0-.46-.09-.84-.26-1.13Z"/>
      <path class="cls-1" d="M67.52,2.53c-1.25-1.26-2.71-2.04-4.38-2.36-.58-.11-1.18-.17-1.8-.17s-1.22,.06-1.79,.17c-1.66,.32-3.1,1.1-4.31,2.36-1.62,1.68-2.43,3.74-2.43,6.18s.81,4.47,2.43,6.09c1.63,1.63,3.66,2.44,6.1,2.44s4.5-.81,6.18-2.44c1.68-1.62,2.53-3.65,2.53-6.09s-.85-4.5-2.53-6.18Zm6.44,112.06c-.63-.58-1.36-1.16-2.17-1.74-.82-.58-1.54-1.31-2.18-2.18-.64-.87-.96-1.94-.96-3.22V37.44c0-1.04-.2-1.77-.61-2.18-.4-.4-.78-.66-1.13-.78-.58,0-1.22,.12-1.91,.35l-13.24,4c-.35,.12-.7,.24-1.04,.35-.24,.24-.47,.47-.7,.7-.23,.23-.35,.52-.35,.87,0,.81,.35,1.39,1.05,1.74,.69,.35,1.48,.73,2.35,1.13,.87,.41,1.65,1.02,2.35,1.83,.69,.82,1.04,2.09,1.04,3.83v58.17c0,1.28-.32,2.35-.95,3.22-.64,.87-1.37,1.6-2.18,2.18s-1.54,1.16-2.18,1.74c-.64,.58-.96,1.22-.96,1.91,0,.47,.12,.85,.35,1.13,.23,.3,.46,.5,.7,.61,.35,.12,.7,.18,1.04,.18h20.55c.35,0,.7-.06,1.05-.18,.23-.11,.46-.31,.69-.61,.24-.28,.35-.66,.35-1.13,0-.69-.32-1.33-.96-1.91Z"/>
      <path class="cls-1" d="M106.87,49.81c2.73-2.9,5.81-5.05,9.23-6.45,3.43-1.39,6.88-2.09,10.37-2.09,4.64,0,8.9,1.16,12.8,3.49,3.88,2.32,6.58,5.63,8.09,9.92,.23,.82,.5,1.63,.79,2.44,.28,.81,.58,1.57,.87,2.26,.29,.7,.66,1.25,1.13,1.66,.46,.41,.98,.61,1.57,.61,.46,0,.84-.12,1.13-.35s.49-.46,.61-.7c.11-.35,.17-.69,.17-1.04v-11.67c0-1.86-.9-3.63-2.7-5.31-1.8-1.68-4.03-3.14-6.7-4.35-2.67-1.22-5.55-2.18-8.62-2.88-3.08-.69-5.9-1.04-8.45-1.04-7.2,0-13.41,1.33-18.63,4-5.23,2.67-9.55,6.07-12.97,10.19-3.43,4.12-5.96,8.74-7.58,13.84-1.63,5.11-2.44,10.1-2.44,14.98s.67,10.04,2,15.15c1.34,5.11,3.46,9.75,6.36,13.93,2.9,4.18,6.68,7.61,11.32,10.28,4.64,2.67,10.33,4,17.07,4,6.27,0,11.78-1.07,16.54-3.22,4.76-2.15,8.53-4.55,11.32-7.23,1.39-1.27,2.32-2.52,2.79-3.74,.46-1.22,.63-2.26,.52-3.14-.12-.87-.5-1.42-1.13-1.65-.64-.23-1.37,0-2.18,.7-1.16,.93-2.56,2-4.18,3.22-1.63,1.22-3.46,2.35-5.49,3.39-2.03,1.05-4.26,1.95-6.7,2.7-2.44,.76-5.17,1.14-8.19,1.14-4.17,0-7.98-.88-11.4-2.62-3.43-1.74-6.36-4.18-8.8-7.31-2.43-3.13-4.32-6.88-5.66-11.23-1.33-4.36-2-9.15-2-14.37,0-6.38,.84-11.84,2.53-16.37,1.68-4.53,3.89-8.24,6.61-11.14Z"/>
      <path class="cls-1" d="M234.08,54.07c-1.97-4.58-4.52-8.33-7.66-11.23-3.13-2.9-6.65-5.05-10.53-6.44-3.89-1.4-7.75-2.09-11.58-2.09-7.2,0-13.41,1.33-18.64,4-5.22,2.67-9.55,6.07-12.97,10.19-3.43,4.12-5.95,8.74-7.58,13.84-1.62,5.11-2.43,10.1-2.43,14.98s.69,10.04,2.09,15.15c1.39,5.11,3.59,9.75,6.61,13.93s6.91,7.61,11.67,10.28,10.51,4,17.24,4c6.15,0,11.93-1.1,17.33-3.31,5.4-2.2,9.49-4.58,12.28-7.14,1.39-1.27,2.32-2.52,2.78-3.74,.46-1.22,.64-2.26,.52-3.14-.11-.87-.49-1.42-1.13-1.65-.64-.23-1.36,0-2.17,.7-1.17,.93-2.65,2-4.45,3.22-1.8,1.22-3.83,2.35-6.09,3.39-2.26,1.05-4.7,1.95-7.31,2.7-2.62,.76-5.43,1.14-8.45,1.14-4.18,0-8.04-.88-11.58-2.62-3.54-1.74-6.56-4.18-9.06-7.31-2.49-3.13-4.47-6.88-5.92-11.23-1.45-4.36-2.17-9.15-2.17-14.37,0-.53,.01-1.05,.03-1.57h56.91c2.2,0,3.6-.46,4.18-1.39s.93-2.2,1.04-3.83c0-6.38-.98-11.87-2.96-16.46Zm-9.57,13.59c-.35,.75-1.17,1.13-2.44,1.13h-46.59c.41-2.81,1.06-5.39,1.92-7.75,1.68-4.59,3.89-8.33,6.62-11.23,2.73-2.9,5.77-5.05,9.14-6.45,3.37-1.39,6.73-2.09,10.1-2.09,3.02,0,5.75,.52,8.19,1.57,2.43,1.04,4.61,2.58,6.53,4.62,1.91,2.03,3.45,4.52,4.61,7.48,1.16,2.96,1.92,6.36,2.26,10.19,.12,.93,0,1.77-.34,2.53Z"/>
      <path class="cls-1" d="M305.22,86.03c-2.5-3.02-5.57-5.63-9.23-7.84-3.66-2.2-7.66-4.09-12.02-5.66-4.35-1.57-8.35-3.19-12.01-4.87-3.66-1.69-6.74-3.6-9.23-5.75-2.5-2.15-3.74-4.79-3.74-7.92,0-3.37,1.62-6.33,4.87-8.89,3.25-2.55,7.84-3.83,13.76-3.83,3.02,0,6.35,.56,10.01,1.66,3.66,1.1,6.82,3.51,9.49,7.22,.93,1.17,1.86,2.39,2.79,3.66,.93,1.28,2.03,1.92,3.31,1.92,.46,0,.84-.12,1.13-.35,.29-.23,.49-.46,.61-.7,.11-.35,.17-.69,.17-1.04v-8.36c0-1.86-.93-3.49-2.78-4.88-1.86-1.39-4.16-2.52-6.88-3.39-2.73-.87-5.66-1.54-8.8-2.01-3.13-.46-5.98-.69-8.53-.69-5.22,0-9.78,.61-13.67,1.83-3.89,1.21-7.14,2.84-9.75,4.87-2.61,2.03-4.59,4.39-5.92,7.05-1.34,2.68-2,5.46-2,8.36,0,5,1.24,9.12,3.74,12.37,2.49,3.25,5.57,5.95,9.23,8.09,3.66,2.15,7.66,3.98,12.01,5.49,4.36,1.51,8.36,3.11,12.02,4.79,3.66,1.68,6.73,3.66,9.23,5.92,2.5,2.26,3.74,5.2,3.74,8.79,0,3.37-1.59,6.19-4.78,8.45-3.2,2.26-7.81,3.4-13.85,3.4-1.86,0-3.89-.24-6.09-.7-2.21-.46-4.39-1.16-6.53-2.09-2.15-.93-4.18-2.06-6.1-3.4-1.92-1.33-3.57-2.93-4.96-4.78-.93-1.16-1.86-2.38-2.79-3.66-.93-1.28-2.03-1.92-3.31-1.92-.46,0-.84,.12-1.13,.35-.29,.23-.49,.47-.61,.7-.12,.35-.17,.69-.17,1.04v8.36c0,1.86,1.01,3.6,3.04,5.23,2.03,1.62,4.62,3.02,7.75,4.17,3.14,1.17,6.53,2.06,10.19,2.7s7.05,.96,10.19,.96c5.22,0,9.81-.64,13.76-1.91,3.94-1.28,7.22-3.02,9.83-5.23,2.62-2.2,4.56-4.7,5.84-7.49,1.27-2.78,1.91-5.63,1.91-8.53,0-4.64-1.24-8.47-3.74-11.49Z"/>
    </g>
  </g>
</svg>