<?xml version="1.0" encoding="UTF-8"?>
<svg id="Layer_2" data-name="Layer 2" xmlns="http://www.w3.org/2000/svg" viewBox="0 0 537.64 120.68">
  <defs>
    <style>
      .cls-1 {
        fill: #f9f7f4;
      }
    </style>
  </defs>
  <g id="Layer_1-2" data-name="Layer 1">
    <g>
      <path class="cls-1" d="M58.77,86.03c-2.5-3.02-5.57-5.63-9.23-7.84-3.66-2.2-7.66-4.09-12.02-5.66-4.35-1.56-8.36-3.19-12.01-4.87-3.66-1.68-6.74-3.6-9.23-5.75-2.5-2.15-3.75-4.79-3.75-7.92,0-3.37,1.63-6.33,4.88-8.88,3.25-2.56,7.84-3.84,13.76-3.84,3.01,0,6.35,.56,10.01,1.66,3.66,1.1,6.82,3.51,9.49,7.23,.93,1.16,1.86,2.38,2.79,3.65,.93,1.28,2.03,1.92,3.31,1.92,.46,0,.84-.12,1.13-.35s.49-.46,.61-.7c.11-.34,.17-.69,.17-1.04v-8.36c0-1.86-.93-3.48-2.78-4.88-1.86-1.39-4.16-2.52-6.88-3.39-2.73-.87-5.66-1.54-8.8-2-3.13-.47-5.98-.7-8.53-.7-5.22,0-9.78,.61-13.67,1.83-3.89,1.22-7.14,2.84-9.75,4.87-2.61,2.04-4.59,4.39-5.92,7.06-1.34,2.67-2.01,5.45-2.01,8.35,0,5,1.25,9.12,3.75,12.37,2.49,3.25,5.57,5.95,9.23,8.1,3.65,2.15,7.66,3.98,12.01,5.48,4.36,1.51,8.36,3.11,12.02,4.79,3.66,1.69,6.73,3.66,9.23,5.92,2.49,2.27,3.74,5.2,3.74,8.8,0,3.37-1.59,6.18-4.79,8.44-3.19,2.27-7.81,3.4-13.84,3.4-1.86,0-3.89-.23-6.1-.7-2.2-.46-4.38-1.16-6.53-2.09-2.15-.93-4.18-2.06-6.09-3.39-1.92-1.34-3.57-2.93-4.96-4.79-.93-1.16-1.86-2.38-2.79-3.66-.93-1.28-2.03-1.92-3.31-1.92-.46,0-.84,.12-1.13,.35-.29,.24-.5,.47-.61,.7-.12,.35-.17,.7-.17,1.04v8.36c0,1.86,1.01,3.6,3.04,5.23,2.03,1.62,4.62,3.02,7.75,4.18,3.14,1.16,6.53,2.06,10.19,2.7,3.66,.63,7.05,.95,10.19,.95,5.22,0,9.81-.64,13.75-1.91,3.95-1.28,7.23-3.02,9.84-5.23,2.62-2.2,4.56-4.7,5.84-7.48,1.27-2.79,1.91-5.63,1.91-8.54,0-4.64-1.25-8.47-3.74-11.49Z"/>
      <path class="cls-1" d="M144.36,54.07c-1.98-4.58-4.53-8.32-7.66-11.23-3.14-2.9-6.65-5.05-10.54-6.44-3.89-1.39-7.75-2.09-11.58-2.09-7.2,0-13.41,1.34-18.63,4-5.23,2.68-9.55,6.07-12.98,10.19-3.42,4.12-5.95,8.74-7.57,13.85-1.63,5.11-2.44,10.1-2.44,14.97s.7,10.05,2.09,15.15c1.39,5.11,3.6,9.75,6.62,13.93,3.01,4.18,6.9,7.61,11.66,10.28,4.76,2.67,10.51,4,17.24,4,6.16,0,11.93-1.1,17.33-3.3,5.4-2.21,9.49-4.59,12.28-7.14,1.39-1.28,2.32-2.53,2.79-3.75,.46-1.22,.63-2.26,.52-3.13-.12-.87-.5-1.42-1.13-1.66-.64-.23-1.37,0-2.18,.7-1.16,.93-2.64,2-4.44,3.22-1.8,1.22-3.83,2.35-6.1,3.4-2.26,1.04-4.7,1.94-7.31,2.7-2.61,.75-5.43,1.13-8.45,1.13-4.18,0-8.04-.87-11.58-2.61-3.54-1.75-6.56-4.18-9.05-7.32-2.5-3.13-4.47-6.88-5.92-11.23-1.46-4.35-2.18-9.14-2.18-14.37,0-.53,0-1.05,.03-1.57h56.91c2.21,0,3.6-.46,4.18-1.39,.58-.93,.93-2.2,1.05-3.83,0-6.38-.99-11.87-2.96-16.46Zm-9.58,13.59c-.35,.75-1.16,1.13-2.44,1.13h-46.59c.42-2.81,1.06-5.39,1.93-7.75,1.68-4.58,3.88-8.33,6.61-11.23,2.73-2.9,5.78-5.05,9.14-6.45,3.37-1.39,6.74-2.09,10.11-2.09,3.01,0,5.74,.53,8.18,1.57,2.44,1.05,4.61,2.59,6.53,4.62,1.92,2.03,3.45,4.52,4.62,7.49,1.15,2.96,1.91,6.35,2.26,10.18,.11,.93,0,1.77-.35,2.53Z"/>
      <path class="cls-1" d="M208.7,40.49c-.87-1.57-1.94-2.87-3.22-3.92-1.28-1.04-2.67-1.8-4.18-2.26-1.51-.46-2.96-.7-4.35-.7-3.14,0-6.24,.96-9.32,2.88-3.08,1.91-6.12,4.73-9.14,8.44v-7.49c0-1.04-.21-1.77-.61-2.17-.41-.41-.78-.67-1.13-.79-.59,0-1.22,.12-1.92,.35l-13.23,4.01c-.35,.11-.7,.23-1.05,.34-.23,.24-.46,.47-.7,.7-.23,.24-.34,.52-.34,.87,0,.82,.34,1.4,1.04,1.74,.7,.35,1.48,.73,2.35,1.14,.87,.4,1.66,1.01,2.35,1.82,.7,.82,1.05,2.09,1.05,3.84v58.16c0,1.28-.32,2.35-.96,3.22-.64,.87-1.37,1.6-2.18,2.18-.81,.58-1.54,1.16-2.17,1.74-.64,.58-.96,1.22-.96,1.91,0,.47,.11,.85,.35,1.14,.23,.29,.46,.49,.69,.61,.35,.11,.7,.17,1.05,.17h20.55c.35,0,.69-.06,1.04-.17,.23-.12,.46-.32,.7-.61,.23-.29,.35-.67,.35-1.14,0-.69-.32-1.33-.96-1.91-.64-.58-1.37-1.16-2.18-1.74-.81-.58-1.54-1.31-2.17-2.18-.64-.87-.96-1.94-.96-3.22V59.56c0-1.97,.4-3.92,1.22-5.83,.81-1.92,1.88-3.66,3.22-5.23,1.33-1.57,2.93-2.84,4.79-3.83,1.85-.98,3.83-1.48,5.92-1.48,2.67,0,4.84,.55,6.53,1.65,1.68,1.11,2.52,2.65,2.52,4.62,0,1.04,.24,1.92,.7,2.61,.46,.7,1.28,1.05,2.44,1.05s2.15-.47,2.96-1.4c.81-.92,1.22-2.72,1.22-5.39,0-2.33-.44-4.27-1.31-5.84Z"/>
      <path class="cls-1" d="M294.2,35.79c-.17-.29-.37-.49-.61-.61-.34-.11-.69-.17-1.04-.17h-17.24c-.35,0-.7,.06-1.05,.17-.23,.12-.46,.32-.69,.61-.24,.29-.35,.67-.35,1.13,0,.7,.43,1.39,1.31,2.09,.87,.7,1.74,1.48,2.61,2.35s1.5,1.92,1.91,3.14c.41,1.22,.15,2.81-.78,4.79l-20.38,55.55-20.54-56.08c-.82-1.97-.99-3.57-.53-4.79,.47-1.22,1.11-2.2,1.92-2.96,.81-.75,1.65-1.45,2.52-2.09,.88-.63,1.31-1.3,1.31-2,0-.46-.12-.84-.35-1.13-.23-.29-.46-.49-.69-.61-.35-.11-.7-.17-1.05-.17h-22.12c-.34,0-.64,.06-.87,.17-.34,.12-.61,.32-.78,.61-.17,.29-.26,.67-.26,1.13,0,.7,.32,1.34,.96,1.92,.63,.58,1.39,1.16,2.26,1.74,.87,.58,1.74,1.3,2.61,2.17,.87,.88,1.54,1.95,2.01,3.23l25.42,69.83c.23,.69,.58,1.3,1.05,1.83,.46,.52,1.15,.78,2.08,.78h5.05c.93,0,1.63-.29,2.09-.87,.47-.58,.82-1.16,1.05-1.74l25.6-69.83c.46-1.28,1.16-2.35,2.09-3.23,.93-.87,1.83-1.59,2.7-2.17,.87-.58,1.59-1.16,2.17-1.74,.58-.58,.87-1.22,.87-1.92,0-.46-.08-.84-.26-1.13Z"/>
      <path class="cls-1" d="M322.59,2.53c-1.69-1.68-3.75-2.53-6.18-2.53s-4.47,.85-6.1,2.53c-1.63,1.68-2.44,3.74-2.44,6.18s.81,4.47,2.44,6.09c1.63,1.63,3.66,2.44,6.1,2.44s4.49-.81,6.18-2.44c1.68-1.62,2.52-3.65,2.52-6.09s-.84-4.5-2.52-6.18Zm6.44,112.06c-.64-.58-1.36-1.16-2.18-1.74-.81-.58-1.54-1.31-2.17-2.18-.64-.87-.96-1.94-.96-3.22V37.44c0-1.04-.2-1.77-.61-2.17-.41-.41-.78-.67-1.13-.79-.58,0-1.22,.12-1.92,.35l-13.23,4.01c-.35,.11-.7,.23-1.05,.34-.23,.24-.46,.47-.69,.7-.24,.24-.35,.52-.35,.87,0,.82,.35,1.4,1.04,1.74,.7,.35,1.48,.73,2.35,1.14,.88,.4,1.66,1.01,2.36,1.82,.69,.82,1.04,2.09,1.04,3.84v58.16c0,1.28-.32,2.35-.96,3.22-.64,.87-1.36,1.6-2.17,2.18-.82,.58-1.54,1.16-2.18,1.74-.64,.58-.96,1.22-.96,1.91,0,.47,.12,.85,.35,1.14s.46,.49,.7,.61c.34,.11,.69,.17,1.04,.17h20.55c.35,0,.7-.06,1.04-.17,.24-.12,.47-.32,.7-.61s.35-.67,.35-1.14c0-.69-.32-1.33-.96-1.91Z"/>
      <path class="cls-1" d="M361.94,49.81c2.73-2.9,5.81-5.05,9.23-6.45,3.42-1.39,6.88-2.09,10.36-2.09,4.64,0,8.91,1.17,12.8,3.49,3.89,2.32,6.59,5.63,8.1,9.92,.23,.82,.49,1.63,.78,2.44,.29,.82,.58,1.57,.87,2.27,.29,.69,.67,1.24,1.14,1.65,.46,.41,.98,.61,1.56,.61,.47,0,.84-.11,1.14-.35,.28-.23,.49-.46,.61-.7,.11-.34,.17-.69,.17-1.04v-11.67c0-1.85-.9-3.63-2.7-5.31-1.8-1.68-4.04-3.13-6.7-4.35-2.68-1.22-5.55-2.18-8.62-2.88-3.08-.69-5.9-1.04-8.45-1.04-7.2,0-13.41,1.34-18.63,4-5.23,2.68-9.55,6.07-12.98,10.19-3.42,4.12-5.95,8.74-7.57,13.85-1.63,5.11-2.44,10.1-2.44,14.97s.67,10.05,2,15.15c1.34,5.11,3.45,9.75,6.36,13.93,2.9,4.18,6.67,7.61,11.32,10.28,4.64,2.67,10.33,4,17.06,4,6.27,0,11.79-1.07,16.55-3.22,4.76-2.14,8.53-4.55,11.32-7.22,1.39-1.28,2.32-2.53,2.78-3.75,.47-1.22,.64-2.26,.53-3.13-.12-.87-.5-1.42-1.14-1.66-.64-.23-1.36,0-2.17,.7-1.17,.93-2.56,2-4.18,3.22-1.63,1.22-3.46,2.35-5.49,3.4-2.03,1.04-4.27,1.94-6.7,2.7-2.44,.75-5.17,1.13-8.19,1.13-4.18,0-7.98-.87-11.4-2.61-3.43-1.75-6.36-4.18-8.8-7.32-2.44-3.13-4.32-6.88-5.66-11.23-1.33-4.35-2-9.14-2-14.37,0-6.38,.84-11.84,2.52-16.37,1.69-4.53,3.89-8.24,6.62-11.14Z"/>
      <path class="cls-1" d="M489.15,54.07c-1.97-4.58-4.53-8.32-7.66-11.23-3.14-2.9-6.65-5.05-10.54-6.44-3.89-1.39-7.75-2.09-11.58-2.09-7.2,0-13.41,1.34-18.63,4-5.22,2.68-9.55,6.07-12.97,10.19-3.43,4.12-5.95,8.74-7.58,13.85-1.63,5.11-2.44,10.1-2.44,14.97s.7,10.05,2.09,15.15c1.4,5.11,3.6,9.75,6.62,13.93,3.02,4.18,6.91,7.61,11.67,10.28,4.76,2.67,10.5,4,17.24,4,6.15,0,11.93-1.1,17.33-3.3,5.39-2.21,9.49-4.59,12.27-7.14,1.4-1.28,2.32-2.53,2.79-3.75,.46-1.22,.64-2.26,.52-3.13s-.49-1.42-1.13-1.66c-.64-.23-1.37,0-2.18,.7-1.16,.93-2.64,2-4.44,3.22-1.8,1.22-3.83,2.35-6.09,3.4-2.27,1.04-4.7,1.94-7.32,2.7-2.61,.75-5.43,1.13-8.44,1.13-4.18,0-8.04-.87-11.58-2.61-3.55-1.75-6.56-4.18-9.06-7.32-2.5-3.13-4.47-6.88-5.92-11.23-1.45-4.35-2.18-9.14-2.18-14.37,0-.53,0-1.05,.03-1.57h56.92c2.2,0,3.6-.46,4.18-1.39s.93-2.2,1.04-3.83c0-6.38-.99-11.87-2.96-16.46Zm-9.58,13.59c-.34,.75-1.16,1.13-2.43,1.13h-46.6c.42-2.81,1.06-5.39,1.93-7.75,1.68-4.58,3.89-8.33,6.62-11.23,2.72-2.9,5.77-5.05,9.14-6.45,3.36-1.39,6.73-2.09,10.1-2.09,3.02,0,5.75,.53,8.18,1.57,2.44,1.05,4.62,2.59,6.53,4.62,1.92,2.03,3.46,4.52,4.62,7.49,1.16,2.96,1.91,6.35,2.26,10.18,.12,.93,0,1.77-.35,2.53Z"/>
      <path class="cls-1" d="M527.11,113.02c-2.2-.46-4.38-1.16-6.53-2.09-2.15-.93-4.18-2.06-6.09-3.39-1.92-1.34-3.57-2.93-4.97-4.79-.93-1.16-1.85-2.38-2.78-3.66-.93-1.28-2.03-1.92-3.31-1.92-.47,0-.84,.12-1.13,.35-.29,.24-.5,.47-.61,.7-.12,.35-.18,.7-.18,1.04v8.36c0,1.86,1.02,3.6,3.05,5.23,2.03,1.62,4.62,3.02,7.75,4.18,3.14,1.16,6.53,2.06,10.19,2.7,3.66,.63,7.05,.95,10.19,.95,1.72,0,3.37-.07,4.95-.22v-6.97c-1.38,.15-2.86,.23-4.43,.23-1.86,0-3.89-.23-6.1-.7Zm-8.18-67.91c3.25-2.56,7.83-3.84,13.76-3.84,1.56,0,3.21,.15,4.95,.45v-7.2c-1.56-.14-3.04-.21-4.43-.21-5.23,0-9.78,.61-13.67,1.83-3.89,1.22-7.14,2.84-9.75,4.87-2.62,2.04-4.59,4.39-5.92,7.06-1.34,2.67-2.01,5.45-2.01,8.35,0,5,1.25,9.12,3.75,12.37,2.49,3.25,5.57,5.95,9.23,8.1,3.65,2.15,7.66,3.98,12.01,5.48,3.88,1.34,7.47,2.76,10.79,4.23v-14.58c-3.81-1.4-7.35-2.86-10.61-4.36-3.66-1.68-6.74-3.6-9.23-5.75-2.5-2.15-3.75-4.79-3.75-7.92,0-3.37,1.63-6.33,4.88-8.88Z"/>
    </g>
  </g>
</svg>