<?xml version="1.0" encoding="UTF-8"?>
<svg id="Layer_2" data-name="Layer 2" xmlns="http://www.w3.org/2000/svg" viewBox="0 0 104.92 118.44">
  <g id="Layer_1-2" data-name="Layer 1">
    <path d="M52.48,38.43c2.11,.75,3.61,2.07,3.5,4.46-.11,2.26-2.15,2.49-3.73,3.03-10.15,3.48-17.6,9.85-21.2,20.13-1.28,3.65-2.03,7.48-3.03,11.22-.46,1.74-.34,4.43-2.97,3.92-2.39-.47-2.42-2.98-2.25-5.08,.42-5.06,.08-10.02-2.34-14.58-3.18-5.98-8.16-9.82-14.59-11.84-.75-.24-1.54-.4-2.23-.74C2.15,48.2-.03,47.93,0,45.76c.04-2.5,2.36-2.71,4.13-3.09,4.96-1.07,9.71-2.59,13.82-5.68,5.04-3.79,7.49-9.04,8.41-15.14,.7-4.6,1.46-9.19,2.12-13.8,.21-1.49,.93-2.18,2.42-2.35,1.86-.22,2.14,1.24,2.35,2.35,.52,2.74,.77,5.53,1.13,8.3,1.45,11.16,8.95,17.34,18.15,22.14,0,0-.06-.06-.06-.06Zm-34.07,2.96l-.06-.24,.09,.19c-1.28,.9-2.44,2.11-3.85,2.64-3.8,1.42-3.46,2.49-.34,4.66,4.64,3.23,10.17,5.93,10.68,12.76,.05,.62,.83,1.53,1.44,1.7,1.16,.32,1.52-.92,1.89-1.69,3.91-8.16,10.36-13.73,18.07-18.09,.98-.55,2.81-1.55,.94-2.71-6.42-3.99-11.76-9.08-16.02-15.65-6.48,12.51-7.36,13.61-12.83,16.42Z"/>
    <path d="M68.53,98.9c3.28,2.35,7.31,3.22,10.51,5.98,2.71,2.34,2.29-1.56,3.3-2.65,.43,.54,.85,1.09,1.28,1.63,0,0,.28-.03,.28-.03l.04-.29-.87-1.96c2.54-4.38,1.27-7.63-3.32-8.21-1.53-.19-1.85,1.46-2.53,2.4-1.05,1.45-1.71,4.25-3.88,3.01-2.17-1.24,.35-2.86,.91-4.31,1.29-3.37,2.41-6.78,2.65-10.44,.07-1.12,.13-2.84,1.8-2.87,1.64-.04,1.69,1.42,1.9,2.73,.78,4.92,1.82,9.57,7.82,10.98,2.54,.6,2.51,2.82,.85,4.39-4.62,4.35-5.81,9.86-5.87,15.84-.02,1.4,.14,3.3-1.61,3.35-.78,.02-2.29-1.93-2.29-2.98,.01-2.52-2.13-4.72-.98-7.31,.45-1.01,.16-1.5-.91-1.51-3.81-.05-6.06-3.57-9.68-4.3-2.08-.42-1.8-1.85,.66-3.4,0,0-.13,.21-.13,.21l.08-.26Z"/>
    <path d="M91.94,6.96c.2-3.62,4.59-7.28,8.46-6.94,4.01,.35,4.48,3.47,4.52,6.48,.05,3.46-4.07,7.11-7.48,7-3.54-.11-5.71-2.69-5.5-6.54Zm5.88,2.89c1.61-.71,3.3-1.52,3.23-3.86-.03-1.08-.01-2.6-1.61-2.13-1.55,.46-3.38,1.04-3.64,3.17-.17,1.43,.29,2.44,2.02,2.81Z"/>
  </g>
</svg>