<?xml version="1.0" encoding="UTF-8"?>
<svg id="Layer_2" data-name="Layer 2" xmlns="http://www.w3.org/2000/svg" viewBox="0 0 50.51 62.98">
  <defs>
    <style>
      .cls-1 {
        fill: #eac8ac;
      }
    </style>
  </defs>
  <g id="Layer_1-2" data-name="Layer 1">
    <path class="cls-1" d="M29.31,18.29c1.18,.42,2.02,1.15,1.95,2.49-.06,1.26-1.2,1.39-2.08,1.69-5.67,1.94-9.83,5.5-11.84,11.25-.71,2.04-1.13,4.18-1.69,6.27-.26,.97-.19,2.48-1.66,2.19-1.33-.26-1.35-1.66-1.26-2.84,.24-2.83,.05-5.59-1.31-8.14-1.77-3.34-4.56-5.48-8.15-6.62-.42-.13-.86-.22-1.25-.42C1.2,23.75-.02,23.6,0,22.39c.02-1.4,1.32-1.51,2.31-1.73,2.77-.6,5.42-1.45,7.72-3.17,2.82-2.12,4.18-5.05,4.7-8.46,.39-2.57,.82-5.14,1.19-7.71,.12-.83,.52-1.22,1.35-1.31,1.04-.12,1.19,.69,1.31,1.31,.29,1.53,.43,3.09,.63,4.64,.81,6.23,5,9.68,10.14,12.36,0,0-.03-.03-.03-.03Zm-19.03,1.65l-.03-.13,.05,.11c-.71,.5-1.36,1.18-2.15,1.47-2.12,.8-1.93,1.39-.19,2.6,2.59,1.8,5.68,3.31,5.97,7.13,.03,.35,.46,.86,.8,.95,.65,.18,.85-.51,1.05-.94,2.18-4.56,5.79-7.67,10.09-10.1,.55-.31,1.57-.87,.53-1.51-3.59-2.23-6.57-5.07-8.95-8.74-3.62,6.99-4.11,7.6-7.17,9.17Z"/>
    <path class="cls-1" d="M38.28,52.07c1.83,1.31,4.08,1.8,5.87,3.34,1.51,1.31,1.28-.87,1.84-1.48,.24,.3,.48,.61,.72,.91,0,0,.16-.02,.16-.02l.02-.16-.49-1.09c1.42-2.45,.71-4.26-1.85-4.58-.85-.11-1.03,.82-1.41,1.34-.59,.81-.95,2.37-2.17,1.68-1.21-.69,.19-1.6,.51-2.41,.72-1.88,1.34-3.79,1.48-5.83,.04-.62,.07-1.58,1.01-1.6,.91-.02,.95,.79,1.06,1.52,.43,2.75,1.02,5.35,4.37,6.13,1.42,.33,1.4,1.57,.47,2.45-2.58,2.43-3.24,5.51-3.28,8.85,0,.78,.08,1.84-.9,1.87-.43,.01-1.28-1.08-1.28-1.66,0-1.41-1.19-2.63-.55-4.08,.25-.56,.09-.84-.51-.84-2.13-.03-3.38-1.99-5.4-2.4-1.16-.23-1-1.03,.37-1.9,0,0-.07,.12-.07,.12l.04-.14Z"/>
  </g>
</svg>