<?xml version="1.0" encoding="UTF-8"?>
<svg id="Layer_2" data-name="Layer 2" xmlns="http://www.w3.org/2000/svg" viewBox="0 0 108.33 55.44">
  <defs>
    <style>
      .cls-1 {
        fill: #f4f1ec;
        stroke: #f4f1ec;
        stroke-miterlimit: 10;
      }
    </style>
  </defs>
  <g id="Layer_1-2" data-name="Layer 1">
    <g>
      <path class="cls-1" d="M54.33,29.97c12.88-.1,24.03,10.53,24.37,23.28,0,.37-.36,.76-.55,1.14-.21-.37-.58-.73-.6-1.11-.6-10.89-8.35-19.06-17.51-21.38-13.98-3.54-27.96,6.65-28.76,21-.01,.25,.06,.54-.05,.74-.16,.28-.45,.5-.68,.74-.17-.25-.49-.52-.47-.76,.1-1.39,.16-2.79,.44-4.15,2.36-11.36,12.22-19.41,23.83-19.5Z"/>
      <path class="cls-1" d="M53.97,.6V26.21c-.14,.08-.27,.16-.41,.24-.24-.35-.65-.68-.68-1.05-.09-1.09-.04-2.19-.04-3.28,0-6.76,0-13.53,0-20.29,0-.7-.22-1.64,1.13-1.23Z"/>
      <path class="cls-1" d="M14.08,54.22c-3.88,0-7.75,.02-11.63-.03-.43,0-.85-.36-1.28-.55,.42-.21,.85-.59,1.27-.6,7.8-.04,15.6-.03,23.41,0,.4,0,.8,.43,1.2,.66-.4,.17-.8,.49-1.2,.49-3.93,.04-7.85,.02-11.78,.02Z"/>
      <path class="cls-1" d="M81.81,54.14c-.36-1.02,.19-1.13,.95-1.13,1.94,.02,3.88,0,5.81,0,5.76,0,11.53,0,17.29,0,.3,0,.63-.08,.89,.03,.3,.12,.52,.41,.78,.63-.24,.18-.46,.39-.72,.54-.11,.06-.29,.01-.44,.01-7.9,0-15.8,0-23.7,0-.29,0-.58-.05-.86-.08Z"/>
      <path class="cls-1" d="M33.4,34.68c-5.83-5.84-11.66-11.68-17.46-17.55-.22-.23-.18-.72-.27-1.08,.37,.08,.85,.03,1.08,.25,5.69,5.64,11.35,11.3,16.99,16.98,.25,.25,.2,.81,.28,1.23-.21,.06-.41,.11-.62,.17Z"/>
      <path class="cls-1" d="M92.69,15.86c1.23,.64,.55,1.12,.06,1.62-3.41,3.41-6.82,6.83-10.23,10.24-2.18,2.18-4.36,4.37-6.57,6.52-.23,.22-.71,.17-1.08,.25,.09-.36,.05-.84,.28-1.07,5.82-5.86,11.67-11.68,17.55-17.55Z"/>
      <path class="cls-1" d="M27.55,43.39c-5.62-2.16-11.19-4.28-16.74-6.46-.33-.13-.49-.65-.74-.99,.13-.13,.26-.25,.4-.38,1.66,.63,3.32,1.25,4.97,1.88,3.85,1.47,7.7,2.95,11.56,4.43,.64,.25,1.48,.42,.56,1.52Z"/>
      <path class="cls-1" d="M65.34,28.42c-.14-.37-.5-.81-.4-1.09,2-5.61,4.04-11.21,6.08-16.81,.16-.03,.32-.07,.48-.1,.14,.37,.5,.82,.4,1.1-1.99,5.61-4.04,11.2-6.08,16.79l-.49,.1Z"/>
      <path class="cls-1" d="M36.42,10.71c2.02,5.56,4.05,11.11,6.04,16.68,.09,.26-.15,.64-.23,.96-.32-.27-.81-.48-.94-.83-1.77-4.75-3.5-9.52-5.23-14.29-.19-.51-.47-1.01-.54-1.54-.04-.37,.21-.77,.33-1.16,.19,.06,.38,.11,.57,.17Z"/>
      <path class="cls-1" d="M97.28,37.15c-5.41,2.08-10.82,4.15-16.24,6.23-.14-.08-.27-.17-.41-.25,.19-.37,.3-.96,.59-1.08,4.99-1.97,10-3.89,15.03-5.78,.29-.11,.74,.2,1.12,.31-.03,.19-.06,.37-.09,.56Z"/>
    </g>
  </g>
</svg>