<?xml version="1.0" encoding="UTF-8"?>
<svg id="Layer_2" data-name="Layer 2" xmlns="http://www.w3.org/2000/svg" viewBox="0 0 284.5 146.08">
  <defs>
    <style>
      .cls-1 {
        stroke: #000;
        stroke-miterlimit: 10;
        stroke-width: 3.47px;
      }
    </style>
  </defs>
  <g id="Layer_1-2" data-name="Layer 1">
    <g>
      <path class="cls-1" d="M142.83,78.68c33.63-.25,62.72,27.5,63.61,60.76,.03,.98-.94,1.98-1.44,2.97-.55-.96-1.52-1.9-1.58-2.89-1.57-28.43-21.8-49.77-45.72-55.82-36.49-9.23-72.98,17.36-75.08,54.83-.04,.65,.15,1.42-.14,1.92-.42,.74-1.16,1.3-1.77,1.93-.44-.66-1.28-1.35-1.24-1.98,.25-3.62,.42-7.29,1.16-10.84,6.15-29.66,31.9-50.67,62.19-50.89Z"/>
      <path class="cls-1" d="M141.9,2V68.85c-.36,.21-.71,.42-1.07,.62-.62-.91-1.71-1.78-1.79-2.74-.24-2.84-.09-5.71-.09-8.56,0-17.66,0-35.32,.01-52.98,0-1.82-.58-4.28,2.94-3.2Z"/>
      <path class="cls-1" d="M37.77,141.98c-10.12,0-20.24,.04-30.36-.07-1.12-.01-2.23-.94-3.34-1.45,1.11-.54,2.21-1.55,3.32-1.55,20.37-.09,40.74-.09,61.1,.02,1.05,0,2.09,1.12,3.14,1.72-1.04,.45-2.08,1.28-3.13,1.29-10.25,.1-20.5,.06-30.75,.05Z"/>
      <path class="cls-1" d="M214.58,141.77c-.94-2.67,.49-2.96,2.48-2.94,5.06,.05,10.12,.01,15.18,.01,15.05,0,30.09,0,45.14,0,.78,0,1.65-.2,2.31,.08,.77,.33,1.37,1.08,2.04,1.64-.62,.48-1.21,1.01-1.88,1.4-.29,.17-.76,.03-1.15,.03-20.62,0-41.25,0-61.87-.01-.75,0-1.51-.14-2.24-.21Z"/>
      <path class="cls-1" d="M88.2,90.96c-15.21-15.26-30.43-30.5-45.59-45.82-.59-.59-.48-1.87-.7-2.82,.95,.2,2.23,.08,2.81,.66,14.85,14.71,29.64,29.49,44.35,44.33,.66,.66,.51,2.12,.74,3.21-.54,.15-1.08,.3-1.62,.45Z"/>
      <path class="cls-1" d="M242.99,41.84c3.21,1.68,1.45,2.92,.14,4.23-8.91,8.91-17.8,17.83-26.71,26.74-5.69,5.69-11.37,11.41-17.15,17.01-.59,.57-1.86,.45-2.81,.64,.23-.94,.14-2.2,.73-2.79,15.19-15.29,30.46-30.5,45.81-45.83Z"/>
      <path class="cls-1" d="M72.94,113.69c-14.67-5.63-29.21-11.18-43.7-16.86-.85-.33-1.29-1.7-1.92-2.59,.34-.33,.69-.66,1.03-.99,4.32,1.63,8.65,3.26,12.97,4.91,10.06,3.85,20.11,7.7,30.16,11.57,1.67,.64,3.85,1.1,1.46,3.96Z"/>
      <path class="cls-1" d="M171.59,74.61c-.37-.96-1.3-2.11-1.04-2.84,5.21-14.65,10.55-29.26,15.87-43.87,.42-.09,.83-.18,1.25-.27,.38,.97,1.31,2.14,1.05,2.88-5.2,14.64-10.55,29.24-15.86,43.84-.42,.09-.84,.18-1.27,.27Z"/>
      <path class="cls-1" d="M96.09,28.4c5.28,14.51,10.57,29.01,15.77,43.55,.24,.68-.39,1.67-.61,2.52-.84-.71-2.11-1.26-2.45-2.16-4.63-12.41-9.13-24.86-13.66-37.31-.49-1.34-1.23-2.65-1.4-4.02-.12-.96,.55-2.01,.87-3.02,.5,.15,.99,.3,1.49,.45Z"/>
      <path class="cls-1" d="M254.97,97.4c-14.13,5.42-28.25,10.84-42.38,16.27-.36-.22-.71-.44-1.07-.65,.5-.97,.77-2.52,1.54-2.82,13.03-5.14,26.11-10.16,39.23-15.08,.76-.29,1.94,.52,2.92,.82-.08,.49-.16,.97-.24,1.46Z"/>
    </g>
  </g>
</svg>