<?xml version="1.0" encoding="UTF-8"?>
<svg id="Layer_2" data-name="Layer 2" xmlns="http://www.w3.org/2000/svg" viewBox="0 0 108.73 61.3">
  <defs>
    <style>
      .cls-1 {
        fill: #d6e8e6;
      }
    </style>
  </defs>
  <g id="Layer_1-2" data-name="Layer 1">
    <g>
      <path class="cls-1" d="M2.42,0c2.88,1.93,5.85,3.73,8.61,5.8,4.97,3.75,10.85,4.7,15.71,.82,7.56-6.04,14.48-4.73,21.6,.14,5.45,3.73,10.43,3.9,16.14-.05,9.26-6.42,12.95-6.03,21.98,.86,4.14,3.16,8.47,3.92,13.39,1.94,1.97-.79,4.69-1.81,5.71,.99,1.04,2.87-1.9,3.46-3.79,4.36-6.92,3.29-13.07,2.01-18.74-2.96-6.31-5.53-8.2-5.81-15.47-1.14-7.56,4.87-14.22,5.09-21.48-.92-6.84-5.66-8.34-5.29-16.04-.4-3.14,1.99-6.58,3.15-10.11,4.16-3.86,1.1-7.15,.23-10.17-2.41-2.32-2.04-4.72-4.08-7.4-5.59C-.57,3.93-.6,2.27,1.32,0h1.1Z"/>
      <path class="cls-1" d="M1.8,26.79c2.18,1.3,3.58,2.11,4.96,2.95,5.79,3.55,11.85,4.36,17.5,.24,8.09-5.91,15.8-5.88,23.55,.25,4.75,3.76,9.21,3.68,14.57,.72,8.56-4.72,17.29-5.51,25.51,1.45,4.5,3.81,9.1,2.21,13.74-.3,1.98-1.07,4.97-4.04,6.63-1.12,1.9,3.34-2.37,4.22-4.48,5.53-7.18,4.46-14.27,5.11-21.21-.77-3.98-3.38-8.57-3.8-13.36-1.63-2.5,1.13-4.99,2.25-7.48,3.4-5.68,2.62-10.94,2.54-15.63-2.14-1.15-1.15-2.62-1.98-3.84-3.07-3.88-3.45-7.78-3.56-11.82-.29-5.07,4.12-10.85,5.84-17.39,5-6.15-.79-9.83-3.85-11.24-10.22Z"/>
      <path class="cls-1" d="M94.94,60.92c-5.41-.15-9.28-2.51-12.69-5.65-3.37-3.1-6.69-3.34-10.29-.55-.57,.45-1.25,.76-1.84,1.19-9.59,7.02-19.27,7.43-28.53-.3-5.21-4.35-9.85-4.27-15.28-.54-4.1,2.82-8.88,4.19-14.04,3.78-4.74-.37-7.7-2.97-9.56-7.07-.37-.81-.9-1.74-.02-2.48,.82-.69,1.81-.29,2.5,.28,7.44,6.17,14.71,4.49,22.24-.01,5.3-3.17,10.68-3.19,15.75,1.02,7.79,6.47,15.77,6.42,24.15,.83,6-4,12.06-4.5,18.18,.45,4.32,3.5,9.42,4.77,14.92,2.43,.67-.28,1.39-.51,2.11-.59,1.93-.22,4.65-1.25,5.39,.97,.83,2.51-2.32,2.12-3.74,2.84-3.08,1.57-6.21,3.12-9.23,3.38Z"/>
    </g>
  </g>
</svg>