<?xml version="1.0" encoding="UTF-8"?>
<svg id="Layer_2" data-name="Layer 2" xmlns="http://www.w3.org/2000/svg" viewBox="0 0 12.91 13.27">
  <defs>
    <style>
      .cls-1 {
        fill: #eac8ac;
      }
    </style>
  </defs>
  <g id="Layer_1-2" data-name="Layer 1">
    <path class="cls-1" d="M12.91,1.8c-.19,.34-.4,1-.83,1.45-2.22,2.34-3.59,4.72-1.03,7.73,.51,.6,.64,1.7-.32,2.15-.5,.23-1.5,.18-1.85-.17-1.93-1.97-3.82-2.33-6.02-.44-.53,.45-1.32,.3-1.8-.27-.49-.58-.47-1.42,.18-1.73,5.43-2.61,.82-4.89-.34-7.09C.43,2.54-.45,1.79,.28,.91c.91-1.09,1.88-.31,2.37,.58,2.07,3.74,4.02,2.94,6.22,.09C9.53,.72,10.52-.16,11.83,.03c.76,.11,.99,.77,1.08,1.77Z"/>
  </g>
</svg>