<?xml version="1.0" encoding="UTF-8"?>
<svg id="Layer_2" data-name="Layer 2" xmlns="http://www.w3.org/2000/svg" viewBox="0 0 316.02 39.18">
  <g id="Layer_1-2" data-name="Layer 1">
    <g>
      <path d="M192.01,35.7c-1.43,1.15-2.62,2.63-4.5,3.16-1.52,.43-3.04,.68-3.95-.93-.73-1.28-.3-2.64,.41-3.86,1.35-2.32,3.6-3.63,5.75-5.04,1.49-.97,2.99-1.95,4.57-2.75,1.25-.63,2.08-1.39,2.45-2.82,.54-2.1,1.12-4.18,1.33-6.39-1.51,2.63-3.31,5.03-5.62,6.95-.84,.7-1.55,1.63-3.1,1.44-1.54-.19-2.01-1.05-1.87-2.08,.12-.88-.96-2.24,.74-2.76,.24-.08-.05-.51-.25-.71-.45-.44-.81-.17-1.19,.15-1.25,1.09-2.56,2.1-3.94,3.04-.99,.67-1.97,.96-2.84,.35-.96-.68-1.32-1.84-.93-3.05,.49-1.52,.75-3.11,1.61-4.52,.47-.77,.7-1.7,.43-2.94-1.63,1.16-3.27,2.09-4.52,3.53-1.87,2.15-3.68,4.36-5.47,6.58-.35,.44-.71,.67-1.15,.38-.5-.33-.08-.75-.02-1.18,.21-1.52,1.45-2.66,1.47-4.22,.43-.31,.65-.7,.48-1.24,.25,.09,.5,.24,.74,.03,.04-.04,.03-.24,0-.25-.3-.12-.49,.11-.7,.25-.23,.36-.63,.61-.64,1.1-1.16,.52-1.63,1.91-2.88,2.31,.02-.01,.05-.03,.07-.04-.03,0-.07-.01-.1-.02-.64,1.59-1.99,2.33-3.49,2.91-.04,0-.07,.01-.11,.01,.05-.01,.1-.02,.15-.03-.49,.64-1.29,.75-1.94,1.03-1.28,.54-2.73-.64-2.59-2.08,.07-.72-.04-1.49,.65-2.47-1.11,.43-1.72,.66-2.24,1.36-.93,1.25-2.12,2.23-3.69,2.72-1.93,.61-3.3-.07-3.49-2.04-.16-1.63-.31-3.31,.81-4.78,.28-.37,.3-.94,.45-1.47-.8,.06-1.05,.45-1.45,1.12-1.64,2.76-3.79,5.11-6.42,6.97,.05-.17,.43-.32,.04-.51,0,.17-.01,.33-.02,.5-.22,.04-.47,.04-.67,.13-2.42,1.22-3.92,.29-3.87-2.41,0-.26,.31-.52-.07-.86-1.35,.87-2.27,2.34-3.87,2.94-1.96,.74-3.05-.02-2.65-2.16,.39-2.07,.99-4.13,1.74-6.1,.47-1.23,.27-2.1-.56-2.96,0,0,.05,.05,.05,.05,1.45-.28,2.34,.67,2.06,2.3-.17,.99-.36,2.02-.78,2.91-.7,1.48-.9,3.05-1.21,4.81,1.46-.53,2.47-1.36,3.57-2.24,2.92-2.33,4.7-5.83,8.08-7.64,1.64-.88,3.47-1.4,5.1-.59,1.21,.6,1.68,.16,2.2-.58,2.17-3.1,4.29-6.23,6.41-9.36,.15-.23,.14-.58,.46-.69,.47-.17,.64-1.2,1.38-.57,.56,.48,.03,1.03-.21,1.38-2.5,3.72-4.58,7.67-6.67,11.62-.71,1.34-1.44,2.69-1.78,4.19h.04c-.76,1.2-.55,2.53-.43,3.8,.08,.83,.73,1.13,1.53,.75,.94-.45,1.78-1.05,2.56-1.74,2.43-2.15,4.34-4.72,6.09-7.42,.32-.5,.68-.92,1.46-1.02-.05,.87-.12,1.67-.77,2.32,.03,0,.06-.02,.08-.03-.04,0-.07-.01-.11-.02-.27,1.94-1.5,3.57-1.75,5.53-.12,.9-.61,2.29,.06,2.54,.76,.29,1.88-.34,2.76-1.04,3.72-2.96,6.63-6.65,9.62-10.28,.22-.27,.47-.38,.73-.2,.39,.26,.46,.7,.26,1.08-.58,1.12-.67,2.42-1.35,3.51-.32,.51-.72,1.1-.2,1.75,0,0-.07-.04-.07-.04l.04,.06c1.92-2.14,3.83-4.29,6.57-5.42,1.29-.54,2.1,.02,2.06,1.42-.05,1.78-.77,3.31-1.49,4.94-.39,.88-.92,2.27-.64,3.49,.18,.8,.78,.55,1.2,.22,3-2.31,6.15-4.45,8.62-7.4,.85-1.01,1.87-2.05,3.46-1.84-.01,.22-.03,.44-.05,.66,.08-.02,.16-.03,.23-.05-.07-.2-.14-.41-.2-.61,1.03,.32,2.11,.6,2.58,1.74,.32,.79,.64,.4,.94,.03,.5-.62,.96-1.28,1.47-1.89,.34-.4,.54-1.19,1.29-.8,.62,.32,.72,.94,.56,1.64-.67,2.93-1.14,5.91-2.02,8.77-.43,1.4-.21,1.58,1.03,1.33,.01-.02,.03-.04,.05-.06l-.1,.02c1.03-1.48,2.74-2.14,4.04-3.29,1.75-1.54,3.77-2.77,5.21-4.65h0c.78,.94,.12,1.67-.5,2.21-3.06,2.66-5.98,5.53-9.64,7.42-1.47,.76-2.34,2.28-2.71,3.59-.81,2.84-2.52,4.96-4.32,7.11-.02-.03-.04-.05-.06-.08,.03,.03,.06,.07,.09,.1Zm2.33-7.64c-1.73,.34-3.1,1.44-4.44,2.42-1.77,1.31-3.78,2.46-4.79,4.56-.28,.58-1.04,1.35-.29,1.96,.74,.6,1.64,.68,2.65,.15,2.13-1.1,3.71-2.76,4.86-4.74,.79-1.37,2.24-2.52,1.98-4.38,.06-.04,.12-.07,.19-.11-.04,0-.09-.01-.11,0-.03,.04-.03,.09-.05,.14Zm2.58-12.52c-.59,.08-.97-.32-1.37-.63-1.29-1.02-2.52-.97-3.48,.38-.69,.97-1.35,1.99-1.99,3-1.11,1.77-.61,3.85-1.66,5.99,4.51-1.71,6.44-5.33,8.52-8.8-.14,.08-.17,.06-.09-.06,.02,.04,.05,.08,.07,.12Zm-54.79,5.51c.01,.64,.07,1.25,.64,1.41,.77,.22,1.45-.18,2.03-.68,2.52-2.2,4.68-4.73,6.67-7.4,.26-.35,.42-.78,.63-1.18-.7,.13-1-.75-1.81-.6-1.06,.19-1.98,.56-2.84,1.17-.7,.49-1.45,.93-2.06,1.52-1.67,1.62-2.91,3.51-3.26,5.77Zm56.98,3.16s-.02-.1-.03-.14c-.04,.01-.08,.02-.12,.03,.01,.05,.03,.1,.04,.15,.04-.01,.07-.02,.11-.04Zm-25.77-9.55s-.07-.12-.09-.12c-.1,.02-.19,.06-.28,.1,.03,.04,.07,.12,.1,.11,.09-.01,.18-.06,.27-.09Zm6.18,6.89s-.13,.07-.13,.1c.02,.1,.06,.2,.1,.3,.04-.04,.13-.08,.12-.11-.01-.1-.06-.19-.09-.29Zm6.84-2.26s.09-.07,.13-.11c-.1-.05-.19-.11-.29-.14-.03,0-.08,.07-.12,.11,.09,.05,.18,.09,.28,.14Zm-44.3,3.73s-.06-.1-.1-.1c-.03,0-.07,.06-.11,.09,.03,.04,.06,.1,.1,.1,.03,0,.07-.05,.11-.09Zm49.65,5.62l.06-.08h-.09s.03,.08,.03,.08Z"/>
      <path d="M58.38,15.97c.69-.88,1.39-1.75,2.08-2.63,0,0-.08,.08-.08,.08l.04-.06c.57-.68,.84-1.98,1.86-1.8,1.19,.21,.98,1.54,1.08,2.48,.05,.51,.23,.98,.29,1.49,.16,1.6,1.54,2.33,3.14,1.83,.79-.25,1.59-.53,2.49-.42-2.62,2.38-5.03,2.64-6.02,.44-.59-1.32-1.51-2.72-1.34-4.44-.6,.93-1.12,1.93-1.81,2.79-1.9,2.36-3.06,5.18-4.85,7.61-.41,.55-.73,1.4-1.54,1.02-.8-.37-.46-1.17-.22-1.84,.32-.89,1.07-1.65,.91-2.79-1.57,1.01-2.42,2.82-4.3,3.29-.03,0-.05,0-.08,0l.11,.02c-.24,.23-.48,.47-.86,.44-.04-.03-.07-.08-.11-.1-.02,0-.06,.03-.09,.05,.08,0,.16,0,.24,0-1.81,.54-2.71-.08-2.78-1.91-.02-.65-.09-1.3-.16-2.15-1.06,.91-1.93,1.73-2.88,2.44-1.17,.87-2.55,1.64-3.92,.8-1.39-.86-1.38-2.4-1.05-3.9,.15-.67,.27-1.35,.67-1.93,.16-.23,.35-.51-.13-.62-.24-.05-.6-.33-.66,.14-.27,2.17-2.2,2.76-3.69,3.28-2.08,.72-3.74,1.79-5.14,3.4,0,0-.08,.05-.08,.05l.11-.02c-2.37,2.05-4.65,2-5.57-.18-.57-1.35-.71-2.76-.37-4.23,.2-.87,.74-1.67,.61-2.87-2.37,1.84-4.53,3.69-6.85,5.29-3.25,2.24-4.24,6.03-6.46,8.97-1.89,2.49-3.84,4.75-6.74,6.03-.36,.16-.77,.31-1.16,.32-1.03,.02-2.2,.15-2.81-.9-.55-.95-.11-1.93,.43-2.78,1.54-2.42,3.84-4.03,6.13-5.66,2.13-1.52,4.52-2.68,6.44-4.49,.92-.86,1.63-1.91,1.79-3.22,.08-.02,.16-.05,.24-.08-.04,0-.09-.03-.1-.01-.04,.03-.06,.08-.09,.13-2.06,1.59-3.7,3.69-6.1,4.89-.79,.4-1.48,.59-2.27,.24-.89-.4-.71-1.29-.7-1.97,.07-2.58,1.1-4.91,2.34-7.09,.54-.95,.46-2.4,2.18-2.88-.19,3.62-2.41,6.58-2.76,10.1,.97,.03,1.67-.45,2.27-.99,2.7-2.4,5.37-4.83,7.6-7.71,.48-.62,1-1.95,1.87-1.29,.94,.71,.12,1.85-.44,2.7-.09,.14-.26,.22-.4,.33,.04-.03,.09-.06,.13-.09-.04,.03-.09,.05-.13,.08,.4,1.55-1.27,2.38-1.3,3.79,.93,.13,1.29-1.22,2.29-.96,0-.03,.02-.06,.03-.09l-.11,.08c1.43-2.05,3.69-3.09,5.56-4.62,.19-.03,.2-.06,.02-.07,0,0-.02,.09-.03,.13,.85-.86,1.69-1.71,2.79-2.3,.9-.48,1.68-.73,2.49,.06,.04,.04,.09,.14,.09,.14,1.98-1.04,2.21,.75,2.89,1.8,.95,1.47,.04,2.89-.13,4.32-.03,.23-.07,.46-.1,.69-.14,.04-.37,.07-.24,.26,.11,.16,.28,.02,.36-.14,2.03-.32,3.47-1.67,4.82-3.01,1.18-1.17,2.08-2.6,3.12-3.92,.26-.33,.4-.97,1.02-.59,.49,.3,.39,.8,.21,1.25-.58,1.49-1.13,3-1.77,4.46-.37,.84-.63,1.67-.58,2.6,.03,.56-.35,1.34,.23,1.59,.64,.28,1.46,.16,2.07-.41,.66-.62,1.61-.87,2.13-1.69,.17-.27,.5-.51,.88-.22,.02-.02,.04-.04,.06-.06-.03,0-.07,.01-.1,.02-.16-.51,.08-.89,.4-1.24,1.2-1.32,2.21-2.79,3.09-4.34,.31-.54,.65-.83,1.23-.48,.58,.36,.23,.89,.02,1.22-1.2,1.93-1.72,4.07-2.02,6.28-.28,2.12-.09,2.27,1.84,1.47,.05,.12,.1,.23,.15,.34,0-.04,.03-.09,.02-.1-.06-.07-.13-.13-.2-.2,.82-.71,1.65-1.41,2.47-2.12,2.29-1.96,3.67-4.57,5.16-7.11,.24-.42,.47-.95,.94-.81,.6,.18,.51,.84,.43,1.35-.14,.94-1.03,1.68-.74,2.74-.28,.31-.88,.48-.48,1.11,.43-.21,.62-.52,.69-.93ZM5,33.92l.05,.08-.09-.05c.01-.48,.38-.67,.72-.89,2.79-1.86,4.14-4.86,6.33-7.82-1.91,.86-3.11,1.9-4.41,2.78-2.17,1.46-4.29,2.98-5.78,5.21-.24,.36-.77,.64-.31,1.16,.38,.43,.81,.56,1.38,.31,.68-.3,1.4-.52,2.1-.78ZM27.56,14.63c-1.52,1.75-2.37,3.78-2.34,6.03,.01,.79,.17,2.02,1.54,2.09,.67,.04,3.18-1.87,3.26-2.54,.02-.14-.04-.39-.15-.44-2.04-1.13-2.23-3.06-2.31-5.14Zm1.47,1.16c0,.39-.04,.63,0,.85,.17,.89,.5,1.79,1.46,1.96,1.04,.18,.86-1,1.28-1.53,.3-.38,.52-.94,.52-1.43,0-.99-.03-2.07-.93-2.73-.71-.52-1.36-.02-1.85,.45-.76,.71-.16,1.75-.47,2.43ZM1.42,35.4l-.06-.14-.06,.14h.11Zm54.05-15.79c-.05-.08-.09-.16-.15-.22,0,0-.13,.05-.13,.07,0,.09,.04,.18,.07,.27,.07-.04,.14-.08,.22-.12Zm-39.91-1.83s-.09-.11-.12-.1c-.09,.02-.18,.08-.26,.12,.09,.03,.18,.08,.28,.09,.03,0,.07-.07,.11-.11Zm12.38-3.8s-.08-.09-.11-.13c-.04,.04-.12,.08-.12,.12,0,.04,.07,.09,.1,.13,.04-.04,.08-.08,.13-.12Zm.16,2.76l.1,.06v-.1s-.1,.04-.1,.04Z"/>
      <path d="M274.26,22.56c-.97,1.07-2.06,1.94-3.58,1.99-1.37,.05-2.08-.66-2.28-2-.25-1.7,.29-3.34,.32-5.02,.15,.03,.36,.17,.27-.17-.08,.07-.15,.14-.23,.21-1.42,1.48-2.84,2.97-4.26,4.45-.68,.71-1.39,1.4-2.33,1.74-1.12,.41-2.3,.93-3.38,0-.93-.79-1.3-3.4-.7-4.55,.52-.98,.21-2.08,.52-3.08,.19-.07,.37-.14,.56-.21,.12-.1,.23-.2,.35-.29-.08-.03-.19-.11-.25-.08-.19,.1-.15,.26-.06,.4-.19,.07-.38,.14-.57,.21-2.14,2.05-3.96,4.41-6.22,6.34-1.17,1-2.56,1.24-3.78,.82-1.33-.46-1.14-1.98-.91-3.14,.08-.41,.32-.78,.17-1.23,.16,.04,.29,.05,.17-.18-.05,.07-.09,.14-.14,.21-1.38,.4-2.17,1.64-3.4,2.32-2.35,1.3-3.33,1.01-3.58-1.8-2.12,1.53-3.65,3.71-6.17,4.52-.27-.53-.2-1.14,.29-1.35,2.38-1.04,3.74-3.27,5.73-4.75,.69-.52,1.19-1.22,1.55-2.05,.58-1.35,1.69-2.34,2.74-3.33,1.39-1.31,3.43-1.15,4.5,.42,.63,.94,.97,.5,1.41,0,.45-.5,.84-1.07,1.28-1.58,.36-.42,.86-.71,1.36-.33,.54,.41,.32,.9-.08,1.34-1.55,1.69-2.36,3.83-3.55,5.74-.75,1.21-1.55,2.95-.6,3.88,.63,.61,2.19-.71,3.2-1.6,2.82-2.48,5.07-5.43,7.38-8.35,1.09-1.37,2.47-2.55,1.71-4.59-.09-.25,.15-.46,.39-.46,1.96,0,2.65-1.69,3.76-3.03,.42,1.17-.49,1.85-.66,3.06,2.56,0,4.99-.06,7.42,.04,.65,.03,.97-.18,1.26-.63,.19-.28,.31-.63,.53-.88,.61-.67,.83-2.33,1.89-1.8,1.04,.52-.06,1.67-.5,2.31-.73,1.05,.59,1.11,.62,1.9-2.25-.04-2.41,1.93-3.13,3.38-1.58,3.16-3.05,6.37-3.38,9.96-.06,.62-.24,1.32,.44,1.73,.65,.4,1.23-.03,1.78-.3,1.39-.7,1.38-.72,2.09-.26h.05Zm-24.92-5.41c-.07,.11-.14,.22-.21,.33,.03,0,.08,0,.08,0,.03-.09,.05-.18,.07-.27,.02,.01,.03,.03,.05,.04,0-.03,0-.06,.01-.09Zm23.42-8.07l-.03,.1,.06-.06c-.13-.98-.89-.61-1.42-.64-.63-.04-1.27,.09-1.9,.04-4.69-.36-4.71-.35-6.84,3.76-.32,.61-.74,1.17-1.07,1.78-1.12,2.06-1.62,4.32-2.13,6.58-.14,.63-.02,1.36,.48,1.76,.53,.42,1.15,.17,1.76-.17,2.09-1.18,3.64-2.92,5.18-4.71,2.26-2.62,4.04-5.56,5.9-8.45Zm-23.05,5.47c-1-.64-2.07-1.88-3.05-.91-1.6,1.59-3.37,3.2-3.88,5.6-.08,.4-.27,.91,.07,1.14,.41,.28,.81-.09,1.19-.36,2.14-1.52,3.66-3.67,5.67-5.48Zm19.78,1.07c-.09,.13-.22,.25-.25,.39-.04,.21,.13,.27,.28,.18,.12-.07,.19-.22,.26-.34,0,0-.13-.1-.29-.22Zm-21.79,2.52s-.07-.12-.1-.12c-.09,.02-.17,.06-.25,.1,.03,.04,.06,.13,.08,.12,.09-.02,.18-.07,.27-.1Zm24.43-7.02l-.06,.09h.1s-.04-.09-.04-.09Z"/>
      <path d="M98.23,17.58c1.32-.38,1.75-1.68,2.57-2.57,.85-.93,1.59-1.96,2.74-2.55,.32-.16,.5-.75,1-.43,.46,.28,.52,.8,.42,1.23-.25,1.09-.12,2.17-.11,3.26,.01,1.21,.54,1.84,1.71,1.34,.69-.3,.9,.39,1.39,.35l-.05-.05c-.31,1.17-1.28,1.24-2.17,1.09-.71-.11-1.37-.23-1.64-1.37-.29-1.21-.71-2.33-.41-3.59,0-.03,0-.06-.01-.09,0,.04-.01,.08-.02,.13-.48-.37-.63,0-.92,.32-2.46,2.79-4.7,5.75-6.77,8.84-.22,.33-.44,.68-.75,.92-.28,.22-.6,.59-1.07,.26-.47-.33-.52-.74-.31-1.21,1.1-2.51,2.21-5.03,3.32-7.54,.43-.97,.89-1.93,1.2-3.03-1.34,1.84-3.67,2.12-5.23,3.62-.54,.51-.76,.97-.98,1.66-.83,2.69-2.43,4.91-4.42,6.9-.92,.93-2.19,1.19-3.19,1.96-.88,.67-3.64,.06-4.19-.75-.96-1.45-.31-2.79,.74-3.72,2.19-1.95,4.57-3.72,7.27-4.92,.87-.38,1.47-1.03,2.25-1.49,.73-.43,.47-1.3,.23-1.88-.29-.69-1.09-.69-1.68-.42-1.77,.79-3.24,2.04-4.63,3.35-1.62,1.53-3.15,3.16-4.64,4.83-.42,.47-.79,.71-1.27,.37-.53-.36-.58-1.04-.37-1.55,1.6-3.74,3.37-7.42,5.68-10.77,1.82-2.64,3.08-5.63,5.21-8.06,.57-.64,1.09-1.3,1.92-1.99,.16,.96-.35,1.5-.64,2-1.86,3.27-3.8,6.49-5.71,9.73-.86,1.46-1.19,3.25-2.67,4.33,.19-.22,.36-.44,.1-.72-.02-.02-.1-.02-.13,0-.33,.26,.12,.47,.04,.72,.4,.49-.47,.89,0,1.48,1.57-1.28,2.91-2.85,4.7-3.86,.45-.25,.87-.55,1.33-.78,2.4-1.2,3.66-.68,4.61,1.89-.13,.08-.26,.16-.38,.24,.04,.04,.08,.09,.13,.11,.22,.07,.32-.04,.35-.25,1.8-.51,3.11-1.86,4.68-2.75,.81-.46,1.74-1.54,2.56-.89,.76,.6-.13,1.66-.4,2.51-.41,1.3-1.18,2.47-1.36,3.84-.25,.27-.71,.41-.58,1.01,.37-.29,1.08-.31,.54-1.03Zm-7.27,.17c-2.92,1.75-5.49,3.05-7.72,4.93-.88,.74-2.31,2.01-1.76,2.54,.88,.85,2.55,.56,3.77-.28,.05-.03,.09-.08,.14-.1,3.03-1.23,3.79-4.21,5.57-7.09Zm-7.06-5.65s.13-.09,.12-.11c-.04-.1-.1-.18-.15-.27-.04,.04-.13,.09-.12,.11,.04,.1,.1,.18,.15,.27Z"/>
      <path d="M107.95,18.2c.02-.23-.01-.63,.08-.66,2.04-.7,2.63-2.89,4.19-4.06,.56-.42,1.14-.79,1.82-.96,.49-.12,1.17-.29,1.39,.24,.13,.3-.24,.89-.5,1.27-.18,.25-.6,.52-.88,.49-.85-.1-1.81,.26-1.97,.81-.47,1.64-1.96,2.9-1.68,4.81,.15,1.03,.59,.82,1.12,.4,2.05-1.59,3.66-3.6,5.33-5.57,.3-.35,.21-.62-.08-.89-.5-.45-.19-.81,.12-1.18h0c.77,.87,1.27,.66,1.69-.34,.12-.29,.28-.84,.87-.58,.62,.28,.42,.74,.24,1.17-.9,2.15-2.03,4.21-2.06,6.65-.01,.88-.34,2.08,.33,2.45,.76,.42,1.56-.52,2.28-1.06,3.22-2.47,5.73-5.54,8-8.87,.43-.64,.96-1.91,1.85-1.44,1.04,.55-.05,1.51-.28,2.24-.25,.81-.8,1.53-1.14,2.32-.13,.31-.44,.81,.15,1.01,.38,.13,.59-.24,.77-.55,1.26-2.14,3.39-3.04,5.56-3.88,0,0-.05-.05-.05-.05,.34,.8,.18,1.2-.69,1.67-2.35,1.27-4.26,3.15-5.83,5.28-1.04,1.42-2.45,2.55-3.22,4.2-.24,.51-.77,1.15-1.54,.58-.7-.52-.14-1.03,.1-1.5,.66-1.24,1.35-2.45,2.03-3.68-.58-.35-.8,.26-1.19,.2,0-.04,0-.08-.01-.12,0,.03,0,.06,.01,.09-1.44,2.6-3.66,4.26-6.45,5.15-1.12,.36-2.67-1.23-2.61-2.75,.04-1.12,.31-2.23,.47-3.34-1.08-.15-.68,.89-1.1,1.27-.98,.89-1.81,1.93-2.93,2.67-.69,.46-1.45,.94-2.21,.42-.74-.51-1.13-1.32-.95-2.3,.16-.89,.15-1.67-1.07-1.67,0,0,.05,.05,.05,.05Zm18.12-.6h.08s-.13,.04-.12,.03c.03,0,.06,.02,.09,.03-.03,.01-.06,.02-.09,.03l.03-.08Zm2.58-.48s0-.08-.03-.09c-.04-.02-.09-.02-.13-.03,.01,.06,.03,.11,.04,.17,.04-.01,.08-.03,.13-.04Zm-18.95,3.11l-.1-.06v.11s.1-.04,.1-.04Z"/>
      <path d="M297.49,13.31c-1.06-.14-1.79,.65-2.13,1.31-1.56,3.09-4.15,5.45-5.72,8.53-.28,.55-1.02,1.18-1.72,.76-.68-.41-.23-1.2,.02-1.73,.52-1.13,.79-2.38,1.66-3.34-.03-.04-.07-.08-.09-.12-.05-.08,.23-.3-.11-.25,.07,.13,.14,.25,.2,.38-.97-.29-1.22,.64-1.76,1.05-.5,.38-.87,.89-1.42,1.25-.62,.39-.89,.16-1.29-.26-.61-.65,.06-.7,.37-.96,3-2.5,5.41-5.49,7.28-8.91,.3-.55,.68-.92,1.2-.6,.54,.33,.05,.83-.1,1.23-.62,1.66-1.26,3.31-1.89,4.96,.02,.02,.03,.04,.04,.06,0-.03,0-.07,0-.1,1.91-1.44,2.94-3.69,4.85-5.15,.59-.45,1.05-1.29,1.84-.89,.72,.38,.28,1.25,.24,1.9-.06,.86-.31,1.69-.23,2.57,.18,1.82,1.04,2.43,2.77,1.84,.85-.29,2.04-.94,2.37,.07,.25,.78-1.24,.99-1.97,1.24-3.31,1.11-4.94-.74-4.37-4.85,0,0-.05-.08-.05-.08l.02,.11Zm-7.12,5.22c.12,.05,.32,.21,.22-.13-.08,.05-.16,.11-.24,.17l-.05,.07s.05-.07,.07-.11Zm1.56-1s-.05,0-.08,.01c.03,.02,.07,.05,.1,.07l-.19-.11c.06,0,.11,.02,.16,.02Zm-.81,1.88c-.06,.05-.13,.1-.2,.16,.04,.04,.09,.11,.13,.1,.09,0,.19-.05,.28-.08-.07-.06-.13-.12-.2-.18Z"/>
      <path d="M229.18,13.52c-.72-.13-1.1,.58-1.72,.7l.03,.05c.42-.75,.44-1.73,1.52-2.06,1.3-.41,1.89-.04,1.64,1.3-.17,.88-.56,1.73-.88,2.67,1.34,.12,1.37-1.81,2.67-1.57,.18-1.48,1.8-1.52,2.53-2.5,.55-.74,1.43-.29,2.02,.16,.66,.49,.11,1.13,.03,1.73-.43,3.38-3.19,6-3.11,9.55,0,.26,.2,.6-.23,.69-.55,.11-.62-.38-.83-.7-.19-.3-.48-.62,.16-.68,.53-.05,.66-.17,.17-.51-.99-.69-.65-1.45-.25-2.32,.87-1.89,1.66-3.81,2.42-5.74,.11-.27-.1-.66-.16-.99,.04,.02,.07,.03,.11,.05-.03-.02-.06-.04-.1-.06-.07,.15-.1,.35-.22,.45-3.53,2.74-6.34,6.18-9.26,9.51-.46,.52-.97,1.33-1.64,.84-.76-.55-.28-1.38,.12-2.11,1.58-2.86,3.89-5.29,4.92-8.47,.02-.04,.04-.08,.05-.11,0,.05,0,.1-.01,.16Zm7.23-.4c-.08,.06-.15,.11-.22,.17,.08,.03,.17,.08,.25,.09,.03,0,.08-.05,.12-.08-.05-.06-.1-.12-.15-.18Zm-3.18,1.13s-.09-.07-.11-.06c-.16,.06-.16,.15,0,.22,.02,.01,.09-.02,.11-.05,.02-.02,0-.07,0-.11Z"/>
      <path d="M287.68,12.38c-.06,2.23-1.4,3.64-3.1,4.84-1.36,.96-2.84,1.66-4.46,2-.64,.14-.95,.41-.9,1.01,.05,.69,.14,1.42,1.03,1.57,.74,.12,1.48,.44,2.21-.16,.48-.4,1.09-.55,1.71-.21h.05c.34,1.29-.62,1.39-1.49,1.71-2.93,1.07-4.84-.16-5.34-2.73-.97,.61-1.87,1.24-2.49,2.2,0,0,.02-.01,.02-.01-.8-1.02-.43-1.6,.6-2.23,1.89-1.14,2.76-3.12,3.96-4.89,1.29-1.91,2.96-3.79,5.35-4.71,1.52-.59,1.96,.81,2.88,1.31l-.08-.06c-2.12-.36-3.7,.45-5.12,2.02-.88,.98-1.61,2.07-2.41,3.09,.02,.03,.03,.06,.04,.09,0-.04,0-.09-.01-.13,.81,.49,1.59,.17,2.25-.26,1.5-.99,3.05-1.95,3.98-3.58,.3-.52,.53-1.04,1.27-.84l.06-.04Zm-9.3,6.72l-.06,.09h.1s-.04-.09-.04-.09Z"/>
      <path d="M313.04,16.24c-.36,.26-.72,.53-1.09,.76-1.2,.74-2.73,1.31-1.52,3.19,.02,.08,.04,.15,.06,.23-.05,0-.09-.02-.14-.02,.03-.07,.07-.15,.1-.22,.92,1.92,.33,3.92-1.35,5.09-.76,.53-1.44,1.17-2.34,1.48-1.29,.45-2.45,.39-3.45-.74-1.03-1.16-.93-2.35-.11-3.46,.91-1.23,1.81-2.53,3.28-3.22,.86-.41,.79-.75,0-1.24-1.54-.96-2.63-2.13-1.69-4.17,.36-.79,2.57-2.37,3.41-2.19,.54,.12,.69,.47,.33,.87-.3,.34-.74,.55-1.1,.83-.69,.55-2.04,.79-1.16,2.16,.99,1.54,2.68,2.08,3.92,1.48,.89-.43,1.62-1.65,2.88-.8l-.04-.04Zm-3.81,5.27c.24-.74-.19-1.38-.67-1.77-.61-.49-.97,.34-1.41,.63-.96,.64-1.76,1.45-2.54,2.31-.5,.54-1.03,1.01-.56,1.74,.49,.77,1.26,1.08,2.19,.87,1.51-.33,2.94-2.11,2.99-3.77Z"/>
      <path d="M227.46,14.22c-2.21,2.13-4.45,4.22-6.61,6.4-.91,.92-1.63,2.04-2.44,3.07-.31,.39-.53,.99-1.21,.69-.76-.34-.74-1.14-.52-1.66,.59-1.42,1.27-2.82,2.08-4.13,1.58-2.56,3.18-5.12,5.23-7.35,.05-.06,.21-.02,.42-.04-.32,2.37-1.94,4.1-2.9,6.12-.3,.63-.74,1.18-.54,1.93-.13-.03-.21-.41-.4-.07,.13,.02,.27,.04,.4,.05,1.34-1.89,3.1-3.36,4.79-4.91,.61-.56,1.12-.74,1.73-.06,0,0-.03-.04-.03-.04Z"/>
      <path d="M261.03,7.08c-.07,1.54-.94,1.78-2.22,1.28-.95-.37-1.93-.02-2.89-.18-.3-.05-.78,.13-.86-.31-.09-.53,.37-.64,.78-.69,1.72-.2,3.44-.6,5.18-.1Z"/>
      <path d="M168.54,7.54c-.52,.82-.68,2.09-2.14,2.05-.49-.01-.92-.07-.88-.76,.05-.81,1.53-2.65,2.12-2.5,.53,.13,.89,.51,.9,1.21Z"/>
      <path d="M280.02,7.63c-.85,.48-1.7,.71-2.58,.29-.1-.05-.05-.4-.07-.61,.89-.02,1.8-.19,2.65,.32Z"/>
      <path d="M313.08,16.28c.24-.96,.29-1,2.94-2.14-.27,.71-.86,.91-1.35,1.2-.53,.32-1.09,.6-1.63,.89,0,0,.04,.04,.04,.04Z"/>
      <path d="M209.15,15.36c.25,0,.37-.48,.68-.19,.05,.05,.09,.22,.06,.25-.26,.23-.5,.06-.74-.07,0,0,0,0,0,0Z"/>
      <path d="M116.9,12.9c-.19,.05-.37,.1-.56,.15-.01-.05-.02-.1-.03-.15,.2,0,.39,0,.59,0,0,0,0,0,0,0Z"/>
      <path d="M287.7,12.08c-.08,.02-.16,.03-.24,.05,.07,.08,.15,.17,.22,.25,0,0-.06,.04-.06,.04,0-.13,0-.27,0-.4l.08,.06Z"/>
      <path d="M153.76,17.57l-.12,.07s.09-.04,.15-.07c0,0-.03,0-.03,0Z"/>
      <path d="M284.17,21.44s.05-.03,.07-.05c-.01,.02-.02,.03-.03,.05,0,0-.04,0-.04,0Z"/>
      <path d="M274.21,22.55c.23,.02,.46,.03,.7,.05,0,0-.02,.01-.02,.01-.18-.28-.4-.23-.63-.06,0,0-.05,0-.05,0Z"/>
    </g>
  </g>
</svg>